<svg width="287" height="198" viewBox="0 0 287 198" fill="none" xmlns="http://www.w3.org/2000/svg">
<path d="M0.517045 63V45.5455H12.2784V48.5881H4.20739V52.7472H11.6733V55.7898H4.20739V59.9574H12.3125V63H0.517045ZM15.1442 63V49.9091H18.6044V52.2188H18.7578C19.0305 51.4517 19.4851 50.8466 20.1214 50.4034C20.7578 49.9602 21.5192 49.7386 22.4055 49.7386C23.3033 49.7386 24.0675 49.9631 24.6982 50.4119C25.3288 50.8551 25.7493 51.4574 25.9595 52.2188H26.0959C26.3629 51.4688 26.8459 50.8693 27.5447 50.4205C28.2493 49.9659 29.0817 49.7386 30.0419 49.7386C31.2635 49.7386 32.255 50.1278 33.0163 50.9062C33.7834 51.679 34.1669 52.7756 34.1669 54.196V63H30.5447V54.9119C30.5447 54.1847 30.3516 53.6392 29.9652 53.2756C29.5788 52.9119 29.0959 52.7301 28.5163 52.7301C27.8572 52.7301 27.343 52.9403 26.9737 53.3608C26.6044 53.7756 26.4197 54.3239 26.4197 55.0057V63H22.8999V54.8352C22.8999 54.1932 22.7152 53.6818 22.3459 53.3011C21.9822 52.9205 21.5021 52.7301 20.9055 52.7301C20.5021 52.7301 20.1385 52.8324 19.8146 53.0369C19.4964 53.2358 19.2436 53.517 19.0561 53.8807C18.8686 54.2386 18.7749 54.6591 18.7749 55.142V63H15.1442ZM37.0348 67.9091V49.9091H40.6143V52.108H40.7763C40.9354 51.7557 41.1655 51.3977 41.4666 51.0341C41.7734 50.6648 42.1712 50.358 42.6598 50.1136C43.1541 49.8636 43.7678 49.7386 44.5007 49.7386C45.4553 49.7386 46.3359 49.9886 47.1428 50.4886C47.9496 50.983 48.5945 51.7301 49.0774 52.7301C49.5604 53.7244 49.8018 54.9716 49.8018 56.4716C49.8018 57.9318 49.5661 59.1648 49.0945 60.1705C48.6286 61.1705 47.9922 61.929 47.1854 62.446C46.3842 62.9574 45.4865 63.2131 44.4922 63.2131C43.7876 63.2131 43.1882 63.0966 42.6939 62.8636C42.2053 62.6307 41.8047 62.3381 41.4922 61.9858C41.1797 61.6278 40.9411 61.267 40.7763 60.9034H40.6655V67.9091H37.0348ZM40.5888 56.4545C40.5888 57.233 40.6967 57.9119 40.9126 58.4915C41.1286 59.071 41.4411 59.5227 41.8501 59.8466C42.2592 60.1648 42.7564 60.3239 43.3416 60.3239C43.9325 60.3239 44.4325 60.1619 44.8416 59.8381C45.2507 59.5085 45.5604 59.054 45.7706 58.4744C45.9865 57.8892 46.0945 57.2159 46.0945 56.4545C46.0945 55.6989 45.9893 55.0341 45.7791 54.4602C45.5689 53.8864 45.2592 53.4375 44.8501 53.1136C44.4411 52.7898 43.9382 52.6278 43.3416 52.6278C42.7507 52.6278 42.2507 52.7841 41.8416 53.0966C41.4382 53.4091 41.1286 53.8523 40.9126 54.4261C40.6967 55 40.5888 55.6761 40.5888 56.4545ZM55.853 45.5455V63H52.2223V45.5455H55.853ZM64.6761 63.2557C63.3523 63.2557 62.2074 62.9744 61.2415 62.4119C60.2813 61.8437 59.5398 61.054 59.017 60.0426C58.4943 59.0256 58.233 57.8466 58.233 56.5057C58.233 55.1534 58.4943 53.9716 59.017 52.9602C59.5398 51.9432 60.2813 51.1534 61.2415 50.5909C62.2074 50.0227 63.3523 49.7386 64.6761 49.7386C66 49.7386 67.142 50.0227 68.1023 50.5909C69.0682 51.1534 69.8125 51.9432 70.3352 52.9602C70.858 53.9716 71.1193 55.1534 71.1193 56.5057C71.1193 57.8466 70.858 59.0256 70.3352 60.0426C69.8125 61.054 69.0682 61.8437 68.1023 62.4119C67.142 62.9744 66 63.2557 64.6761 63.2557ZM64.6932 60.4432C65.2955 60.4432 65.7983 60.2727 66.2017 59.9318C66.6051 59.5852 66.9091 59.1136 67.1136 58.517C67.3239 57.9205 67.429 57.2415 67.429 56.4801C67.429 55.7188 67.3239 55.0398 67.1136 54.4432C66.9091 53.8466 66.6051 53.375 66.2017 53.0284C65.7983 52.6818 65.2955 52.5085 64.6932 52.5085C64.0852 52.5085 63.5739 52.6818 63.1591 53.0284C62.75 53.375 62.4403 53.8466 62.2301 54.4432C62.0256 55.0398 61.9233 55.7188 61.9233 56.4801C61.9233 57.2415 62.0256 57.9205 62.2301 58.517C62.4403 59.1136 62.75 59.5852 63.1591 59.9318C63.5739 60.2727 64.0852 60.4432 64.6932 60.4432ZM75.2997 67.9091C74.8395 67.9091 74.4077 67.8722 74.0043 67.7983C73.6065 67.7301 73.277 67.642 73.0156 67.5341L73.8338 64.8239C74.2599 64.9545 74.6435 65.0256 74.9844 65.0369C75.331 65.0483 75.6293 64.9688 75.8793 64.7983C76.1349 64.6278 76.3423 64.3381 76.5014 63.929L76.7145 63.375L72.0185 49.9091H75.8366L78.5469 59.5227H78.6832L81.419 49.9091H85.2628L80.1747 64.4148C79.9304 65.1193 79.598 65.733 79.1776 66.2557C78.7628 66.7841 78.2372 67.1903 77.6009 67.4744C76.9645 67.7642 76.1974 67.9091 75.2997 67.9091ZM92.6648 63.2557C91.3182 63.2557 90.1591 62.983 89.1875 62.4375C88.2216 61.8864 87.4773 61.108 86.9545 60.1023C86.4318 59.0909 86.1705 57.8949 86.1705 56.5142C86.1705 55.1676 86.4318 53.9858 86.9545 52.9688C87.4773 51.9517 88.2131 51.1591 89.1619 50.5909C90.1165 50.0227 91.2358 49.7386 92.5199 49.7386C93.3835 49.7386 94.1875 49.8778 94.9318 50.1562C95.6818 50.429 96.3352 50.8409 96.892 51.392C97.4545 51.9432 97.892 52.6364 98.2045 53.4716C98.517 54.3011 98.6733 55.2727 98.6733 56.3864V57.3835H87.6193V55.1335H95.2557C95.2557 54.6108 95.142 54.1477 94.9148 53.7443C94.6875 53.3409 94.3722 53.0256 93.9688 52.7983C93.571 52.5653 93.108 52.4489 92.5795 52.4489C92.0284 52.4489 91.5398 52.5767 91.1136 52.8324C90.6932 53.0824 90.3636 53.4205 90.125 53.8466C89.8864 54.267 89.7642 54.7358 89.7585 55.2528V57.392C89.7585 58.0398 89.8778 58.5994 90.1165 59.071C90.3608 59.5426 90.7045 59.9062 91.1477 60.1619C91.5909 60.4176 92.1165 60.5455 92.7244 60.5455C93.1278 60.5455 93.4972 60.4886 93.8324 60.375C94.1676 60.2614 94.4545 60.0909 94.6932 59.8636C94.9318 59.6364 95.1136 59.358 95.2386 59.0284L98.5966 59.25C98.4261 60.0568 98.0767 60.7614 97.5483 61.3636C97.0256 61.9602 96.3494 62.4261 95.5199 62.7614C94.696 63.0909 93.7443 63.2557 92.6648 63.2557ZM107.009 63.2557C105.662 63.2557 104.503 62.983 103.531 62.4375C102.565 61.8864 101.821 61.108 101.298 60.1023C100.776 59.0909 100.514 57.8949 100.514 56.5142C100.514 55.1676 100.776 53.9858 101.298 52.9688C101.821 51.9517 102.557 51.1591 103.506 50.5909C104.46 50.0227 105.58 49.7386 106.864 49.7386C107.727 49.7386 108.531 49.8778 109.276 50.1562C110.026 50.429 110.679 50.8409 111.236 51.392C111.798 51.9432 112.236 52.6364 112.548 53.4716C112.861 54.3011 113.017 55.2727 113.017 56.3864V57.3835H101.963V55.1335H109.599C109.599 54.6108 109.486 54.1477 109.259 53.7443C109.031 53.3409 108.716 53.0256 108.312 52.7983C107.915 52.5653 107.452 52.4489 106.923 52.4489C106.372 52.4489 105.884 52.5767 105.457 52.8324C105.037 53.0824 104.707 53.4205 104.469 53.8466C104.23 54.267 104.108 54.7358 104.102 55.2528V57.392C104.102 58.0398 104.222 58.5994 104.46 59.071C104.705 59.5426 105.048 59.9062 105.491 60.1619C105.935 60.4176 106.46 60.5455 107.068 60.5455C107.472 60.5455 107.841 60.4886 108.176 60.375C108.511 60.2614 108.798 60.0909 109.037 59.8636C109.276 59.6364 109.457 59.358 109.582 59.0284L112.94 59.25C112.77 60.0568 112.42 60.7614 111.892 61.3636C111.369 61.9602 110.693 62.4261 109.864 62.7614C109.04 63.0909 108.088 63.2557 107.009 63.2557ZM0.517045 74.5455H5.06818L9.875 86.2727H10.0795L14.8864 74.5455H19.4375V92H15.858V80.6392H15.7131L11.196 91.9148H8.75852L4.24148 80.5966H4.09659V92H0.517045V74.5455ZM26.1428 92.2472C25.3075 92.2472 24.5632 92.1023 23.9098 91.8125C23.2564 91.517 22.7393 91.0824 22.3587 90.5085C21.9837 89.929 21.7962 89.2074 21.7962 88.3438C21.7962 87.6165 21.9297 87.0057 22.1967 86.5114C22.4638 86.017 22.8274 85.6193 23.2876 85.3182C23.7479 85.017 24.2706 84.7898 24.8558 84.6364C25.4467 84.483 26.0661 84.375 26.7138 84.3125C27.4751 84.233 28.0888 84.1591 28.5547 84.0909C29.0206 84.017 29.3587 83.9091 29.5689 83.767C29.7791 83.625 29.8842 83.4148 29.8842 83.1364V83.0852C29.8842 82.5455 29.7138 82.1278 29.3729 81.8324C29.0376 81.5369 28.5604 81.3892 27.9411 81.3892C27.2876 81.3892 26.7678 81.5341 26.3814 81.8239C25.995 82.108 25.7393 82.4659 25.6143 82.8977L22.2564 82.625C22.4268 81.8295 22.7621 81.142 23.2621 80.5625C23.7621 79.9773 24.407 79.5284 25.1967 79.2159C25.9922 78.8977 26.9126 78.7386 27.9581 78.7386C28.6854 78.7386 29.3814 78.8239 30.0462 78.9943C30.7166 79.1648 31.3104 79.429 31.8274 79.7869C32.3501 80.1449 32.7621 80.6051 33.0632 81.1676C33.3643 81.7244 33.5149 82.392 33.5149 83.1705V92H30.0717V90.1847H29.9695C29.7592 90.5938 29.478 90.9545 29.1257 91.267C28.7734 91.5739 28.3501 91.8153 27.8558 91.9915C27.3615 92.1619 26.7905 92.2472 26.1428 92.2472ZM27.1825 89.7415C27.7166 89.7415 28.1882 89.6364 28.5973 89.4261C29.0064 89.2102 29.3274 88.9205 29.5604 88.5568C29.7933 88.1932 29.9098 87.7812 29.9098 87.321V85.9318C29.7962 86.0057 29.6399 86.0739 29.4411 86.1364C29.2479 86.1932 29.0291 86.2472 28.7848 86.2983C28.5405 86.3437 28.2962 86.3864 28.0518 86.4261C27.8075 86.4602 27.5859 86.4915 27.3871 86.5199C26.9609 86.5824 26.5888 86.6818 26.2706 86.8182C25.9524 86.9545 25.7053 87.1392 25.5291 87.3722C25.353 87.5994 25.2649 87.8835 25.2649 88.2244C25.2649 88.7188 25.4439 89.0966 25.8018 89.358C26.1655 89.6136 26.6257 89.7415 27.1825 89.7415ZM39.9624 84.4318V92H36.3317V78.9091H39.7919V81.2188H39.9453C40.2351 80.4574 40.7209 79.8551 41.4027 79.4119C42.0845 78.9631 42.9112 78.7386 43.8828 78.7386C44.7919 78.7386 45.5845 78.9375 46.2607 79.3352C46.9368 79.733 47.4624 80.3011 47.8374 81.0398C48.2124 81.7727 48.3999 82.6477 48.3999 83.6648V92H44.7692V84.3125C44.7749 83.5114 44.5703 82.8864 44.1555 82.4375C43.7408 81.983 43.1697 81.7557 42.4425 81.7557C41.9538 81.7557 41.522 81.8608 41.147 82.071C40.7777 82.2812 40.4879 82.5881 40.2777 82.9915C40.0732 83.3892 39.968 83.8693 39.9624 84.4318ZM54.9943 92.2472C54.1591 92.2472 53.4148 92.1023 52.7614 91.8125C52.108 91.517 51.5909 91.0824 51.2102 90.5085C50.8352 89.929 50.6477 89.2074 50.6477 88.3438C50.6477 87.6165 50.7813 87.0057 51.0483 86.5114C51.3153 86.017 51.679 85.6193 52.1392 85.3182C52.5994 85.017 53.1222 84.7898 53.7074 84.6364C54.2983 84.483 54.9176 84.375 55.5653 84.3125C56.3267 84.233 56.9403 84.1591 57.4062 84.0909C57.8722 84.017 58.2102 83.9091 58.4205 83.767C58.6307 83.625 58.7358 83.4148 58.7358 83.1364V83.0852C58.7358 82.5455 58.5653 82.1278 58.2244 81.8324C57.8892 81.5369 57.4119 81.3892 56.7926 81.3892C56.1392 81.3892 55.6193 81.5341 55.233 81.8239C54.8466 82.108 54.5909 82.4659 54.4659 82.8977L51.108 82.625C51.2784 81.8295 51.6136 81.142 52.1136 80.5625C52.6136 79.9773 53.2585 79.5284 54.0483 79.2159C54.8438 78.8977 55.7642 78.7386 56.8097 78.7386C57.5369 78.7386 58.233 78.8239 58.8977 78.9943C59.5682 79.1648 60.1619 79.429 60.679 79.7869C61.2017 80.1449 61.6136 80.6051 61.9148 81.1676C62.2159 81.7244 62.3665 82.392 62.3665 83.1705V92H58.9233V90.1847H58.821C58.6108 90.5938 58.3295 90.9545 57.9773 91.267C57.625 91.5739 57.2017 91.8153 56.7074 91.9915C56.2131 92.1619 55.642 92.2472 54.9943 92.2472ZM56.0341 89.7415C56.5682 89.7415 57.0398 89.6364 57.4489 89.4261C57.858 89.2102 58.179 88.9205 58.4119 88.5568C58.6449 88.1932 58.7614 87.7812 58.7614 87.321V85.9318C58.6477 86.0057 58.4915 86.0739 58.2926 86.1364C58.0994 86.1932 57.8807 86.2472 57.6364 86.2983C57.392 86.3437 57.1477 86.3864 56.9034 86.4261C56.6591 86.4602 56.4375 86.4915 56.2386 86.5199C55.8125 86.5824 55.4403 86.6818 55.1222 86.8182C54.804 86.9545 54.5568 87.1392 54.3807 87.3722C54.2045 87.5994 54.1165 87.8835 54.1165 88.2244C54.1165 88.7188 54.2955 89.0966 54.6534 89.358C55.017 89.6136 55.4773 89.7415 56.0341 89.7415ZM71.081 97.1818C69.9048 97.1818 68.8963 97.0199 68.0554 96.696C67.2202 96.3778 66.5554 95.9432 66.0611 95.392C65.5668 94.8409 65.2457 94.2216 65.098 93.5341L68.456 93.0824C68.5582 93.3438 68.7202 93.5881 68.9418 93.8153C69.1634 94.0426 69.456 94.2244 69.8196 94.3608C70.1889 94.5028 70.6378 94.5739 71.1662 94.5739C71.956 94.5739 72.6065 94.3807 73.1179 93.9943C73.6349 93.6136 73.8935 92.9744 73.8935 92.0767V89.6818H73.7401C73.581 90.0455 73.3423 90.3892 73.0241 90.7131C72.706 91.0369 72.2969 91.3011 71.7969 91.5057C71.2969 91.7102 70.7003 91.8125 70.0071 91.8125C69.0241 91.8125 68.1293 91.5852 67.3224 91.1307C66.5213 90.6705 65.8821 89.9687 65.4048 89.0256C64.9332 88.0767 64.6974 86.8778 64.6974 85.429C64.6974 83.946 64.9389 82.7074 65.4219 81.7131C65.9048 80.7187 66.5469 79.9744 67.348 79.4801C68.1548 78.9858 69.0384 78.7386 69.9986 78.7386C70.7315 78.7386 71.3452 78.8636 71.8395 79.1136C72.3338 79.358 72.7315 79.6648 73.0327 80.0341C73.3395 80.3977 73.5753 80.7557 73.7401 81.108H73.8764V78.9091H77.4815V92.1278C77.4815 93.2415 77.2088 94.1733 76.6634 94.9233C76.1179 95.6733 75.3622 96.2358 74.3963 96.6108C73.4361 96.9915 72.331 97.1818 71.081 97.1818ZM71.1577 89.0852C71.7429 89.0852 72.2372 88.9403 72.6406 88.6506C73.0497 88.3551 73.3622 87.9347 73.5781 87.3892C73.7997 86.8381 73.9105 86.179 73.9105 85.4119C73.9105 84.6449 73.8026 83.9801 73.5866 83.4176C73.3707 82.8494 73.0582 82.4091 72.6491 82.0966C72.2401 81.7841 71.7429 81.6278 71.1577 81.6278C70.5611 81.6278 70.0582 81.7898 69.6491 82.1136C69.2401 82.4318 68.9304 82.875 68.7202 83.4432C68.5099 84.0114 68.4048 84.6676 68.4048 85.4119C68.4048 86.1676 68.5099 86.821 68.7202 87.3722C68.9361 87.9176 69.2457 88.3409 69.6491 88.642C70.0582 88.9375 70.5611 89.0852 71.1577 89.0852ZM86.3366 92.2557C84.9901 92.2557 83.831 91.983 82.8594 91.4375C81.8935 90.8864 81.1491 90.108 80.6264 89.1023C80.1037 88.0909 79.8423 86.8949 79.8423 85.5142C79.8423 84.1676 80.1037 82.9858 80.6264 81.9688C81.1491 80.9517 81.8849 80.1591 82.8338 79.5909C83.7884 79.0227 84.9077 78.7386 86.1918 78.7386C87.0554 78.7386 87.8594 78.8778 88.6037 79.1562C89.3537 79.429 90.0071 79.8409 90.5639 80.392C91.1264 80.9432 91.5639 81.6364 91.8764 82.4716C92.1889 83.3011 92.3452 84.2727 92.3452 85.3864V86.3835H81.2912V84.1335H88.9276C88.9276 83.6108 88.8139 83.1477 88.5866 82.7443C88.3594 82.3409 88.044 82.0256 87.6406 81.7983C87.2429 81.5653 86.7798 81.4489 86.2514 81.4489C85.7003 81.4489 85.2116 81.5767 84.7855 81.8324C84.3651 82.0824 84.0355 82.4205 83.7969 82.8466C83.5582 83.267 83.4361 83.7358 83.4304 84.2528V86.392C83.4304 87.0398 83.5497 87.5994 83.7884 88.071C84.0327 88.5426 84.3764 88.9062 84.8196 89.1619C85.2628 89.4176 85.7884 89.5455 86.3963 89.5455C86.7997 89.5455 87.169 89.4886 87.5043 89.375C87.8395 89.2614 88.1264 89.0909 88.3651 88.8636C88.6037 88.6364 88.7855 88.358 88.9105 88.0284L92.2685 88.25C92.098 89.0568 91.7486 89.7614 91.2202 90.3636C90.6974 90.9602 90.0213 91.4261 89.1918 91.7614C88.3679 92.0909 87.4162 92.2557 86.3366 92.2557ZM94.7145 92V78.9091H98.1747V81.2188H98.3281C98.6009 80.4517 99.0554 79.8466 99.6918 79.4034C100.328 78.9602 101.089 78.7386 101.976 78.7386C102.874 78.7386 103.638 78.9631 104.268 79.4119C104.899 79.8551 105.32 80.4574 105.53 81.2188H105.666C105.933 80.4688 106.416 79.8693 107.115 79.4205C107.82 78.9659 108.652 78.7386 109.612 78.7386C110.834 78.7386 111.825 79.1278 112.587 79.9062C113.354 80.679 113.737 81.7756 113.737 83.196V92H110.115V83.9119C110.115 83.1847 109.922 82.6392 109.536 82.2756C109.149 81.9119 108.666 81.7301 108.087 81.7301C107.428 81.7301 106.913 81.9403 106.544 82.3608C106.175 82.7756 105.99 83.3239 105.99 84.0057V92H102.47V83.8352C102.47 83.1932 102.286 82.6818 101.916 82.3011C101.553 81.9205 101.072 81.7301 100.476 81.7301C100.072 81.7301 99.7088 81.8324 99.3849 82.0369C99.0668 82.2358 98.8139 82.517 98.6264 82.8807C98.4389 83.2386 98.3452 83.6591 98.3452 84.142V92H94.7145ZM122.571 92.2557C121.224 92.2557 120.065 91.983 119.094 91.4375C118.128 90.8864 117.384 90.108 116.861 89.1023C116.338 88.0909 116.077 86.8949 116.077 85.5142C116.077 84.1676 116.338 82.9858 116.861 81.9688C117.384 80.9517 118.119 80.1591 119.068 79.5909C120.023 79.0227 121.142 78.7386 122.426 78.7386C123.29 78.7386 124.094 78.8778 124.838 79.1562C125.588 79.429 126.241 79.8409 126.798 80.392C127.361 80.9432 127.798 81.6364 128.111 82.4716C128.423 83.3011 128.58 84.2727 128.58 85.3864V86.3835H117.526V84.1335H125.162C125.162 83.6108 125.048 83.1477 124.821 82.7443C124.594 82.3409 124.278 82.0256 123.875 81.7983C123.477 81.5653 123.014 81.4489 122.486 81.4489C121.935 81.4489 121.446 81.5767 121.02 81.8324C120.599 82.0824 120.27 82.4205 120.031 82.8466C119.793 83.267 119.67 83.7358 119.665 84.2528V86.392C119.665 87.0398 119.784 87.5994 120.023 88.071C120.267 88.5426 120.611 88.9062 121.054 89.1619C121.497 89.4176 122.023 89.5455 122.631 89.5455C123.034 89.5455 123.403 89.4886 123.739 89.375C124.074 89.2614 124.361 89.0909 124.599 88.8636C124.838 88.6364 125.02 88.358 125.145 88.0284L128.503 88.25C128.332 89.0568 127.983 89.7614 127.455 90.3636C126.932 90.9602 126.256 91.4261 125.426 91.7614C124.602 92.0909 123.651 92.2557 122.571 92.2557ZM134.58 84.4318V92H130.949V78.9091H134.409V81.2188H134.562C134.852 80.4574 135.338 79.8551 136.02 79.4119C136.702 78.9631 137.528 78.7386 138.5 78.7386C139.409 78.7386 140.202 78.9375 140.878 79.3352C141.554 79.733 142.08 80.3011 142.455 81.0398C142.83 81.7727 143.017 82.6477 143.017 83.6648V92H139.386V84.3125C139.392 83.5114 139.188 82.8864 138.773 82.4375C138.358 81.983 137.787 81.7557 137.06 81.7557C136.571 81.7557 136.139 81.8608 135.764 82.071C135.395 82.2812 135.105 82.5881 134.895 82.9915C134.69 83.3892 134.585 83.8693 134.58 84.4318ZM152.842 78.9091V81.6364H144.958V78.9091H152.842ZM146.748 75.7727H150.379V87.9773C150.379 88.3125 150.43 88.5739 150.532 88.7614C150.634 88.9432 150.776 89.071 150.958 89.1449C151.146 89.2187 151.362 89.2557 151.606 89.2557C151.776 89.2557 151.947 89.2415 152.117 89.2131C152.288 89.179 152.418 89.1534 152.509 89.1364L153.08 91.8381C152.898 91.8949 152.643 91.9602 152.313 92.0341C151.984 92.1136 151.583 92.1619 151.112 92.179C150.237 92.2131 149.469 92.0966 148.81 91.8295C148.157 91.5625 147.648 91.1477 147.285 90.5852C146.921 90.0227 146.742 89.3125 146.748 88.4545V75.7727Z" fill="#2B2024"/>
<path d="M236.385 63H145.615C144.392 62.9986 143.219 62.5162 142.353 61.6584C141.488 60.8007 141.001 59.6378 141 58.4248V3.48418C141.001 2.56045 141.372 1.67485 142.031 1.02167C142.689 0.36848 143.583 0.00105454 144.515 0H237.433C238.379 0.00105585 239.285 0.373926 239.954 1.0368C240.623 1.69968 240.999 2.59842 241 3.53586V58.4248C240.999 59.6378 240.512 60.8007 239.647 61.6584C238.781 62.5162 237.608 62.9986 236.385 63Z" fill="white"/>
<path d="M236.385 63H145.615C144.392 62.9986 143.219 62.5162 142.353 61.6584C141.488 60.8007 141.001 59.6378 141 58.4248V3.48418C141.001 2.56045 141.372 1.67485 142.031 1.02167C142.689 0.36848 143.583 0.00105454 144.515 0H237.433C238.379 0.00105585 239.285 0.373926 239.954 1.0368C240.623 1.69968 240.999 2.59842 241 3.53586V58.4248C240.999 59.6378 240.512 60.8007 239.647 61.6584C238.781 62.5162 237.608 62.9986 236.385 63V63ZM144.515 0.989235C143.847 0.990009 143.208 1.25312 142.736 1.72085C142.264 2.18858 141.999 2.82273 141.998 3.48418V58.4248C141.999 59.3755 142.38 60.287 143.059 60.9593C143.737 61.6315 144.656 62.0097 145.615 62.0108H236.385C237.344 62.0097 238.263 61.6315 238.941 60.9593C239.62 60.287 240.001 59.3755 240.002 58.4248V3.53586C240.001 2.86069 239.73 2.21339 239.249 1.73596C238.767 1.25854 238.114 0.989992 237.433 0.989235H144.515Z" fill="#F50057"/>
<path d="M182.229 49H154.771C154.099 48.999 153.45 48.76 152.945 48.3273C152.44 47.8946 152.113 47.2976 152.024 46.6471C152.007 46.5299 151.999 46.4118 152 46.2935V16.7065C152.001 15.9889 152.293 15.301 152.812 14.7936C153.332 14.2862 154.036 14.0008 154.771 14H182.229C182.964 14.0008 183.668 14.2862 184.188 14.7936C184.707 15.301 184.999 15.9889 185 16.7065V46.2935C184.999 47.0111 184.707 47.699 184.188 48.2064C183.668 48.7138 182.964 48.9992 182.229 49V49ZM154.771 15.4763C154.437 15.4766 154.117 15.6064 153.881 15.837C153.644 16.0676 153.512 16.3803 153.511 16.7065V46.2935C153.511 46.3441 153.514 46.3946 153.521 46.4448C153.559 46.7422 153.708 47.0158 153.938 47.2144C154.168 47.4129 154.464 47.5229 154.771 47.5237H182.229C182.563 47.5234 182.883 47.3936 183.12 47.163C183.356 46.9324 183.488 46.6197 183.489 46.2935V16.7065C183.488 16.3803 183.356 16.0676 183.12 15.837C182.883 15.6064 182.563 15.4766 182.229 15.4763H154.771Z" fill="#E6E6E6"/>
<path d="M227.054 39H194.946C194.43 39 193.935 38.7893 193.57 38.4142C193.205 38.0391 193 37.5304 193 37C193 36.4696 193.205 35.9609 193.57 35.5858C193.935 35.2107 194.43 35 194.946 35H227.054C227.57 35 228.065 35.2107 228.43 35.5858C228.795 35.9609 229 36.4696 229 37C229 37.5304 228.795 38.0391 228.43 38.4142C228.065 38.7893 227.57 39 227.054 39Z" fill="#F50057"/>
<path d="M212.091 31H194.909C194.403 31 193.917 30.7893 193.559 30.4142C193.201 30.0391 193 29.5304 193 29C193 28.4696 193.201 27.9609 193.559 27.5858C193.917 27.2107 194.403 27 194.909 27H212.091C212.597 27 213.083 27.2107 213.441 27.5858C213.799 27.9609 214 28.4696 214 29C214 29.5304 213.799 30.0391 213.441 30.4142C213.083 30.7893 212.597 31 212.091 31Z" fill="#E6E6E6"/>
<path d="M178 30.2225C178 34.6308 173.747 33.964 168.5 33.964C163.253 33.964 159 34.6308 159 30.2225C159 25.8141 161.078 18 168.5 18C176.178 18 178 25.8141 178 30.2225Z" fill="#2F2E41"/>
<path d="M178.115 38.485C177.95 37.9907 177.622 37.5733 177.189 37.3075C177.106 37.2541 177.018 37.2077 176.928 37.1688C176.548 37.0045 176.131 36.9589 175.727 37.0375C175.323 37.1162 174.949 37.3157 174.652 37.6117C174.356 37.9077 174.148 38.2874 174.055 38.7043C173.962 39.1212 173.987 39.5574 174.129 39.9593L177.526 48H182L178.115 38.485Z" fill="#3F3D56"/>
<path d="M162.686 38.236C162.391 38.0907 162.069 38.0106 161.741 38.001C161.414 37.9914 161.088 38.0524 160.785 38.1802C160.482 38.3079 160.209 38.4995 159.983 38.7423C159.758 38.9851 159.586 39.2736 159.478 39.589L156 47.9241C156.178 47.9748 156.362 48.0003 156.547 48H160.911L163.86 41.1749C164.057 40.624 164.046 40.0182 163.829 39.4752C163.612 38.9321 163.205 38.4905 162.686 38.236V38.236Z" fill="#3F3D56"/>
<path d="M168.5 34C172.09 34 175 31.3137 175 28C175 24.6863 172.09 22 168.5 22C164.91 22 162 24.6863 162 28C162 31.3137 164.91 34 168.5 34Z" fill="#FFB8B8"/>
<path d="M176.786 37.1224C176.751 37.0899 176.717 37.0549 176.68 37.025C176.26 36.6395 175.763 36.3513 175.224 36.1801C174.684 36.009 174.114 35.959 173.554 36.0336L162.455 37.4645C161.438 37.5925 160.511 38.119 159.869 38.932C159.227 39.7451 158.922 40.7809 159.017 41.8195C159.169 43.5625 159.414 45.7625 159.807 48H177.34L177.985 40.3687C178.037 39.7706 177.956 39.1684 177.748 38.6064C177.541 38.0445 177.212 37.5373 176.786 37.1224V37.1224Z" fill="#3F3D56"/>
<path d="M161 28H163.556L164.684 24.7692L164.91 28H166.132L166.789 26.1154L166.921 28H176C176 26.1435 175.279 24.363 173.996 23.0503C172.713 21.7375 170.973 21 169.158 21H167.842C166.027 21 164.287 21.7375 163.004 23.0503C161.721 24.363 161 26.1435 161 28V28Z" fill="#2F2E41"/>
<path d="M168.229 149.472V84.2044C168.23 83.0897 168.673 82.021 169.461 81.2328C170.249 80.4446 171.318 80.0013 172.433 80H281.96C283.058 80.0013 284.111 80.4382 284.888 81.2148C285.665 81.9915 286.102 83.0446 286.103 84.143V149.472C286.101 150.914 285.527 152.297 284.508 153.317C283.488 154.337 282.105 154.91 280.662 154.912H173.669C172.226 154.91 170.844 154.337 169.824 153.317C168.804 152.297 168.23 150.914 168.229 149.472V149.472Z" fill="white"/>
<path d="M168.229 149.472V84.2044C168.23 83.0897 168.673 82.021 169.461 81.2328C170.249 80.4446 171.318 80.0013 172.433 80H281.96C283.058 80.0013 284.111 80.4382 284.888 81.2148C285.665 81.9915 286.102 83.0446 286.103 84.143V149.472C286.101 150.914 285.527 152.297 284.508 153.317C283.488 154.337 282.105 154.91 280.662 154.912H173.669C172.226 154.91 170.844 154.337 169.824 153.317C168.804 152.297 168.23 150.914 168.229 149.472V149.472ZM172.433 81.1763C171.63 81.1772 170.86 81.4965 170.293 82.0642C169.725 82.6319 169.406 83.4016 169.405 84.2044V149.472C169.406 150.602 169.856 151.686 170.655 152.485C171.454 153.285 172.538 153.734 173.669 153.736H280.662C281.793 153.734 282.877 153.285 283.676 152.485C284.476 151.686 284.925 150.602 284.926 149.472V84.143C284.926 83.3564 284.613 82.6024 284.057 82.0462C283.5 81.4901 282.746 81.1772 281.96 81.1763H172.433Z" fill="#E6E6E6"/>
<path d="M234.02 135.137V99.7748C234.021 98.9172 234.362 98.095 234.968 97.4885C235.574 96.8821 236.397 96.541 237.254 96.54H269.314C270.171 96.541 270.994 96.8821 271.6 97.4885C272.206 98.095 272.548 98.9172 272.548 99.7748V135.137C272.549 135.278 272.54 135.419 272.521 135.559C272.417 136.337 272.035 137.05 271.445 137.567C270.855 138.085 270.098 138.37 269.314 138.371H237.254C236.397 138.37 235.574 138.029 234.968 137.423C234.362 136.816 234.021 135.994 234.02 135.137V135.137ZM237.254 98.3045C236.864 98.3049 236.491 98.46 236.215 98.7356C235.939 99.0113 235.784 99.385 235.784 99.7748V135.137C235.784 135.526 235.939 135.9 236.215 136.176C236.491 136.451 236.864 136.607 237.254 136.607H269.314C269.672 136.606 270.018 136.475 270.286 136.237C270.555 136 270.728 135.673 270.773 135.317C270.781 135.257 270.785 135.197 270.784 135.137V99.7748C270.784 99.385 270.629 99.0113 270.353 98.7356C270.077 98.46 269.704 98.3049 269.314 98.3045H237.254Z" fill="#E6E6E6"/>
<path d="M181.781 124.521C181.782 123.898 182.03 123.3 182.471 122.859C182.912 122.418 183.51 122.17 184.134 122.169H222.951C223.575 122.169 224.173 122.417 224.614 122.858C225.056 123.299 225.303 123.898 225.303 124.521C225.303 125.145 225.056 125.744 224.614 126.185C224.173 126.626 223.575 126.874 222.951 126.874H184.134C183.51 126.873 182.912 126.625 182.471 126.184C182.03 125.743 181.782 125.145 181.781 124.521V124.521Z" fill="#E6E6E6"/>
<path d="M181.781 114.522C181.782 113.899 182.03 113.301 182.471 112.86C182.912 112.419 183.51 112.171 184.134 112.17H205.307C205.931 112.17 206.529 112.418 206.97 112.859C207.411 113.3 207.659 113.899 207.659 114.522C207.659 115.146 207.411 115.745 206.97 116.186C206.529 116.627 205.931 116.875 205.307 116.875H184.134C183.51 116.874 182.912 116.626 182.471 116.185C182.03 115.744 181.782 115.146 181.781 114.522Z" fill="#E6E6E6"/>
<path d="M245.361 110.283C247.422 114.336 249.047 118.517 253.595 118.517C255.779 118.517 257.873 117.649 259.417 116.105C260.961 114.561 261.829 112.466 261.829 110.283C261.829 108.099 260.961 106.005 259.417 104.46C257.873 102.916 255.779 102.049 253.595 102.049C248.973 101.991 241.524 102.738 245.361 110.283Z" fill="#2F2E41"/>
<path d="M253.189 118.676C257.178 118.676 260.412 115.442 260.412 111.453C260.412 107.464 257.178 104.23 253.189 104.23C249.2 104.23 245.967 107.464 245.967 111.453C245.967 115.442 249.2 118.676 253.189 118.676Z" fill="#A0616A"/>
<path d="M263.05 124.619C262.585 124.112 262.078 123.643 261.536 123.219C259.165 121.361 256.194 120.44 253.187 120.631C253.067 120.637 252.946 120.646 252.826 120.658C251.085 120.797 249.393 121.305 247.864 122.149C246.335 122.993 245.003 124.152 243.957 125.551C242.894 126.971 242.147 128.601 241.766 130.333C241.385 132.065 241.378 133.859 241.745 135.594C241.825 135.961 241.895 136.332 241.963 136.702H265.906L266.182 134.85C266.459 133.019 266.321 131.149 265.779 129.378C265.237 127.608 264.304 125.981 263.05 124.619V124.619Z" fill="#3F3D56"/>
<path d="M266.716 126.551C266.547 125.585 266.045 124.708 265.297 124.074C264.548 123.44 263.601 123.089 262.62 123.081C262.582 123.081 262.54 123.084 262.502 123.084C262.176 123.091 261.851 123.137 261.535 123.219C261.003 123.361 260.505 123.605 260.068 123.94C259.632 124.274 259.266 124.691 258.991 125.168C258.716 125.644 258.538 126.17 258.467 126.715C258.396 127.26 258.433 127.814 258.576 128.345L260.838 136.702H268.448L266.716 126.551Z" fill="#3F3D56"/>
<path d="M249.97 124.361C249.683 123.797 249.272 123.307 248.767 122.926C248.41 122.656 248.01 122.447 247.585 122.308C247.411 122.249 247.233 122.201 247.053 122.167C246.069 121.981 245.051 122.152 244.183 122.651C243.315 123.149 242.654 123.941 242.318 124.884L238.178 136.703H246.035L250.043 128.01C250.31 127.437 250.443 126.809 250.43 126.177C250.417 125.544 250.26 124.923 249.97 124.361V124.361Z" fill="#3F3D56"/>
<path d="M245.525 107.372C247.176 108.509 249.135 109.115 251.139 109.107C250.424 109.602 249.61 109.937 248.753 110.088C251.419 110.66 254.173 110.675 256.844 110.134C257.438 110.038 258.011 109.842 258.538 109.552C258.801 109.405 259.03 109.205 259.21 108.964C259.39 108.723 259.517 108.447 259.584 108.154C259.761 107.14 258.971 106.218 258.15 105.597C256.892 104.661 255.443 104.016 253.906 103.709C252.368 103.402 250.782 103.44 249.262 103.821C248.269 104.078 247.274 104.511 246.629 105.309C245.984 106.106 245.793 107.335 246.408 108.156L245.525 107.372Z" fill="#2F2E41"/>
<path d="M207.547 197.258H100.554C99.1112 197.256 97.7284 196.682 96.7085 195.662C95.6886 194.642 95.1149 193.26 95.1133 191.817V126.489C95.1145 125.39 95.5514 124.337 96.328 123.561C97.1047 122.784 98.1577 122.347 99.2561 122.346H208.783C209.898 122.347 210.967 122.79 211.755 123.579C212.543 124.367 212.986 125.435 212.988 126.55V191.817C212.986 193.26 212.412 194.642 211.392 195.662C210.372 196.682 208.99 197.256 207.547 197.258V197.258Z" fill="white"/>
<path d="M207.547 197.258H100.554C99.1112 197.256 97.7284 196.682 96.7085 195.662C95.6886 194.642 95.1149 193.26 95.1133 191.817V126.489C95.1145 125.39 95.5514 124.337 96.328 123.561C97.1047 122.784 98.1577 122.347 99.2561 122.346H208.783C209.898 122.347 210.967 122.79 211.755 123.579C212.543 124.367 212.986 125.435 212.988 126.55V191.817C212.986 193.26 212.412 194.642 211.392 195.662C210.372 196.682 208.99 197.256 207.547 197.258V197.258ZM99.2561 123.522C98.4696 123.523 97.7155 123.836 97.1594 124.392C96.6033 124.948 96.2904 125.702 96.2896 126.489V191.817C96.2908 192.948 96.7405 194.032 97.5399 194.831C98.3393 195.63 99.4231 196.08 100.554 196.081H207.547C208.678 196.08 209.762 195.63 210.561 194.831C211.36 194.032 211.81 192.948 211.811 191.817V126.55C211.81 125.747 211.491 124.978 210.923 124.41C210.356 123.842 209.586 123.523 208.783 123.522H99.2561Z" fill="#3F3D56"/>
<path d="M143.962 180.717H111.903C111.118 180.716 110.361 180.43 109.771 179.913C109.182 179.396 108.8 178.682 108.696 177.905C108.676 177.765 108.667 177.624 108.668 177.482V142.121C108.669 141.263 109.01 140.441 109.617 139.834C110.223 139.228 111.045 138.887 111.903 138.886H143.962C144.82 138.887 145.642 139.228 146.248 139.834C146.855 140.441 147.196 141.263 147.197 142.121V177.482C147.196 178.34 146.855 179.162 146.248 179.769C145.642 180.375 144.82 180.716 143.962 180.717V180.717ZM111.903 140.65C111.513 140.651 111.139 140.806 110.864 141.081C110.588 141.357 110.433 141.731 110.432 142.121V177.482C110.432 177.543 110.436 177.603 110.444 177.663C110.489 178.019 110.662 178.346 110.93 178.583C111.199 178.82 111.544 178.952 111.903 178.953H143.962C144.352 178.952 144.726 178.797 145.001 178.522C145.277 178.246 145.432 177.872 145.433 177.482V142.121C145.432 141.731 145.277 141.357 145.001 141.081C144.726 140.806 144.352 140.651 143.962 140.65H111.903Z" fill="#E6E6E6"/>
<path d="M127.466 145.351C125.379 144.38 122.816 144.062 120.693 144.964C118.569 145.866 117.121 148.179 117.808 150.225C118.119 151.153 118.829 152.066 118.552 153.003C118.34 153.724 117.598 154.2 116.869 154.539C116.141 154.878 115.344 155.162 114.817 155.733C114.291 156.304 114.181 157.288 114.839 157.73C115.056 157.876 115.327 157.946 115.537 158.099C115.716 158.245 115.845 158.443 115.907 158.665C115.968 158.888 115.958 159.124 115.879 159.341C115.704 159.777 115.414 160.158 115.041 160.444C114.294 161.088 113.306 161.826 113.538 162.74C113.624 162.985 113.768 163.205 113.957 163.382C114.147 163.559 114.376 163.688 114.626 163.757C115.144 163.907 115.682 163.978 116.221 163.968L138.267 164.662C138.994 164.717 139.726 164.676 140.443 164.541C140.792 164.477 141.124 164.342 141.418 164.145C141.712 163.947 141.962 163.691 142.153 163.392C142.575 162.611 142.298 161.648 141.776 160.919C141.255 160.189 140.517 159.613 139.907 158.943C139.298 158.273 138.799 157.437 138.906 156.571C138.992 155.878 139.45 155.279 139.778 154.649C140.106 154.019 140.297 153.232 139.872 152.652C139.273 151.836 137.835 151.91 137.154 151.149C136.64 150.575 136.739 149.748 136.688 149.008C136.565 147.226 135.332 145.544 133.576 144.763C132.684 144.38 131.713 144.215 130.744 144.281C129.775 144.347 128.835 144.642 128.003 145.143L127.466 145.351Z" fill="#2F2E41"/>
<path d="M128.283 164.491C132.272 164.491 135.506 161.257 135.506 157.269C135.506 153.28 132.272 150.046 128.283 150.046C124.294 150.046 121.061 153.28 121.061 157.269C121.061 161.257 124.294 164.491 128.283 164.491Z" fill="#A0616A"/>
<path d="M137.765 173.819C137.758 172.553 137.407 171.313 136.75 170.23C136.094 169.148 135.156 168.264 134.036 167.673C133.945 167.623 133.851 167.579 133.757 167.535C132.944 167.149 132.064 166.926 131.166 166.876L124.291 166.491C123.32 166.435 122.348 166.585 121.438 166.929C121.217 167.011 121 167.106 120.788 167.211C120.124 167.539 119.516 167.97 118.989 168.49C118.294 169.176 117.75 170 117.393 170.909C117.035 171.817 116.871 172.791 116.912 173.766L117.036 176.68L117.901 178.924H137.124C137.362 178.635 137.569 178.322 137.741 177.989C138.067 177.343 138.239 176.63 138.243 175.907C138.247 175.183 138.084 174.469 137.765 173.819V173.819Z" fill="#3F3D56"/>
<path d="M137.295 169.954C136.981 169.274 136.489 168.69 135.872 168.266C135.426 167.961 134.926 167.743 134.398 167.625C134.187 167.579 133.973 167.548 133.757 167.534C133.333 167.505 132.906 167.542 132.493 167.643C131.875 167.796 131.301 168.088 130.813 168.496C130.325 168.904 129.936 169.418 129.676 169.998C129.416 170.579 129.291 171.211 129.311 171.846C129.33 172.482 129.494 173.105 129.79 173.668L132.434 178.673L132.566 178.923H141.444L137.295 169.954Z" fill="#3F3D56"/>
<path d="M122.764 167.346C122.349 167.135 121.9 166.993 121.438 166.929C121.094 166.88 120.745 166.875 120.4 166.914C119.522 167.013 118.697 167.388 118.044 167.984C117.391 168.581 116.944 169.368 116.765 170.234L114.975 178.924H121.979L123.288 178.388L124.917 172.137C125.154 171.212 125.07 170.235 124.679 169.365C124.288 168.494 123.613 167.783 122.764 167.346Z" fill="#3F3D56"/>
<path d="M120.893 156.242C123.174 156.059 125.068 153.78 124.831 151.504C124.804 152.442 125.123 153.357 125.727 154.076C126.331 154.794 127.178 155.265 128.107 155.399C129.153 155.515 130.3 155.198 131.211 155.726C132.219 156.31 132.542 157.73 133.593 158.235C134.608 158.723 135.898 158.058 136.399 157.049C136.901 156.04 136.778 154.829 136.446 153.752C135.972 152.218 135.108 150.832 133.94 149.729C132.771 148.627 131.338 147.846 129.778 147.461C128.218 147.077 126.585 147.103 125.039 147.537C123.492 147.971 122.084 148.798 120.951 149.937C119.992 150.902 119.231 152.131 119.107 153.486C118.984 154.84 119.612 156.31 120.829 156.919L120.893 156.242Z" fill="#2F2E41"/>
<path d="M197.082 169.22H158.265C157.641 169.22 157.042 168.972 156.601 168.531C156.16 168.09 155.912 167.491 155.912 166.867C155.912 166.243 156.16 165.645 156.601 165.204C157.042 164.763 157.641 164.515 158.265 164.515H197.082C197.706 164.515 198.304 164.763 198.745 165.204C199.186 165.645 199.434 166.243 199.434 166.867C199.434 167.491 199.186 168.09 198.745 168.531C198.304 168.972 197.706 169.22 197.082 169.22Z" fill="#E6E6E6"/>
<path d="M179.438 159.221H158.265C157.641 159.221 157.042 158.973 156.601 158.532C156.16 158.09 155.912 157.492 155.912 156.868C155.912 156.244 156.16 155.646 156.601 155.205C157.042 154.763 157.641 154.516 158.265 154.516H179.438C180.062 154.516 180.66 154.763 181.101 155.205C181.542 155.646 181.79 156.244 181.79 156.868C181.79 157.492 181.542 158.09 181.101 158.532C180.66 158.973 180.062 159.221 179.438 159.221Z" fill="#F50057"/>
<path d="M190.797 176.402C188.743 176.406 186.773 177.225 185.322 178.679C183.87 180.134 183.055 182.104 183.055 184.159C183.055 186.214 183.87 188.185 185.322 189.639C186.773 191.093 188.742 191.912 190.797 191.916C192.852 191.912 194.821 191.094 196.273 189.639C197.725 188.185 198.54 186.214 198.54 184.159C198.54 182.104 197.725 180.134 196.273 178.679C194.821 177.225 192.852 176.406 190.797 176.402Z" fill="#F50057"/>
<path d="M226.5 7C225.04 7.00269 223.641 7.58333 222.61 8.61448C221.579 9.64564 221 11.043 221 12.5C221 13.9569 221.579 15.3543 222.61 16.3855C223.641 17.4166 225.04 17.9973 226.5 18C227.96 17.9973 229.359 17.4167 230.39 16.3855C231.421 15.3543 232 13.9569 232 12.5C232 11.0431 231.421 9.64565 230.39 8.61449C229.359 7.58334 227.96 7.00269 226.5 7Z" fill="#F50057"/>
<path d="M190.062 187.38C189.858 187.38 189.659 187.314 189.496 187.192L189.486 187.184L187.353 185.552C187.153 185.399 187.023 185.173 186.991 184.924C186.958 184.675 187.025 184.423 187.178 184.224C187.331 184.025 187.557 183.894 187.806 183.861C188.055 183.828 188.307 183.895 188.506 184.048L189.888 185.107L193.153 180.848C193.229 180.749 193.323 180.666 193.431 180.604C193.538 180.541 193.657 180.501 193.781 180.485C193.904 180.468 194.029 180.477 194.15 180.509C194.27 180.541 194.383 180.596 194.481 180.672C194.681 180.825 194.812 181.051 194.845 181.3C194.877 181.55 194.81 181.802 194.657 182.001L190.817 187.009C190.728 187.124 190.614 187.218 190.483 187.282C190.352 187.346 190.209 187.379 190.063 187.379L190.062 187.38Z" fill="white"/>
<path d="M225.957 15C225.827 15.0002 225.701 14.9524 225.597 14.8637L225.59 14.8582L224.235 13.6763C224.109 13.5654 224.026 13.4018 224.005 13.2214C223.984 13.041 224.027 12.8586 224.124 12.7142C224.221 12.5698 224.365 12.4753 224.523 12.4513C224.681 12.4274 224.841 12.476 224.968 12.5865L225.846 13.3539L227.92 10.2688C227.968 10.1972 228.028 10.1372 228.097 10.0921C228.165 10.047 228.241 10.0177 228.319 10.0059C228.397 9.99411 228.477 10 228.553 10.0233C228.63 10.0466 228.701 10.0868 228.764 10.1417C228.891 10.2526 228.974 10.4163 228.995 10.5968C229.016 10.7772 228.973 10.9597 228.876 11.1042L226.436 14.7314C226.38 14.815 226.307 14.8826 226.224 14.9291C226.141 14.9755 226.05 14.9995 225.957 14.9992L225.957 15Z" fill="white"/>
</svg>
