<svg width="310" height="196" viewBox="0 0 310 196" fill="none" xmlns="http://www.w3.org/2000/svg">
<mask id="mask0_0_1" style="mask-type:alpha" maskUnits="userSpaceOnUse" x="-26" y="-27" width="332" height="231">
<rect x="-26" y="-27" width="332" height="231" rx="31" fill="white"/>
</mask>
<g mask="url(#mask0_0_1)">
<path d="M193.463 177H78.5373C77.8646 176.999 77.2197 176.732 76.744 176.256C76.2683 175.78 76.0008 175.135 76 174.462V107.538C76.0008 106.865 76.2683 106.22 76.744 105.744C77.2197 105.268 77.8646 105.001 78.5373 105H193.463C194.135 105.001 194.78 105.268 195.256 105.744C195.732 106.22 195.999 106.865 196 107.538V174.462C195.999 175.135 195.732 175.78 195.256 176.256C194.78 176.732 194.135 176.999 193.463 177V177Z" fill="#E6E6E6"/>
<path d="M200 187H71V100.856C71.0009 100.099 71.2993 99.3731 71.8299 98.8376C72.3605 98.3021 73.0799 98.0009 73.8303 98H197.17C197.92 98.0009 198.64 98.3021 199.17 98.8376C199.701 99.3731 199.999 100.099 200 100.856V187ZM71.5958 186.399H199.404V100.856C199.404 100.259 199.168 99.6853 198.749 99.2626C198.33 98.8398 197.762 98.602 197.17 98.6014H73.8303C73.2378 98.602 72.6699 98.8398 72.251 99.2626C71.8321 99.6853 71.5965 100.259 71.5958 100.856V186.399Z" fill="#CCCCCC"/>
<path d="M136 103C136.552 103 137 102.552 137 102C137 101.448 136.552 101 136 101C135.448 101 135 101.448 135 102C135 102.552 135.448 103 136 103Z" fill="#E6E6E6"/>
<path d="M164.49 163H107.51C106.844 162.999 106.206 162.735 105.736 162.266C105.265 161.797 105.001 161.16 105 160.497V122.503C105.001 121.84 105.265 121.203 105.736 120.734C106.206 120.265 106.844 120.001 107.51 120H164.49C165.156 120.001 165.794 120.265 166.264 120.734C166.735 121.203 166.999 121.84 167 122.503V160.497C166.999 161.16 166.735 161.797 166.264 162.266C165.794 162.735 165.156 162.999 164.49 163V163Z" fill="white"/>
<path d="M116.5 136C116.006 136 115.522 135.853 115.111 135.579C114.7 135.304 114.38 134.914 114.19 134.457C114.001 134 113.952 133.497 114.048 133.012C114.144 132.527 114.383 132.082 114.732 131.732C115.082 131.383 115.527 131.145 116.012 131.048C116.497 130.952 117 131.001 117.457 131.19C117.914 131.38 118.304 131.7 118.579 132.111C118.853 132.522 119 133.006 119 133.5C118.999 134.163 118.736 134.798 118.267 135.267C117.798 135.736 117.163 135.999 116.5 136V136Z" fill="#CCCCCC"/>
<path d="M116.5 144C116.006 144 115.522 143.853 115.111 143.579C114.7 143.304 114.38 142.914 114.19 142.457C114.001 142 113.952 141.497 114.048 141.012C114.144 140.527 114.383 140.082 114.732 139.732C115.082 139.383 115.527 139.145 116.012 139.048C116.497 138.952 117 139.001 117.457 139.19C117.914 139.38 118.304 139.7 118.579 140.111C118.853 140.522 119 141.006 119 141.5C118.999 142.163 118.736 142.798 118.267 143.267C117.798 143.736 117.163 143.999 116.5 144V144Z" fill="#F50057"/>
<path d="M116.5 151C116.006 151 115.522 150.883 115.111 150.663C114.7 150.443 114.38 150.131 114.19 149.765C114.001 149.4 113.952 148.998 114.048 148.61C114.144 148.222 114.383 147.865 114.732 147.586C115.082 147.306 115.527 147.116 116.012 147.038C116.497 146.961 117 147.001 117.457 147.152C117.914 147.304 118.304 147.56 118.579 147.889C118.853 148.218 119 148.604 119 149C118.999 149.53 118.736 150.039 118.267 150.414C117.798 150.788 117.163 150.999 116.5 151V151Z" fill="#F50057"/>
<path d="M127.901 132C127.397 132 126.913 132.211 126.557 132.586C126.2 132.961 126 133.47 126 134C126 134.53 126.2 135.039 126.557 135.414C126.913 135.789 127.397 136 127.901 136H155.099C155.603 136 156.087 135.789 156.443 135.414C156.8 135.039 157 134.53 157 134C157 133.47 156.8 132.961 156.443 132.586C156.087 132.211 155.603 132 155.099 132H127.901Z" fill="#CCCCCC"/>
<path d="M127.901 139C127.397 139 126.913 139.211 126.557 139.586C126.2 139.961 126 140.47 126 141C126 141.53 126.2 142.039 126.557 142.414C126.913 142.789 127.397 143 127.901 143H155.099C155.603 143 156.087 142.789 156.443 142.414C156.8 142.039 157 141.53 157 141C157 140.47 156.8 139.961 156.443 139.586C156.087 139.211 155.603 139 155.099 139H127.901Z" fill="#F50057"/>
<path d="M127.901 147C127.397 147 126.913 147.211 126.557 147.586C126.2 147.961 126 148.47 126 149C126 149.53 126.2 150.039 126.557 150.414C126.913 150.789 127.397 151 127.901 151H155.099C155.603 151 156.087 150.789 156.443 150.414C156.8 150.039 157 149.53 157 149C157 148.47 156.8 147.961 156.443 147.586C156.087 147.211 155.603 147 155.099 147H127.901Z" fill="#F50057"/>
<path d="M303.554 189L297.456 188.896L294.949 165L303.949 165.153L303.554 189Z" fill="#FFB8B8"/>
<path d="M292.741 187.394L304.667 187.594L304.541 195.103L285.106 194.776C285.123 193.79 285.333 192.817 285.726 191.912C286.119 191.008 286.686 190.189 287.395 189.504C288.104 188.818 288.941 188.279 289.858 187.917C290.775 187.555 291.755 187.377 292.741 187.394V187.394Z" fill="#2F2E41"/>
<path d="M241.806 189L235.949 186.728L242.306 164L250.949 167.353L241.806 189Z" fill="#FFB8B8"/>
<path d="M232.779 183.667L243.835 188.143L241.018 195.104L223.001 187.811C223.748 185.965 225.198 184.491 227.032 183.714C228.866 182.937 230.933 182.92 232.779 183.667Z" fill="#2F2E41"/>
<path d="M262.743 99.4396L244.536 147.394L236.949 180.709L245.042 184.748L281.963 113.069L295.618 185H303.711C303.711 185 307.411 99.6847 302.02 93L262.743 99.4396Z" fill="#2F2E41"/>
<path d="M239.949 152C247.681 152 253.949 145.732 253.949 138C253.949 130.268 247.681 124 239.949 124C232.217 124 225.949 130.268 225.949 138C225.949 145.732 232.217 152 239.949 152Z" fill="#F50057"/>
<path d="M238.652 144L233.949 138.524L236.684 136.598L238.911 139.19L246.433 132L248.949 134.158L238.652 144Z" fill="white"/>
<path d="M271.449 34C280.562 34 287.949 26.3888 287.949 17C287.949 7.61116 280.562 0 271.449 0C262.337 0 254.949 7.61116 254.949 17C254.949 26.3888 262.337 34 271.449 34Z" fill="#2F2E41"/>
<path d="M248.042 130.411C248.768 130.057 249.406 129.551 249.911 128.929C250.416 128.307 250.775 127.584 250.964 126.81C251.153 126.037 251.167 125.233 251.005 124.453C250.843 123.674 250.508 122.94 250.025 122.301L262.949 52.1559L250.889 52L241.914 121.364C240.874 122.231 240.194 123.443 240.004 124.768C239.813 126.094 240.125 127.442 240.881 128.557C241.636 129.672 242.782 130.477 244.102 130.819C245.422 131.161 246.824 131.016 248.042 130.411H248.042Z" fill="#FFB8B8"/>
<path d="M321.05 116.493C321.501 115.81 321.791 115.035 321.9 114.225C322.01 113.415 321.935 112.592 321.682 111.814C321.429 111.037 321.004 110.326 320.439 109.734C319.873 109.142 319.182 108.684 318.415 108.394L295.609 53.2248C295.051 51.8746 294.204 50.6617 293.128 49.6706C292.051 48.6794 290.771 47.9337 289.376 47.4855C287.98 47.0372 286.504 46.897 285.048 47.0747C283.593 47.2525 282.194 47.7438 280.949 48.5146V48.5146L311.155 111.905C310.766 113.172 310.849 114.535 311.39 115.745C311.931 116.955 312.893 117.929 314.098 118.487C315.304 119.046 316.671 119.152 317.949 118.786C319.227 118.419 320.328 117.605 321.05 116.493V116.493Z" fill="#FFB8B8"/>
<path d="M271.449 36C278.353 36 283.949 30.4036 283.949 23.5C283.949 16.5964 278.353 11 271.449 11C264.546 11 258.949 16.5964 258.949 23.5C258.949 30.4036 264.546 36 271.449 36Z" fill="#FFB8B8"/>
<path d="M256.783 42.3305C263.993 39.3548 276.44 36.4138 290.261 42.8238C291.878 43.5714 293.318 44.6496 294.486 45.9876C295.653 47.3257 296.522 48.8934 297.035 50.5879L302.949 70.1998L295.315 77.7685L302.44 93.4104C302.44 93.4104 275.213 109.809 262.998 99.7176L255.619 73.7318L245.949 71.2089L249.248 51.7772C249.596 49.6994 250.47 47.7431 251.788 46.091C253.105 44.439 254.824 43.1451 256.783 42.3305Z" fill="#CCCCCC"/>
<path d="M259.949 13.8786C264.775 16.7587 270.215 18.5113 275.846 19L274.171 17.0369C275.391 17.478 276.675 17.7272 277.974 17.7754C278.625 17.7939 279.271 17.6629 279.861 17.393C280.451 17.1232 280.968 16.7219 281.37 16.2215C281.699 15.7018 281.894 15.1122 281.939 14.5028C281.984 13.8934 281.878 13.2824 281.629 12.7218C281.119 11.6037 280.324 10.632 279.321 9.89913C277.542 8.52363 275.443 7.59968 273.211 7.20962C270.979 6.81957 268.682 6.97552 266.527 7.66359C265.048 8.09566 263.724 8.92622 262.706 10.0601C262.205 10.6313 261.858 11.3151 261.694 12.05C261.53 12.785 261.556 13.5482 261.769 14.271" fill="#2F2E41"/>
<path d="M257.958 2.90021C257.751 0.81479 255.079 -0.469077 252.99 0.160863C250.9 0.790804 249.529 2.80245 249.114 4.85941C248.915 5.72569 248.896 6.62111 249.059 7.49432C249.222 8.36754 249.564 9.20139 250.065 9.94805C250.582 10.6853 251.311 11.2648 252.163 11.6178C253.015 11.9708 253.955 12.0825 254.871 11.9395C256.938 11.5183 258.369 9.58894 258.779 7.60698C259.188 5.62503 258.782 3.58166 258.376 1.59905" fill="#2F2E41"/>
<path d="M291.958 3.90021C291.751 1.81479 289.079 0.530923 286.99 1.16086C284.9 1.7908 283.529 3.80245 283.114 5.85941C282.915 6.72569 282.896 7.62111 283.059 8.49432C283.222 9.36754 283.564 10.2014 284.065 10.9481C284.582 11.6853 285.311 12.2648 286.163 12.6178C287.015 12.9708 287.955 13.0825 288.871 12.9395C290.938 12.5183 292.369 10.5889 292.779 8.60698C293.188 6.62503 292.782 4.58166 292.376 2.59905" fill="#2F2E41"/>
<path d="M202.535 183.068H197.337V182.182C197.337 181.868 197.211 181.568 196.989 181.346C196.766 181.125 196.464 181 196.149 181H189.911C189.596 181 189.294 181.125 189.071 181.346C188.848 181.568 188.723 181.868 188.723 182.182V183.068H187.832V182.182C187.832 181.868 187.707 181.568 187.484 181.346C187.261 181.125 186.959 181 186.644 181H180.406C180.091 181 179.789 181.125 179.566 181.346C179.343 181.568 179.218 181.868 179.218 182.182V183.068H178.327V182.182C178.327 181.868 178.202 181.568 177.979 181.346C177.756 181.125 177.454 181 177.139 181H170.901C170.586 181 170.284 181.125 170.061 181.346C169.838 181.568 169.713 181.868 169.713 182.182V183.068H168.822V182.182C168.822 181.868 168.697 181.568 168.474 181.346C168.251 181.125 167.949 181 167.634 181H161.396C161.081 181 160.779 181.125 160.556 181.346C160.333 181.568 160.208 181.868 160.208 182.182V183.068H159.317V182.182C159.317 181.868 159.192 181.568 158.969 181.346C158.746 181.125 158.444 181 158.129 181H151.891C151.576 181 151.274 181.125 151.051 181.346C150.828 181.568 150.703 181.868 150.703 182.182V183.068H149.812V182.182C149.812 181.868 149.687 181.568 149.464 181.346C149.241 181.125 148.939 181 148.624 181H142.386C142.071 181 141.769 181.125 141.546 181.346C141.323 181.568 141.198 181.868 141.198 182.182V183.068H140.307V182.182C140.307 181.868 140.182 181.568 139.959 181.346C139.736 181.125 139.434 181 139.119 181H132.881C132.566 181 132.264 181.125 132.041 181.346C131.818 181.568 131.693 181.868 131.693 182.182V183.068H130.802V182.182C130.802 181.868 130.677 181.568 130.454 181.346C130.231 181.125 129.929 181 129.614 181H123.376C123.061 181 122.759 181.125 122.536 181.346C122.313 181.568 122.188 181.868 122.188 182.182V183.068H121.297V182.182C121.297 181.868 121.172 181.568 120.949 181.346C120.726 181.125 120.424 181 120.109 181H113.871C113.556 181 113.254 181.125 113.031 181.346C112.808 181.568 112.683 181.868 112.683 182.182V183.068H111.792V182.182C111.792 181.868 111.667 181.568 111.444 181.346C111.221 181.125 110.919 181 110.604 181H104.366C104.051 181 103.749 181.125 103.526 181.346C103.303 181.568 103.178 181.868 103.178 182.182V183.068H102.287V182.182C102.287 181.868 102.162 181.568 101.939 181.346C101.716 181.125 101.414 181 101.099 181H94.8614C94.5463 181 94.2441 181.125 94.0213 181.346C93.7984 181.568 93.6733 181.868 93.6733 182.182V183.068H92.7822V182.182C92.7822 181.868 92.657 181.568 92.4342 181.346C92.2114 181.125 91.9092 181 91.5941 181H85.3564C85.0413 181 84.7391 181.125 84.5163 181.346C84.2935 181.568 84.1683 181.868 84.1683 182.182V183.068H83.2772V182.182C83.2772 181.868 83.1521 181.568 82.9292 181.346C82.7064 181.125 82.4042 181 82.0891 181H75.8515C75.5364 181 75.2342 181.125 75.0114 181.346C74.7885 181.568 74.6634 181.868 74.6634 182.182V183.068H69.4653C67.2202 183.068 65.067 183.955 63.4794 185.534C61.8919 187.114 61 189.255 61 191.489V191.489C61 192.155 61.266 192.793 61.7395 193.264C62.213 193.735 62.8551 194 63.5248 194H208.475C209.145 194 209.787 193.735 210.261 193.264C210.734 192.793 211 192.155 211 191.489V191.489C211 189.255 210.108 187.114 208.521 185.534C206.933 183.955 204.78 183.068 202.535 183.068Z" fill="#3F3D56"/>
</g>
<path d="M0.517045 55V37.5455H7.40341C8.72727 37.5455 9.85511 37.7983 10.7869 38.304C11.7188 38.804 12.429 39.5 12.9176 40.392C13.4119 41.2784 13.6591 42.3011 13.6591 43.4602C13.6591 44.6193 13.4091 45.642 12.9091 46.5284C12.4091 47.4148 11.6847 48.1051 10.7358 48.5994C9.79261 49.0937 8.65057 49.3409 7.30966 49.3409H2.92045V46.3835H6.71307C7.4233 46.3835 8.00852 46.2614 8.46875 46.017C8.93466 45.767 9.28125 45.4233 9.50852 44.9858C9.74148 44.5426 9.85795 44.0341 9.85795 43.4602C9.85795 42.8807 9.74148 42.375 9.50852 41.9432C9.28125 41.5057 8.93466 41.1676 8.46875 40.929C8.00284 40.6847 7.41193 40.5625 6.69602 40.5625H4.20739V55H0.517045ZM15.9879 55V41.9091H19.5078V44.1932H19.6442C19.8828 43.3807 20.2834 42.767 20.8459 42.3523C21.4084 41.9318 22.0561 41.7216 22.7891 41.7216C22.9709 41.7216 23.1669 41.733 23.3771 41.7557C23.5874 41.7784 23.772 41.8097 23.9311 41.8494V45.071C23.7607 45.0199 23.5249 44.9744 23.2237 44.9347C22.9226 44.8949 22.647 44.875 22.397 44.875C21.8629 44.875 21.3857 44.9915 20.9652 45.2244C20.5504 45.4517 20.2209 45.7699 19.9766 46.179C19.7379 46.5881 19.6186 47.0597 19.6186 47.5938V55H15.9879ZM31.1136 55.2557C29.7898 55.2557 28.6449 54.9744 27.679 54.4119C26.7188 53.8437 25.9773 53.054 25.4545 52.0426C24.9318 51.0256 24.6705 49.8466 24.6705 48.5057C24.6705 47.1534 24.9318 45.9716 25.4545 44.9602C25.9773 43.9432 26.7188 43.1534 27.679 42.5909C28.6449 42.0227 29.7898 41.7386 31.1136 41.7386C32.4375 41.7386 33.5795 42.0227 34.5398 42.5909C35.5057 43.1534 36.25 43.9432 36.7727 44.9602C37.2955 45.9716 37.5568 47.1534 37.5568 48.5057C37.5568 49.8466 37.2955 51.0256 36.7727 52.0426C36.25 53.054 35.5057 53.8437 34.5398 54.4119C33.5795 54.9744 32.4375 55.2557 31.1136 55.2557ZM31.1307 52.4432C31.733 52.4432 32.2358 52.2727 32.6392 51.9318C33.0426 51.5852 33.3466 51.1136 33.5511 50.517C33.7614 49.9205 33.8665 49.2415 33.8665 48.4801C33.8665 47.7188 33.7614 47.0398 33.5511 46.4432C33.3466 45.8466 33.0426 45.375 32.6392 45.0284C32.2358 44.6818 31.733 44.5085 31.1307 44.5085C30.5227 44.5085 30.0114 44.6818 29.5966 45.0284C29.1875 45.375 28.8778 45.8466 28.6676 46.4432C28.4631 47.0398 28.3608 47.7188 28.3608 48.4801C28.3608 49.2415 28.4631 49.9205 28.6676 50.517C28.8778 51.1136 29.1875 51.5852 29.5966 51.9318C30.0114 52.2727 30.5227 52.4432 31.1307 52.4432ZM39.9176 41.9091H43.5483V55.6477C43.5483 56.6591 43.3494 57.4773 42.9517 58.1023C42.554 58.7273 41.983 59.1847 41.2386 59.4744C40.5 59.7642 39.6165 59.9091 38.5881 59.9091C38.4631 59.9091 38.3438 59.9063 38.2301 59.9006C38.1108 59.9006 37.9858 59.8977 37.8551 59.892V57.054C37.9517 57.0597 38.0369 57.0625 38.1108 57.0625C38.179 57.0682 38.2528 57.071 38.3324 57.071C38.9176 57.071 39.3267 56.946 39.5597 56.696C39.7983 56.4517 39.9176 56.0824 39.9176 55.5881V41.9091ZM41.7244 40.2216C41.1903 40.2216 40.7301 40.0426 40.3438 39.6847C39.9574 39.321 39.7642 38.8864 39.7642 38.3807C39.7642 37.8807 39.9574 37.4517 40.3438 37.0938C40.7301 36.7301 41.1903 36.5483 41.7244 36.5483C42.2699 36.5483 42.733 36.7301 43.1136 37.0938C43.5 37.4517 43.6932 37.8807 43.6932 38.3807C43.6932 38.8864 43.5 39.321 43.1136 39.6847C42.733 40.0426 42.2699 40.2216 41.7244 40.2216ZM52.4226 55.2557C51.076 55.2557 49.9169 54.983 48.9453 54.4375C47.9794 53.8864 47.2351 53.108 46.7124 52.1023C46.1896 51.0909 45.9283 49.8949 45.9283 48.5142C45.9283 47.1676 46.1896 45.9858 46.7124 44.9688C47.2351 43.9517 47.9709 43.1591 48.9197 42.5909C49.8743 42.0227 50.9936 41.7386 52.2777 41.7386C53.1413 41.7386 53.9453 41.8778 54.6896 42.1562C55.4396 42.429 56.093 42.8409 56.6499 43.392C57.2124 43.9432 57.6499 44.6364 57.9624 45.4716C58.2749 46.3011 58.4311 47.2727 58.4311 48.3864V49.3835H47.3771V47.1335H55.0135C55.0135 46.6108 54.8999 46.1477 54.6726 45.7443C54.4453 45.3409 54.13 45.0256 53.7266 44.7983C53.3288 44.5653 52.8658 44.4489 52.3374 44.4489C51.7862 44.4489 51.2976 44.5767 50.8714 44.8324C50.451 45.0824 50.1214 45.4205 49.8828 45.8466C49.6442 46.267 49.522 46.7358 49.5163 47.2528V49.392C49.5163 50.0398 49.6357 50.5994 49.8743 51.071C50.1186 51.5426 50.4624 51.9062 50.9055 52.1619C51.3487 52.4176 51.8743 52.5455 52.4822 52.5455C52.8857 52.5455 53.255 52.4886 53.5902 52.375C53.9254 52.2614 54.2124 52.0909 54.451 51.8636C54.6896 51.6364 54.8714 51.358 54.9964 51.0284L58.3544 51.25C58.1839 52.0568 57.8345 52.7614 57.3061 53.3636C56.7834 53.9602 56.1072 54.4261 55.2777 54.7614C54.4538 55.0909 53.5021 55.2557 52.4226 55.2557ZM66.7152 55.2557C65.3743 55.2557 64.2209 54.9716 63.255 54.4034C62.2947 53.8295 61.5561 53.0341 61.0391 52.017C60.5277 51 60.272 49.8295 60.272 48.5057C60.272 47.1648 60.5305 45.9886 61.0476 44.9773C61.5703 43.9602 62.3118 43.1676 63.272 42.5994C64.2322 42.0256 65.3743 41.7386 66.6982 41.7386C67.8402 41.7386 68.8402 41.946 69.6982 42.3608C70.5561 42.7756 71.2351 43.358 71.7351 44.108C72.2351 44.858 72.5107 45.7386 72.5618 46.75H69.1357C69.0391 46.0966 68.7834 45.571 68.3686 45.1733C67.9595 44.7699 67.4226 44.5682 66.7578 44.5682C66.1953 44.5682 65.7038 44.7216 65.2834 45.0284C64.8686 45.3295 64.5447 45.7699 64.3118 46.3494C64.0788 46.929 63.9624 47.6307 63.9624 48.4545C63.9624 49.2898 64.076 50 64.3033 50.5852C64.5362 51.1705 64.8629 51.6165 65.2834 51.9233C65.7038 52.2301 66.1953 52.3835 66.7578 52.3835C67.1726 52.3835 67.5447 52.2983 67.8743 52.1278C68.2095 51.9574 68.4851 51.7102 68.701 51.3864C68.9226 51.0568 69.0675 50.6619 69.1357 50.2017H72.5618C72.505 51.2017 72.2322 52.0824 71.7436 52.8438C71.2607 53.5994 70.593 54.1903 69.7408 54.6165C68.8885 55.0426 67.88 55.2557 66.7152 55.2557ZM81.8494 41.9091V44.6364H73.9659V41.9091H81.8494ZM75.7557 38.7727H79.3864V50.9773C79.3864 51.3125 79.4375 51.5739 79.5398 51.7614C79.642 51.9432 79.7841 52.071 79.9659 52.1449C80.1534 52.2187 80.3693 52.2557 80.6136 52.2557C80.7841 52.2557 80.9545 52.2415 81.125 52.2131C81.2955 52.179 81.4261 52.1534 81.517 52.1364L82.0881 54.8381C81.9063 54.8949 81.6506 54.9602 81.321 55.0341C80.9915 55.1136 80.5909 55.1619 80.1193 55.179C79.2443 55.2131 78.4773 55.0966 77.8182 54.8295C77.1648 54.5625 76.6563 54.1477 76.2926 53.5852C75.929 53.0227 75.75 52.3125 75.7557 51.4545V38.7727ZM0.517045 66.5455H5.06818L9.875 78.2727H10.0795L14.8864 66.5455H19.4375V84H15.858V72.6392H15.7131L11.196 83.9148H8.75852L4.24148 72.5966H4.09659V84H0.517045V66.5455ZM26.1428 84.2472C25.3075 84.2472 24.5632 84.1023 23.9098 83.8125C23.2564 83.517 22.7393 83.0824 22.3587 82.5085C21.9837 81.929 21.7962 81.2074 21.7962 80.3438C21.7962 79.6165 21.9297 79.0057 22.1967 78.5114C22.4638 78.017 22.8274 77.6193 23.2876 77.3182C23.7479 77.017 24.2706 76.7898 24.8558 76.6364C25.4467 76.483 26.0661 76.375 26.7138 76.3125C27.4751 76.233 28.0888 76.1591 28.5547 76.0909C29.0206 76.017 29.3587 75.9091 29.5689 75.767C29.7791 75.625 29.8842 75.4148 29.8842 75.1364V75.0852C29.8842 74.5455 29.7138 74.1278 29.3729 73.8324C29.0376 73.5369 28.5604 73.3892 27.9411 73.3892C27.2876 73.3892 26.7678 73.5341 26.3814 73.8239C25.995 74.108 25.7393 74.4659 25.6143 74.8977L22.2564 74.625C22.4268 73.8295 22.7621 73.142 23.2621 72.5625C23.7621 71.9773 24.407 71.5284 25.1967 71.2159C25.9922 70.8977 26.9126 70.7386 27.9581 70.7386C28.6854 70.7386 29.3814 70.8239 30.0462 70.9943C30.7166 71.1648 31.3104 71.429 31.8274 71.7869C32.3501 72.1449 32.7621 72.6051 33.0632 73.1676C33.3643 73.7244 33.5149 74.392 33.5149 75.1705V84H30.0717V82.1847H29.9695C29.7592 82.5938 29.478 82.9545 29.1257 83.267C28.7734 83.5739 28.3501 83.8153 27.8558 83.9915C27.3615 84.1619 26.7905 84.2472 26.1428 84.2472ZM27.1825 81.7415C27.7166 81.7415 28.1882 81.6364 28.5973 81.4261C29.0064 81.2102 29.3274 80.9205 29.5604 80.5568C29.7933 80.1932 29.9098 79.7812 29.9098 79.321V77.9318C29.7962 78.0057 29.6399 78.0739 29.4411 78.1364C29.2479 78.1932 29.0291 78.2472 28.7848 78.2983C28.5405 78.3437 28.2962 78.3864 28.0518 78.4261C27.8075 78.4602 27.5859 78.4915 27.3871 78.5199C26.9609 78.5824 26.5888 78.6818 26.2706 78.8182C25.9524 78.9545 25.7053 79.1392 25.5291 79.3722C25.353 79.5994 25.2649 79.8835 25.2649 80.2244C25.2649 80.7188 25.4439 81.0966 25.8018 81.358C26.1655 81.6136 26.6257 81.7415 27.1825 81.7415ZM39.9624 76.4318V84H36.3317V70.9091H39.7919V73.2188H39.9453C40.2351 72.4574 40.7209 71.8551 41.4027 71.4119C42.0845 70.9631 42.9112 70.7386 43.8828 70.7386C44.7919 70.7386 45.5845 70.9375 46.2607 71.3352C46.9368 71.733 47.4624 72.3011 47.8374 73.0398C48.2124 73.7727 48.3999 74.6477 48.3999 75.6648V84H44.7692V76.3125C44.7749 75.5114 44.5703 74.8864 44.1555 74.4375C43.7408 73.983 43.1697 73.7557 42.4425 73.7557C41.9538 73.7557 41.522 73.8608 41.147 74.071C40.7777 74.2812 40.4879 74.5881 40.2777 74.9915C40.0732 75.3892 39.968 75.8693 39.9624 76.4318ZM54.9943 84.2472C54.1591 84.2472 53.4148 84.1023 52.7614 83.8125C52.108 83.517 51.5909 83.0824 51.2102 82.5085C50.8352 81.929 50.6477 81.2074 50.6477 80.3438C50.6477 79.6165 50.7813 79.0057 51.0483 78.5114C51.3153 78.017 51.679 77.6193 52.1392 77.3182C52.5994 77.017 53.1222 76.7898 53.7074 76.6364C54.2983 76.483 54.9176 76.375 55.5653 76.3125C56.3267 76.233 56.9403 76.1591 57.4062 76.0909C57.8722 76.017 58.2102 75.9091 58.4205 75.767C58.6307 75.625 58.7358 75.4148 58.7358 75.1364V75.0852C58.7358 74.5455 58.5653 74.1278 58.2244 73.8324C57.8892 73.5369 57.4119 73.3892 56.7926 73.3892C56.1392 73.3892 55.6193 73.5341 55.233 73.8239C54.8466 74.108 54.5909 74.4659 54.4659 74.8977L51.108 74.625C51.2784 73.8295 51.6136 73.142 52.1136 72.5625C52.6136 71.9773 53.2585 71.5284 54.0483 71.2159C54.8438 70.8977 55.7642 70.7386 56.8097 70.7386C57.5369 70.7386 58.233 70.8239 58.8977 70.9943C59.5682 71.1648 60.1619 71.429 60.679 71.7869C61.2017 72.1449 61.6136 72.6051 61.9148 73.1676C62.2159 73.7244 62.3665 74.392 62.3665 75.1705V84H58.9233V82.1847H58.821C58.6108 82.5938 58.3295 82.9545 57.9773 83.267C57.625 83.5739 57.2017 83.8153 56.7074 83.9915C56.2131 84.1619 55.642 84.2472 54.9943 84.2472ZM56.0341 81.7415C56.5682 81.7415 57.0398 81.6364 57.4489 81.4261C57.858 81.2102 58.179 80.9205 58.4119 80.5568C58.6449 80.1932 58.7614 79.7812 58.7614 79.321V77.9318C58.6477 78.0057 58.4915 78.0739 58.2926 78.1364C58.0994 78.1932 57.8807 78.2472 57.6364 78.2983C57.392 78.3437 57.1477 78.3864 56.9034 78.4261C56.6591 78.4602 56.4375 78.4915 56.2386 78.5199C55.8125 78.5824 55.4403 78.6818 55.1222 78.8182C54.804 78.9545 54.5568 79.1392 54.3807 79.3722C54.2045 79.5994 54.1165 79.8835 54.1165 80.2244C54.1165 80.7188 54.2955 81.0966 54.6534 81.358C55.017 81.6136 55.4773 81.7415 56.0341 81.7415ZM71.081 89.1818C69.9048 89.1818 68.8963 89.0199 68.0554 88.696C67.2202 88.3778 66.5554 87.9432 66.0611 87.392C65.5668 86.8409 65.2457 86.2216 65.098 85.5341L68.456 85.0824C68.5582 85.3438 68.7202 85.5881 68.9418 85.8153C69.1634 86.0426 69.456 86.2244 69.8196 86.3608C70.1889 86.5028 70.6378 86.5739 71.1662 86.5739C71.956 86.5739 72.6065 86.3807 73.1179 85.9943C73.6349 85.6136 73.8935 84.9744 73.8935 84.0767V81.6818H73.7401C73.581 82.0455 73.3423 82.3892 73.0241 82.7131C72.706 83.0369 72.2969 83.3011 71.7969 83.5057C71.2969 83.7102 70.7003 83.8125 70.0071 83.8125C69.0241 83.8125 68.1293 83.5852 67.3224 83.1307C66.5213 82.6705 65.8821 81.9687 65.4048 81.0256C64.9332 80.0767 64.6974 78.8778 64.6974 77.429C64.6974 75.946 64.9389 74.7074 65.4219 73.7131C65.9048 72.7187 66.5469 71.9744 67.348 71.4801C68.1548 70.9858 69.0384 70.7386 69.9986 70.7386C70.7315 70.7386 71.3452 70.8636 71.8395 71.1136C72.3338 71.358 72.7315 71.6648 73.0327 72.0341C73.3395 72.3977 73.5753 72.7557 73.7401 73.108H73.8764V70.9091H77.4815V84.1278C77.4815 85.2415 77.2088 86.1733 76.6634 86.9233C76.1179 87.6733 75.3622 88.2358 74.3963 88.6108C73.4361 88.9915 72.331 89.1818 71.081 89.1818ZM71.1577 81.0852C71.7429 81.0852 72.2372 80.9403 72.6406 80.6506C73.0497 80.3551 73.3622 79.9347 73.5781 79.3892C73.7997 78.8381 73.9105 78.179 73.9105 77.4119C73.9105 76.6449 73.8026 75.9801 73.5866 75.4176C73.3707 74.8494 73.0582 74.4091 72.6491 74.0966C72.2401 73.7841 71.7429 73.6278 71.1577 73.6278C70.5611 73.6278 70.0582 73.7898 69.6491 74.1136C69.2401 74.4318 68.9304 74.875 68.7202 75.4432C68.5099 76.0114 68.4048 76.6676 68.4048 77.4119C68.4048 78.1676 68.5099 78.821 68.7202 79.3722C68.9361 79.9176 69.2457 80.3409 69.6491 80.642C70.0582 80.9375 70.5611 81.0852 71.1577 81.0852ZM86.3366 84.2557C84.9901 84.2557 83.831 83.983 82.8594 83.4375C81.8935 82.8864 81.1491 82.108 80.6264 81.1023C80.1037 80.0909 79.8423 78.8949 79.8423 77.5142C79.8423 76.1676 80.1037 74.9858 80.6264 73.9688C81.1491 72.9517 81.8849 72.1591 82.8338 71.5909C83.7884 71.0227 84.9077 70.7386 86.1918 70.7386C87.0554 70.7386 87.8594 70.8778 88.6037 71.1562C89.3537 71.429 90.0071 71.8409 90.5639 72.392C91.1264 72.9432 91.5639 73.6364 91.8764 74.4716C92.1889 75.3011 92.3452 76.2727 92.3452 77.3864V78.3835H81.2912V76.1335H88.9276C88.9276 75.6108 88.8139 75.1477 88.5866 74.7443C88.3594 74.3409 88.044 74.0256 87.6406 73.7983C87.2429 73.5653 86.7798 73.4489 86.2514 73.4489C85.7003 73.4489 85.2116 73.5767 84.7855 73.8324C84.3651 74.0824 84.0355 74.4205 83.7969 74.8466C83.5582 75.267 83.4361 75.7358 83.4304 76.2528V78.392C83.4304 79.0398 83.5497 79.5994 83.7884 80.071C84.0327 80.5426 84.3764 80.9062 84.8196 81.1619C85.2628 81.4176 85.7884 81.5455 86.3963 81.5455C86.7997 81.5455 87.169 81.4886 87.5043 81.375C87.8395 81.2614 88.1264 81.0909 88.3651 80.8636C88.6037 80.6364 88.7855 80.358 88.9105 80.0284L92.2685 80.25C92.098 81.0568 91.7486 81.7614 91.2202 82.3636C90.6974 82.9602 90.0213 83.4261 89.1918 83.7614C88.3679 84.0909 87.4162 84.2557 86.3366 84.2557ZM94.7145 84V70.9091H98.1747V73.2188H98.3281C98.6009 72.4517 99.0554 71.8466 99.6918 71.4034C100.328 70.9602 101.089 70.7386 101.976 70.7386C102.874 70.7386 103.638 70.9631 104.268 71.4119C104.899 71.8551 105.32 72.4574 105.53 73.2188H105.666C105.933 72.4688 106.416 71.8693 107.115 71.4205C107.82 70.9659 108.652 70.7386 109.612 70.7386C110.834 70.7386 111.825 71.1278 112.587 71.9062C113.354 72.679 113.737 73.7756 113.737 75.196V84H110.115V75.9119C110.115 75.1847 109.922 74.6392 109.536 74.2756C109.149 73.9119 108.666 73.7301 108.087 73.7301C107.428 73.7301 106.913 73.9403 106.544 74.3608C106.175 74.7756 105.99 75.3239 105.99 76.0057V84H102.47V75.8352C102.47 75.1932 102.286 74.6818 101.916 74.3011C101.553 73.9205 101.072 73.7301 100.476 73.7301C100.072 73.7301 99.7088 73.8324 99.3849 74.0369C99.0668 74.2358 98.8139 74.517 98.6264 74.8807C98.4389 75.2386 98.3452 75.6591 98.3452 76.142V84H94.7145ZM122.571 84.2557C121.224 84.2557 120.065 83.983 119.094 83.4375C118.128 82.8864 117.384 82.108 116.861 81.1023C116.338 80.0909 116.077 78.8949 116.077 77.5142C116.077 76.1676 116.338 74.9858 116.861 73.9688C117.384 72.9517 118.119 72.1591 119.068 71.5909C120.023 71.0227 121.142 70.7386 122.426 70.7386C123.29 70.7386 124.094 70.8778 124.838 71.1562C125.588 71.429 126.241 71.8409 126.798 72.392C127.361 72.9432 127.798 73.6364 128.111 74.4716C128.423 75.3011 128.58 76.2727 128.58 77.3864V78.3835H117.526V76.1335H125.162C125.162 75.6108 125.048 75.1477 124.821 74.7443C124.594 74.3409 124.278 74.0256 123.875 73.7983C123.477 73.5653 123.014 73.4489 122.486 73.4489C121.935 73.4489 121.446 73.5767 121.02 73.8324C120.599 74.0824 120.27 74.4205 120.031 74.8466C119.793 75.267 119.67 75.7358 119.665 76.2528V78.392C119.665 79.0398 119.784 79.5994 120.023 80.071C120.267 80.5426 120.611 80.9062 121.054 81.1619C121.497 81.4176 122.023 81.5455 122.631 81.5455C123.034 81.5455 123.403 81.4886 123.739 81.375C124.074 81.2614 124.361 81.0909 124.599 80.8636C124.838 80.6364 125.02 80.358 125.145 80.0284L128.503 80.25C128.332 81.0568 127.983 81.7614 127.455 82.3636C126.932 82.9602 126.256 83.4261 125.426 83.7614C124.602 84.0909 123.651 84.2557 122.571 84.2557ZM134.58 76.4318V84H130.949V70.9091H134.409V73.2188H134.562C134.852 72.4574 135.338 71.8551 136.02 71.4119C136.702 70.9631 137.528 70.7386 138.5 70.7386C139.409 70.7386 140.202 70.9375 140.878 71.3352C141.554 71.733 142.08 72.3011 142.455 73.0398C142.83 73.7727 143.017 74.6477 143.017 75.6648V84H139.386V76.3125C139.392 75.5114 139.188 74.8864 138.773 74.4375C138.358 73.983 137.787 73.7557 137.06 73.7557C136.571 73.7557 136.139 73.8608 135.764 74.071C135.395 74.2812 135.105 74.5881 134.895 74.9915C134.69 75.3892 134.585 75.8693 134.58 76.4318ZM152.842 70.9091V73.6364H144.958V70.9091H152.842ZM146.748 67.7727H150.379V79.9773C150.379 80.3125 150.43 80.5739 150.532 80.7614C150.634 80.9432 150.776 81.071 150.958 81.1449C151.146 81.2187 151.362 81.2557 151.606 81.2557C151.776 81.2557 151.947 81.2415 152.117 81.2131C152.288 81.179 152.418 81.1534 152.509 81.1364L153.08 83.8381C152.898 83.8949 152.643 83.9602 152.313 84.0341C151.984 84.1136 151.583 84.1619 151.112 84.179C150.237 84.2131 149.469 84.0966 148.81 83.8295C148.157 83.5625 147.648 83.1477 147.285 82.5852C146.921 82.0227 146.742 81.3125 146.748 80.4545V67.7727Z" fill="#2B2024"/>
</svg>
