<svg width="308" height="175" viewBox="0 0 308 175" fill="none" xmlns="http://www.w3.org/2000/svg">
<mask id="mask0_0_1" style="mask-type:alpha" maskUnits="userSpaceOnUse" x="-25" y="-64" width="332" height="231">
<rect x="-25" y="-64" width="332" height="231" rx="31" fill="white"/>
</mask>
<g mask="url(#mask0_0_1)">
<g opacity="0.1">
<path d="M234.191 173.107C237.141 173.107 239.532 169.978 239.532 166.117C239.532 162.257 237.141 159.127 234.191 159.127C231.241 159.127 228.85 162.257 228.85 166.117C228.85 169.978 231.241 173.107 234.191 173.107Z" fill="#3F3D56"/>
<path d="M238.417 136.209C239.166 134.91 239.554 133.435 239.542 131.936C239.542 128.068 237.15 124.946 234.2 124.946C231.251 124.946 228.862 128.075 228.862 131.936C228.847 133.434 229.231 134.909 229.976 136.209C229.246 137.514 228.862 138.984 228.862 140.48C228.862 141.976 229.246 143.446 229.976 144.751C229.246 146.057 228.862 147.528 228.862 149.024C228.862 150.52 229.246 151.991 229.976 153.296C229.231 154.596 228.847 156.071 228.862 157.569C228.862 161.437 231.253 164.559 234.2 164.559C237.148 164.559 239.542 161.43 239.542 157.569C239.557 156.071 239.172 154.596 238.427 153.296C239.158 151.991 239.542 150.52 239.542 149.024C239.542 147.528 239.158 146.057 238.427 144.751C239.158 143.446 239.542 141.976 239.542 140.48C239.542 138.984 239.158 137.514 238.427 136.209H238.417Z" fill="#3F3D56"/>
<path d="M234.191 130.388C237.141 130.388 239.532 127.258 239.532 123.397C239.532 119.537 237.141 116.407 234.191 116.407C231.241 116.407 228.85 119.537 228.85 123.397C228.85 127.258 231.241 130.388 234.191 130.388Z" fill="#3F3D56"/>
<path d="M234.191 121.842C237.141 121.842 239.532 118.712 239.532 114.851C239.532 110.991 237.141 107.861 234.191 107.861C231.241 107.861 228.85 110.991 228.85 114.851C228.85 118.712 231.241 121.842 234.191 121.842Z" fill="#3F3D56"/>
<path d="M254.182 56.3815C254.911 55.4522 255.575 54.4738 256.17 53.4534L242.146 51.1491L257.323 51.2628C258.778 48.095 259.571 44.6639 259.654 41.1792C259.737 37.6945 259.109 34.2294 257.807 30.9959L237.443 41.5525L256.225 27.7559C254.465 24.7183 252.099 22.0755 249.273 19.9919C246.447 17.9084 243.223 16.4289 239.801 15.6453C236.379 14.8617 232.832 14.791 229.381 15.4374C225.93 16.0838 222.65 17.4336 219.743 19.4027C216.837 21.3718 214.367 23.9181 212.487 26.8831C210.607 29.8481 209.357 33.1683 208.816 36.6371C208.275 40.1059 208.453 43.6489 209.34 47.0457C210.227 50.4425 211.804 53.6204 213.973 56.3815C212.836 57.8271 211.858 59.3908 211.057 61.0456L229.271 70.5093L209.85 63.9809C208.484 68.0106 208.144 72.3175 208.861 76.5115C209.579 80.7056 211.332 84.6544 213.96 88.0004C210.993 91.7734 209.147 96.3054 208.633 101.078C208.12 105.851 208.96 110.672 211.057 114.99C213.154 119.308 216.424 122.948 220.493 125.495C224.562 128.043 229.265 129.393 234.065 129.393C238.866 129.393 243.569 128.043 247.638 125.495C251.707 122.948 254.977 119.308 257.074 114.99C259.171 110.672 260.011 105.851 259.498 101.078C258.984 96.3054 257.138 91.7734 254.17 88.0004C257.717 83.4919 259.645 77.9222 259.645 72.1861C259.645 66.4499 257.717 60.8803 254.17 56.3718L254.182 56.3815Z" fill="#F50057"/>
<path opacity="0.1" d="M208.498 72.1966C208.489 77.9338 210.418 83.5059 213.972 88.0097C211.004 91.7827 209.158 96.3147 208.645 101.087C208.131 105.86 208.971 110.681 211.069 114.999C213.166 119.317 216.436 122.958 220.505 125.505C224.573 128.052 229.277 129.403 234.077 129.403C238.877 129.403 243.581 128.052 247.65 125.505C251.718 122.958 254.988 119.317 257.086 114.999C259.183 110.681 260.023 105.86 259.509 101.087C258.996 96.3147 257.15 91.7827 254.182 88.0097C257.611 83.6575 208.498 69.3242 208.498 72.1966Z" fill="black"/>
</g>
<g opacity="0.1">
<path d="M84.3903 165.63C86.185 165.63 87.64 163.725 87.64 161.375C87.64 159.024 86.185 157.119 84.3903 157.119C82.5955 157.119 81.1406 159.024 81.1406 161.375C81.1406 163.725 82.5955 165.63 84.3903 165.63Z" fill="#3F3D56"/>
<path d="M86.975 143.173C87.4286 142.381 87.6631 141.483 87.6544 140.571C87.6544 138.221 86.2036 136.315 84.4023 136.315C82.601 136.315 81.1526 138.221 81.1526 140.571C81.1432 141.483 81.3769 142.381 81.8297 143.173C81.3858 143.967 81.1528 144.863 81.1528 145.773C81.1528 146.683 81.3858 147.579 81.8297 148.374C81.3858 149.168 81.1528 150.064 81.1528 150.974C81.1528 151.884 81.3858 152.78 81.8297 153.574C81.3765 154.365 81.1428 155.262 81.1526 156.174C81.1526 158.526 82.6034 160.432 84.4023 160.432C86.2012 160.432 87.6544 158.526 87.6544 156.174C87.6635 155.262 87.4289 154.365 86.975 153.574C87.4201 152.78 87.6539 151.885 87.6539 150.974C87.6539 150.063 87.4201 149.168 86.975 148.374C87.4201 147.579 87.6539 146.684 87.6539 145.773C87.6539 144.862 87.4201 143.967 86.975 143.173V143.173Z" fill="#3F3D56"/>
<path d="M84.3903 139.623C86.185 139.623 87.64 137.718 87.64 135.368C87.64 133.018 86.185 131.112 84.3903 131.112C82.5955 131.112 81.1406 133.018 81.1406 135.368C81.1406 137.718 82.5955 139.623 84.3903 139.623Z" fill="#3F3D56"/>
<path d="M84.3903 134.424C86.185 134.424 87.64 132.519 87.64 130.169C87.64 127.818 86.185 125.913 84.3903 125.913C82.5955 125.913 81.1406 127.818 81.1406 130.169C81.1406 132.519 82.5955 134.424 84.3903 134.424Z" fill="#3F3D56"/>
<path d="M72.2237 94.5714C71.7799 94.0062 71.3759 93.4108 71.0147 92.7894L79.5572 91.3871L70.3184 91.4572C69.4339 89.5297 68.9514 87.4423 68.9002 85.3221C68.8491 83.202 69.2304 81.0937 70.021 79.1259L82.4079 85.5599L70.9785 77.1456C72.0505 75.2976 73.4913 73.69 75.2112 72.4228C76.9312 71.1556 78.8935 70.2558 80.9762 69.7796C83.0588 69.3033 85.2172 69.2607 87.317 69.6544C89.4168 70.048 91.4131 70.8696 93.1818 72.0679C94.9504 73.2663 96.4536 74.8158 97.5977 76.62C98.7418 78.4242 99.5024 80.4445 99.8322 82.5553C100.162 84.6661 100.054 86.8221 99.5146 88.8894C98.9754 90.9566 98.0165 92.8907 96.6977 94.5714C97.3895 95.4503 97.9846 96.4012 98.4724 97.4076L87.3839 103.172L99.2075 99.2041C100.038 101.658 100.243 104.28 99.805 106.834C99.3668 109.387 98.2988 111.791 96.6977 113.828C98.5041 116.124 99.6278 118.883 99.9403 121.789C100.253 124.694 99.7414 127.629 98.4646 130.257C97.1879 132.886 95.1973 135.102 92.7204 136.652C90.2436 138.203 87.3804 139.025 84.4583 139.025C81.5361 139.025 78.673 138.203 76.1961 136.652C73.7193 135.102 71.7287 132.886 70.4519 130.257C69.1752 127.629 68.6638 124.694 68.9762 121.789C69.2887 118.883 70.4124 116.124 72.2188 113.828C70.0602 111.083 68.8867 107.692 68.8867 104.2C68.8867 100.707 70.0602 97.3165 72.2188 94.5714H72.2237Z" fill="#F50057"/>
<path opacity="0.1" d="M100.029 104.199C100.034 107.692 98.8605 111.084 96.6975 113.827C98.5039 116.124 99.6276 118.883 99.94 121.788C100.253 124.694 99.7411 127.628 98.4644 130.257C97.1876 132.885 95.197 135.101 92.7202 136.652C90.2433 138.202 87.3802 139.024 84.458 139.024C81.5359 139.024 78.6727 138.202 76.1959 136.652C73.719 135.101 71.7284 132.885 70.4517 130.257C69.1749 127.628 68.6635 124.694 68.976 121.788C69.2885 118.883 70.4122 116.124 72.2186 113.827C70.1319 111.189 100.029 102.451 100.029 104.199Z" fill="black"/>
</g>
<g opacity="0.1">
<path d="M157.653 169.336C160.055 169.336 162.002 166.786 162.002 163.641C162.002 160.497 160.055 157.947 157.653 157.947C155.25 157.947 153.303 160.497 153.303 163.641C153.303 166.786 155.25 169.336 157.653 169.336Z" fill="#3F3D56"/>
<path d="M161.093 139.279C161.699 138.22 162.012 137.018 162 135.798C162 132.654 160.065 130.104 157.648 130.104C155.23 130.104 153.295 132.654 153.295 135.798C153.283 137.019 153.596 138.221 154.204 139.279C153.608 140.343 153.295 141.541 153.295 142.76C153.295 143.979 153.608 145.177 154.204 146.241C153.608 147.303 153.295 148.501 153.295 149.72C153.295 150.938 153.608 152.137 154.204 153.199C153.596 154.258 153.283 155.46 153.295 156.681C153.295 159.824 155.244 162.375 157.648 162.375C160.051 162.375 162 159.824 162 156.681C162.012 155.461 161.699 154.259 161.093 153.199C161.688 152.136 162 150.938 162 149.72C162 148.502 161.688 147.304 161.093 146.241C161.688 145.177 162 143.979 162 142.76C162 141.541 161.688 140.343 161.093 139.279V139.279Z" fill="#3F3D56"/>
<path d="M157.653 134.531C160.055 134.531 162.002 131.982 162.002 128.837C162.002 125.692 160.055 123.143 157.653 123.143C155.25 123.143 153.303 125.692 153.303 128.837C153.303 131.982 155.25 134.531 157.653 134.531Z" fill="#3F3D56"/>
<path d="M157.653 127.572C160.055 127.572 162.002 125.023 162.002 121.878C162.002 118.733 160.055 116.184 157.653 116.184C155.25 116.184 153.303 118.733 153.303 121.878C153.303 125.023 155.25 127.572 157.653 127.572Z" fill="#3F3D56"/>
<path d="M141.377 74.2442C140.782 73.4879 140.241 72.6913 139.757 71.8601L151.186 69.9838L138.826 70.0757C137.64 67.4953 136.993 64.7 136.924 61.8609C136.855 59.0218 137.367 56.1985 138.427 53.5638L155.013 62.1667L139.715 50.9235C141.145 48.4397 143.071 46.2774 145.373 44.5716C147.676 42.8659 150.306 41.6534 153.098 41.0098C155.891 40.3663 158.786 40.3056 161.603 40.8315C164.42 41.3574 167.098 42.4586 169.47 44.0663C171.842 45.674 173.857 47.7537 175.39 50.1754C176.922 52.597 177.938 55.3087 178.375 58.1408C178.811 60.9729 178.659 63.8647 177.928 66.6355C177.197 69.4063 175.902 71.9964 174.125 74.2442C175.05 75.4223 175.846 76.6966 176.499 78.0451L161.663 85.7534L177.483 80.434C178.594 83.7177 178.869 87.2268 178.283 90.6435C177.696 94.0603 176.267 97.2768 174.125 100.002C176.542 103.076 178.046 106.768 178.464 110.656C178.882 114.544 178.198 118.471 176.489 121.988C174.78 125.505 172.117 128.471 168.802 130.546C165.488 132.621 161.656 133.721 157.746 133.721C153.835 133.721 150.004 132.621 146.689 130.546C143.375 128.471 140.711 125.505 139.002 121.988C137.294 118.471 136.61 114.544 137.028 110.656C137.446 106.768 138.949 103.076 141.367 100.002C138.479 96.3286 136.908 91.7912 136.908 87.1183C136.908 82.4454 138.479 77.9079 141.367 74.2345L141.377 74.2442Z" fill="#F50057"/>
<path opacity="0.1" d="M178.583 87.1287C178.59 91.8025 177.019 96.3419 174.125 100.011C176.542 103.085 178.046 106.777 178.464 110.665C178.882 114.553 178.198 118.48 176.489 121.997C174.78 125.515 172.117 128.48 168.802 130.555C165.488 132.63 161.656 133.73 157.746 133.73C153.835 133.73 150.004 132.63 146.689 130.555C143.375 128.48 140.711 125.515 139.002 121.997C137.294 118.48 136.61 114.553 137.028 110.665C137.446 106.777 138.949 103.085 141.367 100.011C138.574 96.4667 178.583 84.7882 178.583 87.1287Z" fill="black"/>
</g>
<path d="M307.367 168.822C307.367 170.483 295.224 172.001 275.148 173.174C271.497 173.384 267.585 173.585 263.436 173.774C259.851 173.935 256.093 174.087 252.164 174.231C248.356 174.366 244.403 174.492 240.304 174.608C227.358 174.978 213.047 175.244 197.843 175.377C194.153 175.41 190.414 175.436 186.626 175.454C182.68 175.472 178.689 175.48 174.653 175.478C101.357 175.478 41.9414 172.502 41.9414 168.829C41.9414 165.156 101.357 162.18 174.653 162.18C206.209 162.18 235.187 162.733 257.964 163.652L260.455 163.754H260.469C289.16 164.97 307.367 166.8 307.367 168.822Z" fill="#3F3D56"/>
<path opacity="0.15" d="M307.367 168.822C307.367 170.483 295.224 172.001 275.148 173.174C271.497 173.384 267.585 173.585 263.436 173.774C259.851 173.935 256.093 174.087 252.164 174.231C248.356 174.366 244.403 174.492 240.304 174.608C227.358 174.978 213.047 175.244 197.843 175.377C194.153 175.41 190.414 175.436 186.626 175.454C182.68 175.472 178.689 175.48 174.653 175.478C101.357 175.478 41.9414 172.502 41.9414 168.829C41.9414 165.156 101.357 162.18 174.653 162.18C206.209 162.18 235.187 162.733 257.964 163.652L260.455 163.754H260.469C289.16 164.97 307.367 166.8 307.367 168.822Z" fill="black"/>
<path d="M296.425 167.65C296.425 169.038 284.283 170.31 264.207 171.277C260.558 171.454 256.644 171.621 252.497 171.778C248.91 171.913 245.153 172.041 241.225 172.16C237.417 172.273 233.464 172.378 229.365 172.477C216.417 172.786 202.105 173.009 186.902 173.12C183.215 173.147 179.476 173.168 175.685 173.183C171.739 173.197 167.749 173.204 163.714 173.204C90.4176 173.204 31 170.716 31 167.643C31 164.57 90.4176 162.082 163.714 162.082C195.268 162.082 224.246 162.544 247.023 163.313L249.513 163.397H249.53C278.231 164.43 296.425 165.951 296.425 167.65Z" fill="#3F3D56"/>
<path d="M65.2772 117.136L61.9453 106.934L141.736 106.062L145.005 116.161L65.2772 117.136Z" fill="#3F3D56"/>
<path opacity="0.15" d="M65.2772 117.136L61.9453 106.934L141.736 106.062L145.005 116.161L65.2772 117.136Z" fill="black"/>
<path d="M59.9549 117.136L56.623 106.934L136.414 106.062L139.683 116.161L59.9549 117.136Z" fill="#3F3D56"/>
<path d="M196.169 101.458C187.919 101.458 181.417 98.1835 176.664 91.6342C171.91 85.0849 169.533 77.1509 169.533 67.8323C169.533 58.4509 171.832 50.533 176.429 44.0788C181.026 37.6247 187.511 34.4008 195.884 34.4072C204.762 34.4072 211.452 37.8076 215.952 44.6084C220.453 51.4091 222.704 59.2802 222.705 68.2216C222.705 77.0985 220.376 84.8584 215.718 91.5012C211.059 98.144 204.543 101.463 196.169 101.458ZM196.411 94.0908C201.838 94.0908 205.894 91.7253 208.58 86.9942C211.265 82.2632 212.608 76.299 212.608 69.1017C212.608 61.0904 211.234 54.5306 208.486 49.4224C205.737 44.3142 201.522 41.7593 195.84 41.7577C185.04 41.7577 179.64 50.3364 179.64 67.4938C179.64 85.2267 185.229 94.0924 196.406 94.0908H196.411ZM199.128 164.643H187.196L265.314 35.7202H277.021L199.128 164.643ZM268.237 165.965C259.863 165.965 253.334 162.661 248.652 156.052C243.969 149.443 241.618 141.508 241.599 132.248C241.599 122.929 243.881 115.043 248.446 108.589C253.011 102.134 259.512 98.9105 267.949 98.9169C276.765 98.9169 283.408 102.317 287.877 109.118C292.347 115.919 294.583 123.789 294.585 132.729C294.585 141.548 292.271 149.293 287.643 155.965C283.015 162.637 276.545 165.97 268.232 165.965H268.237ZM268.377 158.409C273.779 158.409 277.813 156.084 280.481 151.434C283.149 146.783 284.483 140.843 284.483 133.614C284.483 125.877 283.133 119.388 280.433 114.147C277.733 108.907 273.526 106.283 267.814 106.275C256.951 106.275 251.519 114.853 251.519 132.011C251.516 149.611 257.134 158.411 268.372 158.409H268.377Z" fill="#3F3D56"/>
<path d="M196.169 101.458C187.919 101.458 181.417 98.1835 176.664 91.6342C171.91 85.0849 169.533 77.1509 169.533 67.8323C169.533 58.4509 171.832 50.533 176.429 44.0788C181.026 37.6247 187.511 34.4008 195.884 34.4072C204.762 34.4072 211.452 37.8076 215.952 44.6084C220.453 51.4091 222.704 59.2802 222.705 68.2216C222.705 77.0985 220.376 84.8584 215.718 91.5012C211.059 98.144 204.543 101.463 196.169 101.458ZM196.411 94.0908C201.838 94.0908 205.894 91.7253 208.58 86.9942C211.265 82.2632 212.608 76.299 212.608 69.1017C212.608 61.0904 211.234 54.5306 208.486 49.4224C205.737 44.3142 201.522 41.7593 195.84 41.7577C185.04 41.7577 179.64 50.3364 179.64 67.4938C179.64 85.2267 185.229 94.0924 196.406 94.0908H196.411ZM199.128 164.643H187.196L265.314 35.7202H277.021L199.128 164.643ZM268.237 165.965C259.863 165.965 253.334 162.661 248.652 156.052C243.969 149.443 241.618 141.508 241.599 132.248C241.599 122.929 243.881 115.043 248.446 108.589C253.011 102.134 259.512 98.9105 267.949 98.9169C276.765 98.9169 283.408 102.317 287.877 109.118C292.347 115.919 294.583 123.789 294.585 132.729C294.585 141.548 292.271 149.293 287.643 155.965C283.015 162.637 276.545 165.97 268.232 165.965H268.237ZM268.377 158.409C273.779 158.409 277.813 156.084 280.481 151.434C283.149 146.783 284.483 140.843 284.483 133.614C284.483 125.877 283.133 119.388 280.433 114.147C277.733 108.907 273.526 106.283 267.814 106.275C256.951 106.275 251.519 114.853 251.519 132.011C251.516 149.611 257.134 158.411 268.372 158.409H268.377Z" fill="#3F3D56"/>
<path opacity="0.15" d="M196.169 101.458C187.919 101.458 181.417 98.1835 176.664 91.6342C171.91 85.0849 169.533 77.1509 169.533 67.8323C169.533 58.4509 171.832 50.533 176.429 44.0788C181.026 37.6247 187.511 34.4008 195.884 34.4072C204.762 34.4072 211.452 37.8076 215.952 44.6084C220.453 51.4091 222.704 59.2802 222.705 68.2216C222.705 77.0985 220.376 84.8584 215.718 91.5012C211.059 98.144 204.543 101.463 196.169 101.458ZM196.411 94.0908C201.838 94.0908 205.894 91.7253 208.58 86.9942C211.265 82.2632 212.608 76.299 212.608 69.1017C212.608 61.0904 211.234 54.5306 208.486 49.4224C205.737 44.3142 201.522 41.7593 195.84 41.7577C185.04 41.7577 179.64 50.3364 179.64 67.4938C179.64 85.2267 185.229 94.0924 196.406 94.0908H196.411ZM199.128 164.643H187.196L265.314 35.7202H277.021L199.128 164.643ZM268.237 165.965C259.863 165.965 253.334 162.661 248.652 156.052C243.969 149.443 241.618 141.508 241.599 132.248C241.599 122.929 243.881 115.043 248.446 108.589C253.011 102.134 259.512 98.9105 267.949 98.9169C276.765 98.9169 283.408 102.317 287.877 109.118C292.347 115.919 294.583 123.789 294.585 132.729C294.585 141.548 292.271 149.293 287.643 155.965C283.015 162.637 276.545 165.97 268.232 165.965H268.237ZM268.377 158.409C273.779 158.409 277.813 156.084 280.481 151.434C283.149 146.783 284.483 140.843 284.483 133.614C284.483 125.877 283.133 119.388 280.433 114.147C277.733 108.907 273.526 106.283 267.814 106.275C256.951 106.275 251.519 114.853 251.519 132.011C251.516 149.611 257.134 158.411 268.372 158.409H268.377Z" fill="black"/>
<path d="M188.673 101.458C180.423 101.458 173.921 98.1835 169.168 91.6342C164.414 85.0849 162.037 77.1509 162.037 67.8323C162.037 58.4509 164.336 50.533 168.933 44.0788C173.53 37.6247 180.015 34.4008 188.387 34.4072C197.266 34.4072 203.955 37.8076 208.456 44.6084C212.957 51.4091 215.208 59.2802 215.209 68.2216C215.209 77.0985 212.88 84.8584 208.221 91.5012C203.563 98.144 197.047 101.463 188.673 101.458ZM188.915 94.0908C194.342 94.0908 198.398 91.7253 201.084 86.9942C203.769 82.2632 205.112 76.299 205.112 69.1017C205.112 61.0904 203.738 54.5306 200.99 49.4224C198.241 44.3142 194.026 41.7593 188.344 41.7577C177.544 41.7577 172.144 50.3364 172.144 67.4938C172.144 85.2267 177.733 94.0924 188.91 94.0908H188.915ZM191.632 164.643H179.7L257.818 35.7202H269.525L191.632 164.643ZM260.741 165.965C252.367 165.965 245.838 162.661 241.156 156.052C236.473 149.443 234.122 141.508 234.103 132.248C234.103 122.929 236.385 115.043 240.95 108.589C245.515 102.134 252.016 98.9105 260.453 98.9169C269.269 98.9169 275.911 102.317 280.381 109.118C284.851 115.919 287.087 123.789 287.089 132.729C287.089 141.548 284.775 149.293 280.147 155.965C275.519 162.637 269.049 165.97 260.736 165.965H260.741ZM260.881 158.409C266.283 158.409 270.317 156.084 272.985 151.434C275.653 146.783 276.987 140.843 276.987 133.614C276.987 125.877 275.637 119.388 272.937 114.147C270.237 108.907 266.029 106.283 260.313 106.275C249.45 106.275 244.019 114.853 244.019 132.011C244.019 149.611 249.638 158.411 260.876 158.409H260.881Z" fill="#3F3D56"/>
<path d="M214.778 167.88C215.774 166.033 214.643 163.77 213.342 162.121C212.041 160.472 210.455 158.76 210.489 156.659C210.537 153.643 213.738 151.861 216.292 150.261C218.191 149.074 219.942 147.667 221.51 146.068C222.166 145.452 222.709 144.725 223.113 143.921C223.642 142.741 223.625 141.399 223.596 140.108C223.485 135.801 223.272 131.5 222.958 127.206" stroke="#3F3D56" stroke-width="4" stroke-miterlimit="10"/>
<path d="M227.823 126.97C227.787 126.182 227.553 125.416 227.143 124.742C226.732 124.069 226.159 123.509 225.476 123.115L224.421 125.2L224.453 122.675C223.95 122.528 223.426 122.466 222.903 122.489C221.973 122.533 221.078 122.851 220.329 123.404C219.58 123.956 219.012 124.719 218.697 125.594C218.381 126.47 218.332 127.419 218.556 128.322C218.78 129.225 219.267 130.042 219.955 130.668C220.643 131.295 221.502 131.703 222.422 131.842C223.342 131.981 224.283 131.843 225.125 131.447C225.967 131.052 226.673 130.415 227.153 129.618C227.634 128.821 227.867 127.899 227.823 126.97V126.97Z" fill="#F50057"/>
<path d="M219.433 158.822C218.939 159.781 218.131 160.541 217.143 160.975C216.155 161.409 215.049 161.49 214.008 161.205C212.968 160.92 212.057 160.285 211.429 159.408C210.8 158.531 210.493 157.465 210.557 156.388C210.622 155.311 211.055 154.289 211.783 153.493C212.512 152.698 213.492 152.177 214.559 152.018C215.626 151.859 216.716 152.072 217.644 152.621C218.573 153.17 219.285 154.021 219.66 155.033L216.72 157.424L219.96 156.67C219.959 157.419 219.778 158.157 219.433 158.822V158.822Z" fill="#F50057"/>
<path d="M217.11 149.679C216.492 149.708 215.876 149.615 215.294 149.405C214.713 149.196 214.178 148.874 213.722 148.458C213.265 148.042 212.894 147.54 212.631 146.981C212.368 146.421 212.218 145.816 212.189 145.198C212.153 144.461 212.292 143.726 212.596 143.054C212.877 142.425 213.292 141.866 213.813 141.415C214.333 140.964 214.946 140.633 215.608 140.445L215.582 142.379L216.648 140.271C217.895 140.212 219.113 140.652 220.036 141.492C220.959 142.332 221.51 143.505 221.568 144.751C221.627 145.998 221.187 147.217 220.347 148.139C219.507 149.062 218.335 149.613 217.088 149.672L217.11 149.679Z" fill="#F50057"/>
<path d="M228.529 142.082C227.905 142.123 227.278 142.04 226.686 141.836C226.094 141.632 225.549 141.313 225.082 140.896C224.615 140.479 224.236 139.973 223.967 139.408C223.698 138.843 223.544 138.23 223.515 137.604C223.486 136.979 223.581 136.354 223.797 135.766C224.012 135.179 224.342 134.64 224.768 134.181C225.194 133.722 225.707 133.353 226.277 133.095C226.848 132.837 227.464 132.695 228.089 132.678C228.969 132.636 229.842 132.843 230.609 133.276L229.777 135.553L231.489 133.911C232.408 134.749 232.956 135.917 233.015 137.159C233.036 137.594 232.995 138.031 232.894 138.455C232.66 139.452 232.107 140.345 231.319 141C230.532 141.654 229.552 142.034 228.529 142.082V142.082Z" fill="#F50057"/>
<path opacity="0.1" d="M227.188 128.222C226.102 128.341 225.048 128.679 223.957 128.747C222.867 128.815 221.67 128.553 220.981 127.705C220.608 127.25 220.425 126.672 220.11 126.174C219.813 125.711 219.406 125.328 218.926 125.06C218.624 125.656 218.452 126.31 218.423 126.978C218.393 127.646 218.506 128.312 218.755 128.933C219.003 129.554 219.381 130.114 219.862 130.578C220.344 131.041 220.92 131.396 221.55 131.62C222.18 131.843 222.85 131.93 223.516 131.874C224.182 131.818 224.829 131.621 225.413 131.296C225.997 130.97 226.505 130.524 226.903 129.987C227.301 129.45 227.58 128.834 227.722 128.181C227.543 128.191 227.366 128.203 227.188 128.222Z" fill="black"/>
<path opacity="0.1" d="M228.534 142.078C227.723 142.115 226.916 141.942 226.192 141.575C225.468 141.209 224.851 140.661 224.401 139.986C223.95 139.311 223.682 138.531 223.622 137.721C223.562 136.912 223.712 136.101 224.058 135.366C224.431 135.619 224.752 135.941 225.004 136.314C225.34 136.819 225.543 137.404 225.937 137.869C226.662 138.732 227.922 139.012 229.056 138.962C230.19 138.911 231.288 138.587 232.419 138.478C232.577 138.464 232.736 138.454 232.903 138.449C232.669 139.447 232.116 140.342 231.327 140.997C230.539 141.652 229.558 142.032 228.534 142.078V142.078Z" fill="black"/>
<path opacity="0.1" d="M217.11 149.679C216.492 149.708 215.876 149.615 215.294 149.405C214.713 149.196 214.178 148.874 213.722 148.458C213.265 148.042 212.894 147.54 212.631 146.98C212.368 146.421 212.218 145.816 212.189 145.198C212.153 144.461 212.292 143.726 212.596 143.054C212.983 143.312 213.32 143.64 213.589 144.021C213.954 144.536 214.184 145.131 214.612 145.607C215.405 146.49 216.74 146.801 217.942 146.772C219.143 146.743 220.229 146.463 221.387 146.374C221.1 147.297 220.535 148.11 219.77 148.701C219.005 149.293 218.076 149.634 217.11 149.679V149.679Z" fill="black"/>
<path opacity="0.1" d="M219.432 158.822C218.884 159.898 217.944 160.722 216.806 161.125C215.668 161.527 214.418 161.476 213.316 160.983C212.214 160.49 211.344 159.592 210.886 158.475C210.427 157.358 210.416 156.108 210.853 154.982C211.241 155.237 211.589 155.548 211.886 155.904C212.333 156.45 212.628 157.069 213.145 157.577C214.113 158.52 215.66 158.909 217.043 158.945C217.841 158.952 218.639 158.911 219.432 158.822V158.822Z" fill="black"/>
<path d="M287.556 167.637C288.552 165.79 287.42 163.526 286.119 161.877C284.818 160.228 283.232 158.517 283.266 156.415C283.315 153.4 286.516 151.618 289.069 150.018C290.968 148.831 292.72 147.424 294.287 145.825C294.943 145.209 295.486 144.482 295.89 143.678C296.42 142.498 296.403 141.156 296.374 139.865C296.262 135.558 296.05 131.257 295.735 126.963" stroke="#3F3D56" stroke-width="4" stroke-miterlimit="10"/>
<path d="M300.601 126.725C300.564 125.938 300.33 125.172 299.92 124.498C299.51 123.824 298.936 123.265 298.253 122.871L297.199 124.956L297.23 122.431C296.727 122.284 296.204 122.221 295.68 122.245C294.751 122.289 293.855 122.607 293.106 123.16C292.357 123.712 291.789 124.474 291.474 125.35C291.158 126.225 291.11 127.175 291.334 128.078C291.558 128.981 292.045 129.798 292.733 130.424C293.421 131.051 294.279 131.459 295.199 131.598C296.12 131.737 297.06 131.599 297.902 131.203C298.745 130.807 299.45 130.171 299.931 129.374C300.411 128.577 300.644 127.655 300.601 126.725V126.725Z" fill="#F50057"/>
<path d="M292.21 158.58C291.717 159.539 290.908 160.299 289.921 160.733C288.933 161.167 287.826 161.248 286.785 160.963C285.745 160.678 284.834 160.043 284.206 159.166C283.578 158.289 283.27 157.223 283.335 156.146C283.399 155.069 283.832 154.047 284.561 153.251C285.289 152.456 286.269 151.935 287.337 151.776C288.404 151.617 289.493 151.83 290.422 152.379C291.35 152.928 292.062 153.779 292.438 154.791L289.498 157.182L292.738 156.428C292.736 157.177 292.556 157.915 292.21 158.58V158.58Z" fill="#F50057"/>
<path d="M289.887 149.439C289.27 149.468 288.653 149.375 288.072 149.165C287.49 148.956 286.956 148.634 286.499 148.218C286.042 147.802 285.671 147.3 285.409 146.74C285.146 146.181 284.996 145.575 284.967 144.958C284.93 144.221 285.069 143.486 285.373 142.814C285.654 142.185 286.069 141.626 286.59 141.175C287.11 140.724 287.723 140.393 288.386 140.205L288.359 142.139L289.425 140.031H289.437C290.055 140.002 290.672 140.095 291.253 140.304C291.834 140.514 292.369 140.836 292.826 141.252C293.282 141.668 293.653 142.17 293.916 142.729C294.179 143.288 294.329 143.894 294.358 144.511C294.387 145.128 294.294 145.745 294.084 146.326C293.875 146.908 293.553 147.442 293.137 147.899C292.721 148.356 292.219 148.726 291.659 148.989C291.1 149.252 290.495 149.402 289.877 149.431L289.887 149.439Z" fill="#F50057"/>
<path d="M301.309 141.838C300.684 141.88 300.057 141.796 299.466 141.593C298.874 141.389 298.328 141.07 297.861 140.653C297.394 140.236 297.015 139.73 296.746 139.165C296.477 138.6 296.323 137.986 296.294 137.361C296.265 136.736 296.361 136.111 296.576 135.523C296.791 134.935 297.121 134.396 297.547 133.938C297.973 133.479 298.486 133.11 299.056 132.852C299.627 132.594 300.243 132.452 300.869 132.435C301.748 132.392 302.621 132.599 303.388 133.032L302.556 135.31L304.268 133.668C305.187 134.506 305.736 135.674 305.794 136.916C305.815 137.351 305.775 137.788 305.673 138.212C305.439 139.209 304.886 140.102 304.099 140.756C303.311 141.411 302.332 141.791 301.309 141.838V141.838Z" fill="#F50057"/>
<path opacity="0.1" d="M299.969 127.981C298.883 128.099 297.829 128.438 296.738 128.506C295.648 128.573 294.451 128.312 293.762 127.464C293.39 127.009 293.206 126.431 292.892 125.933C292.595 125.469 292.188 125.086 291.707 124.818C291.405 125.415 291.233 126.069 291.204 126.737C291.174 127.404 291.287 128.071 291.536 128.692C291.784 129.312 292.162 129.873 292.644 130.336C293.126 130.8 293.701 131.155 294.331 131.378C294.961 131.602 295.631 131.689 296.298 131.633C296.964 131.577 297.61 131.38 298.194 131.055C298.778 130.729 299.286 130.283 299.684 129.746C300.083 129.209 300.362 128.593 300.503 127.94C300.324 127.95 300.148 127.962 299.969 127.981Z" fill="black"/>
<path opacity="0.1" d="M301.309 141.839C300.498 141.876 299.692 141.703 298.968 141.336C298.243 140.97 297.626 140.422 297.176 139.747C296.726 139.072 296.458 138.291 296.398 137.482C296.338 136.672 296.488 135.861 296.834 135.127C297.206 135.38 297.527 135.701 297.779 136.075C298.115 136.58 298.318 137.165 298.712 137.629C299.438 138.493 300.698 138.773 301.832 138.722C302.966 138.672 304.063 138.348 305.195 138.239C305.352 138.224 305.512 138.215 305.678 138.21C305.445 139.208 304.891 140.103 304.103 140.758C303.314 141.413 302.333 141.792 301.309 141.839V141.839Z" fill="black"/>
<path opacity="0.1" d="M289.887 149.437C289.27 149.466 288.653 149.373 288.072 149.163C287.49 148.954 286.956 148.632 286.499 148.216C286.042 147.799 285.671 147.298 285.409 146.738C285.146 146.179 284.996 145.573 284.967 144.956C284.93 144.219 285.069 143.484 285.373 142.812C285.761 143.07 286.098 143.398 286.367 143.779C286.732 144.294 286.961 144.889 287.389 145.365C288.182 146.247 289.517 146.559 290.719 146.53C291.884 146.506 293.006 146.221 294.164 146.131C293.877 147.055 293.313 147.868 292.547 148.459C291.782 149.05 290.853 149.392 289.887 149.437V149.437Z" fill="black"/>
<path opacity="0.1" d="M292.211 158.579C291.664 159.655 290.724 160.479 289.585 160.882C288.447 161.284 287.198 161.233 286.096 160.74C284.994 160.247 284.123 159.349 283.665 158.232C283.206 157.115 283.195 155.864 283.633 154.739C284.02 154.994 284.368 155.305 284.665 155.66C285.112 156.207 285.407 156.826 285.925 157.334C286.892 158.277 288.439 158.666 289.822 158.702C290.62 158.709 291.418 158.668 292.211 158.579V158.579Z" fill="black"/>
<path d="M57.5798 164.496C56.5836 162.649 57.7152 160.386 59.0161 158.737C60.3169 157.088 61.903 155.376 61.8692 153.275C61.8208 150.26 58.6195 148.478 56.0662 146.877C54.1673 145.691 52.4157 144.283 50.8484 142.684C50.192 142.068 49.6494 141.342 49.2453 140.537C48.7158 139.357 48.7327 138.015 48.7617 136.724C48.873 132.417 49.0857 128.116 49.4001 123.822" stroke="#3F3D56" stroke-width="4" stroke-miterlimit="10"/>
<path d="M44.5344 123.584C44.5708 122.796 44.8049 122.03 45.2152 121.356C45.6255 120.683 46.1988 120.123 46.8822 119.73L47.9364 121.814L47.905 119.29C48.4078 119.143 48.9315 119.08 49.4549 119.103C50.3844 119.147 51.2802 119.465 52.0289 120.018C52.7776 120.571 53.3456 121.333 53.6611 122.208C53.9766 123.084 54.0254 124.033 53.8014 124.936C53.5773 125.84 53.0905 126.656 52.4024 127.283C51.7144 127.909 50.856 128.318 49.9358 128.456C49.0156 128.595 48.0749 128.458 47.2328 128.062C46.3906 127.666 45.6847 127.029 45.2044 126.232C44.7241 125.435 44.491 124.513 44.5344 123.584V123.584Z" fill="#F50057"/>
<path d="M52.9255 155.437C53.4192 156.396 54.2278 157.157 55.2155 157.591C56.2033 158.024 57.3102 158.106 58.3506 157.82C59.3911 157.535 60.3018 156.901 60.9301 156.024C61.5584 155.147 61.866 154.08 61.8014 153.003C61.7368 151.926 61.3039 150.904 60.5753 150.109C59.8467 149.313 58.8666 148.792 57.7995 148.633C56.7324 148.474 55.6431 148.687 54.7144 149.236C53.7856 149.785 53.0737 150.637 52.6983 151.648L55.6384 154.039L52.3984 153.285C52.3998 154.034 52.5805 154.772 52.9255 155.437V155.437Z" fill="#F50057"/>
<path d="M55.2509 146.293C55.8681 146.322 56.4851 146.229 57.0664 146.02C57.6478 145.81 58.1822 145.488 58.6391 145.072C59.096 144.656 59.4665 144.154 59.7294 143.595C59.9923 143.036 60.1425 142.43 60.1713 141.813C60.2079 141.076 60.0687 140.341 59.7651 139.668C59.484 139.039 59.0686 138.48 58.5481 138.029C58.0276 137.579 57.4147 137.247 56.7524 137.059L56.779 138.993L55.7127 136.885C54.4661 136.827 53.2473 137.266 52.3246 138.106C51.4018 138.946 50.8506 140.119 50.7923 141.365C50.7339 142.612 51.1732 143.831 52.0134 144.754C52.8536 145.676 54.026 146.227 55.2726 146.286L55.2509 146.293Z" fill="#F50057"/>
<path d="M43.8247 138.695C44.4493 138.737 45.0759 138.653 45.6678 138.45C46.2598 138.246 46.8051 137.927 47.2721 137.51C47.739 137.093 48.1181 136.587 48.3872 136.022C48.6563 135.457 48.8099 134.843 48.8392 134.218C48.8684 133.593 48.7727 132.968 48.5576 132.38C48.3425 131.792 48.0123 131.253 47.5863 130.795C47.1604 130.336 46.6472 129.967 46.0769 129.709C45.5066 129.451 44.8905 129.309 44.2648 129.292C43.3895 129.252 42.5205 129.459 41.7574 129.889L42.5892 132.167L40.8652 130.532C39.9482 131.368 39.3996 132.533 39.3395 133.772C39.3181 134.208 39.3588 134.644 39.4604 135.068C39.6944 136.065 40.2471 136.959 41.0347 137.613C41.8223 138.268 42.8018 138.648 43.8247 138.695Z" fill="#F50057"/>
<path opacity="0.1" d="M45.1691 124.838C46.2548 124.957 47.309 125.295 48.3994 125.363C49.4899 125.431 50.6868 125.17 51.3759 124.321C51.7482 123.866 51.932 123.289 52.2463 122.79C52.5432 122.327 52.9502 121.944 53.4311 121.676C53.7331 122.272 53.9046 122.926 53.9341 123.594C53.9636 124.262 53.8504 124.928 53.6021 125.549C53.3538 126.17 52.9761 126.73 52.4942 127.194C52.0122 127.657 51.4371 128.012 50.807 128.236C50.177 128.459 49.5065 128.546 48.8404 128.49C48.1742 128.435 47.5275 128.237 46.9435 127.912C46.3595 127.587 45.8515 127.141 45.4534 126.603C45.0553 126.066 44.7762 125.451 44.6348 124.797C44.8137 124.807 44.9902 124.819 45.1691 124.838Z" fill="black"/>
<path opacity="0.1" d="M43.8262 138.696C44.637 138.732 45.4436 138.559 46.1678 138.193C46.892 137.826 47.5091 137.279 47.9594 136.603C48.4097 135.928 48.6778 135.148 48.7378 134.338C48.7978 133.529 48.6476 132.718 48.3017 131.983C47.9289 132.236 47.608 132.558 47.3563 132.931C47.0202 133.437 46.8171 134.022 46.423 134.486C45.6976 135.349 44.4379 135.63 43.3039 135.579C42.1699 135.528 41.0722 135.204 39.9406 135.095C39.7834 135.081 39.6239 135.071 39.457 135.066C39.6908 136.064 40.244 136.959 41.0326 137.614C41.8212 138.269 42.8021 138.649 43.8262 138.696V138.696Z" fill="black"/>
<path opacity="0.1" d="M55.2499 146.294C55.8672 146.323 56.4841 146.23 57.0655 146.021C57.6468 145.811 58.1812 145.489 58.6381 145.073C59.0951 144.657 59.4655 144.155 59.7284 143.596C59.9913 143.036 60.1415 142.431 60.1704 141.814C60.207 141.077 60.0677 140.342 59.7642 139.669C59.3762 139.927 59.0393 140.255 58.7704 140.636C58.4053 141.151 58.1756 141.746 57.7476 142.222C56.9545 143.105 55.6199 143.417 54.4182 143.388C53.2527 143.364 52.1308 143.078 50.9727 142.989C51.2597 143.912 51.8243 144.725 52.5896 145.316C53.3549 145.908 54.2838 146.249 55.2499 146.294V146.294Z" fill="black"/>
<path opacity="0.1" d="M52.9258 155.436C53.4733 156.512 54.4135 157.337 55.5518 157.739C56.6902 158.141 57.9396 158.09 59.0416 157.597C60.1435 157.104 61.0138 156.206 61.4722 155.089C61.9306 153.972 61.9422 152.722 61.5045 151.597C61.1171 151.852 60.7693 152.162 60.4721 152.518C60.0247 153.064 59.7298 153.683 59.2123 154.191C58.2452 155.134 56.6977 155.523 55.3147 155.56C54.5166 155.566 53.7189 155.525 52.9258 155.436V155.436Z" fill="black"/>
<path d="M193.846 141.836C193.85 141.25 193.717 140.671 193.458 140.145C193.199 139.619 192.82 139.162 192.352 138.809C192.293 136.592 190.712 134.781 188.679 134.5C188.522 133.747 188.169 133.048 187.656 132.474C187.144 131.9 186.489 131.472 185.758 131.231V131.231C185.58 131.175 185.398 131.132 185.214 131.103H185.161L185.066 131.091H184.987H184.907H184.803H184.74H184.568C182.494 131.091 180.767 132.677 180.412 134.768C179.07 134.459 177.839 134.86 177.619 135.709C177.562 135.934 177.575 136.171 177.655 136.388C177.883 137.046 178.623 137.675 179.626 137.987L179.757 138.025C179.822 138.045 179.887 138.059 179.952 138.074H179.996C179.627 138.86 179.575 139.759 179.85 140.583C180.125 141.407 180.706 142.094 181.473 142.501C181.443 142.517 181.414 142.536 181.386 142.557C181.262 142.67 181.164 142.809 181.096 142.963C180.854 143.388 180.665 143.842 180.535 144.314C180.439 144.718 180.422 145.141 180.293 145.54C180.073 146.266 179.508 146.901 179.442 147.673C179.413 148.016 179.469 148.42 179.225 148.654C179.164 148.707 179.099 148.755 179.031 148.797C178.86 148.914 178.715 149.066 178.606 149.242C178.534 149.388 178.439 149.52 178.323 149.634C178.103 149.801 177.74 149.784 177.631 150.04C177.523 150.296 177.803 150.598 177.738 150.879C177.685 151.106 177.435 151.21 177.254 151.363C177.051 151.583 176.91 151.852 176.843 152.144C176.482 152.213 176.11 152.202 175.753 152.112C175.397 152.021 175.065 151.853 174.781 151.619C174.878 151.868 174.949 152.126 174.993 152.39C174.706 152.083 174.232 151.994 173.881 151.834C173.429 151.627 173.025 151.327 172.696 150.954L173.33 150.867L170.525 146.611L169.698 146.442L170.44 147.866C170.38 147.895 170.326 147.938 170.285 147.991C170.243 148.044 170.213 148.105 170.199 148.171C170.159 148.329 170.149 148.493 170.17 148.654C170.209 149.036 170.273 149.415 170.361 149.788L170.576 150.789C170.594 150.883 170.618 150.976 170.646 151.068C170.366 151.057 170.085 151.089 169.814 151.162C169.258 150.956 168.679 150.819 168.09 150.753C167.961 150.73 167.828 150.737 167.701 150.773C167.557 150.839 167.433 150.94 167.338 151.068C166.855 151.627 166.426 152.231 166.057 152.871C164.55 155.492 162.539 157.78 160.655 160.149C159.354 160.679 158.044 161.182 156.731 161.68L153.909 162.756C153.346 162.971 152.761 163.191 152.161 163.152C151.89 163.135 151.561 163.094 151.409 163.324C151.335 163.438 151.277 163.561 151.237 163.691C151.138 163.691 151.039 163.716 150.947 163.72H150.93C150.751 163.276 150.597 162.799 150.253 162.475C150.184 162.486 150.119 162.513 150.063 162.556C150.007 162.598 149.963 162.653 149.934 162.717C149.867 162.843 149.825 162.981 149.748 163.097C149.596 163.319 149.332 163.428 149.144 163.616C148.955 163.805 148.837 164.1 148.633 164.284C148.349 164.491 148.016 164.62 147.666 164.659C147.143 164.782 146.638 164.974 146.165 165.229C145.99 165.336 145.804 165.423 145.609 165.486C145.394 165.527 145.175 165.534 144.958 165.507L143.464 165.398C143.331 165.381 143.196 165.387 143.065 165.415C142.911 165.472 142.78 165.578 142.693 165.716C142.605 165.855 142.566 166.019 142.581 166.182C142.6 166.344 142.651 166.5 142.732 166.642C142.813 166.783 142.922 166.906 143.053 167.004C143.312 167.194 143.599 167.343 143.904 167.446C145.202 167.949 146.541 168.342 147.906 168.619V168.921C148.851 169.398 149.896 169.646 150.955 169.647C151.033 169.653 151.111 169.639 151.182 169.606C151.28 169.532 151.348 169.426 151.373 169.306C151.69 168.358 151.89 167.374 151.97 166.378C152.157 166.366 152.34 166.319 152.509 166.24C153.024 166.1 153.534 166.453 154.064 166.511C154.717 166.581 155.324 166.201 155.94 165.967C156.03 165.933 156.119 165.904 156.209 165.875C156.033 166.102 155.825 166.303 155.592 166.472C155.336 166.656 155.048 166.791 154.797 166.982C154.588 167.173 154.364 167.347 154.127 167.502C153.96 167.58 153.788 167.646 153.612 167.7C153.357 167.793 153.113 167.916 152.886 168.065C152.683 168.185 152.511 168.351 152.384 168.549C152.319 168.642 152.28 168.749 152.269 168.861C152.258 168.973 152.276 169.086 152.321 169.19C152.366 169.293 152.437 169.383 152.526 169.451C152.616 169.519 152.722 169.563 152.833 169.579C153.035 169.615 153.241 169.621 153.445 169.596C154.253 169.535 155.058 169.461 155.863 169.388C156.204 169.365 156.542 169.317 156.876 169.243C157.053 169.199 157.227 169.141 157.403 169.095C157.704 169.016 158.013 168.97 158.324 168.958C158.415 168.95 158.506 168.96 158.593 168.984C158.781 169.045 158.914 169.226 159.105 169.274C159.229 169.286 159.354 169.269 159.47 169.224C160.06 169.096 160.661 169.032 161.265 169.033C161.528 169.018 161.838 168.967 161.961 168.723C162.111 168.421 161.859 168.082 161.76 167.756C161.71 167.548 161.682 167.336 161.678 167.122C161.632 166.596 161.481 166.083 161.233 165.616C161.101 165.398 160.991 165.168 160.902 164.929C162.057 164.49 163.163 163.929 164.2 163.256C164.795 162.886 165.409 162.487 166.081 162.352C166.864 162.195 167.672 162.403 168.443 162.625C170.281 163.157 172.088 163.787 173.857 164.513C174.703 164.859 175.549 165.227 176.415 165.481C176.668 165.822 176.974 166.121 177.322 166.366C177.902 166.74 178.611 166.849 179.292 166.902C180.214 166.987 181.139 167.021 182.063 167.006C182.769 166.994 183.497 166.946 184.128 166.624C184.282 166.545 184.428 166.45 184.561 166.339C185.045 166.426 185.54 166.167 185.92 165.836C186.422 165.409 186.785 164.84 186.96 164.204C187.182 163.331 187.01 162.313 187.547 161.6C187.69 161.409 187.876 161.254 188.016 161.061C188.189 160.802 188.274 160.494 188.258 160.183L188.282 160.147C188.404 159.866 188.485 159.57 188.524 159.267C188.588 159.03 188.668 158.798 188.766 158.573C189.038 157.898 189.276 157.21 189.477 156.51C189.616 156.046 189.726 155.574 189.805 155.096C189.863 154.714 189.897 154.329 189.929 153.945C189.968 153.343 190.085 152.749 190.277 152.177C190.754 150.813 191.024 149.385 191.077 147.941C191.077 147.912 191.077 147.886 191.077 147.857C191.779 147.78 192.427 147.444 192.895 146.914C193.362 146.385 193.615 145.7 193.604 144.994C193.605 144.568 193.516 144.147 193.343 143.758C193.676 143.173 193.85 142.51 193.846 141.836V141.836ZM180.173 158.449C180.214 158.597 180.262 158.744 180.31 158.892C180.088 158.672 179.868 158.445 179.643 158.227C179.732 158.254 179.822 158.283 179.909 158.314C180.002 158.351 180.091 158.396 180.175 158.449H180.173ZM179.089 157.724C177.769 156.578 176.241 155.688 174.889 154.581C175.615 154.946 176.34 155.369 177.066 155.775C177.91 156.259 178.765 156.721 179.629 157.163C179.487 157.378 179.306 157.565 179.097 157.714L179.089 157.724ZM179.653 154.837L179.716 154.772C179.716 154.934 179.716 155.086 179.716 155.224C179.597 155.185 179.474 155.147 179.36 155.103C179.465 155.018 179.563 154.926 179.655 154.827L179.653 154.837ZM168.03 157.942C168.573 157.327 169.046 156.653 169.439 155.932C169.962 156.849 170.813 157.509 171.538 158.275C170.373 158.111 169.205 157.983 168.032 157.932L168.03 157.942Z" fill="url(#paint0_linear_0_1)"/>
<path d="M169.916 146.797L170.75 146.966L173.591 151.164L172.336 151.333L169.916 146.797Z" fill="#2F2E41"/>
<path d="M149.717 163.832C149.942 164.576 150.219 165.304 150.546 166.009C151.487 165.812 152.414 165.547 153.317 165.218C153.142 164.946 152.95 164.685 152.742 164.437C152.519 164.19 152.254 163.986 151.958 163.835C151.67 163.709 151.315 163.803 151.008 163.82C150.578 163.836 150.147 163.84 149.717 163.832Z" fill="#FBBEBE"/>
<path d="M151.962 164.955C151.493 164.807 151.205 164.333 151.014 163.876C150.823 163.419 150.668 162.921 150.306 162.585C150.237 162.596 150.171 162.624 150.116 162.666C150.06 162.708 150.016 162.763 149.987 162.827C149.916 162.948 149.875 163.085 149.796 163.202C149.646 163.419 149.38 163.526 149.189 163.712C148.998 163.898 148.879 164.181 148.674 164.367C148.389 164.572 148.055 164.7 147.706 164.739C147.179 164.859 146.67 165.047 146.193 165.3C146.016 165.403 145.828 165.484 145.632 165.542C145.416 165.583 145.195 165.591 144.977 165.564L143.47 165.455C143.336 165.438 143.201 165.445 143.069 165.474C142.915 165.528 142.784 165.631 142.697 165.768C142.609 165.905 142.57 166.067 142.585 166.229C142.605 166.39 142.659 166.545 142.742 166.685C142.825 166.824 142.937 166.945 143.069 167.039C143.331 167.226 143.619 167.373 143.925 167.474C145.237 167.967 146.588 168.353 147.963 168.627V168.925C148.918 169.398 149.97 169.646 151.036 169.65C151.119 169.657 151.202 169.643 151.278 169.609C151.376 169.537 151.444 169.432 151.471 169.314C151.833 168.258 152.043 167.155 152.097 166.04C152.125 165.758 152.104 165.473 152.035 165.199C151.952 164.928 152.233 165.042 151.972 164.935" fill="#2F2E41"/>
<path d="M180.839 159.277C176.373 159.548 171.963 158.238 167.49 158.097C166.935 158.064 166.378 158.099 165.831 158.204C165.262 158.356 164.71 158.57 164.187 158.842C161.791 159.957 159.31 160.88 156.832 161.804L153.988 162.863C153.418 163.073 152.83 163.289 152.223 163.252C151.953 163.235 151.621 163.194 151.467 163.422C151.005 164.106 151.225 165.114 151.529 165.883C151.629 166.125 151.795 166.403 152.061 166.432C152.249 166.419 152.434 166.372 152.605 166.294C153.123 166.156 153.64 166.504 154.172 166.56C154.832 166.63 155.444 166.255 156.065 166.026C157.095 165.646 158.222 165.658 159.305 165.477C161.124 165.174 162.807 164.331 164.383 163.368C164.983 163.003 165.592 162.612 166.279 162.479C167.069 162.324 167.884 162.527 168.66 162.747C170.511 163.271 172.332 163.891 174.117 164.606C175.047 165.01 175.999 165.357 176.971 165.646C179.087 166.203 181.326 166.073 183.364 165.274C184.089 164.991 184.853 164.493 184.894 163.721C184.918 163.281 184.577 162.894 184.35 162.512C184.203 162.271 184.057 162.029 183.898 161.799C183.129 160.677 182.196 159.195 180.839 159.277Z" fill="#2F2E41"/>
<path opacity="0.1" d="M180.839 159.277C176.373 159.548 171.963 158.238 167.49 158.097C166.935 158.064 166.378 158.099 165.831 158.204C165.262 158.356 164.71 158.57 164.187 158.842C161.791 159.957 159.31 160.88 156.832 161.804L153.988 162.863C153.418 163.073 152.83 163.289 152.223 163.252C151.953 163.235 151.621 163.194 151.467 163.422C151.005 164.106 151.225 165.114 151.529 165.883C151.629 166.125 151.795 166.403 152.061 166.432C152.249 166.419 152.434 166.372 152.605 166.294C153.123 166.156 153.64 166.504 154.172 166.56C154.832 166.63 155.444 166.255 156.065 166.026C157.095 165.646 158.222 165.658 159.305 165.477C161.124 165.174 162.807 164.331 164.383 163.368C164.983 163.003 165.592 162.612 166.279 162.479C167.069 162.324 167.884 162.527 168.66 162.747C170.511 163.271 172.332 163.891 174.117 164.606C175.047 165.01 175.999 165.357 176.971 165.646C179.087 166.203 181.326 166.073 183.364 165.274C184.089 164.991 184.853 164.493 184.894 163.721C184.918 163.281 184.577 162.894 184.35 162.512C184.203 162.271 184.057 162.029 183.898 161.799C183.129 160.677 182.196 159.195 180.839 159.277Z" fill="black"/>
<path d="M158.285 164.049C158.985 164.286 159.689 164.505 160.398 164.707C160.797 164.052 161.542 163.597 161.711 162.85C161.721 162.818 161.721 162.783 161.711 162.751C161.693 162.719 161.665 162.694 161.632 162.678C161.122 162.397 160.556 162.232 159.975 162.195C159.516 162.166 159.308 162.644 159.1 162.98C159.027 163.116 158.471 164.112 158.285 164.049Z" fill="#FBBEBE"/>
<path d="M159.269 163.571C159.06 163.536 158.861 163.458 158.684 163.342C158.507 163.226 158.356 163.074 158.241 162.896C158.142 162.724 158.038 162.492 157.84 162.504C157.642 162.516 157.574 162.734 157.533 162.915C157.399 163.593 157.205 164.257 156.955 164.901C156.702 165.546 156.274 166.108 155.719 166.523C155.461 166.702 155.173 166.837 154.919 167.026C154.707 167.215 154.481 167.386 154.242 167.538C154.074 167.615 153.9 167.68 153.722 167.732C153.462 167.823 153.212 167.944 152.98 168.092C152.776 168.212 152.603 168.377 152.474 168.576C152.413 168.676 152.376 168.791 152.369 168.909C152.361 169.027 152.382 169.145 152.431 169.253C152.483 169.34 152.553 169.416 152.636 169.475C152.72 169.533 152.814 169.574 152.915 169.594C153.118 169.628 153.326 169.632 153.531 169.608C154.346 169.548 155.158 169.475 155.971 169.403C156.315 169.381 156.657 169.334 156.994 169.262C157.172 169.219 157.347 169.161 157.523 169.115C157.828 169.037 158.14 168.992 158.454 168.98C158.545 168.973 158.637 168.982 158.725 169.006C158.913 169.067 159.046 169.248 159.24 169.291C159.364 169.304 159.49 169.288 159.607 169.243C160.202 169.117 160.808 169.054 161.416 169.054C161.682 169.04 161.996 168.989 162.117 168.75C162.269 168.452 162.018 168.119 161.916 167.8C161.866 167.595 161.838 167.386 161.832 167.176C161.786 166.656 161.634 166.152 161.384 165.694C161.177 165.312 160.901 164.891 161.039 164.485C161.113 164.358 161.16 164.217 161.177 164.071C161.143 163.416 159.636 163.658 159.269 163.571Z" fill="#2F2E41"/>
<path d="M174.144 152.115C173.353 151.766 172.719 151.137 172.364 150.348C172.292 150.179 172.229 150.002 172.159 149.83C171.924 149.263 171.559 148.758 171.095 148.356C171.045 148.301 170.984 148.258 170.916 148.229C170.848 148.2 170.775 148.186 170.701 148.189C170.63 148.21 170.565 148.25 170.514 148.304C170.463 148.359 170.427 148.426 170.411 148.498C170.369 148.656 170.359 148.82 170.379 148.982C170.421 149.357 170.485 149.729 170.573 150.096L170.79 151.083C170.818 151.235 170.863 151.382 170.926 151.523C171.019 151.689 171.142 151.835 171.289 151.956C171.487 152.14 171.687 152.316 171.891 152.488C172.003 152.589 172.125 152.678 172.256 152.754C172.47 152.855 172.7 152.922 172.935 152.952C173.822 153.116 174.724 153.353 175.471 153.919C175.471 153.919 175.471 153.259 175.455 153.194C175.446 153.003 175.38 152.818 175.266 152.664C174.985 152.362 174.502 152.273 174.144 152.115Z" fill="#FBBEBE"/>
<path opacity="0.1" d="M174.144 152.115C173.353 151.766 172.719 151.137 172.364 150.348C172.292 150.179 172.229 150.002 172.159 149.83C171.924 149.263 171.559 148.758 171.095 148.356C171.045 148.301 170.984 148.258 170.916 148.229C170.848 148.2 170.775 148.186 170.701 148.189C170.63 148.21 170.565 148.25 170.514 148.304C170.463 148.359 170.427 148.426 170.411 148.498C170.369 148.656 170.359 148.82 170.379 148.982C170.421 149.357 170.485 149.729 170.573 150.096L170.79 151.083C170.818 151.235 170.863 151.382 170.926 151.523C171.019 151.689 171.142 151.835 171.289 151.956C171.487 152.14 171.687 152.316 171.891 152.488C172.003 152.589 172.125 152.678 172.256 152.754C172.47 152.855 172.7 152.922 172.935 152.952C173.822 153.116 174.724 153.353 175.471 153.919C175.471 153.919 175.471 153.259 175.455 153.194C175.446 153.003 175.38 152.818 175.266 152.664C174.985 152.362 174.502 152.273 174.144 152.115Z" fill="black"/>
<path d="M183.234 144.571C183.834 144.571 184.32 144.081 184.32 143.478C184.32 142.874 183.834 142.385 183.234 142.385C182.634 142.385 182.148 142.874 182.148 143.478C182.148 144.081 182.634 144.571 183.234 144.571Z" fill="#2F2E41"/>
<path d="M182.564 142.816C182.273 142.75 181.967 142.794 181.706 142.94C181.58 143.051 181.48 143.188 181.413 143.341C181.169 143.759 180.979 144.205 180.847 144.671C180.751 145.07 180.734 145.486 180.606 145.88C180.383 146.605 179.812 147.222 179.747 147.979C179.718 148.317 179.774 148.716 179.527 148.946C179.466 148.997 179.4 149.043 179.331 149.084C179.16 149.199 179.014 149.349 178.903 149.524C178.829 149.681 178.727 149.823 178.601 149.942C178.379 150.106 178.014 150.089 177.905 150.343C177.796 150.597 178.076 150.892 178.011 151.168C177.958 151.393 177.706 151.497 177.528 151.651C177.324 151.867 177.181 152.133 177.114 152.423C176.751 152.491 176.377 152.48 176.019 152.39C175.66 152.301 175.325 152.134 175.037 151.903C175.339 152.65 175.347 153.474 175.359 154.28C175.394 154.537 175.325 154.798 175.168 155.005C176.033 155.024 176.875 155.247 177.719 155.447C178.079 155.568 178.47 155.568 178.831 155.447C179.024 155.344 179.196 155.206 179.341 155.041C179.8 154.575 180.282 154.074 180.393 153.424C180.422 153.058 180.429 152.69 180.412 152.324C180.456 151.871 180.55 151.424 180.69 150.991C180.933 150.093 181.095 149.174 181.174 148.247C181.225 147.674 181.718 147.215 181.979 146.702C182.462 145.735 182.97 144.731 183.009 143.648C183.043 143.295 182.922 142.862 182.564 142.816Z" fill="#2F2E41"/>
<path opacity="0.1" d="M182.564 142.816C182.273 142.75 181.967 142.794 181.706 142.94C181.58 143.051 181.48 143.188 181.413 143.341C181.169 143.759 180.979 144.205 180.847 144.671C180.751 145.07 180.734 145.486 180.606 145.88C180.383 146.605 179.812 147.222 179.747 147.979C179.718 148.317 179.774 148.716 179.527 148.946C179.466 148.997 179.4 149.043 179.331 149.084C179.16 149.199 179.014 149.349 178.903 149.524C178.829 149.681 178.727 149.823 178.601 149.942C178.379 150.106 178.014 150.089 177.905 150.343C177.796 150.597 178.076 150.892 178.011 151.168C177.958 151.393 177.706 151.497 177.528 151.651C177.324 151.867 177.181 152.133 177.114 152.423C176.751 152.491 176.377 152.48 176.019 152.39C175.66 152.301 175.325 152.134 175.037 151.903C175.339 152.65 175.347 153.474 175.359 154.28C175.394 154.537 175.325 154.798 175.168 155.005C176.033 155.024 176.875 155.247 177.719 155.447C178.079 155.568 178.47 155.568 178.831 155.447C179.024 155.344 179.196 155.206 179.341 155.041C179.8 154.575 180.282 154.074 180.393 153.424C180.422 153.058 180.429 152.69 180.412 152.324C180.456 151.871 180.55 151.424 180.69 150.991C180.933 150.093 181.095 149.174 181.174 148.247C181.225 147.674 181.718 147.215 181.979 146.702C182.462 145.735 182.97 144.731 183.009 143.648C183.043 143.295 182.922 142.862 182.564 142.816Z" fill="black"/>
<path d="M181.55 160.216C180.619 159.773 179.94 158.949 179.188 158.243C177.752 156.893 175.996 155.941 174.488 154.676C173.489 153.84 172.594 152.865 171.494 152.164C170.527 151.547 169.429 151.162 168.288 151.04C168.158 151.017 168.024 151.023 167.896 151.059C167.752 151.124 167.627 151.223 167.531 151.349C167.044 151.898 166.611 152.494 166.238 153.126C164.325 156.371 161.61 159.101 159.359 162.121C159.286 162.192 159.244 162.288 159.239 162.389C159.234 162.49 159.267 162.59 159.332 162.667L159.789 163.564C160.045 164.065 160.456 164.65 160.998 164.551C161.247 164.479 161.469 164.337 161.639 164.142L163.694 162.176L165.848 160.116C167.111 158.907 168.394 157.674 169.219 156.132C169.862 157.246 171.003 157.977 171.787 158.999C172.084 159.386 172.326 159.814 172.592 160.225C173.02 160.885 173.503 161.504 173.987 162.121L176.461 165.276C176.773 165.726 177.159 166.118 177.604 166.437C178.189 166.807 178.903 166.906 179.592 166.966C180.52 167.051 181.452 167.085 182.384 167.068C183.095 167.056 183.835 167.01 184.464 166.693C185.092 166.376 185.627 165.726 185.593 165.018C185.554 164.646 185.433 164.288 185.238 163.971C184.365 162.351 183.209 160.997 181.55 160.216Z" fill="#2F2E41"/>
<path d="M183.904 145.075C184.365 145.075 184.739 144.699 184.739 144.236C184.739 143.772 184.365 143.396 183.904 143.396C183.444 143.396 183.07 143.772 183.07 144.236C183.07 144.699 183.444 145.075 183.904 145.075Z" fill="#E8E8F0"/>
<path d="M183.72 143.602C183.908 143.978 183.941 144.412 183.812 144.811C183.683 145.204 183.502 145.578 183.275 145.924C183.079 146.28 182.845 146.614 182.576 146.92C183.865 146.983 185.115 146.477 186.251 145.863C187.168 145.38 188.082 144.763 188.57 143.842C188.425 143.876 188.274 143.88 188.127 143.853C187.98 143.826 187.84 143.769 187.717 143.685C187.471 143.513 187.25 143.308 187.061 143.075L186.416 142.35C186.263 142.191 186.129 142.015 186.017 141.825C185.876 141.568 185.816 141.274 185.845 140.981C185.588 141.251 185.301 141.489 184.989 141.692C184.527 141.995 184.022 142.212 183.555 142.51C183.391 142.616 183.026 142.788 183.12 142.993C183.214 143.199 183.589 143.37 183.72 143.602Z" fill="#FBBEBE"/>
<path opacity="0.1" d="M183.72 143.602C183.908 143.978 183.941 144.412 183.812 144.811C183.683 145.204 183.502 145.578 183.275 145.924C183.079 146.28 182.845 146.614 182.576 146.92C183.865 146.983 185.115 146.477 186.251 145.863C187.168 145.38 188.082 144.763 188.57 143.842C188.425 143.876 188.274 143.88 188.127 143.853C187.98 143.826 187.84 143.769 187.717 143.685C187.471 143.513 187.25 143.308 187.061 143.075L186.416 142.35C186.263 142.191 186.129 142.015 186.017 141.825C185.876 141.568 185.816 141.274 185.845 140.981C185.588 141.251 185.301 141.489 184.989 141.692C184.527 141.995 184.022 142.212 183.555 142.51C183.391 142.616 183.026 142.788 183.12 142.993C183.214 143.199 183.589 143.37 183.72 143.602Z" fill="black"/>
<path d="M183.735 143.731C183.604 143.916 183.534 144.136 183.534 144.361C183.534 144.587 183.604 144.807 183.735 144.991C183.771 145.037 183.909 145.325 183.976 145.327C184.033 145.322 184.086 145.295 184.124 145.252C184.416 144.947 184.689 144.624 184.941 144.285C185.196 143.942 185.564 143.7 185.981 143.603C186.486 143.523 186.972 143.792 187.415 144.048C187.605 144.143 187.77 144.28 187.898 144.449C187.991 144.618 188.047 144.804 188.06 144.996C188.187 146.149 188.236 147.309 188.205 148.468C188.229 149.304 188.174 150.14 188.041 150.966C187.959 151.391 187.835 151.807 187.777 152.238C187.735 152.616 187.718 152.998 187.727 153.379V154.975C187.716 155.267 187.737 155.56 187.789 155.847C187.889 156.191 188.006 156.529 188.14 156.861C188.258 157.255 188.339 157.66 188.382 158.069L188.599 159.721C188.67 160.243 188.72 160.811 188.404 161.23C188.263 161.421 188.075 161.571 187.92 161.759C187.376 162.451 187.557 163.454 187.315 164.313C187.137 164.942 186.771 165.503 186.266 165.92C185.882 166.247 185.384 166.506 184.886 166.404C184.216 166.278 183.812 165.58 183.628 164.919C183.444 164.259 183.386 163.539 182.983 162.985C182.659 162.528 182.158 162.243 181.706 161.916C181.254 161.59 180.809 161.172 180.71 160.62C180.666 160.379 180.693 160.137 180.669 159.895C180.633 159.587 180.515 159.294 180.327 159.047C180.139 158.801 179.888 158.609 179.6 158.493C179.257 158.36 178.831 158.311 178.633 158.009C179.125 157.7 179.484 157.218 179.639 156.657C179.789 156.105 179.87 155.537 179.88 154.965L179.996 153.045C180.047 152.187 180.071 151.336 180.449 150.564C180.618 150.221 180.828 149.897 181.002 149.556C181.236 149.078 181.434 148.583 181.597 148.076C181.87 147.29 182.146 146.502 182.39 145.707C182.488 145.321 182.634 144.95 182.825 144.602C183.05 144.239 183.348 143.804 183.735 143.731Z" fill="#E8E8F0"/>
<path d="M179.474 156.203L179.982 156.22L180.09 155.453C180.105 155.3 180.141 155.15 180.197 155.006C180.281 154.855 180.379 154.712 180.489 154.578C180.99 153.872 180.954 152.934 181.077 152.076C181.241 150.932 181.72 149.858 182.194 148.804L183.18 146.606C183.268 146.426 183.339 146.237 183.391 146.043C183.434 145.829 183.454 145.611 183.451 145.393C183.451 145.054 183.562 143.818 183.57 143.478C183.57 143.352 183.294 143.422 183.236 143.311C183.113 143.069 182.944 143.727 182.711 143.872C182.493 144.039 182.333 144.272 182.257 144.537C182.044 145.09 181.913 145.673 181.715 146.229C181.541 146.799 181.224 147.314 180.794 147.726C180.593 147.905 180.359 148.045 180.168 148.234C179.554 148.84 179.496 149.798 179.474 150.651C179.459 151.181 179.36 156.203 179.474 156.203Z" fill="#2F2E41"/>
<path d="M186.789 142.814C186.305 143.007 186.025 143.539 185.887 144.057C185.749 144.574 185.691 145.121 185.425 145.58C184.806 146.658 183.227 146.973 182.79 148.138C182.678 148.532 182.619 148.938 182.613 149.347C182.536 150.181 182.26 150.989 182.178 151.823C182.135 152.472 182.151 153.123 182.224 153.769L182.777 160.353C182.885 161.323 182.828 162.304 182.611 163.255C183.178 163.337 183.758 163.241 184.269 162.982C184.789 162.74 185.263 162.421 185.761 162.145C186.62 161.661 187.567 161.335 188.317 160.694C188.453 160.588 188.57 160.46 188.663 160.315C188.783 160.038 188.864 159.746 188.904 159.447C188.968 159.214 189.049 158.986 189.146 158.765C189.424 158.101 189.666 157.423 189.872 156.734C190.012 156.276 190.123 155.81 190.203 155.339C190.263 154.964 190.295 154.584 190.329 154.207C190.367 153.614 190.485 153.028 190.679 152.466C191.159 151.125 191.43 149.719 191.484 148.295C191.501 148.09 191.487 147.883 191.443 147.681C191.36 147.437 191.248 147.203 191.11 146.985C190.88 146.552 190.742 146.076 190.524 145.638C190.041 144.647 189.173 143.895 188.266 143.264C187.802 142.957 187.292 142.623 186.789 142.814Z" fill="#2F2E41"/>
<path d="M175.245 153.558C174.852 153.352 174.497 153.083 174.193 152.76C174.055 152.598 173.951 152.417 173.801 152.257C173.446 151.878 172.985 151.616 172.479 151.503C171.976 151.392 171.461 151.342 170.946 151.355C170.602 151.331 170.256 151.373 169.928 151.478C169.763 151.532 169.614 151.627 169.496 151.754C169.378 151.881 169.293 152.036 169.251 152.204C169.176 152.615 169.444 153.014 169.766 153.275C170.065 153.519 170.417 153.691 170.794 153.775C171.101 153.829 171.411 153.865 171.722 153.884C173.55 154.075 175.182 155.069 176.783 155.976C178.19 156.77 179.625 157.514 181.087 158.207C181.145 157.77 181.169 157.329 181.159 156.887C181.159 156.558 181.135 156.055 180.823 155.862C180.46 155.635 179.856 155.584 179.455 155.449C178.512 155.141 177.592 154.77 176.701 154.336C176.195 154.092 175.712 153.833 175.245 153.558Z" fill="#FBBEBE"/>
<path d="M183.235 143.231C185.034 143.231 186.492 141.764 186.492 139.955C186.492 138.146 185.034 136.679 183.235 136.679C181.437 136.679 179.979 138.146 179.979 139.955C179.979 141.764 181.437 143.231 183.235 143.231Z" fill="#FBBEBE"/>
<path d="M187.719 146.528C187.46 146.892 187.248 147.288 187.088 147.705C186.685 148.535 186.054 149.246 185.739 150.123C185.406 151.035 185.418 152.12 184.772 152.839C184.642 152.947 184.544 153.089 184.489 153.25C184.485 153.349 184.474 153.449 184.455 153.547C184.363 153.808 183.935 153.82 183.856 154.086C183.834 154.164 183.856 154.248 183.817 154.328C183.752 154.5 183.527 154.524 183.374 154.628C183.058 154.843 183.133 155.341 182.891 155.651C182.793 155.765 182.666 155.852 182.523 155.902C182.38 155.953 182.227 155.964 182.079 155.936C181.782 155.873 181.497 155.767 181.232 155.619C181.139 155.567 181.036 155.535 180.93 155.525C180.804 155.527 180.681 155.569 180.579 155.643C179.977 156.025 179.694 156.785 179.699 157.5C179.742 158.216 179.911 158.918 180.2 159.575C180.234 159.688 180.291 159.794 180.367 159.884C180.565 160.095 180.913 160.061 181.179 159.942C181.428 159.795 181.694 159.676 181.97 159.589C182.473 159.497 182.966 159.846 183.476 159.817C183.849 159.76 184.201 159.605 184.494 159.367C185.012 159.052 185.476 158.656 185.867 158.194C186.09 157.902 186.254 157.568 186.45 157.256C186.7 156.873 186.975 156.506 187.272 156.158L189.151 153.859C189.339 153.641 189.508 153.407 189.656 153.16C189.826 152.826 189.958 152.474 190.05 152.111C190.252 151.505 190.382 150.878 190.44 150.242C190.449 149.715 190.403 149.189 190.302 148.672C190.239 148.159 190.103 147.656 189.898 147.181C189.48 146.334 188.486 145.633 187.719 146.528Z" fill="#2F2E41"/>
<path d="M194.262 142.262C194.265 141.681 194.129 141.107 193.867 140.589C193.605 140.071 193.223 139.622 192.754 139.28C192.739 138.249 192.359 137.256 191.681 136.479C191.003 135.702 190.071 135.191 189.052 135.037C188.855 134.06 188.319 133.184 187.539 132.563C186.76 131.943 185.786 131.617 184.79 131.644C183.794 131.671 182.839 132.049 182.094 132.71C181.349 133.372 180.861 134.276 180.717 135.262C179.363 134.957 178.125 135.354 177.9 136.188C177.659 137.061 178.626 138.081 180.057 138.468C180.506 138.595 180.973 138.641 181.438 138.606C181.771 139.094 182.202 139.508 182.704 139.821C183.206 140.133 183.768 140.337 184.354 140.419C184.526 141.208 184.914 141.933 185.476 142.512C186.038 143.092 186.75 143.504 187.533 143.7C187.75 144.224 188.086 144.689 188.515 145.059C188.515 145.161 188.498 145.265 188.498 145.371C188.482 145.743 188.542 146.114 188.674 146.462C188.805 146.81 189.006 147.127 189.263 147.396C189.521 147.664 189.83 147.878 190.172 148.024C190.514 148.17 190.882 148.245 191.254 148.245C191.626 148.245 191.995 148.17 192.337 148.024C192.679 147.878 192.988 147.664 193.246 147.396C193.503 147.127 193.704 146.81 193.835 146.462C193.967 146.114 194.026 145.743 194.011 145.371C194.011 144.954 193.921 144.541 193.747 144.162C194.087 143.587 194.265 142.93 194.262 142.262V142.262Z" fill="#F86D70"/>
<path opacity="0.1" d="M178.817 136.351C179.042 135.517 180.268 135.12 181.634 135.425C181.793 134.423 182.3 133.51 183.067 132.847C183.834 132.183 184.81 131.812 185.824 131.798C185.918 131.798 186.013 131.798 186.105 131.798C185.713 131.679 185.305 131.618 184.896 131.619C183.882 131.633 182.905 132.004 182.139 132.668C181.372 133.331 180.864 134.245 180.705 135.246C179.351 134.941 178.113 135.338 177.889 136.172C177.647 137.045 178.614 138.065 180.045 138.452C180.312 138.526 180.585 138.573 180.86 138.592C179.501 138.196 178.587 137.205 178.817 136.351Z" fill="black"/>
<path opacity="0.1" d="M189.416 145.537C189.416 145.43 189.416 145.326 189.433 145.222C189.004 144.853 188.667 144.389 188.451 143.866C187.669 143.667 186.957 143.255 186.395 142.675C185.834 142.095 185.445 141.371 185.271 140.582C184.686 140.5 184.124 140.297 183.621 139.984C183.119 139.672 182.688 139.258 182.355 138.769C182.085 138.79 181.812 138.783 181.543 138.747C181.877 139.198 182.298 139.577 182.78 139.864C183.262 140.15 183.797 140.338 184.353 140.415C184.525 141.204 184.913 141.929 185.475 142.509C186.037 143.089 186.749 143.5 187.532 143.697C187.749 144.22 188.085 144.685 188.514 145.055C188.514 145.157 188.497 145.261 188.497 145.367C188.485 146.109 188.766 146.825 189.28 147.359C189.793 147.894 190.498 148.203 191.239 148.22C190.698 148.012 190.233 147.643 189.908 147.163C189.582 146.684 189.41 146.116 189.416 145.537Z" fill="black"/>
<path d="M184.726 141.151C184.948 140.983 184.945 140.608 184.722 140.314C184.498 140.019 184.137 139.916 183.916 140.084C183.695 140.252 183.697 140.627 183.921 140.922C184.144 141.217 184.505 141.319 184.726 141.151Z" fill="#FBBEBE"/>
<path d="M106.875 157.455L110.095 155.562C109.66 154.818 109.103 154.152 108.449 153.592L102.375 155.48L107.133 152.682C105.955 152.037 104.629 151.71 103.286 151.733C101.943 151.755 100.628 152.127 99.4726 152.812C98.3169 153.497 97.3593 154.471 96.6943 155.638C96.0292 156.806 95.6796 158.126 95.6797 159.469C95.6797 163.742 99.1445 163.889 103.417 163.889C107.689 163.889 111.154 163.742 111.154 159.469C111.157 158.387 110.93 157.315 110.489 156.326L106.875 157.455Z" fill="#F50057"/>
<path opacity="0.1" d="M107.694 161.609C107.351 161.266 106.968 160.964 106.553 160.712C105.97 160.323 105.363 159.926 104.674 159.796C104.07 159.68 103.446 159.779 102.829 159.743C101.759 159.677 100.751 159.215 100.003 158.447C99.5628 157.992 99.2171 157.434 98.6876 157.085C98.0957 156.734 97.3974 156.606 96.7194 156.725C96.5229 156.753 96.3283 156.792 96.1367 156.844C95.8336 157.686 95.679 158.574 95.6797 159.469C95.6797 163.742 99.1445 163.889 103.417 163.889C105.492 163.889 107.373 163.856 108.763 163.331L108.521 162.898C108.302 162.435 108.024 162.002 107.694 161.609Z" fill="black"/>
</g>
<path d="M10.5281 5.08345C10.4627 4.4246 10.1823 3.91276 9.68679 3.54794C9.19129 3.18312 8.51882 3.00071 7.66939 3.00071C7.09221 3.00071 6.60488 3.08239 6.20739 3.24574C5.8099 3.40365 5.50497 3.62417 5.29261 3.90731C5.0857 4.19046 4.98224 4.51172 4.98224 4.87109C4.97135 5.17057 5.03397 5.43194 5.1701 5.65518C5.31167 5.87843 5.50497 6.07173 5.75 6.23509C5.99503 6.39299 6.27817 6.53184 6.59943 6.65163C6.92069 6.76598 7.26373 6.86399 7.62855 6.94567L9.13139 7.30504C9.86103 7.46839 10.5308 7.6862 11.1406 7.95845C11.7505 8.23071 12.2786 8.56558 12.7251 8.96307C13.1716 9.36056 13.5174 9.82884 13.7624 10.3679C14.0129 10.907 14.1409 11.525 14.1463 12.2219C14.1409 13.2456 13.8795 14.1332 13.3622 14.8846C12.8504 15.6306 12.1098 16.2105 11.1406 16.6243C10.1768 17.0327 9.01432 17.2369 7.65305 17.2369C6.30268 17.2369 5.12654 17.0299 4.12464 16.6161C3.1282 16.2023 2.34955 15.5897 1.78871 14.7784C1.23331 13.9616 0.941998 12.9516 0.914773 11.7482H4.337C4.37512 12.3091 4.53575 12.7773 4.81889 13.1531C5.10748 13.5233 5.49136 13.8037 5.97053 13.9943C6.45514 14.1795 7.00237 14.272 7.61222 14.272C8.21117 14.272 8.73118 14.1849 9.17223 14.0107C9.61873 13.8364 9.96449 13.5941 10.2095 13.2837C10.4545 12.9734 10.5771 12.6167 10.5771 12.2138C10.5771 11.8381 10.4654 11.5223 10.2422 11.2663C10.0244 11.0104 9.70313 10.7926 9.27841 10.6129C8.85914 10.4332 8.34458 10.2699 7.73473 10.1229L5.91335 9.66548C4.50308 9.32244 3.38956 8.7861 2.5728 8.05646C1.75604 7.32682 1.35038 6.34399 1.35582 5.10795C1.35038 4.09517 1.61991 3.21035 2.16442 2.45348C2.71437 1.69661 3.46851 1.10582 4.42685 0.681108C5.38518 0.256392 6.4742 0.0440335 7.69389 0.0440335C8.93537 0.0440335 10.0189 0.256392 10.9446 0.681108C11.8757 1.10582 12.5999 1.69661 13.1172 2.45348C13.6345 3.21035 13.9013 4.087 13.9176 5.08345H10.5281ZM20.0372 17.2369C19.2368 17.2369 18.5235 17.098 17.8973 16.8203C17.2711 16.5372 16.7756 16.1206 16.4108 15.5707C16.0514 15.0153 15.8717 14.3237 15.8717 13.4961C15.8717 12.7991 15.9997 12.2138 16.2556 11.7401C16.5115 11.2663 16.86 10.8852 17.301 10.5966C17.7421 10.308 18.243 10.0902 18.8039 9.94318C19.3702 9.79616 19.9637 9.69271 20.5844 9.63281C21.3141 9.55658 21.9021 9.4858 22.3486 9.42045C22.7951 9.34967 23.1191 9.24621 23.3206 9.11009C23.522 8.97396 23.6228 8.77249 23.6228 8.50568V8.45668C23.6228 7.93939 23.4594 7.53918 23.1327 7.25604C22.8115 6.97289 22.3541 6.83132 21.7606 6.83132C21.1344 6.83132 20.6362 6.97017 20.2659 7.24787C19.8956 7.52012 19.6506 7.86316 19.5308 8.27699L16.3128 8.01562C16.4761 7.25331 16.7974 6.59446 17.2765 6.03906C17.7557 5.47822 18.3737 5.04806 19.1306 4.74858C19.8929 4.44366 20.775 4.29119 21.7769 4.29119C22.4739 4.29119 23.1409 4.37287 23.778 4.53622C24.4205 4.69957 24.9895 4.95277 25.485 5.29581C25.9859 5.63885 26.3807 6.0799 26.6693 6.61896C26.9579 7.15258 27.1022 7.79238 27.1022 8.53835V17H23.8025V15.2603H23.7045C23.503 15.6523 23.2335 15.9981 22.8959 16.2976C22.5583 16.5916 22.1526 16.823 21.6789 16.9918C21.2052 17.1552 20.6579 17.2369 20.0372 17.2369ZM21.0336 14.8356C21.5455 14.8356 21.9974 14.7348 22.3895 14.5334C22.7815 14.3265 23.0892 14.0488 23.3124 13.7003C23.5357 13.3518 23.6473 12.957 23.6473 12.516V11.1847C23.5384 11.2554 23.3886 11.3208 23.1981 11.3807C23.0129 11.4351 22.8033 11.4869 22.5692 11.5359C22.335 11.5794 22.1009 11.6203 21.8667 11.6584C21.6326 11.6911 21.4202 11.721 21.2297 11.7482C20.8213 11.8081 20.4646 11.9034 20.1597 12.0341C19.8548 12.1648 19.6179 12.3417 19.4491 12.565C19.2803 12.7828 19.1959 13.055 19.1959 13.3817C19.1959 13.8555 19.3675 14.2176 19.7105 14.468C20.059 14.7131 20.5 14.8356 21.0336 14.8356ZM33.281 0.272727V17H29.8016V0.272727H33.281ZM39.6456 17.2369C38.8452 17.2369 38.1319 17.098 37.5057 16.8203C36.8795 16.5372 36.384 16.1206 36.0192 15.5707C35.6598 15.0153 35.4801 14.3237 35.4801 13.4961C35.4801 12.7991 35.6081 12.2138 35.864 11.7401C36.1199 11.2663 36.4684 10.8852 36.9094 10.5966C37.3505 10.308 37.8514 10.0902 38.4123 9.94318C38.9786 9.79616 39.5721 9.69271 40.1928 9.63281C40.9225 9.55658 41.5105 9.4858 41.957 9.42045C42.4035 9.34967 42.7275 9.24621 42.929 9.11009C43.1304 8.97396 43.2312 8.77249 43.2312 8.50568V8.45668C43.2312 7.93939 43.0678 7.53918 42.7411 7.25604C42.4199 6.97289 41.9625 6.83132 41.369 6.83132C40.7428 6.83132 40.2446 6.97017 39.8743 7.24787C39.504 7.52012 39.259 7.86316 39.1392 8.27699L35.9212 8.01562C36.0845 7.25331 36.4058 6.59446 36.8849 6.03906C37.3641 5.47822 37.9821 5.04806 38.739 4.74858C39.5013 4.44366 40.3834 4.29119 41.3853 4.29119C42.0823 4.29119 42.7493 4.37287 43.3864 4.53622C44.0289 4.69957 44.5979 4.95277 45.0934 5.29581C45.5943 5.63885 45.9891 6.0799 46.2777 6.61896C46.5663 7.15258 46.7106 7.79238 46.7106 8.53835V17H43.4109V15.2603H43.3129C43.1114 15.6523 42.8419 15.9981 42.5043 16.2976C42.1667 16.5916 41.761 16.823 41.2873 16.9918C40.8136 17.1552 40.2663 17.2369 39.6456 17.2369ZM40.642 14.8356C41.1539 14.8356 41.6058 14.7348 41.9979 14.5334C42.3899 14.3265 42.6976 14.0488 42.9208 13.7003C43.1441 13.3518 43.2557 12.957 43.2557 12.516V11.1847C43.1468 11.2554 42.997 11.3208 42.8065 11.3807C42.6213 11.4351 42.4117 11.4869 42.1776 11.5359C41.9434 11.5794 41.7093 11.6203 41.4751 11.6584C41.241 11.6911 41.0286 11.721 40.8381 11.7482C40.4297 11.8081 40.073 11.9034 39.7681 12.0341C39.4632 12.1648 39.2263 12.3417 39.0575 12.565C38.8887 12.7828 38.8043 13.055 38.8043 13.3817C38.8043 13.8555 38.9759 14.2176 39.3189 14.468C39.6674 14.7131 40.1084 14.8356 40.642 14.8356ZM49.41 17V4.45455H52.7832V6.64347H52.9139C53.1426 5.86482 53.5265 5.27675 54.0655 4.87926C54.6046 4.47633 55.2253 4.27486 55.9277 4.27486C56.102 4.27486 56.2898 4.28575 56.4913 4.30753C56.6928 4.32931 56.8697 4.35926 57.0222 4.39737V7.48473C56.8588 7.43572 56.6329 7.39216 56.3443 7.35405C56.0557 7.31593 55.7916 7.29688 55.552 7.29688C55.0402 7.29688 54.5828 7.4085 54.1799 7.63175C53.7824 7.84955 53.4666 8.15447 53.2324 8.54652C53.0037 8.93857 52.8894 9.39051 52.8894 9.90234V17H49.41ZM61.351 21.7045C60.91 21.7045 60.4962 21.6692 60.1096 21.5984C59.7284 21.533 59.4126 21.4486 59.1621 21.3452L59.9462 18.7479C60.3546 18.8731 60.7221 18.9412 61.0488 18.9521C61.381 18.9629 61.6668 18.8867 61.9064 18.7234C62.1515 18.56 62.3502 18.2823 62.5027 17.8903L62.7069 17.3594L58.2065 4.45455H61.8656L64.4629 13.6676H64.5936L67.2154 4.45455H70.899L66.0229 18.3558C65.7888 19.031 65.4702 19.6191 65.0673 20.12C64.6698 20.6264 64.1661 21.0157 63.5563 21.288C62.9464 21.5657 62.2114 21.7045 61.351 21.7045ZM1.45384 28.2727H5.81534L10.4219 39.5114H10.6179L15.2244 28.2727H19.5859V45H16.1555V34.1126H16.0167L11.6879 44.9183H9.35192L5.02308 34.0717H4.88423V45H1.45384V28.2727ZM26.0118 45.2369C25.2114 45.2369 24.4981 45.098 23.8719 44.8203C23.2457 44.5372 22.7502 44.1206 22.3854 43.5707C22.026 43.0153 21.8463 42.3237 21.8463 41.4961C21.8463 40.7991 21.9743 40.2138 22.2302 39.7401C22.4861 39.2663 22.8346 38.8852 23.2757 38.5966C23.7167 38.308 24.2177 38.0902 24.7785 37.9432C25.3448 37.7962 25.9383 37.6927 26.559 37.6328C27.2887 37.5566 27.8767 37.4858 28.3232 37.4205C28.7697 37.3497 29.0937 37.2462 29.2952 37.1101C29.4967 36.974 29.5974 36.7725 29.5974 36.5057V36.4567C29.5974 35.9394 29.434 35.5392 29.1073 35.256C28.7861 34.9729 28.3287 34.8313 27.7352 34.8313C27.109 34.8313 26.6108 34.9702 26.2405 35.2479C25.8702 35.5201 25.6252 35.8632 25.5054 36.277L22.2874 36.0156C22.4507 35.2533 22.772 34.5945 23.2512 34.0391C23.7303 33.4782 24.3483 33.0481 25.1052 32.7486C25.8675 32.4437 26.7496 32.2912 27.7515 32.2912C28.4485 32.2912 29.1155 32.3729 29.7526 32.5362C30.3951 32.6996 30.9641 32.9528 31.4596 33.2958C31.9606 33.6388 32.3553 34.0799 32.6439 34.619C32.9325 35.1526 33.0768 35.7924 33.0768 36.5384V45H29.7771V43.2603H29.6791C29.4776 43.6523 29.2081 43.9981 28.8705 44.2976C28.5329 44.5916 28.1272 44.823 27.6535 44.9918C27.1798 45.1552 26.6325 45.2369 26.0118 45.2369ZM27.0083 42.8356C27.5201 42.8356 27.972 42.7348 28.3641 42.5334C28.7561 42.3265 29.0638 42.0488 29.287 41.7003C29.5103 41.3518 29.6219 40.957 29.6219 40.516V39.1847C29.513 39.2554 29.3633 39.3208 29.1727 39.3807C28.9875 39.4351 28.7779 39.4869 28.5438 39.5359C28.3096 39.5794 28.0755 39.6203 27.8414 39.6584C27.6072 39.6911 27.3949 39.721 27.2043 39.7482C26.7959 39.8081 26.4392 39.9034 26.1343 40.0341C25.8294 40.1648 25.5925 40.3417 25.4237 40.565C25.2549 40.7828 25.1705 41.055 25.1705 41.3817C25.1705 41.8555 25.3421 42.2176 25.6851 42.468C26.0336 42.7131 26.4746 42.8356 27.0083 42.8356ZM39.2556 37.7472V45H35.7762V32.4545H39.0922V34.668H39.2393C39.517 33.9383 39.9825 33.3611 40.6359 32.9364C41.2893 32.5063 42.0816 32.2912 43.0127 32.2912C43.8839 32.2912 44.6435 32.4818 45.2915 32.8629C45.9394 33.2441 46.4431 33.7886 46.8025 34.4964C47.1618 35.1989 47.3415 36.0374 47.3415 37.0121V45H43.8621V37.6328C43.8676 36.8651 43.6715 36.2661 43.2741 35.8359C42.8766 35.4003 42.3293 35.1825 41.6324 35.1825C41.1641 35.1825 40.7503 35.2833 40.3909 35.4847C40.037 35.6862 39.7593 35.9802 39.5578 36.3668C39.3618 36.748 39.261 37.2081 39.2556 37.7472ZM53.6612 45.2369C52.8608 45.2369 52.1475 45.098 51.5213 44.8203C50.8951 44.5372 50.3996 44.1206 50.0348 43.5707C49.6754 43.0153 49.4957 42.3237 49.4957 41.4961C49.4957 40.7991 49.6237 40.2138 49.8796 39.7401C50.1355 39.2663 50.484 38.8852 50.9251 38.5966C51.3661 38.308 51.8671 38.0902 52.4279 37.9432C52.9942 37.7962 53.5877 37.6927 54.2085 37.6328C54.9381 37.5566 55.5262 37.4858 55.9727 37.4205C56.4192 37.3497 56.7431 37.2462 56.9446 37.1101C57.1461 36.974 57.2468 36.7725 57.2468 36.5057V36.4567C57.2468 35.9394 57.0835 35.5392 56.7567 35.256C56.4355 34.9729 55.9781 34.8313 55.3846 34.8313C54.7584 34.8313 54.2602 34.9702 53.8899 35.2479C53.5196 35.5201 53.2746 35.8632 53.1548 36.277L49.9368 36.0156C50.1001 35.2533 50.4214 34.5945 50.9006 34.0391C51.3797 33.4782 51.9978 33.0481 52.7546 32.7486C53.5169 32.4437 54.399 32.2912 55.4009 32.2912C56.0979 32.2912 56.7649 32.3729 57.402 32.5362C58.0445 32.6996 58.6135 32.9528 59.109 33.2958C59.61 33.6388 60.0047 34.0799 60.2933 34.619C60.5819 35.1526 60.7262 35.7924 60.7262 36.5384V45H57.4265V43.2603H57.3285C57.127 43.6523 56.8575 43.9981 56.5199 44.2976C56.1823 44.5916 55.7766 44.823 55.3029 44.9918C54.8292 45.1552 54.282 45.2369 53.6612 45.2369ZM54.6577 42.8356C55.1695 42.8356 55.6214 42.7348 56.0135 42.5334C56.4055 42.3265 56.7132 42.0488 56.9364 41.7003C57.1597 41.3518 57.2713 40.957 57.2713 40.516V39.1847C57.1624 39.2554 57.0127 39.3208 56.8221 39.3807C56.637 39.4351 56.4273 39.4869 56.1932 39.5359C55.959 39.5794 55.7249 39.6203 55.4908 39.6584C55.2566 39.6911 55.0443 39.721 54.8537 39.7482C54.4453 39.8081 54.0887 39.9034 53.7837 40.0341C53.4788 40.1648 53.242 40.3417 53.0732 40.565C52.9044 40.7828 52.82 41.055 52.82 41.3817C52.82 41.8555 52.9915 42.2176 53.3345 42.468C53.683 42.7131 54.1241 42.8356 54.6577 42.8356ZM69.0776 49.9659C67.9505 49.9659 66.984 49.8107 66.1781 49.5004C65.3777 49.1954 64.7406 48.7789 64.2669 48.2507C63.7931 47.7225 63.4855 47.129 63.3439 46.4702L66.562 46.0373C66.66 46.2878 66.8152 46.5219 67.0275 46.7397C67.2399 46.9575 67.5203 47.1317 67.8688 47.2624C68.2227 47.3986 68.6529 47.4666 69.1593 47.4666C69.9161 47.4666 70.5396 47.2815 71.0297 46.9112C71.5252 46.5464 71.7729 45.9338 71.7729 45.0735V42.7784H71.6259C71.4734 43.1269 71.2447 43.4563 70.9398 43.7667C70.6349 44.0771 70.2428 44.3303 69.7637 44.5263C69.2845 44.7223 68.7128 44.8203 68.0485 44.8203C67.1065 44.8203 66.2489 44.6025 65.4757 44.1669C64.7079 43.7259 64.0953 43.0534 63.638 42.1495C63.186 41.2402 62.96 40.0913 62.96 38.7028C62.96 37.2816 63.1915 36.0946 63.6543 35.1417C64.1171 34.1888 64.7324 33.4755 65.5002 33.0018C66.2734 32.5281 67.1201 32.2912 68.0403 32.2912C68.7427 32.2912 69.3308 32.411 69.8045 32.6506C70.2782 32.8847 70.6594 33.1787 70.948 33.5327C71.242 33.8812 71.468 34.2242 71.6259 34.5618H71.7566V32.4545H75.2115V45.1225C75.2115 46.1897 74.9501 47.0827 74.4274 47.8015C73.9047 48.5202 73.1805 49.0593 72.2548 49.4187C71.3346 49.7835 70.2755 49.9659 69.0776 49.9659ZM69.1511 42.2067C69.7119 42.2067 70.1857 42.0678 70.5723 41.7901C70.9643 41.507 71.2638 41.104 71.4707 40.5813C71.6831 40.0531 71.7892 39.4215 71.7892 38.6864C71.7892 37.9513 71.6858 37.3143 71.4789 36.7752C71.272 36.2307 70.9725 35.8087 70.5804 35.5092C70.1884 35.2098 69.7119 35.06 69.1511 35.06C68.5794 35.06 68.0975 35.2152 67.7054 35.5256C67.3134 35.8305 67.0166 36.2552 66.8152 36.7997C66.6137 37.3442 66.513 37.9731 66.513 38.6864C66.513 39.4106 66.6137 40.0368 66.8152 40.565C67.0221 41.0877 67.3188 41.4934 67.7054 41.782C68.0975 42.0651 68.5794 42.2067 69.1511 42.2067ZM83.6976 45.245C82.4071 45.245 81.2963 44.9837 80.3652 44.4609C79.4396 43.9328 78.7263 43.1868 78.2253 42.223C77.7244 41.2538 77.4739 40.1076 77.4739 38.7844C77.4739 37.494 77.7244 36.3614 78.2253 35.3867C78.7263 34.4121 79.4314 33.6525 80.3407 33.108C81.2555 32.5634 82.3282 32.2912 83.5588 32.2912C84.3864 32.2912 85.1569 32.4246 85.8702 32.6914C86.589 32.9528 87.2151 33.3475 87.7488 33.8757C88.2878 34.4039 88.7071 35.0682 89.0066 35.8686C89.306 36.6636 89.4558 37.5947 89.4558 38.6619V39.6175H78.8624V37.4613H86.1806C86.1806 36.9603 86.0717 36.5166 85.8539 36.13C85.6361 35.7434 85.3339 35.4412 84.9473 35.2234C84.5661 35.0001 84.1223 34.8885 83.6159 34.8885C83.0878 34.8885 82.6195 35.011 82.2111 35.256C81.8082 35.4956 81.4924 35.8196 81.2637 36.228C81.035 36.6309 80.9179 37.0801 80.9125 37.5756V39.6257C80.9125 40.2464 81.0268 40.7828 81.2555 41.2347C81.4896 41.6867 81.8191 42.0352 82.2438 42.2802C82.6685 42.5252 83.1722 42.6477 83.7548 42.6477C84.1414 42.6477 84.4953 42.5933 84.8166 42.4844C85.1378 42.3755 85.4128 42.2121 85.6415 41.9943C85.8702 41.7765 86.0444 41.5097 86.1642 41.1939L89.3823 41.4062C89.2189 42.1795 88.8841 42.8546 88.3777 43.4318C87.8767 44.0036 87.2288 44.45 86.4338 44.7713C85.6442 45.0871 84.7322 45.245 83.6976 45.245ZM91.7264 45V32.4545H95.0424V34.668H95.1895C95.4508 33.9329 95.8864 33.353 96.4963 32.9283C97.1061 32.5036 97.8358 32.2912 98.6852 32.2912C99.5455 32.2912 100.278 32.5063 100.882 32.9364C101.487 33.3611 101.89 33.9383 102.091 34.668H102.222C102.478 33.9492 102.941 33.3748 103.61 32.9446C104.285 32.509 105.083 32.2912 106.003 32.2912C107.174 32.2912 108.124 32.6642 108.854 33.4102C109.589 34.1507 109.956 35.2016 109.956 36.5629V45H106.485V37.2489C106.485 36.552 106.3 36.0292 105.93 35.6808C105.56 35.3323 105.097 35.158 104.541 35.158C103.91 35.158 103.417 35.3595 103.063 35.7624C102.709 36.1599 102.532 36.6854 102.532 37.3388V45H99.1589V37.1754C99.1589 36.5601 98.9819 36.0701 98.628 35.7053C98.2795 35.3404 97.8194 35.158 97.2477 35.158C96.8611 35.158 96.5126 35.256 96.2022 35.4521C95.8973 35.6426 95.655 35.9122 95.4753 36.2607C95.2956 36.6037 95.2058 37.0066 95.2058 37.4695V45H91.7264ZM118.422 45.245C117.132 45.245 116.021 44.9837 115.09 44.4609C114.164 43.9328 113.451 43.1868 112.95 42.223C112.449 41.2538 112.199 40.1076 112.199 38.7844C112.199 37.494 112.449 36.3614 112.95 35.3867C113.451 34.4121 114.156 33.6525 115.065 33.108C115.98 32.5634 117.053 32.2912 118.283 32.2912C119.111 32.2912 119.882 32.4246 120.595 32.6914C121.314 32.9528 121.94 33.3475 122.473 33.8757C123.012 34.4039 123.432 35.0682 123.731 35.8686C124.031 36.6636 124.18 37.5947 124.18 38.6619V39.6175H113.587V37.4613H120.905C120.905 36.9603 120.796 36.5166 120.578 36.13C120.361 35.7434 120.058 35.4412 119.672 35.2234C119.291 35.0001 118.847 34.8885 118.341 34.8885C117.812 34.8885 117.344 35.011 116.936 35.256C116.533 35.4956 116.217 35.8196 115.988 36.228C115.76 36.6309 115.643 37.0801 115.637 37.5756V39.6257C115.637 40.2464 115.751 40.7828 115.98 41.2347C116.214 41.6867 116.544 42.0352 116.968 42.2802C117.393 42.5252 117.897 42.6477 118.479 42.6477C118.866 42.6477 119.22 42.5933 119.541 42.4844C119.862 42.3755 120.137 42.2121 120.366 41.9943C120.595 41.7765 120.769 41.5097 120.889 41.1939L124.107 41.4062C123.944 42.1795 123.609 42.8546 123.102 43.4318C122.601 44.0036 121.953 44.45 121.158 44.7713C120.369 45.0871 119.457 45.245 118.422 45.245ZM129.93 37.7472V45H126.451V32.4545H129.767V34.668H129.914C130.192 33.9383 130.657 33.3611 131.311 32.9364C131.964 32.5063 132.756 32.2912 133.688 32.2912C134.559 32.2912 135.318 32.4818 135.966 32.8629C136.614 33.2441 137.118 33.7886 137.477 34.4964C137.837 35.1989 138.016 36.0374 138.016 37.0121V45H134.537V37.6328C134.542 36.8651 134.346 36.2661 133.949 35.8359C133.551 35.4003 133.004 35.1825 132.307 35.1825C131.839 35.1825 131.425 35.2833 131.066 35.4847C130.712 35.6862 130.434 35.9802 130.233 36.3668C130.037 36.748 129.936 37.2081 129.93 37.7472ZM147.432 32.4545V35.0682H139.877V32.4545H147.432ZM141.592 29.4489H145.071V41.1449C145.071 41.4661 145.12 41.7166 145.218 41.8963C145.316 42.0705 145.452 42.1931 145.627 42.2638C145.806 42.3346 146.013 42.37 146.247 42.37C146.411 42.37 146.574 42.3564 146.737 42.3292C146.901 42.2965 147.026 42.272 147.113 42.2557L147.66 44.8448C147.486 44.8993 147.241 44.9619 146.925 45.0327C146.609 45.1089 146.225 45.1552 145.774 45.1715C144.935 45.2042 144.2 45.0926 143.568 44.8366C142.942 44.5807 142.455 44.1832 142.106 43.6442C141.758 43.1051 141.586 42.4245 141.592 41.6023V29.4489Z" fill="#2B2024"/>
<defs>
<linearGradient id="paint0_linear_0_1" x1="168.216" y1="169.649" x2="168.216" y2="131.05" gradientUnits="userSpaceOnUse">
<stop stop-color="#808080" stop-opacity="0.25"/>
<stop offset="0.54" stop-color="#808080" stop-opacity="0.12"/>
<stop offset="1" stop-color="#808080" stop-opacity="0.1"/>
</linearGradient>
</defs>
</svg>
