<svg width="311" height="200" viewBox="0 0 311 200" fill="none" xmlns="http://www.w3.org/2000/svg">
<mask id="mask0_0_1" style="mask-type:alpha" maskUnits="userSpaceOnUse" x="-25" y="-39" width="332" height="231">
<rect x="-25" y="-39" width="332" height="231" rx="20" fill="white"/>
</mask>
<g mask="url(#mask0_0_1)">
<path d="M210.94 103C210.068 102.999 209.23 102.642 208.595 102.003C207.959 101.364 207.574 100.49 207.517 99.558L207.007 91.2135C206.948 90.2388 207.252 89.2787 207.853 88.5444C208.453 87.8101 209.302 87.3617 210.211 87.2978L271.191 83.0164C273.131 82.8818 275.042 83.5786 276.504 84.9538C277.965 86.329 278.857 88.27 278.984 90.3502C279.111 92.4304 278.463 94.4795 277.181 96.0473C275.9 97.615 274.09 98.5731 272.149 98.7109L211.169 102.992C211.093 102.997 211.016 103 210.94 103Z" fill="#F50057"/>
<path d="M222.838 105C221.957 104.998 221.11 104.609 220.475 103.913C219.841 103.217 219.467 102.268 219.434 101.266L219.002 88.1394C218.986 87.6304 219.057 87.1227 219.213 86.6451C219.369 86.1676 219.606 85.7297 219.91 85.3563C220.214 84.983 220.581 84.6815 220.987 84.4692C221.394 84.2569 221.834 84.1379 222.281 84.1189L272.033 82.0027C272.937 81.9643 273.816 82.3359 274.479 83.0356C275.141 83.7353 275.533 84.7059 275.566 85.7339L275.998 98.8604C276.014 99.3694 275.943 99.8771 275.787 100.355C275.631 100.832 275.394 101.27 275.09 101.643C274.786 102.017 274.419 102.318 274.013 102.531C273.606 102.743 273.166 102.862 272.719 102.881L222.967 104.997C222.924 104.999 222.88 105 222.838 105Z" fill="#2F2E41"/>
<path d="M280.722 218H273.278C272.409 217.999 271.576 217.611 270.961 216.921C270.347 216.231 270.001 215.296 270 214.32V144.68C270.001 143.704 270.347 142.769 270.961 142.079C271.576 141.389 272.409 141.001 273.278 141H280.722C281.591 141.001 282.424 141.389 283.039 142.079C283.653 142.769 283.999 143.704 284 144.68V214.32C283.999 215.296 283.653 216.231 283.039 216.921C282.424 217.611 281.591 217.999 280.722 218V218Z" fill="#2F2E41"/>
<path d="M261.488 218H253.512C252.581 217.999 251.688 217.611 251.03 216.921C250.371 216.231 250.001 215.296 250 214.32V144.68C250.001 143.704 250.371 142.769 251.03 142.079C251.688 141.389 252.581 141.001 253.512 141H261.488C262.419 141.001 263.312 141.389 263.97 142.079C264.629 142.769 264.999 143.704 265 144.68V214.32C264.999 215.296 264.629 216.231 263.97 216.921C263.312 217.611 262.419 217.999 261.488 218V218Z" fill="#2F2E41"/>
<path d="M269.5 70C284.136 70 296 57.2401 296 41.5C296 25.7599 284.136 13 269.5 13C254.864 13 243 25.7599 243 41.5C243 57.2401 254.864 70 269.5 70Z" fill="#F50057"/>
<path d="M254.704 51.2507C253.814 50.9385 252.996 50.4265 252.306 49.7492C251.849 49.2655 251.496 48.6812 251.273 48.037C251.05 47.3929 250.962 46.7045 251.015 46.0202C251.044 45.5326 251.178 45.0587 251.407 44.6357C251.636 44.2126 251.954 43.8518 252.336 43.5814C253.326 42.9039 254.651 42.9019 255.999 43.5358L255.948 32.0055L257.034 32L257.094 45.555L256.258 44.9936C255.287 44.3438 253.901 43.8863 252.922 44.5564C252.68 44.7334 252.48 44.9676 252.336 45.2407C252.193 45.5138 252.111 45.8184 252.096 46.131C252.059 46.6408 252.126 47.153 252.292 47.6327C252.457 48.1125 252.718 48.5486 253.056 48.9113C254.255 50.133 256.005 50.5151 258 50.8565L257.828 52C256.768 51.8502 255.722 51.5995 254.704 51.2507V51.2507Z" fill="#2F2E41"/>
<path d="M245.403 31.5922L245.266 32.7041L250.852 33.4951L250.989 32.3832L245.403 31.5922Z" fill="#2F2E41"/>
<path d="M263.035 34.0864L262.898 35.1982L268.485 35.9892L268.622 34.8773L263.035 34.0864Z" fill="#2F2E41"/>
<path d="M246.456 164H246.456C245.275 163.999 244.142 163.495 243.307 162.601C242.471 161.707 242.001 160.494 242 159.229C242 159.229 249.104 117.96 253.164 93.7723C253.953 89.0688 256.261 84.812 259.685 81.746C263.109 78.6801 267.43 77.0002 271.894 77H271.894C278.287 77 284.419 79.7191 288.94 84.559C293.46 89.399 296 95.9634 296 102.808V110.958C296 125.026 290.78 138.517 281.489 148.464C272.198 158.412 259.596 164 246.456 164V164Z" fill="#2F2E41"/>
<path d="M281.115 159.879C280.824 160.516 280.356 161.055 279.767 161.432C279.178 161.808 278.493 162.005 277.795 162L269.584 161.928C269.11 161.924 268.64 161.826 268.203 161.64C267.766 161.454 267.37 161.183 267.037 160.843C266.704 160.503 266.441 160.1 266.263 159.658C266.085 159.216 265.996 158.743 266 158.267L266.558 93.6887C266.566 92.6704 266.774 91.6638 267.17 90.7262C267.566 89.7886 268.142 88.9386 268.865 88.2246C269.588 87.5106 270.445 86.9467 271.385 86.565C272.325 86.1834 273.331 85.9915 274.346 86.0003C275.36 86.0091 276.363 86.2185 277.296 86.6165C278.23 87.0144 279.076 87.5932 279.787 88.3197C280.498 89.0461 281.059 89.9061 281.439 90.8504C281.818 91.7947 282.009 92.8048 282 93.8231L281.442 158.401C281.438 158.912 281.327 159.415 281.115 159.879Z" fill="#F50057"/>
<path d="M283.277 142.859C283.009 143.502 282.578 144.046 282.035 144.426C281.493 144.806 280.862 145.005 280.219 145L267.302 144.877C266.419 144.867 265.575 144.472 264.956 143.779C264.337 143.086 263.993 142.151 264 141.179L264.422 87.6339C264.426 87.1525 264.516 86.6766 264.686 86.2335C264.857 85.7904 265.106 85.3886 265.418 85.0512C265.73 84.7138 266.099 84.4473 266.505 84.2669C266.91 84.0866 267.344 83.9959 267.781 84.0001L280.698 84.1233C281.136 84.1275 281.568 84.2264 281.971 84.4145C282.373 84.6025 282.738 84.8761 283.045 85.2194C283.352 85.5627 283.594 85.9691 283.757 86.4155C283.921 86.8618 284.004 87.3393 284 87.8206L283.578 141.366C283.575 141.881 283.472 142.39 283.277 142.859V142.859Z" fill="#2F2E41"/>
<path d="M261.388 24.2798C257.205 25.0397 252.536 25.9086 248.551 23.8325C245.414 22.1984 243.257 18.9346 244.021 15.0998C245.542 7.46802 253.704 4.09392 260.263 4.77483C264.12 5.16036 267.748 6.91117 270.572 9.75048C270.706 9.88635 270.873 9.97778 271.055 10.0137C271.236 10.0497 271.423 10.0286 271.594 9.95302C271.764 9.87746 271.91 9.75065 272.015 9.58795C272.119 9.42524 272.178 9.2336 272.183 9.03621C272.155 6.22006 274.123 3.87009 276.455 2.80928C279.375 1.4811 282.768 1.95573 285.768 2.66649C293.979 4.62671 301.436 9.22092 307.144 15.836C312.852 22.4511 316.54 30.7725 317.715 39.6896C318.551 45.9671 318.103 52.3641 316.402 58.4379C314.81 64.0368 311.87 69.6642 307.029 72.7104C302.667 75.4553 296.324 76.1622 292.299 72.3111C289.074 69.2264 287.621 63.4596 290.266 59.4689C291.046 58.3116 292.103 57.4016 293.326 56.8354C294.55 56.2693 295.893 56.068 297.215 56.253C298.464 56.4645 299.631 57.0554 300.577 57.9555C301.522 58.8557 302.207 60.0273 302.549 61.3314C302.8 62.5836 302.722 63.8857 302.325 65.0937C301.928 66.3017 301.226 67.3685 300.297 68.1761C299.603 68.71 298.815 69.087 297.98 69.2842C297.145 69.4814 296.282 69.4946 295.442 69.323C294.603 69.1515 293.805 68.7987 293.097 68.2862C292.388 67.7738 291.785 67.1123 291.324 66.3422C290.683 65.2412 289.049 66.2543 289.694 67.3619C290.435 68.6017 291.449 69.627 292.648 70.3468C293.847 71.0667 295.193 71.4591 296.567 71.4891C297.937 71.5159 299.289 71.1523 300.485 70.4357C301.68 69.7191 302.676 68.6752 303.37 67.4109C304.115 66.1207 304.529 64.6433 304.571 63.1274C304.613 61.6115 304.281 60.1105 303.609 58.7754C302.874 57.4139 301.827 56.2754 300.567 55.4675C299.306 54.6597 297.874 54.2091 296.406 54.1583C294.883 54.1456 293.38 54.5295 292.027 55.277C290.673 56.0245 289.51 57.1132 288.637 58.4492C287.224 60.761 286.703 63.5686 287.183 66.2828C287.608 69.0432 288.856 71.5821 290.741 73.5204C292.923 75.6344 295.731 76.8571 298.672 76.9733C305.071 77.364 310.783 73.4178 314.312 67.9324C317.975 62.2404 319.612 55.0979 319.942 48.2694C320.278 41.3095 319.144 34.3581 316.623 27.9325C314.102 21.507 310.26 15.7728 305.382 11.1568C300.743 6.81028 295.302 3.55609 289.413 1.60529C283.583 -0.306439 275.443 -1.69994 271.506 4.67667C270.705 5.96792 270.283 7.48628 270.295 9.03626L271.906 8.32199C266.21 2.49515 257.256 1.02278 250.143 4.60449C246.571 6.40346 243.473 9.74865 242.363 13.8732C241.211 18.1529 242.877 22.3533 246.294 24.7804C250.944 28.0835 256.711 27.1689 261.89 26.228C263.084 26.0109 262.578 24.0637 261.388 24.2799V24.2798Z" fill="#2F2E41"/>
<path d="M201.666 159H96.3344C94.655 158.998 93.0449 158.283 91.8574 157.011C90.6699 155.74 90.0019 154.016 90 152.218V84.7823C90.0019 82.9841 90.6699 81.2602 91.8574 79.9888C93.0449 78.7173 94.655 78.0021 96.3344 78H201.666C203.345 78.0021 204.955 78.7173 206.143 79.9888C207.33 81.2602 207.998 82.9841 208 84.7823V152.218C207.998 154.016 207.33 155.74 206.143 157.011C204.955 158.283 203.345 158.998 201.666 159ZM96.3344 79.1627C94.9429 79.1644 93.6088 79.757 92.6249 80.8105C91.641 81.864 91.0875 83.2924 91.0859 84.7823V152.218C91.0875 153.708 91.641 155.136 92.6249 156.189C93.6088 157.243 94.9429 157.836 96.3344 157.837H201.666C203.057 157.836 204.391 157.243 205.375 156.189C206.359 155.136 206.913 153.708 206.914 152.218V84.7823C206.913 83.2924 206.359 81.864 205.375 80.8105C204.391 79.757 203.057 79.1644 201.666 79.1627H96.3344Z" fill="#3F3D56"/>
<path d="M163.5 81C163.006 81 162.522 80.8534 162.111 80.5787C161.7 80.304 161.38 79.9135 161.19 79.4567C161.001 78.9999 160.952 78.4972 161.048 78.0123C161.145 77.5273 161.383 77.0819 161.732 76.7322C162.082 76.3826 162.527 76.1445 163.012 76.048C163.497 75.9516 164 76.0011 164.457 76.1903C164.914 76.3795 165.304 76.7 165.579 77.1111C165.853 77.5222 166 78.0055 166 78.5C165.999 79.1628 165.736 79.7983 165.267 80.2669C164.798 80.7356 164.163 80.9993 163.5 81V81ZM163.5 76.6C163.124 76.6 162.757 76.7114 162.444 76.9202C162.132 77.129 161.888 77.4257 161.745 77.7729C161.601 78.1201 161.563 78.5021 161.637 78.8707C161.71 79.2392 161.891 79.5778 162.156 79.8435C162.422 80.1092 162.761 80.2902 163.129 80.3635C163.498 80.4368 163.88 80.3992 164.227 80.2554C164.574 80.1116 164.871 79.868 165.08 79.5556C165.289 79.2431 165.4 78.8758 165.4 78.5C165.399 77.9963 165.199 77.5133 164.843 77.1571C164.487 76.8009 164.004 76.6006 163.5 76.6V76.6Z" fill="#3F3D56"/>
<path d="M133.5 81C133.006 81 132.522 80.8534 132.111 80.5787C131.7 80.304 131.38 79.9135 131.19 79.4567C131.001 78.9999 130.952 78.4972 131.048 78.0123C131.145 77.5273 131.383 77.0819 131.732 76.7322C132.082 76.3826 132.527 76.1445 133.012 76.048C133.497 75.9516 134 76.0011 134.457 76.1903C134.914 76.3795 135.304 76.7 135.579 77.1111C135.853 77.5222 136 78.0055 136 78.5C135.999 79.1628 135.736 79.7983 135.267 80.2669C134.798 80.7356 134.163 80.9993 133.5 81V81ZM133.5 76.6C133.124 76.6 132.757 76.7114 132.444 76.9202C132.132 77.129 131.888 77.4257 131.745 77.7729C131.601 78.1201 131.563 78.5021 131.637 78.8707C131.71 79.2392 131.891 79.5778 132.156 79.8435C132.422 80.1092 132.761 80.2902 133.129 80.3635C133.498 80.4368 133.88 80.3992 134.227 80.2554C134.574 80.1116 134.871 79.868 135.08 79.5556C135.289 79.2431 135.4 78.8758 135.4 78.5C135.399 77.9963 135.199 77.5133 134.843 77.1571C134.487 76.8009 134.004 76.6006 133.5 76.6V76.6Z" fill="#3F3D56"/>
<path d="M121.648 112H100.352C99.4634 111.999 98.6114 111.615 97.983 110.932C97.3546 110.249 97.0011 109.323 97 108.357V94.6429C97.0011 93.6771 97.3546 92.7512 97.983 92.0682C98.6114 91.3853 99.4634 91.0011 100.352 91H121.648C122.537 91.0012 123.389 91.3853 124.017 92.0682C124.645 92.7512 124.999 93.6771 125 94.6429V108.357C124.999 109.323 124.645 110.249 124.017 110.932C123.389 111.615 122.537 111.999 121.648 112V112Z" fill="#E6E6E6"/>
<path d="M159.648 111H138.352C137.463 110.999 136.611 110.615 135.983 109.932C135.355 109.249 135.001 108.323 135 107.357V93.6429C135.001 92.6771 135.355 91.7512 135.983 91.0682C136.611 90.3853 137.463 90.0011 138.352 90H159.648C160.537 90.0012 161.389 90.3853 162.017 91.0682C162.645 91.7512 162.999 92.6771 163 93.6429V107.357C162.999 108.323 162.645 109.249 162.017 109.932C161.389 110.615 160.537 110.999 159.648 111V111Z" fill="#E6E6E6"/>
<path d="M176.065 106C175.518 106.001 174.993 106.236 174.606 106.655C174.218 107.074 174.001 107.642 174 108.234V117.766C174.001 118.358 174.218 118.926 174.606 119.345C174.993 119.764 175.518 119.999 176.065 120H190.935C191.482 119.999 192.007 119.764 192.394 119.345C192.782 118.926 192.999 118.358 193 117.766V108.234C192.999 107.642 192.782 107.074 192.394 106.655C192.007 106.236 191.482 106.001 190.935 106H176.065Z" fill="#E6E6E6"/>
<path d="M121.648 130H100.352C99.4634 130.001 98.6114 130.385 97.983 131.068C97.3546 131.751 97.0011 132.677 97 133.643V147.357C97.0011 148.323 97.3546 149.249 97.983 149.932C98.6114 150.615 99.4634 150.999 100.352 151H121.648C122.537 150.999 123.389 150.615 124.017 149.932C124.645 149.249 124.999 148.323 125 147.357V133.643C124.999 132.677 124.645 131.751 124.017 131.068C123.389 130.385 122.537 130.001 121.648 130V130Z" fill="#E6E6E6"/>
<path d="M156.007 140H136.993C136.199 139.999 135.439 139.651 134.878 139.033C134.317 138.416 134.001 137.578 134 136.704V124.296C134.001 123.422 134.317 122.584 134.878 121.967C135.439 121.349 136.199 121.001 136.993 121H156.007C156.801 121.001 157.561 121.349 158.122 121.967C158.683 122.584 158.999 123.422 159 124.296V136.704C158.999 137.578 158.683 138.416 158.122 139.033C157.561 139.651 156.801 139.999 156.007 140V140Z" fill="#E6E6E6"/>
<path d="M196.648 151H175.352C174.463 150.999 173.611 150.615 172.983 149.932C172.355 149.249 172.001 148.323 172 147.357V133.643C172.001 132.677 172.355 131.751 172.983 131.068C173.611 130.385 174.463 130.001 175.352 130H196.648C197.537 130.001 198.389 130.385 199.017 131.068C199.645 131.751 199.999 132.677 200 133.643V147.357C199.999 148.323 199.645 149.249 199.017 149.932C198.389 150.615 197.537 150.999 196.648 151V151Z" fill="#E6E6E6"/>
<path d="M193.366 99H176.634C175.936 98.9991 175.266 98.6881 174.772 98.1352C174.279 97.5824 174.001 96.8329 174 96.051V84.949C174.001 84.1671 174.279 83.4176 174.772 82.8648C175.266 82.3119 175.936 82.0009 176.634 82H193.366C194.064 82.0009 194.734 82.3119 195.228 82.8648C195.721 83.4176 195.999 84.1671 196 84.949V96.051C195.999 96.8329 195.721 97.5824 195.228 98.1352C194.734 98.6881 194.064 98.9991 193.366 99V99Z" fill="#E6E6E6"/>
<path d="M163.5 79C163.367 78.9998 163.24 78.9286 163.147 78.8019C163.053 78.6753 163 78.5036 163 78.3246V68.6754C163 68.4963 163.053 68.3245 163.146 68.1978C163.24 68.0712 163.367 68 163.5 68C163.633 68 163.76 68.0712 163.854 68.1978C163.947 68.3245 164 68.4963 164 68.6754V78.3246C164 78.5036 163.947 78.6753 163.853 78.8019C163.76 78.9286 163.633 78.9998 163.5 79V79Z" fill="#3F3D56"/>
<path d="M133.5 79C133.367 78.9998 133.24 78.9286 133.147 78.8019C133.053 78.6753 133 78.5036 133 78.3246V68.6754C133 68.4963 133.053 68.3245 133.146 68.1978C133.24 68.0712 133.367 68 133.5 68C133.633 68 133.76 68.0712 133.854 68.1978C133.947 68.3245 134 68.4963 134 68.6754V78.3246C134 78.5036 133.947 78.6753 133.853 78.8019C133.76 78.9286 133.633 78.9998 133.5 79V79Z" fill="#3F3D56"/>
<path d="M110.002 106C109.406 106.001 108.825 105.8 108.347 105.427L108.318 105.404L102.085 100.44C101.502 99.975 101.12 99.2876 101.024 98.5294C100.928 97.7712 101.125 97.0042 101.572 96.3973C102.019 95.7903 102.679 95.3931 103.407 95.2929C104.136 95.1928 104.872 95.3979 105.455 95.8632L109.493 99.0864L119.033 86.1287C119.254 85.8283 119.53 85.5762 119.845 85.3868C120.16 85.1974 120.507 85.0744 120.868 85.0248C121.228 84.9753 121.594 85.0001 121.946 85.0979C122.297 85.1957 122.626 85.3646 122.915 85.5949L122.916 85.5955L122.856 85.6811L122.917 85.5955C123.499 86.0613 123.88 86.7486 123.976 87.5064C124.072 88.2642 123.876 89.0307 123.429 89.6378L112.208 104.872C111.948 105.223 111.614 105.507 111.232 105.702C110.85 105.897 110.43 105.998 110.005 105.997L110.002 106Z" fill="#F50057"/>
<path d="M146.219 136C145.675 136.001 145.144 135.819 144.708 135.482L144.681 135.461L138.99 130.97C138.458 130.549 138.11 129.927 138.022 129.241C137.934 128.555 138.114 127.861 138.522 127.312C138.93 126.763 139.533 126.403 140.198 126.313C140.863 126.222 141.535 126.408 142.068 126.829L145.754 129.745L154.465 118.021C154.667 117.749 154.919 117.521 155.206 117.35C155.493 117.179 155.811 117.067 156.14 117.022C156.469 116.978 156.804 117 157.124 117.089C157.445 117.177 157.746 117.33 158.009 117.538L158.01 117.539L157.956 117.616L158.011 117.539C158.543 117.96 158.891 118.582 158.978 119.268C159.066 119.953 158.886 120.647 158.479 121.196L148.233 134.979C147.996 135.297 147.691 135.554 147.343 135.73C146.994 135.907 146.61 135.998 146.222 135.997L146.219 136Z" fill="#F50057"/>
<path d="M182.262 117C181.847 117.001 181.443 116.857 181.111 116.591L181.091 116.575L176.755 113.029C176.349 112.696 176.084 112.205 176.017 111.664C175.95 111.122 176.087 110.574 176.398 110.141C176.709 109.707 177.168 109.424 177.675 109.352C178.181 109.281 178.694 109.427 179.099 109.759L181.908 112.062L188.545 102.806C188.698 102.592 188.89 102.412 189.109 102.276C189.328 102.141 189.57 102.053 189.821 102.018C190.072 101.982 190.326 102 190.571 102.07C190.815 102.14 191.044 102.26 191.245 102.425L191.246 102.425L191.204 102.487L191.247 102.425C191.652 102.758 191.917 103.249 191.983 103.79C192.05 104.332 191.913 104.879 191.603 105.313L183.797 116.194C183.616 116.445 183.384 116.648 183.118 116.787C182.852 116.926 182.56 116.998 182.264 116.998L182.262 117Z" fill="#F50057"/>
</g>
<path d="M1.51705 25.5455H6.06818L10.875 37.2727H11.0795L15.8864 25.5455H20.4375V43H16.858V31.6392H16.7131L12.196 42.9148H9.75852L5.24148 31.5966H5.09659V43H1.51705V25.5455ZM27.1428 43.2472C26.3075 43.2472 25.5632 43.1023 24.9098 42.8125C24.2564 42.517 23.7393 42.0824 23.3587 41.5085C22.9837 40.929 22.7962 40.2074 22.7962 39.3438C22.7962 38.6165 22.9297 38.0057 23.1967 37.5114C23.4638 37.017 23.8274 36.6193 24.2876 36.3182C24.7479 36.017 25.2706 35.7898 25.8558 35.6364C26.4467 35.483 27.0661 35.375 27.7138 35.3125C28.4751 35.233 29.0888 35.1591 29.5547 35.0909C30.0206 35.017 30.3587 34.9091 30.5689 34.767C30.7791 34.625 30.8842 34.4148 30.8842 34.1364V34.0852C30.8842 33.5455 30.7138 33.1278 30.3729 32.8324C30.0376 32.5369 29.5604 32.3892 28.9411 32.3892C28.2876 32.3892 27.7678 32.5341 27.3814 32.8239C26.995 33.108 26.7393 33.4659 26.6143 33.8977L23.2564 33.625C23.4268 32.8295 23.7621 32.142 24.2621 31.5625C24.7621 30.9773 25.407 30.5284 26.1967 30.2159C26.9922 29.8977 27.9126 29.7386 28.9581 29.7386C29.6854 29.7386 30.3814 29.8239 31.0462 29.9943C31.7166 30.1648 32.3104 30.429 32.8274 30.7869C33.3501 31.1449 33.7621 31.6051 34.0632 32.1676C34.3643 32.7244 34.5149 33.392 34.5149 34.1705V43H31.0717V41.1847H30.9695C30.7592 41.5938 30.478 41.9545 30.1257 42.267C29.7734 42.5739 29.3501 42.8153 28.8558 42.9915C28.3615 43.1619 27.7905 43.2472 27.1428 43.2472ZM28.1825 40.7415C28.7166 40.7415 29.1882 40.6364 29.5973 40.4261C30.0064 40.2102 30.3274 39.9205 30.5604 39.5568C30.7933 39.1932 30.9098 38.7812 30.9098 38.321V36.9318C30.7962 37.0057 30.6399 37.0739 30.4411 37.1364C30.2479 37.1932 30.0291 37.2472 29.7848 37.2983C29.5405 37.3437 29.2962 37.3864 29.0518 37.4261C28.8075 37.4602 28.5859 37.4915 28.3871 37.5199C27.9609 37.5824 27.5888 37.6818 27.2706 37.8182C26.9524 37.9545 26.7053 38.1392 26.5291 38.3722C26.353 38.5994 26.2649 38.8835 26.2649 39.2244C26.2649 39.7188 26.4439 40.0966 26.8018 40.358C27.1655 40.6136 27.6257 40.7415 28.1825 40.7415ZM37.3317 43V29.9091H40.8516V32.1932H40.9879C41.2266 31.3807 41.6271 30.767 42.1896 30.3523C42.7521 29.9318 43.3999 29.7216 44.1328 29.7216C44.3146 29.7216 44.5107 29.733 44.7209 29.7557C44.9311 29.7784 45.1158 29.8097 45.2749 29.8494V33.071C45.1044 33.0199 44.8686 32.9744 44.5675 32.9347C44.2663 32.8949 43.9908 32.875 43.7408 32.875C43.2067 32.875 42.7294 32.9915 42.3089 33.2244C41.8942 33.4517 41.5646 33.7699 41.3203 34.179C41.0817 34.5881 40.9624 35.0597 40.9624 35.5938V43H37.3317ZM50.4418 39.233L50.4503 34.8778H50.9787L55.1719 29.9091H59.3395L53.706 36.4886H52.8452L50.4418 39.233ZM47.152 43V25.5455H50.7827V43H47.152ZM55.3338 43L51.4815 37.2983L53.902 34.733L59.5866 43H55.3338ZM4.52557 72H0.571023L6.59659 54.5455H11.3523L17.3693 72H13.4148L9.04261 58.5341H8.90625L4.52557 72ZM4.27841 65.1392H13.6193V68.0199H4.27841V65.1392ZM25.5447 58.9091V61.6364H17.6612V58.9091H25.5447ZM19.451 55.7727H23.0817V67.9773C23.0817 68.3125 23.1328 68.5739 23.2351 68.7614C23.3374 68.9432 23.4794 69.071 23.6612 69.1449C23.8487 69.2187 24.0646 69.2557 24.3089 69.2557C24.4794 69.2557 24.6499 69.2415 24.8203 69.2131C24.9908 69.179 25.1214 69.1534 25.2124 69.1364L25.7834 71.8381C25.6016 71.8949 25.3459 71.9602 25.0163 72.0341C24.6868 72.1136 24.2862 72.1619 23.8146 72.179C22.9396 72.2131 22.1726 72.0966 21.5135 71.8295C20.8601 71.5625 20.3516 71.1477 19.9879 70.5852C19.6243 70.0227 19.4453 69.3125 19.451 68.4545V55.7727ZM34.8729 58.9091V61.6364H26.9893V58.9091H34.8729ZM28.7791 55.7727H32.4098V67.9773C32.4098 68.3125 32.4609 68.5739 32.5632 68.7614C32.6655 68.9432 32.8075 69.071 32.9893 69.1449C33.1768 69.2187 33.3928 69.2557 33.6371 69.2557C33.8075 69.2557 33.978 69.2415 34.1484 69.2131C34.3189 69.179 34.4496 69.1534 34.5405 69.1364L35.1115 71.8381C34.9297 71.8949 34.674 71.9602 34.3445 72.0341C34.0149 72.1136 33.6143 72.1619 33.1428 72.179C32.2678 72.2131 31.5007 72.0966 30.8416 71.8295C30.1882 71.5625 29.6797 71.1477 29.3161 70.5852C28.9524 70.0227 28.7734 69.3125 28.7791 68.4545V55.7727ZM43.0632 72.2557C41.7166 72.2557 40.5575 71.983 39.5859 71.4375C38.62 70.8864 37.8757 70.108 37.353 69.1023C36.8303 68.0909 36.5689 66.8949 36.5689 65.5142C36.5689 64.1676 36.8303 62.9858 37.353 61.9688C37.8757 60.9517 38.6115 60.1591 39.5604 59.5909C40.5149 59.0227 41.6342 58.7386 42.9183 58.7386C43.782 58.7386 44.5859 58.8778 45.3303 59.1562C46.0803 59.429 46.7337 59.8409 47.2905 60.392C47.853 60.9432 48.2905 61.6364 48.603 62.4716C48.9155 63.3011 49.0717 64.2727 49.0717 65.3864V66.3835H38.0178V64.1335H45.6541C45.6541 63.6108 45.5405 63.1477 45.3132 62.7443C45.0859 62.3409 44.7706 62.0256 44.3672 61.7983C43.9695 61.5653 43.5064 61.4489 42.978 61.4489C42.4268 61.4489 41.9382 61.5767 41.5121 61.8324C41.0916 62.0824 40.7621 62.4205 40.5234 62.8466C40.2848 63.267 40.1626 63.7358 40.157 64.2528V66.392C40.157 67.0398 40.2763 67.5994 40.5149 68.071C40.7592 68.5426 41.103 68.9062 41.5462 69.1619C41.9893 69.4176 42.5149 69.5455 43.1229 69.5455C43.5263 69.5455 43.8956 69.4886 44.2308 69.375C44.5661 69.2614 44.853 69.0909 45.0916 68.8636C45.3303 68.6364 45.5121 68.358 45.6371 68.0284L48.995 68.25C48.8246 69.0568 48.4751 69.7614 47.9467 70.3636C47.424 70.9602 46.7479 71.4261 45.9183 71.7614C45.0945 72.0909 44.1428 72.2557 43.0632 72.2557ZM55.0717 64.4318V72H51.4411V58.9091H54.9013V61.2188H55.0547C55.3445 60.4574 55.8303 59.8551 56.5121 59.4119C57.1939 58.9631 58.0206 58.7386 58.9922 58.7386C59.9013 58.7386 60.6939 58.9375 61.37 59.3352C62.0462 59.733 62.5717 60.3011 62.9467 61.0398C63.3217 61.7727 63.5092 62.6477 63.5092 63.6648V72H59.8786V64.3125C59.8842 63.5114 59.6797 62.8864 59.2649 62.4375C58.8501 61.983 58.2791 61.7557 57.5518 61.7557C57.0632 61.7557 56.6314 61.8608 56.2564 62.071C55.8871 62.2812 55.5973 62.5881 55.3871 62.9915C55.1825 63.3892 55.0774 63.8693 55.0717 64.4318ZM71.1946 72.2131C70.2003 72.2131 69.2997 71.9574 68.4929 71.446C67.6918 70.929 67.0554 70.1705 66.5838 69.1705C66.1179 68.1648 65.8849 66.9318 65.8849 65.4716C65.8849 63.9716 66.1264 62.7244 66.6094 61.7301C67.0923 60.7301 67.7344 59.983 68.5355 59.4886C69.3423 58.9886 70.2259 58.7386 71.1861 58.7386C71.919 58.7386 72.5298 58.8636 73.0185 59.1136C73.5128 59.358 73.9105 59.6648 74.2116 60.0341C74.5185 60.3977 74.7514 60.7557 74.9105 61.108H75.0213V54.5455H78.6435V72H75.0639V69.9034H74.9105C74.7401 70.267 74.4986 70.6278 74.1861 70.9858C73.8793 71.3381 73.4787 71.6307 72.9844 71.8636C72.4957 72.0966 71.8991 72.2131 71.1946 72.2131ZM72.3452 69.3239C72.9304 69.3239 73.4247 69.1648 73.8281 68.8466C74.2372 68.5227 74.5497 68.071 74.7656 67.4915C74.9872 66.9119 75.098 66.233 75.098 65.4545C75.098 64.6761 74.9901 64 74.7741 63.4261C74.5582 62.8523 74.2457 62.4091 73.8366 62.0966C73.4276 61.7841 72.9304 61.6278 72.3452 61.6278C71.7486 61.6278 71.2457 61.7898 70.8366 62.1136C70.4276 62.4375 70.1179 62.8864 69.9077 63.4602C69.6974 64.0341 69.5923 64.6989 69.5923 65.4545C69.5923 66.2159 69.6974 66.8892 69.9077 67.4744C70.1236 68.054 70.4332 68.5085 70.8366 68.8381C71.2457 69.1619 71.7486 69.3239 72.3452 69.3239ZM85.3615 72.2472C84.5263 72.2472 83.782 72.1023 83.1286 71.8125C82.4751 71.517 81.9581 71.0824 81.5774 70.5085C81.2024 69.929 81.0149 69.2074 81.0149 68.3438C81.0149 67.6165 81.1484 67.0057 81.4155 66.5114C81.6825 66.017 82.0462 65.6193 82.5064 65.3182C82.9666 65.017 83.4893 64.7898 84.0746 64.6364C84.6655 64.483 85.2848 64.375 85.9325 64.3125C86.6939 64.233 87.3075 64.1591 87.7734 64.0909C88.2393 64.017 88.5774 63.9091 88.7876 63.767C88.9979 63.625 89.103 63.4148 89.103 63.1364V63.0852C89.103 62.5455 88.9325 62.1278 88.5916 61.8324C88.2564 61.5369 87.7791 61.3892 87.1598 61.3892C86.5064 61.3892 85.9865 61.5341 85.6001 61.8239C85.2138 62.108 84.9581 62.4659 84.8331 62.8977L81.4751 62.625C81.6456 61.8295 81.9808 61.142 82.4808 60.5625C82.9808 59.9773 83.6257 59.5284 84.4155 59.2159C85.2109 58.8977 86.1314 58.7386 87.1768 58.7386C87.9041 58.7386 88.6001 58.8239 89.2649 58.9943C89.9354 59.1648 90.5291 59.429 91.0462 59.7869C91.5689 60.1449 91.9808 60.6051 92.282 61.1676C92.5831 61.7244 92.7337 62.392 92.7337 63.1705V72H89.2905V70.1847H89.1882C88.978 70.5938 88.6967 70.9545 88.3445 71.267C87.9922 71.5739 87.5689 71.8153 87.0746 71.9915C86.5803 72.1619 86.0092 72.2472 85.3615 72.2472ZM86.4013 69.7415C86.9354 69.7415 87.407 69.6364 87.8161 69.4261C88.2251 69.2102 88.5462 68.9205 88.7791 68.5568C89.0121 68.1932 89.1286 67.7812 89.1286 67.321V65.9318C89.0149 66.0057 88.8587 66.0739 88.6598 66.1364C88.4666 66.1932 88.2479 66.2472 88.0036 66.2983C87.7592 66.3437 87.5149 66.3864 87.2706 66.4261C87.0263 66.4602 86.8047 66.4915 86.6058 66.5199C86.1797 66.5824 85.8075 66.6818 85.4893 66.8182C85.1712 66.9545 84.924 67.1392 84.7479 67.3722C84.5717 67.5994 84.4837 67.8835 84.4837 68.2244C84.4837 68.7188 84.6626 69.0966 85.0206 69.358C85.3842 69.6136 85.8445 69.7415 86.4013 69.7415ZM99.1811 64.4318V72H95.5504V58.9091H99.0107V61.2188H99.1641C99.4538 60.4574 99.9396 59.8551 100.621 59.4119C101.303 58.9631 102.13 58.7386 103.102 58.7386C104.011 58.7386 104.803 58.9375 105.479 59.3352C106.156 59.733 106.681 60.3011 107.056 61.0398C107.431 61.7727 107.619 62.6477 107.619 63.6648V72H103.988V64.3125C103.994 63.5114 103.789 62.8864 103.374 62.4375C102.96 61.983 102.388 61.7557 101.661 61.7557C101.173 61.7557 100.741 61.8608 100.366 62.071C99.9964 62.2812 99.7067 62.5881 99.4964 62.9915C99.2919 63.3892 99.1868 63.8693 99.1811 64.4318ZM116.395 72.2557C115.054 72.2557 113.901 71.9716 112.935 71.4034C111.974 70.8295 111.236 70.0341 110.719 69.017C110.207 68 109.952 66.8295 109.952 65.5057C109.952 64.1648 110.21 62.9886 110.727 61.9773C111.25 60.9602 111.991 60.1676 112.952 59.5994C113.912 59.0256 115.054 58.7386 116.378 58.7386C117.52 58.7386 118.52 58.946 119.378 59.3608C120.236 59.7756 120.915 60.358 121.415 61.108C121.915 61.858 122.19 62.7386 122.241 63.75H118.815C118.719 63.0966 118.463 62.571 118.048 62.1733C117.639 61.7699 117.102 61.5682 116.438 61.5682C115.875 61.5682 115.384 61.7216 114.963 62.0284C114.548 62.3295 114.224 62.7699 113.991 63.3494C113.759 63.929 113.642 64.6307 113.642 65.4545C113.642 66.2898 113.756 67 113.983 67.5852C114.216 68.1705 114.543 68.6165 114.963 68.9233C115.384 69.2301 115.875 69.3835 116.438 69.3835C116.852 69.3835 117.224 69.2983 117.554 69.1278C117.889 68.9574 118.165 68.7102 118.381 68.3864C118.602 68.0568 118.747 67.6619 118.815 67.2017H122.241C122.185 68.2017 121.912 69.0824 121.423 69.8438C120.94 70.5994 120.273 71.1903 119.42 71.6165C118.568 72.0426 117.56 72.2557 116.395 72.2557ZM130.532 72.2557C129.185 72.2557 128.026 71.983 127.055 71.4375C126.089 70.8864 125.344 70.108 124.822 69.1023C124.299 68.0909 124.038 66.8949 124.038 65.5142C124.038 64.1676 124.299 62.9858 124.822 61.9688C125.344 60.9517 126.08 60.1591 127.029 59.5909C127.984 59.0227 129.103 58.7386 130.387 58.7386C131.251 58.7386 132.055 58.8778 132.799 59.1562C133.549 59.429 134.202 59.8409 134.759 60.392C135.322 60.9432 135.759 61.6364 136.072 62.4716C136.384 63.3011 136.54 64.2727 136.54 65.3864V66.3835H125.487V64.1335H133.123C133.123 63.6108 133.009 63.1477 132.782 62.7443C132.555 62.3409 132.239 62.0256 131.836 61.7983C131.438 61.5653 130.975 61.4489 130.447 61.4489C129.896 61.4489 129.407 61.5767 128.981 61.8324C128.56 62.0824 128.231 62.4205 127.992 62.8466C127.754 63.267 127.631 63.7358 127.626 64.2528V66.392C127.626 67.0398 127.745 67.5994 127.984 68.071C128.228 68.5426 128.572 68.9062 129.015 69.1619C129.458 69.4176 129.984 69.5455 130.592 69.5455C130.995 69.5455 131.364 69.4886 131.7 69.375C132.035 69.2614 132.322 69.0909 132.56 68.8636C132.799 68.6364 132.981 68.358 133.106 68.0284L136.464 68.25C136.293 69.0568 135.944 69.7614 135.415 70.3636C134.893 70.9602 134.217 71.4261 133.387 71.7614C132.563 72.0909 131.612 72.2557 130.532 72.2557Z" fill="#2B2024"/>
</svg>
