<svg width="340" height="196" viewBox="0 0 340 196" fill="none" xmlns="http://www.w3.org/2000/svg">
<mask id="mask0_0_1" style="mask-type:alpha" maskUnits="userSpaceOnUse" x="4" y="-35" width="332" height="231">
<rect x="4" y="-35" width="332" height="231" rx="20" fill="white"/>
</mask>
<g mask="url(#mask0_0_1)">
<path d="M85.7971 100.742H84.5879V104.37H85.7971V100.742Z" fill="#E5E5E5"/>
<path d="M96.2092 186.563H95V178.834H96.2092V186.563ZM96.2092 171.105H95V163.375H96.2092V171.105ZM96.2092 155.646H95V147.917H96.2092V155.646ZM96.2092 140.188H95V132.458H96.2092V140.188ZM96.2092 124.729H95V117H96.2092V124.729Z" fill="#E5E5E5"/>
<path d="M85.7971 189.391H84.5879V193.018H85.7971V189.391Z" fill="#E5E5E5"/>
<path d="M218.204 100.742H216.995V104.37H218.204V100.742Z" fill="#E5E5E5"/>
<path d="M231.209 186.563H230V178.834H231.209V186.563ZM231.209 171.105H230V163.375H231.209V171.105ZM231.209 155.646H230V147.917H231.209V155.646ZM231.209 140.188H230V132.458H231.209V140.188ZM231.209 124.729H230V117H231.209V124.729Z" fill="#E5E5E5"/>
<path d="M218.204 189.391H216.995V193.018H218.204V189.391Z" fill="#E5E5E5"/>
<path d="M284.994 29.7764H283.785V33.404H284.994V29.7764Z" fill="#E5E5E5"/>
<path d="M297.209 185.131H296V177.703H297.209V185.131ZM297.209 170.275H296V162.847H297.209V170.275ZM297.209 155.419H296V147.991H297.209V155.419ZM297.209 140.563H296V133.135H297.209V140.563ZM297.209 125.708H296V118.279H297.209V125.708ZM297.209 110.851H296V103.424H297.209V110.851ZM297.209 95.9956H296V88.5677H297.209V95.9956ZM297.209 81.1398H296V73.7119H297.209V81.1398ZM297.209 66.2837H296V58.8558H297.209V66.2837ZM297.209 51.4279H296V44H297.209V51.4279Z" fill="#E5E5E5"/>
<path d="M284.994 189.391H283.785V193.018H284.994V189.391Z" fill="#E5E5E5"/>
<path d="M152.303 52.1465H151.094V55.7741H152.303V52.1465Z" fill="#E5E5E5"/>
<path d="M165.209 179.552H164V172.519H165.209V179.552ZM165.209 165.487H164V158.454H165.209V165.487ZM165.209 151.422H164V144.39H165.209V151.422ZM165.209 137.357H164V130.325H165.209V137.357ZM165.209 123.292H164V116.26H165.209V123.292ZM165.209 109.227H164V102.195H165.209V109.227ZM165.209 95.1622H164V88.1298H165.209V95.1622ZM165.209 81.0972H164V74.0649H165.209V81.0972ZM165.209 67.0323H164V60H165.209V67.0323Z" fill="#E5E5E5"/>
<path d="M152.303 189.391H151.094V193.018H152.303V189.391Z" fill="#E5E5E5"/>
<path d="M230.708 109.263L164.151 59.4104L98.5024 108.581L97 106.576L164.151 56.2791L230.391 105.894L296.216 33.86L296.481 33.7529L362.88 7L363.816 9.32469L297.681 35.9706L230.708 109.263Z" fill="#3F3D56"/>
<path d="M96.5169 116.034C100.668 116.034 104.034 112.668 104.034 108.517C104.034 104.365 100.668 101 96.5169 101C92.3654 101 89 104.365 89 108.517C89 112.668 92.3654 116.034 96.5169 116.034Z" fill="#F50057"/>
<path d="M164.517 66.0338C168.668 66.0338 172.034 62.6683 172.034 58.5169C172.034 54.3654 168.668 51 164.517 51C160.365 51 157 54.3654 157 58.5169C157 62.6683 160.365 66.0338 164.517 66.0338Z" fill="#F50057"/>
<path d="M229.517 115.034C233.668 115.034 237.034 111.668 237.034 107.517C237.034 103.365 233.668 100 229.517 100C225.365 100 222 103.365 222 107.517C222 111.668 225.365 115.034 229.517 115.034Z" fill="#E5E5E5"/>
<path d="M216.177 134.861C220.328 134.861 223.693 131.495 223.693 127.344C223.693 123.193 220.328 119.827 216.177 119.827C212.025 119.827 208.66 123.193 208.66 127.344C208.66 131.495 212.025 134.861 216.177 134.861Z" fill="#F50057"/>
<path d="M296.517 43.0338C300.668 43.0338 304.034 39.6683 304.034 35.5169C304.034 31.3654 300.668 28 296.517 28C292.365 28 289 31.3654 289 35.5169C289 39.6683 292.365 43.0338 296.517 43.0338Z" fill="#F50057"/>
<path d="M72.2011 148.074C74.0959 143.116 74.3703 138.616 72.8141 138.021C71.2578 137.426 68.4603 140.962 66.5655 145.92C64.6708 150.877 64.3963 155.378 65.9526 155.973C67.5088 156.567 70.3064 153.031 72.2011 148.074Z" fill="#2F2E41"/>
<path d="M51.9766 181C62.7461 181 71.4766 172.493 71.4766 162C71.4766 151.507 62.7461 143 51.9766 143C41.207 143 32.4766 151.507 32.4766 162C32.4766 172.493 41.207 181 51.9766 181Z" fill="#2F2E41"/>
<path d="M48.4766 176H43.4766V187H48.4766V176Z" fill="#2F2E41"/>
<path d="M60.4766 176H54.4766V187H60.4766V176Z" fill="#2F2E41"/>
<path d="M47.9766 189C50.4618 189 52.4766 188.105 52.4766 187C52.4766 185.895 50.4618 185 47.9766 185C45.4913 185 43.4766 185.895 43.4766 187C43.4766 188.105 45.4913 189 47.9766 189Z" fill="#2F2E41"/>
<path d="M59.4766 189C62.238 189 64.4766 188.105 64.4766 187C64.4766 185.895 62.238 185 59.4766 185C56.7151 185 54.4766 185.895 54.4766 187C54.4766 188.105 56.7151 189 59.4766 189Z" fill="#2F2E41"/>
<path d="M51.9766 163C55.5664 163 58.4766 160.09 58.4766 156.5C58.4766 152.91 55.5664 150 51.9766 150C48.3867 150 45.4766 152.91 45.4766 156.5C45.4766 160.09 48.3867 163 51.9766 163Z" fill="white"/>
<path d="M52.4766 159C53.5811 159 54.4766 157.881 54.4766 156.5C54.4766 155.119 53.5811 154 52.4766 154C51.372 154 50.4766 155.119 50.4766 156.5C50.4766 157.881 51.372 159 52.4766 159Z" fill="#3F3D56"/>
<path d="M35.2406 144.089C33.9265 138.426 38.1271 132.705 44.6228 131.309C51.1186 129.914 57.4497 133.373 58.7637 139.035C60.0778 144.697 55.7728 146.786 49.2771 148.181C42.7814 149.577 36.5547 149.751 35.2406 144.089Z" fill="#FD0054"/>
<path d="M38.657 156.71C39.371 155.205 36.0626 152.141 31.2676 149.867C26.4726 147.593 22.0066 146.969 21.2927 148.475C20.5788 149.98 23.8871 153.044 28.6822 155.318C33.4772 157.592 37.9431 158.216 38.657 156.71Z" fill="#2F2E41"/>
<path d="M41.4766 167.648C41.4766 169.783 46.6412 174 52.3722 174C58.1032 174 63.4766 167.988 63.4766 165.852C63.4766 163.717 58.1031 166.267 52.3722 166.267C46.6413 166.267 41.4766 165.512 41.4766 167.648Z" fill="white"/>
<path d="M184.47 180.197C198.851 180.197 210.509 168.539 210.509 154.159C210.509 139.778 198.851 128.12 184.47 128.12C170.089 128.12 158.432 139.778 158.432 154.159C158.432 168.539 170.089 180.197 184.47 180.197Z" fill="#2F2E41"/>
<path d="M180.515 174.594H172.604V188.767H180.515V174.594Z" fill="#2F2E41"/>
<path d="M196.336 174.594H188.426V188.767H196.336V174.594Z" fill="#2F2E41"/>
<path d="M184.599 193.462C185.162 192.218 182.928 189.993 179.611 188.493C176.294 186.993 173.149 186.785 172.586 188.029C172.024 189.273 174.257 191.497 177.574 192.998C180.891 194.498 184.036 194.706 184.599 193.462Z" fill="#2F2E41"/>
<path d="M199.738 192.69C200.334 191.462 198.163 189.177 194.888 187.587C191.613 185.997 188.474 185.703 187.878 186.932C187.282 188.16 189.453 190.444 192.728 192.034C196.003 193.625 199.142 193.918 199.738 192.69Z" fill="#2F2E41"/>
<path d="M159.212 129.943C157.11 120.527 163.83 111.013 174.223 108.692C184.617 106.371 194.746 112.123 196.849 121.539C198.951 130.955 192.063 134.428 181.67 136.748C171.277 139.069 161.315 139.359 159.212 129.943Z" fill="#F50057"/>
<path d="M212.529 142.78C218.168 137.137 221.303 131.127 219.532 129.357C217.76 127.586 211.752 130.726 206.113 136.37C200.474 142.013 197.339 148.023 199.111 149.793C200.882 151.564 206.89 148.424 212.529 142.78Z" fill="#2F2E41"/>
<path d="M163.097 164.922C165.143 157.211 164.84 150.439 162.419 149.797C159.998 149.154 156.377 154.885 154.33 162.596C152.284 170.307 152.587 177.078 155.008 177.721C157.429 178.363 161.05 172.633 163.097 164.922Z" fill="#2F2E41"/>
</g>
<path d="M30.517 47V29.5455H37.4034C38.7273 29.5455 39.8551 29.7983 40.7869 30.304C41.7188 30.804 42.429 31.5 42.9176 32.392C43.4119 33.2784 43.6591 34.3011 43.6591 35.4602C43.6591 36.6193 43.4091 37.642 42.9091 38.5284C42.4091 39.4148 41.6847 40.1051 40.7358 40.5994C39.7926 41.0937 38.6506 41.3409 37.3097 41.3409H32.9205V38.3835H36.7131C37.4233 38.3835 38.0085 38.2614 38.4688 38.017C38.9347 37.767 39.2813 37.4233 39.5085 36.9858C39.7415 36.5426 39.858 36.0341 39.858 35.4602C39.858 34.8807 39.7415 34.375 39.5085 33.9432C39.2813 33.5057 38.9347 33.1676 38.4688 32.929C38.0028 32.6847 37.4119 32.5625 36.696 32.5625H34.2074V47H30.517ZM45.9879 47V33.9091H49.5078V36.1932H49.6442C49.8828 35.3807 50.2834 34.767 50.8459 34.3523C51.4084 33.9318 52.0561 33.7216 52.7891 33.7216C52.9709 33.7216 53.1669 33.733 53.3771 33.7557C53.5874 33.7784 53.772 33.8097 53.9311 33.8494V37.071C53.7607 37.0199 53.5249 36.9744 53.2237 36.9347C52.9226 36.8949 52.647 36.875 52.397 36.875C51.8629 36.875 51.3857 36.9915 50.9652 37.2244C50.5504 37.4517 50.2209 37.7699 49.9766 38.179C49.7379 38.5881 49.6186 39.0597 49.6186 39.5938V47H45.9879ZM61.1136 47.2557C59.7898 47.2557 58.6449 46.9744 57.679 46.4119C56.7188 45.8437 55.9773 45.054 55.4545 44.0426C54.9318 43.0256 54.6705 41.8466 54.6705 40.5057C54.6705 39.1534 54.9318 37.9716 55.4545 36.9602C55.9773 35.9432 56.7188 35.1534 57.679 34.5909C58.6449 34.0227 59.7898 33.7386 61.1136 33.7386C62.4375 33.7386 63.5795 34.0227 64.5398 34.5909C65.5057 35.1534 66.25 35.9432 66.7727 36.9602C67.2955 37.9716 67.5568 39.1534 67.5568 40.5057C67.5568 41.8466 67.2955 43.0256 66.7727 44.0426C66.25 45.054 65.5057 45.8437 64.5398 46.4119C63.5795 46.9744 62.4375 47.2557 61.1136 47.2557ZM61.1307 44.4432C61.733 44.4432 62.2358 44.2727 62.6392 43.9318C63.0426 43.5852 63.3466 43.1136 63.5511 42.517C63.7614 41.9205 63.8665 41.2415 63.8665 40.4801C63.8665 39.7188 63.7614 39.0398 63.5511 38.4432C63.3466 37.8466 63.0426 37.375 62.6392 37.0284C62.2358 36.6818 61.733 36.5085 61.1307 36.5085C60.5227 36.5085 60.0114 36.6818 59.5966 37.0284C59.1875 37.375 58.8778 37.8466 58.6676 38.4432C58.4631 39.0398 58.3608 39.7188 58.3608 40.4801C58.3608 41.2415 58.4631 41.9205 58.6676 42.517C58.8778 43.1136 59.1875 43.5852 59.5966 43.9318C60.0114 44.2727 60.5227 44.4432 61.1307 44.4432ZM69.9176 33.9091H73.5483V47.6477C73.5483 48.6591 73.3494 49.4773 72.9517 50.1023C72.554 50.7273 71.983 51.1847 71.2386 51.4744C70.5 51.7642 69.6165 51.9091 68.5881 51.9091C68.4631 51.9091 68.3438 51.9063 68.2301 51.9006C68.1108 51.9006 67.9858 51.8977 67.8551 51.892V49.054C67.9517 49.0597 68.0369 49.0625 68.1108 49.0625C68.179 49.0682 68.2528 49.071 68.3324 49.071C68.9176 49.071 69.3267 48.946 69.5597 48.696C69.7983 48.4517 69.9176 48.0824 69.9176 47.5881V33.9091ZM71.7244 32.2216C71.1903 32.2216 70.7301 32.0426 70.3438 31.6847C69.9574 31.321 69.7642 30.8864 69.7642 30.3807C69.7642 29.8807 69.9574 29.4517 70.3438 29.0938C70.7301 28.7301 71.1903 28.5483 71.7244 28.5483C72.2699 28.5483 72.733 28.7301 73.1136 29.0938C73.5 29.4517 73.6932 29.8807 73.6932 30.3807C73.6932 30.8864 73.5 31.321 73.1136 31.6847C72.733 32.0426 72.2699 32.2216 71.7244 32.2216ZM82.4226 47.2557C81.076 47.2557 79.9169 46.983 78.9453 46.4375C77.9794 45.8864 77.2351 45.108 76.7124 44.1023C76.1896 43.0909 75.9283 41.8949 75.9283 40.5142C75.9283 39.1676 76.1896 37.9858 76.7124 36.9688C77.2351 35.9517 77.9709 35.1591 78.9197 34.5909C79.8743 34.0227 80.9936 33.7386 82.2777 33.7386C83.1413 33.7386 83.9453 33.8778 84.6896 34.1562C85.4396 34.429 86.093 34.8409 86.6499 35.392C87.2124 35.9432 87.6499 36.6364 87.9624 37.4716C88.2749 38.3011 88.4311 39.2727 88.4311 40.3864V41.3835H77.3771V39.1335H85.0135C85.0135 38.6108 84.8999 38.1477 84.6726 37.7443C84.4453 37.3409 84.13 37.0256 83.7266 36.7983C83.3288 36.5653 82.8658 36.4489 82.3374 36.4489C81.7862 36.4489 81.2976 36.5767 80.8714 36.8324C80.451 37.0824 80.1214 37.4205 79.8828 37.8466C79.6442 38.267 79.522 38.7358 79.5163 39.2528V41.392C79.5163 42.0398 79.6357 42.5994 79.8743 43.071C80.1186 43.5426 80.4624 43.9062 80.9055 44.1619C81.3487 44.4176 81.8743 44.5455 82.4822 44.5455C82.8857 44.5455 83.255 44.4886 83.5902 44.375C83.9254 44.2614 84.2124 44.0909 84.451 43.8636C84.6896 43.6364 84.8714 43.358 84.9964 43.0284L88.3544 43.25C88.1839 44.0568 87.8345 44.7614 87.3061 45.3636C86.7834 45.9602 86.1072 46.4261 85.2777 46.7614C84.4538 47.0909 83.5021 47.2557 82.4226 47.2557ZM96.7152 47.2557C95.3743 47.2557 94.2209 46.9716 93.255 46.4034C92.2947 45.8295 91.5561 45.0341 91.0391 44.017C90.5277 43 90.272 41.8295 90.272 40.5057C90.272 39.1648 90.5305 37.9886 91.0476 36.9773C91.5703 35.9602 92.3118 35.1676 93.272 34.5994C94.2322 34.0256 95.3743 33.7386 96.6982 33.7386C97.8402 33.7386 98.8402 33.946 99.6982 34.3608C100.556 34.7756 101.235 35.358 101.735 36.108C102.235 36.858 102.511 37.7386 102.562 38.75H99.1357C99.0391 38.0966 98.7834 37.571 98.3686 37.1733C97.9595 36.7699 97.4226 36.5682 96.7578 36.5682C96.1953 36.5682 95.7038 36.7216 95.2834 37.0284C94.8686 37.3295 94.5447 37.7699 94.3118 38.3494C94.0788 38.929 93.9624 39.6307 93.9624 40.4545C93.9624 41.2898 94.076 42 94.3033 42.5852C94.5362 43.1705 94.8629 43.6165 95.2834 43.9233C95.7038 44.2301 96.1953 44.3835 96.7578 44.3835C97.1726 44.3835 97.5447 44.2983 97.8743 44.1278C98.2095 43.9574 98.4851 43.7102 98.701 43.3864C98.9226 43.0568 99.0675 42.6619 99.1357 42.2017H102.562C102.505 43.2017 102.232 44.0824 101.744 44.8438C101.261 45.5994 100.593 46.1903 99.7408 46.6165C98.8885 47.0426 97.88 47.2557 96.7152 47.2557ZM111.849 33.9091V36.6364H103.966V33.9091H111.849ZM105.756 30.7727H109.386V42.9773C109.386 43.3125 109.438 43.5739 109.54 43.7614C109.642 43.9432 109.784 44.071 109.966 44.1449C110.153 44.2187 110.369 44.2557 110.614 44.2557C110.784 44.2557 110.955 44.2415 111.125 44.2131C111.295 44.179 111.426 44.1534 111.517 44.1364L112.088 46.8381C111.906 46.8949 111.651 46.9602 111.321 47.0341C110.991 47.1136 110.591 47.1619 110.119 47.179C109.244 47.2131 108.477 47.0966 107.818 46.8295C107.165 46.5625 106.656 46.1477 106.293 45.5852C105.929 45.0227 105.75 44.3125 105.756 43.4545V30.7727ZM36.7045 76H30.517V58.5455H36.7557C38.5114 58.5455 40.0227 58.8949 41.2898 59.5938C42.5568 60.2869 43.5313 61.2841 44.2131 62.5852C44.9006 63.8864 45.2443 65.4432 45.2443 67.2557C45.2443 69.0739 44.9006 70.6364 44.2131 71.9432C43.5313 73.25 42.5511 74.2528 41.2727 74.9517C40 75.6506 38.4773 76 36.7045 76ZM34.2074 72.8381H36.5511C37.642 72.8381 38.5597 72.6449 39.304 72.2585C40.054 71.8665 40.6165 71.2614 40.9915 70.4432C41.3722 69.6193 41.5625 68.5568 41.5625 67.2557C41.5625 65.9659 41.3722 64.9119 40.9915 64.0938C40.6165 63.2756 40.0568 62.6733 39.3125 62.2869C38.5682 61.9006 37.6506 61.7074 36.5597 61.7074H34.2074V72.8381ZM53.8757 76.2557C52.5291 76.2557 51.37 75.983 50.3984 75.4375C49.4325 74.8864 48.6882 74.108 48.1655 73.1023C47.6428 72.0909 47.3814 70.8949 47.3814 69.5142C47.3814 68.1676 47.6428 66.9858 48.1655 65.9688C48.6882 64.9517 49.424 64.1591 50.3729 63.5909C51.3274 63.0227 52.4467 62.7386 53.7308 62.7386C54.5945 62.7386 55.3984 62.8778 56.1428 63.1562C56.8928 63.429 57.5462 63.8409 58.103 64.392C58.6655 64.9432 59.103 65.6364 59.4155 66.4716C59.728 67.3011 59.8842 68.2727 59.8842 69.3864V70.3835H48.8303V68.1335H56.4666C56.4666 67.6108 56.353 67.1477 56.1257 66.7443C55.8984 66.3409 55.5831 66.0256 55.1797 65.7983C54.782 65.5653 54.3189 65.4489 53.7905 65.4489C53.2393 65.4489 52.7507 65.5767 52.3246 65.8324C51.9041 66.0824 51.5746 66.4205 51.3359 66.8466C51.0973 67.267 50.9751 67.7358 50.9695 68.2528V70.392C50.9695 71.0398 51.0888 71.5994 51.3274 72.071C51.5717 72.5426 51.9155 72.9062 52.3587 73.1619C52.8018 73.4176 53.3274 73.5455 53.9354 73.5455C54.3388 73.5455 54.7081 73.4886 55.0433 73.375C55.3786 73.2614 55.6655 73.0909 55.9041 72.8636C56.1428 72.6364 56.3246 72.358 56.4496 72.0284L59.8075 72.25C59.6371 73.0568 59.2876 73.7614 58.7592 74.3636C58.2365 74.9602 57.5604 75.4261 56.7308 75.7614C55.907 76.0909 54.9553 76.2557 53.8757 76.2557ZM69.2166 62.9091V65.6364H61.3331V62.9091H69.2166ZM63.1229 59.7727H66.7536V71.9773C66.7536 72.3125 66.8047 72.5739 66.907 72.7614C67.0092 72.9432 67.1513 73.071 67.3331 73.1449C67.5206 73.2187 67.7365 73.2557 67.9808 73.2557C68.1513 73.2557 68.3217 73.2415 68.4922 73.2131C68.6626 73.179 68.7933 73.1534 68.8842 73.1364L69.4553 75.8381C69.2734 75.8949 69.0178 75.9602 68.6882 76.0341C68.3587 76.1136 67.9581 76.1619 67.4865 76.179C66.6115 76.2131 65.8445 76.0966 65.1854 75.8295C64.532 75.5625 64.0234 75.1477 63.6598 74.5852C63.2962 74.0227 63.1172 73.3125 63.1229 72.4545V59.7727ZM75.3146 76.2472C74.4794 76.2472 73.7351 76.1023 73.0817 75.8125C72.4283 75.517 71.9112 75.0824 71.5305 74.5085C71.1555 73.929 70.968 73.2074 70.968 72.3438C70.968 71.6165 71.1016 71.0057 71.3686 70.5114C71.6357 70.017 71.9993 69.6193 72.4595 69.3182C72.9197 69.017 73.4425 68.7898 74.0277 68.6364C74.6186 68.483 75.2379 68.375 75.8857 68.3125C76.647 68.233 77.2607 68.1591 77.7266 68.0909C78.1925 68.017 78.5305 67.9091 78.7408 67.767C78.951 67.625 79.0561 67.4148 79.0561 67.1364V67.0852C79.0561 66.5455 78.8857 66.1278 78.5447 65.8324C78.2095 65.5369 77.7322 65.3892 77.1129 65.3892C76.4595 65.3892 75.9396 65.5341 75.5533 65.8239C75.1669 66.108 74.9112 66.4659 74.7862 66.8977L71.4283 66.625C71.5987 65.8295 71.9339 65.142 72.4339 64.5625C72.9339 63.9773 73.5788 63.5284 74.3686 63.2159C75.1641 62.8977 76.0845 62.7386 77.13 62.7386C77.8572 62.7386 78.5533 62.8239 79.218 62.9943C79.8885 63.1648 80.4822 63.429 80.9993 63.7869C81.522 64.1449 81.9339 64.6051 82.2351 65.1676C82.5362 65.7244 82.6868 66.392 82.6868 67.1705V76H79.2436V74.1847H79.1413C78.9311 74.5938 78.6499 74.9545 78.2976 75.267C77.9453 75.5739 77.522 75.8153 77.0277 75.9915C76.5334 76.1619 75.9624 76.2472 75.3146 76.2472ZM76.3544 73.7415C76.8885 73.7415 77.3601 73.6364 77.7692 73.4261C78.1783 73.2102 78.4993 72.9205 78.7322 72.5568C78.9652 72.1932 79.0817 71.7812 79.0817 71.321V69.9318C78.968 70.0057 78.8118 70.0739 78.6129 70.1364C78.4197 70.1932 78.201 70.2472 77.9567 70.2983C77.7124 70.3437 77.468 70.3864 77.2237 70.4261C76.9794 70.4602 76.7578 70.4915 76.5589 70.5199C76.1328 70.5824 75.7607 70.6818 75.4425 70.8182C75.1243 70.9545 74.8771 71.1392 74.701 71.3722C74.5249 71.5994 74.4368 71.8835 74.4368 72.2244C74.4368 72.7188 74.6158 73.0966 74.9737 73.358C75.3374 73.6136 75.7976 73.7415 76.3544 73.7415ZM85.5036 76V62.9091H89.1342V76H85.5036ZM87.3274 61.2216C86.7876 61.2216 86.3246 61.0426 85.9382 60.6847C85.5575 60.321 85.3672 59.8864 85.3672 59.3807C85.3672 58.8807 85.5575 58.4517 85.9382 58.0938C86.3246 57.7301 86.7876 57.5483 87.3274 57.5483C87.8672 57.5483 88.3274 57.7301 88.7081 58.0938C89.0945 58.4517 89.2876 58.8807 89.2876 59.3807C89.2876 59.8864 89.0945 60.321 88.7081 60.6847C88.3274 61.0426 87.8672 61.2216 87.3274 61.2216ZM95.6733 58.5455V76H92.0426V58.5455H95.6733ZM109.474 66.642L106.15 66.8466C106.093 66.5625 105.971 66.3068 105.783 66.0795C105.596 65.8466 105.349 65.6619 105.042 65.5256C104.741 65.3835 104.38 65.3125 103.96 65.3125C103.397 65.3125 102.923 65.4318 102.536 65.6705C102.15 65.9034 101.957 66.2159 101.957 66.608C101.957 66.9205 102.082 67.1847 102.332 67.4006C102.582 67.6165 103.011 67.7898 103.619 67.9205L105.988 68.3977C107.261 68.6591 108.21 69.0795 108.835 69.6591C109.46 70.2386 109.772 71 109.772 71.9432C109.772 72.8011 109.519 73.554 109.013 74.2017C108.513 74.8494 107.826 75.3551 106.951 75.7188C106.082 76.0767 105.079 76.2557 103.942 76.2557C102.21 76.2557 100.829 75.8949 99.8004 75.1733C98.7777 74.446 98.1783 73.4574 98.0021 72.2074L101.573 72.0199C101.681 72.5483 101.942 72.9517 102.357 73.2301C102.772 73.5028 103.303 73.6392 103.951 73.6392C104.587 73.6392 105.099 73.517 105.485 73.2727C105.877 73.0227 106.076 72.7017 106.082 72.3097C106.076 71.9801 105.937 71.7102 105.664 71.5C105.391 71.2841 104.971 71.1193 104.403 71.0057L102.136 70.554C100.857 70.2983 99.9055 69.8551 99.2805 69.2244C98.6612 68.5937 98.3516 67.7898 98.3516 66.8125C98.3516 65.9716 98.5788 65.2472 99.0334 64.6392C99.4936 64.0312 100.138 63.5625 100.968 63.233C101.803 62.9034 102.781 62.7386 103.9 62.7386C105.553 62.7386 106.854 63.0881 107.803 63.7869C108.758 64.4858 109.315 65.4375 109.474 66.642Z" fill="#2B2024"/>
</svg>
