<svg width="278" height="196" viewBox="0 0 278 196" fill="none" xmlns="http://www.w3.org/2000/svg">
<path d="M294.564 96.6843C294.648 95.3943 291.622 94.7646 291.759 93.6357C291.896 92.5109 294.949 92.7447 298.176 90.713C298.758 90.3466 302.425 88.0378 302.067 86.3055C301.389 83.0219 286.849 84.6979 285.434 79.9211C285.123 78.8728 285.411 77.4023 284.555 74.1075C284.214 72.7967 283.931 72.1165 283.354 71.9018C282.534 71.5972 281.837 72.496 279.825 73.824C276.807 75.8156 276.255 75.1927 274.09 76.9476C272.482 78.2503 271.942 79.2777 271.242 79.0706C270.252 78.7776 270.694 76.531 269.56 75.9827C268.403 75.4232 266.385 77.0097 265.149 78.3854C262.829 80.9672 262.588 83.5547 261.817 85.9204C260.979 88.4913 259.121 92.0022 254.515 95.6178L212.46 126.23C221.313 120.102 246.07 103.637 255.716 97.8235C258.501 96.1454 261.425 94.5117 264.618 95.2631C267.691 95.9865 270.643 98.8333 275.599 100.722C276.178 100.943 277.797 101.536 278.525 100.844C279.128 100.272 278.573 99.3423 279.128 98.7998C279.872 98.0721 281.474 99.1539 284.099 99.5244C285.95 99.7857 287.369 99.5605 288.589 99.3668C288.957 99.3084 294.452 98.4015 294.564 96.6843L294.564 96.6843Z" fill="#F2F2F2"/>
<path d="M223.507 79.2957C222.898 78.8821 221.716 80.1857 221.201 79.7925C220.689 79.4007 221.684 77.9701 221.618 75.8001C221.606 75.4088 221.531 72.9428 220.578 72.6185C218.77 72.0037 215.398 79.6239 212.645 78.9402C212.041 78.7902 211.402 78.2243 209.538 77.694C208.796 77.483 208.381 77.4256 208.109 77.6472C207.723 77.9616 207.963 78.5632 208.034 79.9339C208.141 81.9897 207.676 82.0807 207.912 83.6498C208.088 84.8147 208.436 85.3763 208.133 85.66C207.703 86.0616 206.728 85.1962 206.132 85.5946C205.523 86.001 205.72 87.4492 206.038 88.4529C206.636 90.3367 207.836 91.2013 208.775 92.2624C209.795 93.4156 210.982 95.3401 211.428 98.6444L214.318 128.118C213.865 122.004 212.927 105.103 212.857 98.6912C212.837 96.8403 212.879 94.9337 214.169 93.5835C215.411 92.2836 217.659 91.6562 220.016 89.7688C220.292 89.5484 221.05 88.9251 220.921 88.3677C220.814 87.9068 220.197 87.9108 220.091 87.4821C219.949 86.907 220.942 86.433 221.881 85.2515C222.543 84.4183 222.842 83.6569 223.099 83.0022C223.177 82.8048 224.317 79.8461 223.507 79.2956L223.507 79.2957V79.2957Z" fill="#F2F2F2"/>
<path d="M233.759 90.312L235.63 86.7957L235.966 86.6626C237.524 86.0475 238.684 85.1995 239.415 84.1415C239.532 83.9733 239.639 83.7992 239.749 83.6219C240.184 82.9191 240.725 82.0454 241.842 81.3606C242.467 80.9799 244.035 80.182 244.972 81.0558C245.227 81.288 245.351 81.5631 245.409 81.8251C245.459 81.8035 245.509 81.7824 245.563 81.7592C246.229 81.4855 246.633 81.4492 247.021 81.4143C247.32 81.3873 247.629 81.3599 248.201 81.1868C248.452 81.111 248.66 81.0351 248.834 80.9716C249.363 80.7799 250.024 80.5724 250.641 81.0069C251.285 81.4942 251.256 82.2832 251.238 82.8057C251.205 83.7378 251.071 84.3341 250.982 84.7295C250.95 84.8739 250.913 85.0367 250.912 85.0939C250.911 85.5562 252.856 86.4553 253.586 86.7978C255.23 87.5622 256.652 88.2236 256.541 89.5141C256.462 90.4377 255.58 91.1259 253.845 91.6126C253.304 91.7638 252.804 91.8169 252.378 91.8359C252.516 92.134 252.578 92.4894 252.433 92.8815C252.09 93.8092 250.866 94.1364 248.795 93.8576C248.28 93.7896 247.588 93.6956 246.781 93.3261C246.401 93.1517 246.086 92.9564 245.819 92.785C245.709 92.9326 245.562 93.0723 245.354 93.1778C244.743 93.4893 244.018 93.3403 243.209 92.7024C242.309 92.0142 241.662 91.3095 241.091 90.689C240.592 90.1479 240.16 89.6833 239.741 89.4358C238.958 88.9871 237.978 89.1895 236.778 89.5005L233.759 90.312L233.759 90.312Z" fill="#F2F2F2"/>
<path d="M248.771 72.0299L244.896 71.1121L244.681 70.8202C243.691 69.4696 242.577 68.5627 241.368 68.1234C241.176 68.0535 240.98 67.9935 240.781 67.9322C239.99 67.6897 239.008 67.3885 238.062 66.4811C237.536 65.9736 236.366 64.6592 236.974 63.5308C237.134 63.2257 237.368 63.0357 237.607 62.9132C237.573 62.8707 237.54 62.8273 237.504 62.7809C237.071 62.2063 236.933 61.8251 236.801 61.4579C236.699 61.1757 236.594 60.8844 236.281 60.3744C236.144 60.1507 236.018 59.9695 235.913 59.8169C235.593 59.3543 235.225 58.7675 235.488 58.06C235.797 57.3136 236.567 57.141 237.077 57.0263C237.987 56.8215 238.598 56.7997 239.003 56.7855C239.151 56.7806 239.317 56.7744 239.373 56.7608C239.821 56.6451 240.197 54.5354 240.343 53.7422C240.665 51.9584 240.944 50.4149 242.221 50.1952C243.134 50.0373 244.024 50.7164 244.935 52.2711C245.218 52.7553 245.396 53.2263 245.523 53.633C245.776 53.4243 246.104 53.2738 246.52 53.3143C247.505 53.4112 248.131 54.5119 248.387 56.5861C248.452 57.1017 248.537 57.7949 248.384 58.6689C248.311 59.0805 248.203 59.4354 248.105 59.7373C248.275 59.8055 248.448 59.913 248.602 60.0873C249.059 60.5989 249.098 61.338 248.687 62.2827C248.249 63.3279 247.732 64.1322 247.276 64.8421C246.88 65.4622 246.54 65.9972 246.406 66.4652C246.171 67.3371 246.615 68.2333 247.221 69.3151L248.771 72.0299L248.771 72.0299V72.0299Z" fill="#F2F2F2"/>
<path d="M253.664 61.2465L255.535 57.7302L255.872 57.5971C257.429 56.982 258.589 56.134 259.321 55.076C259.437 54.9078 259.545 54.7337 259.655 54.5564C260.09 53.8536 260.63 52.9799 261.748 52.2951C262.372 51.9144 263.94 51.1165 264.878 51.9903C265.132 52.2225 265.257 52.4976 265.315 52.7596C265.364 52.738 265.414 52.7169 265.469 52.6937C266.134 52.42 266.538 52.3837 266.927 52.3488C267.226 52.3218 267.534 52.2944 268.106 52.1213C268.358 52.0455 268.565 51.9696 268.739 51.9061C269.268 51.7144 269.929 51.5069 270.546 51.9414C271.19 52.4287 271.162 53.2177 271.143 53.7402C271.111 54.6723 270.977 55.2686 270.888 55.664C270.855 55.8084 270.819 55.9712 270.818 56.0284C270.816 56.4907 272.761 57.3898 273.492 57.7323C275.135 58.4967 276.558 59.1581 276.446 60.4486C276.367 61.3722 275.485 62.0604 273.75 62.5471C273.21 62.6983 272.709 62.7514 272.283 62.7705C272.421 63.0685 272.483 63.4239 272.339 63.8161C271.995 64.7437 270.772 65.0709 268.7 64.7921C268.185 64.7241 267.493 64.6301 266.686 64.2606C266.307 64.0862 265.991 63.8909 265.724 63.7195C265.615 63.8671 265.467 64.0068 265.259 64.1123C264.648 64.4238 263.923 64.2748 263.114 63.6369C262.214 62.9487 261.567 62.244 260.996 61.6235C260.497 61.0824 260.066 60.6179 259.647 60.3703C258.863 59.9216 257.883 60.124 256.684 60.435L253.664 61.2465V61.2465H253.664Z" fill="#F2F2F2"/>
<path d="M213.589 126.925L213.198 126.028L213.574 125.124L213.198 126.028L212.338 125.573C212.376 125.49 212.449 125.29 212.566 124.978C213.209 123.274 215.164 118.084 219.049 110.464C221.761 105.145 224.842 99.8767 228.208 94.8035C231.579 89.7225 234.425 86.0774 236.712 83.1474C238.437 80.9377 240.118 78.8594 241.757 76.8357C246.132 71.428 250.265 66.3194 254.041 60.117C254.885 58.7328 256.64 55.8507 257.042 51.78C257.275 49.4191 257.02 47.007 256.284 44.6122L258.156 44.0366C258.968 46.682 259.248 49.3526 258.989 51.9741C258.544 56.4874 256.632 59.6278 255.713 61.1367C251.869 67.4486 247.696 72.606 243.278 78.0656C241.647 80.0825 239.973 82.1513 238.255 84.3521C235.988 87.2549 233.167 90.8684 229.84 95.8843C226.513 100.896 223.47 106.1 220.792 111.352C216.956 118.877 215.031 123.989 214.399 125.668C214.061 126.565 213.99 126.753 213.589 126.925V126.925V126.925Z" fill="#F2F2F2"/>
<path d="M251.565 45.1499C251.499 45.1045 251.433 45.057 251.369 45.0059C250.044 43.99 249.335 42.2948 249.258 39.9676C249.224 38.874 249.521 37.8562 250.112 35.8263C250.203 35.513 250.68 33.936 251.653 31.9819C252.288 30.7048 252.642 30.2316 253.168 29.9594C253.752 29.6555 254.396 29.6052 255.017 29.6994C255.102 29.5309 255.228 29.3829 255.406 29.2664C256.143 28.7815 256.814 29.371 257.18 29.6846C257.363 29.847 257.591 30.0513 257.87 30.2218C258.308 30.4918 258.623 30.5217 259.097 30.569C259.552 30.6139 260.117 30.6698 260.812 30.9627C262.185 31.5349 262.959 32.5651 263.214 32.9044C264.562 34.6823 264.493 36.6297 264.413 38.8844C264.396 39.3359 264.291 40.9509 263.664 42.833C263.211 44.1908 262.82 44.6641 262.465 44.9725C261.738 45.6075 260.966 45.7277 259.108 45.8863C257.165 46.0544 256.19 46.1376 255.441 46.0811C253.7 45.9469 252.606 45.8627 251.565 45.1498L251.565 45.1499V45.1499Z" fill="#F2F2F2"/>
<path d="M243.849 0H134.133C130.109 0 126.836 3.27273 126.836 7.29747V120.466C126.836 124.491 130.109 127.764 134.133 127.764H243.849C247.874 127.764 251.146 124.491 251.146 120.466V7.29747C251.146 3.27273 247.874 0 243.849 0ZM250.379 120.466C250.379 124.073 247.455 126.996 243.849 126.996H134.133C130.527 126.996 127.603 124.073 127.603 120.466V7.29747C127.603 3.69099 130.527 0.767349 134.133 0.767349H192.249C224.354 0.767349 250.379 26.7929 250.379 58.897V120.466Z" fill="#3F3D56"/>
<path d="M124.512 85.0551C120.667 86.0945 118.086 88.9212 118.748 91.3684C119.41 93.8155 123.063 94.9561 126.91 93.9159C128.452 93.5214 129.878 92.7633 131.067 91.705L147.305 87.0953L144.979 79.5215L129.219 84.87C127.658 84.555 126.044 84.6184 124.512 85.0551Z" fill="#FFB6B6"/>
<path d="M192.561 62.3322C192.561 62.3322 197.145 69.0572 186.813 74.1303C176.481 79.2035 157.383 86.4441 157.383 86.4441L131.012 92.5534L127.03 83.8229L158.321 75.2976L183.819 61.068L192.561 62.3322H192.561Z" fill="#3F3D56"/>
<path d="M189.491 44.4327C189.373 47.6205 191.668 51.4046 194.095 51.4823C197.014 51.5758 210.813 52.5586 211.256 51.4141C214.336 43.4678 199.831 26.984 196.561 26.5085C194.804 26.253 192.7 28.7757 191.892 30.8583C190.758 33.7768 192.431 35.1531 191.487 39.0848C190.767 42.083 189.573 42.2041 189.491 44.4327Z" fill="#2F2E41"/>
<path d="M165.472 170.099L155.787 172.318L165.519 201.194L172.081 199.69L165.472 170.099Z" fill="#FFB6B6"/>
<path d="M186.514 183.226L177.865 183.012L179.076 213.418L185.808 213.538L186.514 183.226Z" fill="#FFB6B6"/>
<path d="M204.359 150.016L158.62 146.476L171.492 93.7091L202.287 89.272L204.359 150.016Z" fill="#2F2E41"/>
<path d="M198.051 53.0209L207.688 47.8866L215.47 57.0754L199.832 107.198L171.226 94.5316L192.953 57.3864L198.051 53.0209Z" fill="#F50057"/>
<path d="M199.273 98.1483C199.273 98.1483 202.342 113.972 192.839 122.197L189.93 131.445L186.789 148.515L187.073 192.604L175.563 191.453L170.959 149.251L170.904 128.246L153.912 142.798L171.696 177.727L157.205 184.073L139.506 141.98C138.277 139.416 138.605 136.377 140.353 134.134L171.227 94.5315L199.273 98.1483Z" fill="#2F2E41"/>
<path d="M211.203 52.0376L192.307 69.6658C187.836 105.953 190.277 139.274 203.143 168.121L234.895 153.405C208.713 145.463 211.281 101.86 216.361 55.1406L211.203 52.0376Z" fill="#3F3D56"/>
<path d="M194.908 57.4453L197.815 52.9478L181.738 62.3995L169.025 97.629L192.476 68.3637L194.908 57.4453Z" fill="#3F3D56"/>
<path d="M235.123 123.711C236.231 127.537 239.103 130.067 241.538 129.361C243.973 128.656 245.048 124.982 243.939 121.155C243.517 119.62 242.734 118.208 241.654 117.038L236.755 100.886L229.224 103.346L234.853 119.009C234.566 120.575 234.659 122.188 235.123 123.711Z" fill="#FFB6B6"/>
<path d="M210.468 55.5164C210.468 55.5164 217.059 50.7406 222.427 60.9225C227.795 71.1044 235.581 89.987 235.581 89.987L242.446 116.171L233.833 120.402L224.412 89.3694L209.456 64.291L210.468 55.5164Z" fill="#3F3D56"/>
<path d="M202.635 47.4731C208.546 47.4731 213.337 42.6813 213.337 36.7702C213.337 30.8592 208.546 26.0674 202.635 26.0674C196.723 26.0674 191.932 30.8592 191.932 36.7702C191.932 42.6813 196.723 47.4731 202.635 47.4731Z" fill="#FFB6B6"/>
<path d="M202.668 32.5954C202.065 32.5359 201.755 33.173 199.455 34.0618C198.639 34.3767 198.222 34.5347 197.743 34.5655C196.288 34.659 195.157 33.8552 194.401 33.318C193.172 32.4447 192.381 31.8823 192.226 30.983C192.024 29.8095 193.353 28.4986 196.018 25.9247C197.323 24.6642 198.119 23.9028 199.396 22.9966C201.538 21.4766 202.609 20.7166 204.11 20.5674C206.099 20.37 207.611 21.3189 209.793 22.6882C210.382 23.0582 211.232 23.2361 212.132 23.3039C215.081 23.5258 217.609 25.4913 218.411 28.3378C218.473 28.5553 218.524 28.7521 218.563 28.9207C220.146 35.8321 219.704 43.0207 217.538 49.772C217.479 49.9537 217.431 50.1229 217.393 50.2772C216.386 54.3887 202.562 55.9915 200.945 52.5156C199.926 50.3268 204.685 48.1368 205.396 41.6104C205.89 37.067 204.17 32.7435 202.668 32.5954V32.5954Z" fill="#2F2E41"/>
<path d="M160.983 35.0118H45.0166V35.6062H160.983V35.0118Z" fill="#E6E6E6"/>
<path d="M144.611 26.3196H61.3876C60.0765 26.3196 59.0098 25.2529 59.0098 23.9418C59.0098 22.6307 60.0765 21.564 61.3876 21.564H144.611C145.922 21.564 146.989 22.6307 146.989 23.9418C146.989 25.2529 145.922 26.3196 144.611 26.3196Z" fill="#E6E6E6"/>
<path d="M45.2739 39.7416C48.0286 39.7416 50.2617 37.5085 50.2617 34.7539C50.2617 31.9992 48.0286 29.7661 45.2739 29.7661C42.5192 29.7661 40.2861 31.9992 40.2861 34.7539C40.2861 37.5085 42.5192 39.7416 45.2739 39.7416Z" fill="#E6E6E6"/>
<path d="M60.6206 28.9992C63.3752 28.9992 65.6083 26.7661 65.6083 24.0114C65.6083 21.2568 63.3752 19.0237 60.6206 19.0237C57.8659 19.0237 55.6328 21.2568 55.6328 24.0114C55.6328 26.7661 57.8659 28.9992 60.6206 28.9992Z" fill="#E6E6E6"/>
<path d="M121.848 90.644H5.88184V91.2385H121.848V90.644Z" fill="#3F3D56"/>
<path d="M105.477 81.9532H22.2538C20.9427 81.9532 19.876 80.8865 19.876 79.5754C19.876 78.2643 20.9427 77.1976 22.2538 77.1976H105.477C106.788 77.1976 107.855 78.2643 107.855 79.5754C107.855 80.8865 106.788 81.9532 105.477 81.9532Z" fill="#F50057"/>
<path d="M4.98777 95.3753C7.74244 95.3753 9.97553 93.1422 9.97553 90.3875C9.97553 87.6328 7.74244 85.3997 4.98777 85.3997C2.2331 85.3997 0 87.6328 0 90.3875C0 93.1422 2.2331 95.3753 4.98777 95.3753Z" fill="#F50057"/>
<path d="M20.3344 84.6328C23.0891 84.6328 25.3222 82.3997 25.3222 79.6451C25.3222 76.8904 23.0891 74.6573 20.3344 74.6573C17.5798 74.6573 15.3467 76.8904 15.3467 79.6451C15.3467 82.3997 17.5798 84.6328 20.3344 84.6328Z" fill="#F50057"/>
<path d="M135.661 152.033H19.6943V152.627H135.661V152.033Z" fill="#E6E6E6"/>
<path d="M119.288 143.342H36.0643C34.7532 143.342 33.6865 142.275 33.6865 140.964C33.6865 139.653 34.7532 138.586 36.0643 138.586H119.288C120.599 138.586 121.665 139.653 121.665 140.964C121.665 142.275 120.599 143.342 119.288 143.342Z" fill="#E6E6E6"/>
<path d="M33.7622 145.637C36.5168 145.637 38.7499 143.404 38.7499 140.65C38.7499 137.895 36.5168 135.662 33.7622 135.662C31.0075 135.662 28.7744 137.895 28.7744 140.65C28.7744 143.404 31.0075 145.637 33.7622 145.637Z" fill="#E6E6E6"/>
<path d="M18.7983 157.147C21.553 157.147 23.7861 154.914 23.7861 152.159C23.7861 149.405 21.553 147.171 18.7983 147.171C16.0436 147.171 13.8105 149.405 13.8105 152.159C13.8105 154.914 16.0436 157.147 18.7983 157.147Z" fill="#E6E6E6"/>
</svg>
