<svg width="305" height="239" viewBox="0 0 305 239" fill="none" xmlns="http://www.w3.org/2000/svg">
<mask id="mask0_0_1" style="mask-type:alpha" maskUnits="userSpaceOnUse" x="-31" y="0" width="332" height="231">
<rect x="-31" width="332" height="231" rx="31" fill="white"/>
</mask>
<g mask="url(#mask0_0_1)">
<path d="M328.461 154.816C328.147 155.42 327.819 156.013 327.481 156.602C314.521 179.181 284.373 193.203 233.529 185.782C204.661 181.367 192.366 197.559 180.461 214.143C180.258 214.43 180.054 214.716 179.847 215.002C167.381 232.394 155.038 249.834 124.176 244.036C91.4583 238.863 71.2664 212.298 68.1419 183.937C68.1039 183.592 68.0695 183.243 68.0384 182.898C66.2831 164.51 71.7078 145.47 85.5472 131.096C93.9069 122.416 105.784 117.805 118.044 117.95C121.735 118.019 125.425 117.745 129.066 117.133C129.869 116.991 130.649 116.836 131.408 116.66C147.027 113.091 154.224 102.479 158.638 89.5295C158.742 89.2225 158.845 88.9156 158.945 88.6052C169.081 57.7225 164.394 14.3763 219.497 20.7528C268.806 24.3877 304.992 51.7287 322.743 83.2736C322.919 83.5909 323.094 83.9082 323.267 84.2254C328.146 92.9781 331.627 102.439 333.585 112.267C333.696 112.818 333.796 113.37 333.889 113.922C336.399 128.572 334.754 142.811 328.461 154.816Z" fill="#F2F2F2"/>
<path d="M323.267 84.2253C319.729 88.4297 315.743 92.2354 311.379 95.5748C294.381 108.611 272.851 115.681 251.611 117.163C240.695 117.931 229.726 117.186 219.014 114.949C208.116 112.666 197.722 108.645 187.655 103.948C177.864 99.3787 168.363 94.2264 158.638 89.5293C158.742 89.2224 158.845 88.9154 158.945 88.6051C169.55 93.7091 179.937 99.3338 190.666 104.196C200.774 108.78 211.237 112.518 222.18 114.518C233.098 116.5 244.24 116.937 255.28 115.815C276.462 113.684 298.009 105.869 314.293 91.8882C317.351 89.2635 320.178 86.3813 322.743 83.2734C322.919 83.5907 323.094 83.908 323.267 84.2253Z" fill="white"/>
<path d="M232.687 -0.675769C232.662 -0.675769 232.637 -0.674981 232.613 -0.673402C206.475 0.96414 186 22.7814 186 48.9959C186 75.2106 206.475 97.0279 232.613 98.665C232.769 98.6755 232.925 98.6536 233.073 98.6007C233.22 98.5478 233.355 98.465 233.468 98.3575C233.582 98.2519 233.672 98.1239 233.734 97.9816C233.795 97.8393 233.827 97.6858 233.826 97.5308V0.460982C233.826 0.159215 233.705 -0.129958 233.492 -0.343074C233.278 -0.55619 232.988 -0.675845 232.687 -0.675781L232.687 -0.675769Z" fill="#CCCCCC"/>
<path d="M272.652 82.1649C272.264 82.1645 271.892 82.0107 271.618 81.7371L237.822 47.9411C237.686 47.8059 237.578 47.6451 237.505 47.468C237.432 47.2909 237.394 47.101 237.395 46.9093V0.460976C237.394 0.261666 237.434 0.0643489 237.513 -0.11856C237.593 -0.30147 237.709 -0.466015 237.855 -0.601847C238.001 -0.739362 238.174 -0.84539 238.363 -0.913365C238.552 -0.981339 238.752 -1.00981 238.953 -0.99702C265.261 0.651104 285.869 22.6107 285.869 48.9958C285.87 60.981 281.573 72.5692 273.759 81.6566C273.628 81.8089 273.466 81.9325 273.285 82.0198C273.104 82.107 272.907 82.1561 272.706 82.1639C272.688 82.1645 272.67 82.1649 272.652 82.1649Z" fill="#CCCCCC"/>
<path d="M238.86 98.992C238.487 98.9917 238.128 98.8496 237.855 98.5946C237.709 98.4587 237.593 98.2939 237.514 98.1108C237.434 97.9277 237.394 97.7302 237.395 97.5307V55.6221C237.395 55.3335 237.48 55.0515 237.64 54.8115C237.801 54.5716 238.029 54.3846 238.295 54.2742C238.562 54.1637 238.855 54.1348 239.138 54.1911C239.421 54.2474 239.681 54.3863 239.885 54.5903L269.376 84.0814C269.517 84.2217 269.627 84.389 269.7 84.5731C269.773 84.7572 269.809 84.9544 269.804 85.1525C269.798 85.3507 269.753 85.5458 269.67 85.7258C269.587 85.9059 269.469 86.0673 269.322 86.2001C260.925 93.7593 250.225 98.2652 238.95 98.9891C238.92 98.991 238.89 98.992 238.86 98.992Z" fill="#F50057"/>
<path d="M333.889 113.922C329.157 122.313 322.477 129.713 314.828 135.58C297.83 148.615 276.3 155.685 255.059 157.168C244.144 157.936 233.174 157.19 222.463 154.954C211.565 152.671 201.171 148.65 191.104 143.953C180.855 139.17 170.919 133.745 160.714 128.872C150.52 124.002 140.043 119.85 129.066 117.133C129.869 116.991 130.649 116.836 131.408 116.66C132.125 116.846 132.84 117.04 133.553 117.24C155.017 123.24 173.961 135.066 194.115 144.201C204.223 148.784 214.686 152.523 225.628 154.523C236.546 156.505 247.689 156.942 258.729 155.82C279.91 153.688 301.458 145.874 317.742 131.893C324.188 126.383 329.559 119.729 333.585 112.267C333.696 112.818 333.796 113.37 333.889 113.922Z" fill="white"/>
<path d="M120.792 187.592C141.939 193.503 160.638 205.07 180.461 214.143C180.257 214.43 180.054 214.716 179.847 215.002C179.344 214.771 178.844 214.54 178.344 214.305C168.094 209.522 158.159 204.097 147.954 199.224C137.542 194.251 126.838 190.027 115.606 187.313C100.079 183.573 84.0408 182.432 68.1416 183.936C68.1036 183.592 68.0692 183.243 68.0381 182.898C85.7619 181.225 103.642 182.816 120.792 187.592Z" fill="white"/>
<path d="M205.788 220.867H55.3947C55.29 220.867 55.1896 220.825 55.1156 220.751C55.0416 220.677 55 220.577 55 220.472C55 220.367 55.0416 220.267 55.1156 220.193C55.1896 220.119 55.29 220.077 55.3947 220.077H205.788C205.893 220.077 205.993 220.119 206.067 220.193C206.141 220.267 206.183 220.367 206.183 220.472C206.183 220.577 206.141 220.677 206.067 220.751C205.993 220.825 205.893 220.867 205.788 220.867Z" fill="#CCCCCC"/>
<path d="M116.231 167.616C121.586 167.616 125.926 163.275 125.926 157.921C125.926 152.566 121.586 148.226 116.231 148.226C110.877 148.226 106.536 152.566 106.536 157.921C106.536 163.275 110.877 167.616 116.231 167.616Z" fill="#A0616A"/>
<path d="M152.507 226.33L152.733 231.164L134.195 234.338L133.861 227.204L152.507 226.33Z" fill="#A0616A"/>
<path d="M157.134 224.878L157.648 235.868L157.451 235.877C155.928 235.977 154.411 235.61 153.102 234.825C151.919 234.071 151.237 233.026 151.184 231.884V231.883L150.87 225.171L157.134 224.878Z" fill="#2F2E41"/>
<path d="M151.988 234.286L156.828 234.285L159.13 215.619L151.987 215.62L151.988 234.286Z" fill="#A0616A"/>
<path d="M106.301 229.763C106.832 229.442 107.285 229.008 107.629 228.493C107.974 227.978 108.201 227.393 108.295 226.78C108.39 226.167 108.348 225.542 108.174 224.946C108 224.351 107.698 223.802 107.289 223.336L111.151 184.907L101.952 185.55L101.048 223.123C100.311 223.862 99.8716 224.846 99.8121 225.888C99.7526 226.93 100.077 227.958 100.725 228.776C101.373 229.595 102.298 230.147 103.326 230.329C104.353 230.511 105.412 230.31 106.301 229.763V229.763Z" fill="#A0616A"/>
<path d="M111.106 191.568L101.574 190.407C101.302 190.374 101.042 190.283 100.809 190.14C100.576 189.997 100.377 189.805 100.224 189.578C100.072 189.351 99.9708 189.094 99.927 188.824C99.8831 188.555 99.8979 188.279 99.9704 188.015L102.509 178.784C102.686 177.397 103.405 176.137 104.51 175.28C105.614 174.423 107.014 174.039 108.401 174.213C109.788 174.386 111.05 175.102 111.91 176.204C112.77 177.306 113.158 178.705 112.988 180.092L113.237 189.632C113.244 189.905 113.192 190.177 113.085 190.428C112.977 190.679 112.817 190.904 112.615 191.088C112.413 191.272 112.173 191.41 111.913 191.493C111.653 191.576 111.377 191.601 111.106 191.568Z" fill="#F50057"/>
<path d="M109.771 235.206C108.616 235.127 107.502 234.745 106.542 234.097C105.583 233.45 104.811 232.56 104.304 231.519C103.798 230.478 103.576 229.321 103.66 228.166C103.745 227.012 104.132 225.899 104.784 224.942L111.011 218.478L133.708 198.149L145.842 188.08C146.55 187.493 147.396 187.095 148.3 186.923C149.204 186.752 150.136 186.813 151.01 187.1C151.884 187.388 152.671 187.893 153.296 188.568C153.922 189.242 154.366 190.065 154.587 190.958L160.926 216.603C161.032 217.03 160.976 217.481 160.769 217.869C160.561 218.256 160.217 218.553 159.803 218.701L152.892 221.189C152.661 221.272 152.414 221.307 152.169 221.29C151.924 221.273 151.684 221.206 151.466 221.091C151.249 220.977 151.057 220.819 150.903 220.627C150.749 220.435 150.637 220.213 150.574 219.975L147.945 210.117L133.317 224.101L137.881 225.781C138.3 225.937 138.644 226.244 138.847 226.642C139.05 227.04 139.097 227.5 138.977 227.93L137.502 233.155C137.4 233.52 137.184 233.842 136.886 234.075C136.588 234.307 136.223 234.438 135.844 234.448L109.771 235.206Z" fill="#2F2E41"/>
<path d="M109.151 220.631L108.55 198.702L104.763 189.084C103.99 187.122 103.655 185.014 103.781 182.909C103.908 180.804 104.493 178.752 105.496 176.896C106.499 175.041 107.895 173.427 109.587 172.168C111.279 170.908 113.226 170.034 115.291 169.606C115.603 169.541 115.914 169.478 116.224 169.417C118.205 169.023 120.246 169.049 122.217 169.492C124.187 169.936 126.043 170.786 127.665 171.99C129.287 173.194 130.639 174.723 131.634 176.481C132.629 178.238 133.245 180.185 133.443 182.195L135.223 198.704L135.215 198.735C132.378 211.358 124.166 218.305 109.372 220.597L109.151 220.631Z" fill="#F50057"/>
<path d="M118.109 205.399C118.325 205.365 118.543 205.349 118.761 205.35L129.719 189.128L127.643 184.849L133.692 180.873L138.102 188.091C138.458 188.675 138.616 189.357 138.551 190.038C138.486 190.718 138.202 191.359 137.742 191.864L122.745 208.33C122.981 209.137 122.965 209.998 122.699 210.796C122.434 211.595 121.932 212.294 121.259 212.8C120.587 213.306 119.777 213.595 118.936 213.63C118.095 213.664 117.264 213.442 116.553 212.992C115.842 212.542 115.284 211.887 114.955 211.113C114.625 210.338 114.539 209.482 114.708 208.658C114.877 207.834 115.293 207.08 115.9 206.498C116.508 205.916 117.278 205.532 118.109 205.399Z" fill="#A0616A"/>
<path d="M128.759 188.826C128.513 188.758 128.285 188.637 128.09 188.472C127.895 188.307 127.738 188.102 127.629 187.871L123.84 179.801C123.117 178.714 122.855 177.384 123.112 176.103C123.368 174.823 124.122 173.696 125.207 172.971C126.293 172.245 127.622 171.979 128.903 172.232C130.184 172.484 131.313 173.235 132.042 174.318L138.029 180.963C138.2 181.152 138.328 181.376 138.405 181.62C138.481 181.864 138.504 182.121 138.472 182.374C138.44 182.627 138.354 182.871 138.219 183.088C138.085 183.304 137.905 183.49 137.693 183.631L130.22 188.595C130.007 188.737 129.767 188.83 129.514 188.87C129.262 188.91 129.004 188.895 128.759 188.826Z" fill="#F50057"/>
<path d="M244.82 165.44H212.819C212.358 165.44 211.915 165.257 211.589 164.931C211.263 164.605 211.08 164.162 211.08 163.701C211.08 163.24 211.263 162.797 211.589 162.471C211.915 162.145 212.358 161.962 212.819 161.962H244.82C245.281 161.962 245.723 162.145 246.05 162.471C246.376 162.797 246.559 163.24 246.559 163.701C246.559 164.162 246.376 164.605 246.05 164.931C245.723 165.257 245.281 165.44 244.82 165.44Z" fill="#CCCCCC"/>
<path d="M203.255 167.181C202.532 167.181 201.826 166.966 201.226 166.565C200.625 166.164 200.157 165.593 199.881 164.926C199.604 164.259 199.532 163.524 199.673 162.816C199.814 162.107 200.161 161.456 200.672 160.946C201.183 160.435 201.834 160.087 202.542 159.946C203.251 159.805 203.985 159.878 204.653 160.154C205.32 160.43 205.89 160.899 206.292 161.499C206.693 162.1 206.907 162.806 206.907 163.528C206.906 164.497 206.521 165.425 205.836 166.11C205.151 166.794 204.223 167.179 203.255 167.181Z" fill="#3F3D56"/>
<path d="M244.82 175.876H212.819C212.358 175.876 211.915 175.693 211.589 175.366C211.263 175.04 211.08 174.598 211.08 174.137C211.08 173.675 211.263 173.233 211.589 172.907C211.915 172.581 212.358 172.397 212.819 172.397H244.82C245.281 172.397 245.723 172.581 246.05 172.907C246.376 173.233 246.559 173.675 246.559 174.137C246.559 174.598 246.376 175.04 246.05 175.366C245.723 175.693 245.281 175.876 244.82 175.876Z" fill="#CCCCCC"/>
<path d="M203.255 177.615C202.532 177.615 201.826 177.401 201.226 177C200.625 176.598 200.157 176.028 199.881 175.361C199.604 174.693 199.532 173.959 199.673 173.25C199.814 172.542 200.161 171.891 200.672 171.38C201.183 170.87 201.834 170.522 202.542 170.381C203.251 170.24 203.985 170.312 204.653 170.589C205.32 170.865 205.89 171.333 206.292 171.934C206.693 172.534 206.907 173.24 206.907 173.963C206.906 174.931 206.521 175.859 205.836 176.544C205.151 177.229 204.223 177.614 203.255 177.615Z" fill="#3F3D56"/>
<path d="M244.82 186.31H212.819C212.358 186.31 211.915 186.127 211.589 185.801C211.263 185.475 211.08 185.032 211.08 184.571C211.08 184.11 211.263 183.668 211.589 183.341C211.915 183.015 212.358 182.832 212.819 182.832H244.82C245.281 182.832 245.723 183.015 246.05 183.341C246.376 183.668 246.559 184.11 246.559 184.571C246.559 185.032 246.376 185.475 246.05 185.801C245.723 186.127 245.281 186.31 244.82 186.31Z" fill="#CCCCCC"/>
<path d="M203.255 188.051C202.532 188.051 201.826 187.836 201.226 187.435C200.625 187.034 200.157 186.463 199.881 185.796C199.604 185.129 199.532 184.394 199.673 183.686C199.814 182.977 200.161 182.327 200.672 181.816C201.183 181.305 201.834 180.957 202.542 180.816C203.251 180.675 203.985 180.748 204.653 181.024C205.32 181.301 205.89 181.769 206.292 182.369C206.693 182.97 206.907 183.676 206.907 184.398C206.906 185.367 206.521 186.295 205.836 186.98C205.151 187.664 204.223 188.05 203.255 188.051Z" fill="#3F3D56"/>
<path d="M237.031 160.09H250.248C250.341 160.09 250.429 160.053 250.494 159.988C250.56 159.923 250.596 159.834 250.596 159.742V78.0275C250.596 77.9353 250.56 77.8468 250.494 77.7816C250.429 77.7163 250.341 77.6797 250.248 77.6797C250.156 77.6797 250.068 77.7163 250.003 77.7816C249.937 77.8468 249.901 77.9353 249.901 78.0275V159.394H237.031C236.985 159.394 236.94 159.403 236.897 159.42C236.855 159.438 236.816 159.463 236.784 159.495C236.752 159.528 236.726 159.566 236.708 159.608C236.691 159.651 236.682 159.696 236.682 159.742C236.682 159.788 236.691 159.833 236.708 159.875C236.726 159.917 236.752 159.956 236.784 159.988C236.816 160.021 236.855 160.046 236.897 160.064C236.94 160.081 236.985 160.09 237.031 160.09Z" fill="#3F3D56"/>
<path d="M289.588 126.865C289.1 127.605 288.402 128.183 287.585 128.527C286.768 128.87 285.867 128.963 284.996 128.795C284.125 128.626 283.324 128.204 282.694 127.58C282.064 126.956 281.633 126.159 281.455 125.291C281.278 124.422 281.362 123.52 281.697 122.699C282.032 121.878 282.603 121.175 283.338 120.679C284.073 120.182 284.938 119.915 285.825 119.91C286.712 119.906 287.58 120.164 288.32 120.653C289.311 121.309 290.001 122.332 290.239 123.497C290.476 124.661 290.243 125.873 289.588 126.865ZM282.683 122.302C282.269 122.928 282.051 123.663 282.055 124.413C282.058 125.163 282.285 125.896 282.705 126.517C283.125 127.139 283.72 127.622 284.414 127.906C285.109 128.189 285.872 128.26 286.607 128.11C287.342 127.96 288.016 127.595 288.544 127.062C289.072 126.529 289.43 125.851 289.572 125.114C289.715 124.378 289.636 123.615 289.345 122.924C289.055 122.232 288.565 121.642 287.939 121.228C287.1 120.675 286.075 120.477 285.089 120.678C284.104 120.88 283.238 121.464 282.683 122.302Z" fill="#CCCCCC"/>
<path d="M294.96 143.353C296.483 143.353 297.719 142.118 297.719 140.594C297.719 139.07 296.483 137.835 294.96 137.835C293.436 137.835 292.201 139.07 292.201 140.594C292.201 142.118 293.436 143.353 294.96 143.353Z" fill="#CCCCCC"/>
<path d="M178.267 51.5682C177.873 50.7742 177.722 49.8809 177.835 49.0015C177.948 48.122 178.32 47.2958 178.902 46.6274C179.485 45.9589 180.253 45.4783 181.109 45.2462C181.964 45.0141 182.87 45.0409 183.71 45.3234C184.551 45.6059 185.289 46.1312 185.831 46.833C186.373 47.5349 186.694 48.3816 186.755 49.2663C186.816 50.1509 186.613 51.0336 186.172 51.8029C185.73 52.5721 185.071 53.1933 184.277 53.5879C183.212 54.1157 181.981 54.1995 180.855 53.8209C179.728 53.4422 178.797 52.6321 178.267 51.5682ZM185.679 47.8849C185.345 47.213 184.82 46.6552 184.169 46.282C183.518 45.9089 182.771 45.7371 182.022 45.7885C181.274 45.8398 180.557 46.112 179.964 46.5705C179.37 47.0291 178.925 47.6534 178.686 48.3646C178.447 49.0758 178.424 49.842 178.621 50.5661C178.817 51.2902 179.224 51.9398 179.79 52.4328C180.355 52.9258 181.054 53.24 181.798 53.3357C182.543 53.4313 183.298 53.3042 183.97 52.9703C184.87 52.5217 185.556 51.7343 185.876 50.781C186.197 49.8276 186.126 48.7861 185.679 47.8849Z" fill="#CCCCCC"/>
<path d="M163.696 52.0833C165.22 52.0833 166.455 50.8481 166.455 49.3244C166.455 47.8006 165.22 46.5654 163.696 46.5654C162.173 46.5654 160.938 47.8006 160.938 49.3244C160.938 50.8481 162.173 52.0833 163.696 52.0833Z" fill="#CCCCCC"/>
<path d="M147.608 50.337C148.408 50.337 149.057 49.6881 149.057 48.8877C149.057 48.0873 148.408 47.4385 147.608 47.4385C146.808 47.4385 146.159 48.0873 146.159 48.8877C146.159 49.6881 146.808 50.337 147.608 50.337Z" fill="#CCCCCC"/>
<path d="M126.476 158.769L126.072 157.739C124.957 154.897 122.291 152.713 119.438 152.304C118.014 152.118 116.567 152.339 115.265 152.943C113.962 153.547 112.858 154.508 112.081 155.715C111.421 156.86 110.9 158.079 110.529 159.347C110.401 159.725 110.273 159.998 110.027 160.081C109.75 160.181 109.474 160.01 109.017 159.726C108.915 159.663 108.797 159.631 108.677 159.632C108.557 159.633 108.44 159.668 108.34 159.734C108.239 159.799 108.159 159.892 108.109 160.001C108.059 160.11 108.041 160.231 108.057 160.35L108.537 163.772L108.136 163.415C105.525 161.091 104.989 156.719 106.875 153.946L102.583 154.827L102.777 154.459C104.559 151.019 107.631 148.424 111.321 147.243L107.21 146.338L107.626 146.082C111.307 143.814 116.163 143.878 119.996 146.241C121.922 147.474 123.517 149.16 124.642 151.15C125.767 153.141 126.389 155.377 126.453 157.662L126.476 158.769Z" fill="#2F2E41"/>
</g>
<path d="M0.517045 75V57.5455H12.2784V60.5881H4.20739V64.7472H11.6733V67.7898H4.20739V71.9574H12.3125V75H0.517045ZM27.3487 61.9091L22.772 75H18.6811L14.1044 61.9091H17.9396L20.6584 71.2756H20.7947L23.505 61.9091H27.3487ZM32.5881 75.2472C31.7528 75.2472 31.0085 75.1023 30.3551 74.8125C29.7017 74.517 29.1847 74.0824 28.804 73.5085C28.429 72.929 28.2415 72.2074 28.2415 71.3438C28.2415 70.6165 28.375 70.0057 28.642 69.5114C28.9091 69.017 29.2727 68.6193 29.733 68.3182C30.1932 68.017 30.7159 67.7898 31.3011 67.6364C31.892 67.483 32.5114 67.375 33.1591 67.3125C33.9205 67.233 34.5341 67.1591 35 67.0909C35.4659 67.017 35.804 66.9091 36.0142 66.767C36.2244 66.625 36.3295 66.4148 36.3295 66.1364V66.0852C36.3295 65.5455 36.1591 65.1278 35.8182 64.8324C35.483 64.5369 35.0057 64.3892 34.3864 64.3892C33.733 64.3892 33.2131 64.5341 32.8267 64.8239C32.4403 65.108 32.1847 65.4659 32.0597 65.8977L28.7017 65.625C28.8722 64.8295 29.2074 64.142 29.7074 63.5625C30.2074 62.9773 30.8523 62.5284 31.642 62.2159C32.4375 61.8977 33.358 61.7386 34.4034 61.7386C35.1307 61.7386 35.8267 61.8239 36.4915 61.9943C37.1619 62.1648 37.7557 62.429 38.2727 62.7869C38.7955 63.1449 39.2074 63.6051 39.5085 64.1676C39.8097 64.7244 39.9602 65.392 39.9602 66.1705V75H36.517V73.1847H36.4148C36.2045 73.5938 35.9233 73.9545 35.571 74.267C35.2188 74.5739 34.7955 74.8153 34.3011 74.9915C33.8068 75.1619 33.2358 75.2472 32.5881 75.2472ZM33.6278 72.7415C34.1619 72.7415 34.6335 72.6364 35.0426 72.4261C35.4517 72.2102 35.7727 71.9205 36.0057 71.5568C36.2386 71.1932 36.3551 70.7812 36.3551 70.321V68.9318C36.2415 69.0057 36.0852 69.0739 35.8864 69.1364C35.6932 69.1932 35.4744 69.2472 35.2301 69.2983C34.9858 69.3437 34.7415 69.3864 34.4972 69.4261C34.2528 69.4602 34.0312 69.4915 33.8324 69.5199C33.4063 69.5824 33.0341 69.6818 32.7159 69.8182C32.3977 69.9545 32.1506 70.1392 31.9744 70.3722C31.7983 70.5994 31.7102 70.8835 31.7102 71.2244C31.7102 71.7188 31.8892 72.0966 32.2472 72.358C32.6108 72.6136 33.071 72.7415 33.6278 72.7415ZM46.4077 57.5455V75H42.777V57.5455H46.4077ZM57.7109 69.4261V61.9091H61.3416V75H57.8558V72.6222H57.7195C57.424 73.3892 56.9325 74.0057 56.245 74.4716C55.5632 74.9375 54.7308 75.1705 53.7479 75.1705C52.8729 75.1705 52.103 74.9716 51.4382 74.5739C50.7734 74.1761 50.2536 73.6108 49.8786 72.8778C49.5092 72.1449 49.3217 71.267 49.3161 70.2443V61.9091H52.9467V69.5966C52.9524 70.3693 53.1598 70.9801 53.5689 71.429C53.978 71.8778 54.5263 72.1023 55.2138 72.1023C55.6513 72.1023 56.0604 72.0028 56.4411 71.804C56.8217 71.5994 57.1286 71.2983 57.3615 70.9006C57.6001 70.5028 57.7166 70.0114 57.7109 69.4261ZM67.9787 75.2472C67.1435 75.2472 66.3991 75.1023 65.7457 74.8125C65.0923 74.517 64.5753 74.0824 64.1946 73.5085C63.8196 72.929 63.6321 72.2074 63.6321 71.3438C63.6321 70.6165 63.7656 70.0057 64.0327 69.5114C64.2997 69.017 64.6634 68.6193 65.1236 68.3182C65.5838 68.017 66.1065 67.7898 66.6918 67.6364C67.2827 67.483 67.902 67.375 68.5497 67.3125C69.3111 67.233 69.9247 67.1591 70.3906 67.0909C70.8565 67.017 71.1946 66.9091 71.4048 66.767C71.6151 66.625 71.7202 66.4148 71.7202 66.1364V66.0852C71.7202 65.5455 71.5497 65.1278 71.2088 64.8324C70.8736 64.5369 70.3963 64.3892 69.777 64.3892C69.1236 64.3892 68.6037 64.5341 68.2173 64.8239C67.831 65.108 67.5753 65.4659 67.4503 65.8977L64.0923 65.625C64.2628 64.8295 64.598 64.142 65.098 63.5625C65.598 62.9773 66.2429 62.5284 67.0327 62.2159C67.8281 61.8977 68.7486 61.7386 69.794 61.7386C70.5213 61.7386 71.2173 61.8239 71.8821 61.9943C72.5526 62.1648 73.1463 62.429 73.6634 62.7869C74.1861 63.1449 74.598 63.6051 74.8991 64.1676C75.2003 64.7244 75.3509 65.392 75.3509 66.1705V75H71.9077V73.1847H71.8054C71.5952 73.5938 71.3139 73.9545 70.9616 74.267C70.6094 74.5739 70.1861 74.8153 69.6918 74.9915C69.1974 75.1619 68.6264 75.2472 67.9787 75.2472ZM69.0185 72.7415C69.5526 72.7415 70.0241 72.6364 70.4332 72.4261C70.8423 72.2102 71.1634 71.9205 71.3963 71.5568C71.6293 71.1932 71.7457 70.7812 71.7457 70.321V68.9318C71.6321 69.0057 71.4759 69.0739 71.277 69.1364C71.0838 69.1932 70.8651 69.2472 70.6207 69.2983C70.3764 69.3437 70.1321 69.3864 69.8878 69.4261C69.6435 69.4602 69.4219 69.4915 69.223 69.5199C68.7969 69.5824 68.4247 69.6818 68.1065 69.8182C67.7884 69.9545 67.5412 70.1392 67.3651 70.3722C67.1889 70.5994 67.1009 70.8835 67.1009 71.2244C67.1009 71.7188 67.2798 72.0966 67.6378 72.358C68.0014 72.6136 68.4616 72.7415 69.0185 72.7415ZM85.1307 61.9091V64.6364H77.2472V61.9091H85.1307ZM79.0369 58.7727H82.6676V70.9773C82.6676 71.3125 82.7188 71.5739 82.821 71.7614C82.9233 71.9432 83.0653 72.071 83.2472 72.1449C83.4347 72.2187 83.6506 72.2557 83.8949 72.2557C84.0653 72.2557 84.2358 72.2415 84.4062 72.2131C84.5767 72.179 84.7074 72.1534 84.7983 72.1364L85.3693 74.8381C85.1875 74.8949 84.9318 74.9602 84.6023 75.0341C84.2727 75.1136 83.8722 75.1619 83.4006 75.179C82.5256 75.2131 81.7585 75.0966 81.0994 74.8295C80.446 74.5625 79.9375 74.1477 79.5739 73.5852C79.2102 73.0227 79.0313 72.3125 79.0369 71.4545V58.7727ZM93.321 75.2557C91.9744 75.2557 90.8153 74.983 89.8438 74.4375C88.8778 73.8864 88.1335 73.108 87.6108 72.1023C87.0881 71.0909 86.8267 69.8949 86.8267 68.5142C86.8267 67.1676 87.0881 65.9858 87.6108 64.9688C88.1335 63.9517 88.8693 63.1591 89.8182 62.5909C90.7727 62.0227 91.892 61.7386 93.1761 61.7386C94.0398 61.7386 94.8438 61.8778 95.5881 62.1562C96.3381 62.429 96.9915 62.8409 97.5483 63.392C98.1108 63.9432 98.5483 64.6364 98.8608 65.4716C99.1733 66.3011 99.3295 67.2727 99.3295 68.3864V69.3835H88.2756V67.1335H95.9119C95.9119 66.6108 95.7983 66.1477 95.571 65.7443C95.3438 65.3409 95.0284 65.0256 94.625 64.7983C94.2273 64.5653 93.7642 64.4489 93.2358 64.4489C92.6847 64.4489 92.196 64.5767 91.7699 64.8324C91.3494 65.0824 91.0199 65.4205 90.7812 65.8466C90.5426 66.267 90.4205 66.7358 90.4148 67.2528V69.392C90.4148 70.0398 90.5341 70.5994 90.7727 71.071C91.017 71.5426 91.3608 71.9062 91.804 72.1619C92.2472 72.4176 92.7727 72.5455 93.3807 72.5455C93.7841 72.5455 94.1534 72.4886 94.4886 72.375C94.8239 72.2614 95.1108 72.0909 95.3494 71.8636C95.5881 71.6364 95.7699 71.358 95.8949 71.0284L99.2528 71.25C99.0824 72.0568 98.733 72.7614 98.2045 73.3636C97.6818 73.9602 97.0057 74.4261 96.1761 74.7614C95.3523 75.0909 94.4006 75.2557 93.321 75.2557ZM0.517045 104V86.5455H7.40341C8.72727 86.5455 9.85511 86.7983 10.7869 87.304C11.7188 87.804 12.429 88.5 12.9176 89.392C13.4119 90.2784 13.6591 91.3011 13.6591 92.4602C13.6591 93.6193 13.4091 94.642 12.9091 95.5284C12.4091 96.4148 11.6847 97.1051 10.7358 97.5994C9.79261 98.0937 8.65057 98.3409 7.30966 98.3409H2.92045V95.3835H6.71307C7.4233 95.3835 8.00852 95.2614 8.46875 95.017C8.93466 94.767 9.28125 94.4233 9.50852 93.9858C9.74148 93.5426 9.85795 93.0341 9.85795 92.4602C9.85795 91.8807 9.74148 91.375 9.50852 90.9432C9.28125 90.5057 8.93466 90.1676 8.46875 89.929C8.00284 89.6847 7.41193 89.5625 6.69602 89.5625H4.20739V104H0.517045ZM15.9879 104V90.9091H19.5078V93.1932H19.6442C19.8828 92.3807 20.2834 91.767 20.8459 91.3523C21.4084 90.9318 22.0561 90.7216 22.7891 90.7216C22.9709 90.7216 23.1669 90.733 23.3771 90.7557C23.5874 90.7784 23.772 90.8097 23.9311 90.8494V94.071C23.7607 94.0199 23.5249 93.9744 23.2237 93.9347C22.9226 93.8949 22.647 93.875 22.397 93.875C21.8629 93.875 21.3857 93.9915 20.9652 94.2244C20.5504 94.4517 20.2209 94.7699 19.9766 95.179C19.7379 95.5881 19.6186 96.0597 19.6186 96.5938V104H15.9879ZM31.1136 104.256C29.7898 104.256 28.6449 103.974 27.679 103.412C26.7188 102.844 25.9773 102.054 25.4545 101.043C24.9318 100.026 24.6705 98.8466 24.6705 97.5057C24.6705 96.1534 24.9318 94.9716 25.4545 93.9602C25.9773 92.9432 26.7188 92.1534 27.679 91.5909C28.6449 91.0227 29.7898 90.7386 31.1136 90.7386C32.4375 90.7386 33.5795 91.0227 34.5398 91.5909C35.5057 92.1534 36.25 92.9432 36.7727 93.9602C37.2955 94.9716 37.5568 96.1534 37.5568 97.5057C37.5568 98.8466 37.2955 100.026 36.7727 101.043C36.25 102.054 35.5057 102.844 34.5398 103.412C33.5795 103.974 32.4375 104.256 31.1136 104.256ZM31.1307 101.443C31.733 101.443 32.2358 101.273 32.6392 100.932C33.0426 100.585 33.3466 100.114 33.5511 99.517C33.7614 98.9205 33.8665 98.2415 33.8665 97.4801C33.8665 96.7188 33.7614 96.0398 33.5511 95.4432C33.3466 94.8466 33.0426 94.375 32.6392 94.0284C32.2358 93.6818 31.733 93.5085 31.1307 93.5085C30.5227 93.5085 30.0114 93.6818 29.5966 94.0284C29.1875 94.375 28.8778 94.8466 28.6676 95.4432C28.4631 96.0398 28.3608 96.7188 28.3608 97.4801C28.3608 98.2415 28.4631 98.9205 28.6676 99.517C28.8778 100.114 29.1875 100.585 29.5966 100.932C30.0114 101.273 30.5227 101.443 31.1307 101.443ZM39.9176 90.9091H43.5483V104.648C43.5483 105.659 43.3494 106.477 42.9517 107.102C42.554 107.727 41.983 108.185 41.2386 108.474C40.5 108.764 39.6165 108.909 38.5881 108.909C38.4631 108.909 38.3438 108.906 38.2301 108.901C38.1108 108.901 37.9858 108.898 37.8551 108.892V106.054C37.9517 106.06 38.0369 106.062 38.1108 106.062C38.179 106.068 38.2528 106.071 38.3324 106.071C38.9176 106.071 39.3267 105.946 39.5597 105.696C39.7983 105.452 39.9176 105.082 39.9176 104.588V90.9091ZM41.7244 89.2216C41.1903 89.2216 40.7301 89.0426 40.3438 88.6847C39.9574 88.321 39.7642 87.8864 39.7642 87.3807C39.7642 86.8807 39.9574 86.4517 40.3438 86.0938C40.7301 85.7301 41.1903 85.5483 41.7244 85.5483C42.2699 85.5483 42.733 85.7301 43.1136 86.0938C43.5 86.4517 43.6932 86.8807 43.6932 87.3807C43.6932 87.8864 43.5 88.321 43.1136 88.6847C42.733 89.0426 42.2699 89.2216 41.7244 89.2216ZM52.4226 104.256C51.076 104.256 49.9169 103.983 48.9453 103.438C47.9794 102.886 47.2351 102.108 46.7124 101.102C46.1896 100.091 45.9283 98.8949 45.9283 97.5142C45.9283 96.1676 46.1896 94.9858 46.7124 93.9688C47.2351 92.9517 47.9709 92.1591 48.9197 91.5909C49.8743 91.0227 50.9936 90.7386 52.2777 90.7386C53.1413 90.7386 53.9453 90.8778 54.6896 91.1562C55.4396 91.429 56.093 91.8409 56.6499 92.392C57.2124 92.9432 57.6499 93.6364 57.9624 94.4716C58.2749 95.3011 58.4311 96.2727 58.4311 97.3864V98.3835H47.3771V96.1335H55.0135C55.0135 95.6108 54.8999 95.1477 54.6726 94.7443C54.4453 94.3409 54.13 94.0256 53.7266 93.7983C53.3288 93.5653 52.8658 93.4489 52.3374 93.4489C51.7862 93.4489 51.2976 93.5767 50.8714 93.8324C50.451 94.0824 50.1214 94.4205 49.8828 94.8466C49.6442 95.267 49.522 95.7358 49.5163 96.2528V98.392C49.5163 99.0398 49.6357 99.5994 49.8743 100.071C50.1186 100.543 50.4624 100.906 50.9055 101.162C51.3487 101.418 51.8743 101.545 52.4822 101.545C52.8857 101.545 53.255 101.489 53.5902 101.375C53.9254 101.261 54.2124 101.091 54.451 100.864C54.6896 100.636 54.8714 100.358 54.9964 100.028L58.3544 100.25C58.1839 101.057 57.8345 101.761 57.3061 102.364C56.7834 102.96 56.1072 103.426 55.2777 103.761C54.4538 104.091 53.5021 104.256 52.4226 104.256ZM66.7152 104.256C65.3743 104.256 64.2209 103.972 63.255 103.403C62.2947 102.83 61.5561 102.034 61.0391 101.017C60.5277 100 60.272 98.8295 60.272 97.5057C60.272 96.1648 60.5305 94.9886 61.0476 93.9773C61.5703 92.9602 62.3118 92.1676 63.272 91.5994C64.2322 91.0256 65.3743 90.7386 66.6982 90.7386C67.8402 90.7386 68.8402 90.946 69.6982 91.3608C70.5561 91.7756 71.2351 92.358 71.7351 93.108C72.2351 93.858 72.5107 94.7386 72.5618 95.75H69.1357C69.0391 95.0966 68.7834 94.571 68.3686 94.1733C67.9595 93.7699 67.4226 93.5682 66.7578 93.5682C66.1953 93.5682 65.7038 93.7216 65.2834 94.0284C64.8686 94.3295 64.5447 94.7699 64.3118 95.3494C64.0788 95.929 63.9624 96.6307 63.9624 97.4545C63.9624 98.2898 64.076 99 64.3033 99.5852C64.5362 100.17 64.8629 100.616 65.2834 100.923C65.7038 101.23 66.1953 101.384 66.7578 101.384C67.1726 101.384 67.5447 101.298 67.8743 101.128C68.2095 100.957 68.4851 100.71 68.701 100.386C68.9226 100.057 69.0675 99.6619 69.1357 99.2017H72.5618C72.505 100.202 72.2322 101.082 71.7436 101.844C71.2607 102.599 70.593 103.19 69.7408 103.616C68.8885 104.043 67.88 104.256 66.7152 104.256ZM81.8494 90.9091V93.6364H73.9659V90.9091H81.8494ZM75.7557 87.7727H79.3864V99.9773C79.3864 100.312 79.4375 100.574 79.5398 100.761C79.642 100.943 79.7841 101.071 79.9659 101.145C80.1534 101.219 80.3693 101.256 80.6136 101.256C80.7841 101.256 80.9545 101.241 81.125 101.213C81.2955 101.179 81.4261 101.153 81.517 101.136L82.0881 103.838C81.9063 103.895 81.6506 103.96 81.321 104.034C80.9915 104.114 80.5909 104.162 80.1193 104.179C79.2443 104.213 78.4773 104.097 77.8182 103.83C77.1648 103.562 76.6563 103.148 76.2926 102.585C75.929 102.023 75.75 101.312 75.7557 100.455V87.7727Z" fill="#2B2024"/>
</svg>
