<svg width="311" height="182" viewBox="0 0 311 182" fill="none" xmlns="http://www.w3.org/2000/svg">
<mask id="mask0_0_1" style="mask-type:alpha" maskUnits="userSpaceOnUse" x="-25" y="-57" width="332" height="231">
<rect x="-25" y="-57" width="332" height="231" rx="31" fill="white"/>
</mask>
<g mask="url(#mask0_0_1)">
<path d="M256.505 38.7584C256.481 46.4386 255.961 54.1092 254.949 61.7225C254.914 61.9899 254.875 62.2573 254.84 62.5246H182.916C182.703 62.2605 182.494 61.9931 182.291 61.7225C181.615 60.827 180.98 59.9058 180.397 58.9523C177.595 54.3588 176.293 48.9697 177.546 45.2395L177.569 45.1815C177.839 44.3647 178.268 43.6094 178.831 42.9589C181.718 39.6732 187.593 40.1854 192.937 42.7946C188.128 37.5891 184.285 31.0081 183.963 25.1165C183.647 19.3698 186.63 15.2466 189.871 11.7387C189.977 11.6227 190.083 11.51 190.19 11.3972C190.241 11.3393 190.296 11.2845 190.347 11.2265C192.876 8.55289 195.827 5.9147 200.121 6.20785C204.83 6.52997 210.071 10.4438 213.756 15.0179C217.441 19.5888 219.902 24.7911 222.395 29.8678C224.892 34.9412 227.591 40.1435 231.576 44.4696C226.174 37.7147 221.806 30.0192 220.166 22.5202C218.527 15.0211 219.893 7.80236 224.653 4.23968C226.099 3.19118 227.775 2.50414 229.54 2.23607C229.746 2.20064 229.956 2.17165 230.168 2.14588C234.591 1.61761 239.884 3.11869 244.4 6.75224C249.373 10.753 252.839 16.7058 254.579 22.3655C256.318 28.0252 256.531 33.482 256.505 38.7584Z" fill="#F2F2F2"/>
<path d="M209.581 62.5247H208.206C207.768 62.2541 207.328 61.9867 206.885 61.7226C206.612 61.5519 206.335 61.3876 206.057 61.2201C201.48 58.4595 196.875 55.8127 192.242 53.2797C187.613 50.7446 182.961 48.3276 178.287 46.0287C178.163 45.9756 178.062 45.8808 178.001 45.7608C177.94 45.6407 177.922 45.503 177.952 45.3716C177.957 45.3544 177.965 45.3381 177.975 45.3233C178.039 45.2009 178.184 45.1493 178.397 45.2524C178.97 45.5359 179.547 45.8194 180.12 46.1093C184.807 48.4479 189.475 50.9046 194.123 53.4795C198.768 56.0532 203.387 58.7419 207.981 61.5454C208.077 61.6034 208.174 61.6646 208.27 61.7226C208.709 61.99 209.143 62.2573 209.581 62.5247Z" fill="white"/>
<path d="M227.314 62.5253H226.464C226.27 62.258 226.08 61.9906 225.887 61.7232C221.345 55.4289 216.804 49.1347 212.264 42.8404C204.83 32.5357 197.397 22.2309 189.967 11.9262C189.923 11.8708 189.89 11.8073 189.87 11.7394C189.806 11.5107 189.974 11.3754 190.189 11.3979C190.28 11.4104 190.368 11.4422 190.445 11.491C190.523 11.5399 190.59 11.6048 190.64 11.6814C194.809 17.4603 198.976 23.237 203.142 29.0116C210.538 39.2648 217.933 49.5169 225.327 59.7679C225.797 60.4186 226.267 61.0725 226.737 61.7232C226.931 61.9906 227.124 62.258 227.314 62.5253Z" fill="white"/>
<path d="M246.232 57.4804C246.196 58.9139 246.109 60.3248 245.993 61.7228C245.971 61.9902 245.948 62.2575 245.926 62.5249H245.033C245.059 62.2575 245.085 61.9902 245.108 61.7228C245.285 59.7031 245.407 57.6608 245.414 55.5638C245.405 49.75 244.806 43.9522 243.626 38.2594C242.371 32.1297 240.585 26.1209 238.288 20.301C235.877 14.1628 232.979 8.22749 229.62 2.55202C229.557 2.45957 229.528 2.34777 229.539 2.23634C229.575 1.98187 229.913 1.90456 230.168 2.14615C230.218 2.19355 230.261 2.24776 230.296 2.30721C230.712 3.01266 231.12 3.72026 231.521 4.43C234.757 10.1378 237.532 16.0944 239.822 22.2434C242.002 28.0831 243.669 34.1016 244.805 40.2308C245.868 45.9169 246.346 51.6969 246.232 57.4804Z" fill="white"/>
<path d="M308.338 61.7227H112.809C112.064 61.7233 111.35 62.0195 110.823 62.5461C110.297 63.0728 110.001 63.7868 110 64.5316V197.027C110.001 197.772 110.297 198.486 110.823 199.013C111.35 199.539 112.064 199.835 112.809 199.836H308.338C308.744 199.836 309.145 199.748 309.514 199.578C309.882 199.408 310.21 199.16 310.473 198.85C310.496 198.826 310.516 198.8 310.535 198.773C310.702 198.568 310.838 198.339 310.937 198.093C311.079 197.756 311.151 197.393 311.15 197.027V64.5316C311.149 63.7863 310.852 63.0718 310.325 62.5451C309.798 62.0184 309.083 61.7226 308.338 61.7227ZM310.348 197.027C310.348 197.419 310.233 197.802 310.016 198.129C309.823 198.416 309.562 198.651 309.256 198.812C308.972 198.958 308.657 199.035 308.338 199.034H112.809C112.277 199.033 111.767 198.822 111.39 198.446C111.014 198.069 110.803 197.559 110.802 197.027V64.5316C110.803 63.9995 111.014 63.4895 111.39 63.1132C111.767 62.737 112.277 62.5254 112.809 62.5247H308.338C308.87 62.5247 309.381 62.736 309.758 63.1123C310.135 63.4885 310.347 63.999 310.348 64.5316V197.027Z" fill="#3F3D56"/>
<path d="M310.747 72.9805H110.4V73.7835H310.747V72.9805Z" fill="#3F3D56"/>
<path d="M117.226 70.1539C118.556 70.1539 119.635 69.0754 119.635 67.7449C119.635 66.4145 118.556 65.3359 117.226 65.3359C115.895 65.3359 114.817 66.4145 114.817 67.7449C114.817 69.0754 115.895 70.1539 117.226 70.1539Z" fill="#3F3D56"/>
<path d="M124.151 70.1539C125.482 70.1539 126.56 69.0754 126.56 67.7449C126.56 66.4145 125.482 65.3359 124.151 65.3359C122.821 65.3359 121.742 66.4145 121.742 67.7449C121.742 69.0754 122.821 70.1539 124.151 70.1539Z" fill="#3F3D56"/>
<path d="M131.077 70.1539C132.408 70.1539 133.486 69.0754 133.486 67.7449C133.486 66.4145 132.408 65.3359 131.077 65.3359C129.747 65.3359 128.668 66.4145 128.668 67.7449C128.668 69.0754 129.747 70.1539 131.077 70.1539Z" fill="#3F3D56"/>
<path d="M199.221 141.245C196.812 139.677 195.613 136.032 196.204 132.699C196.794 129.365 199.017 126.494 201.682 125.256C202.978 124.672 204.4 124.419 205.818 124.52C207.237 124.62 208.608 125.072 209.808 125.834C212.252 127.328 215.709 128.147 216.87 131.137C217.761 133.435 216.63 138.1 215.43 140.332C214.392 142.261 212.421 143.143 210.569 143.527C208.519 143.945 206.404 143.918 204.366 143.447C202.329 142.977 200.416 142.075 198.757 140.801L199.221 141.245Z" fill="#2F2E41"/>
<path d="M197.964 158.95L196.037 162.271L195.783 162.709L195.412 163.353H189.733L190.117 162.709L191.109 161.037L193.422 157.133L196.041 158.18L197.964 158.95Z" fill="#FFB8B8"/>
<path d="M189.309 163.352L188.271 162.708L188.143 162.627L194.653 150.764C194.933 150.25 195.312 149.797 195.768 149.431C196.224 149.065 196.748 148.793 197.31 148.631C198.02 148.42 198.771 148.392 199.494 148.551C199.916 148.64 200.322 148.792 200.699 149.002C200.854 149.087 201.004 149.181 201.147 149.285C201.697 149.671 202.15 150.181 202.467 150.773C202.846 151.467 203.033 152.249 203.009 153.038C202.985 153.828 202.751 154.597 202.332 155.267L199.823 159.277L197.677 162.708L197.275 163.352H189.309Z" fill="#2F2E41"/>
<path d="M206.034 145.456C210.404 145.456 213.946 141.914 213.946 137.544C213.946 133.175 210.404 129.633 206.034 129.633C201.665 129.633 198.123 133.175 198.123 137.544C198.123 141.914 201.665 145.456 206.034 145.456Z" fill="#FFB8B8"/>
<path d="M213.977 163.352H196.192L196.273 163.124C196.228 162.985 196.186 162.846 196.147 162.708C196.105 162.563 196.07 162.415 196.038 162.27C195.749 160.921 195.75 159.527 196.041 158.179C197.023 153.354 200.944 149.433 200.944 149.433C201.011 149.382 201.079 149.333 201.147 149.285C201.73 148.858 202.363 148.503 203.031 148.229C205.943 147.021 208.997 147.507 211.049 148.132C211.763 148.348 212.462 148.614 213.139 148.928C213.377 149.04 213.506 149.111 213.506 149.111L213.709 155.299L213.954 162.708L213.977 163.352Z" fill="#F50057"/>
<path d="M222.204 162.708L220.844 155.796L219.472 148.825C219.415 148.537 219.272 148.273 219.062 148.068C218.852 147.863 218.585 147.726 218.296 147.675L215.423 147.179L212.749 146.718C212.491 146.672 212.226 146.697 211.981 146.79C211.736 146.884 211.522 147.043 211.361 147.25C211.16 147.5 211.05 147.811 211.048 148.132C211.048 148.331 211.089 148.527 211.168 148.709C212.562 151.962 212.588 157.113 212.234 162.708C212.218 162.921 212.205 163.137 212.189 163.353H222.332L222.204 162.708Z" fill="#2F2E41"/>
<path d="M203.031 148.229C202.972 147.995 202.855 147.779 202.692 147.601C202.528 147.422 202.323 147.288 202.095 147.208C201.867 147.129 201.622 147.108 201.383 147.147C201.145 147.186 200.919 147.283 200.728 147.43L199.494 148.551L194.443 153.151C194.286 153.293 194.162 153.468 194.082 153.664C193.512 155.026 192.401 157.716 191.109 161.037C190.9 161.578 190.684 162.135 190.462 162.709C190.384 162.921 190.301 163.137 190.217 163.353H198.541C198.608 163.137 198.676 162.921 198.743 162.709C199.114 161.539 199.475 160.393 199.823 159.278C200.84 156.041 201.758 153.1 202.467 150.774C202.664 150.13 202.843 149.535 203.005 148.99C203.081 148.743 203.09 148.481 203.031 148.229Z" fill="#2F2E41"/>
<path d="M224.073 163.353H224.61L224.536 163.172L224.34 162.709L221.309 155.516L220.845 155.796L217.121 158.048L219.031 162.709L219.295 163.353H222.333H224.073Z" fill="#FFB8B8"/>
<path d="M220.999 149.811C220.589 148.737 219.78 147.864 218.741 147.373C217.701 146.883 216.513 146.813 215.423 147.179C215.284 147.225 215.148 147.279 215.014 147.34C214.251 147.68 213.601 148.231 213.14 148.928C212.951 149.206 212.797 149.506 212.679 149.82C212.47 150.366 212.371 150.948 212.388 151.533C212.405 152.117 212.538 152.692 212.779 153.225L213.71 155.3L217.04 162.708L217.33 163.353H224.072L224.536 163.172L225.741 162.708L225.908 162.644L220.999 149.811Z" fill="#2F2E41"/>
<path d="M212.249 128.458C212.524 128.54 212.82 128.53 213.089 128.428C213.358 128.326 213.586 128.137 213.737 127.893C213.881 127.643 213.965 127.364 213.984 127.077C214.003 126.79 213.956 126.502 213.846 126.236C213.622 125.705 213.268 125.238 212.817 124.878C212.305 124.415 211.682 124.092 211.008 123.941C210.671 123.869 210.322 123.87 209.986 123.944C209.65 124.018 209.333 124.163 209.058 124.37C208.788 124.584 208.587 124.874 208.482 125.202C208.378 125.53 208.373 125.882 208.47 126.213C208.675 126.808 209.229 127.206 209.784 127.502C210.883 128.089 212.095 128.434 213.339 128.513L212.249 128.458Z" fill="#2F2E41"/>
<path d="M213.787 137.308C212.516 137.483 212.679 136.836 212.169 135.657C211.66 134.479 210.978 133.079 209.7 132.96C208.652 132.862 207.789 133.7 206.94 134.322C205.427 135.43 203.388 135.973 201.635 135.308C199.881 134.643 198.663 132.553 199.328 130.799C199.535 130.315 199.839 129.879 200.222 129.517C200.605 129.155 201.058 128.876 201.553 128.696C202.546 128.343 203.601 128.197 204.652 128.266C206.992 128.34 209.286 128.928 211.373 129.986C212.814 130.718 214.216 131.765 214.763 133.286C215.309 134.807 215.669 136.944 214.106 137.355L213.787 137.308Z" fill="#2F2E41"/>
<path d="M211.598 124.275C210.97 123.181 211.489 121.679 212.517 120.948C213.546 120.217 214.926 120.145 216.153 120.439C217.367 120.744 218.48 121.364 219.379 122.235C220.278 123.107 220.932 124.199 221.275 125.403C221.796 127.317 221.486 129.372 221.928 131.306C222.163 132.337 222.606 133.309 223.231 134.161C223.856 135.014 224.649 135.73 225.561 136.265C226.473 136.8 227.485 137.143 228.534 137.272C229.584 137.401 230.649 137.314 231.663 137.016C232.984 136.628 234.327 135.684 234.457 134.313C234.594 135.888 234.235 137.465 233.43 138.826C232.626 140.186 231.416 141.26 229.971 141.899C228.268 142.609 226.369 142.655 224.525 142.608C223.323 142.577 222.094 142.505 220.986 142.04C220.219 141.69 219.529 141.191 218.958 140.571C218.386 139.951 217.944 139.224 217.657 138.431C217.093 136.838 216.94 135.127 217.214 133.459C217.395 132.161 217.756 130.89 217.857 129.583C217.958 128.277 217.767 126.882 216.961 125.849C216.156 124.815 214.618 124.287 213.473 124.924C213.012 125.18 212.641 125.598 212.141 125.763C211.641 125.928 210.933 125.638 210.978 125.114L211.598 124.275Z" fill="#2F2E41"/>
<path d="M265.587 163.352L265.649 162.708L267.465 143.806C268.061 143.34 268.701 142.933 269.376 142.592C273.115 140.707 276.723 141.609 278.675 142.389C279.193 142.591 279.693 142.836 280.17 143.12L281.233 162.708L281.268 163.352H265.587Z" fill="#F50057"/>
<path d="M274.095 138.776C278.465 138.776 282.007 135.233 282.007 130.864C282.007 126.494 278.465 122.952 274.095 122.952C269.726 122.952 266.184 126.494 266.184 130.864C266.184 135.233 269.726 138.776 274.095 138.776Z" fill="#FFB8B8"/>
<path d="M280.515 135.688C281.103 135.068 281.493 134.288 281.636 133.445C281.78 132.603 281.669 131.737 281.319 130.958C280.968 130.179 280.394 129.521 279.669 129.069C278.944 128.617 278.101 128.391 277.247 128.42C276.153 128.456 275.122 128.904 274.078 129.233C272.495 129.771 270.807 129.923 269.154 129.676C267.491 129.418 265.991 128.532 264.961 127.2C263.982 125.855 263.677 123.989 264.369 122.476C265.167 120.729 267.032 119.766 268.786 118.984C269.494 118.63 270.249 118.381 271.029 118.247C271.42 118.182 271.819 118.198 272.203 118.295C272.587 118.392 272.947 118.567 273.26 118.809C273.753 119.233 274.042 119.871 274.578 120.238C275.182 120.652 275.967 120.641 276.695 120.714C278.336 120.878 279.887 121.538 281.144 122.605C282.4 123.673 283.302 125.098 283.728 126.69C284.155 128.283 284.087 129.967 283.533 131.52C282.979 133.073 281.966 134.421 280.627 135.383L280.515 135.688Z" fill="#2F2E41"/>
<path d="M270.554 145.865L269.376 142.592L269.302 142.388C269.267 142.292 269.211 142.204 269.137 142.132C269.063 142.061 268.974 142.007 268.876 141.974C268.779 141.942 268.675 141.933 268.573 141.947C268.471 141.96 268.374 141.997 268.288 142.054L266.95 142.947C266.95 142.947 258.365 142.947 257.676 148.097C257.666 148.178 257.653 148.268 257.644 148.365C257.643 148.369 257.642 148.373 257.641 148.378C257.554 148.716 255.933 154.978 254.542 162.709C254.503 162.921 254.464 163.137 254.426 163.353H273.08V163.353C273.687 155.587 273.347 148.366 270.554 145.865Z" fill="#2F2E41"/>
<path d="M292.807 162.708C291.789 154.778 290.333 148.364 290.333 148.364C290.32 148.268 290.307 148.177 290.297 148.097C289.611 142.946 281.027 142.946 281.027 142.946L279.689 142.054C279.603 141.997 279.506 141.96 279.404 141.947C279.302 141.933 279.198 141.942 279.101 141.975C279.003 142.007 278.914 142.061 278.84 142.133C278.766 142.204 278.71 142.292 278.675 142.389L277.422 145.865C274.629 148.366 274.29 155.586 274.897 163.352L274.897 163.353H292.887C292.861 163.137 292.833 162.921 292.807 162.708Z" fill="#2F2E41"/>
<path d="M141.705 144.651L139.792 162.709L139.724 163.353H134.548C134.609 163.144 134.67 162.928 134.735 162.709C136.204 157.671 138.204 150.317 137.988 148.368C137.65 145.327 140.017 144.312 140.017 144.312L140.166 144.341L141.705 144.651Z" fill="#F50057"/>
<path d="M150.053 139.076C154.423 139.076 157.965 135.534 157.965 131.165C157.965 126.795 154.423 123.253 150.053 123.253C145.684 123.253 142.142 126.795 142.142 131.165C142.142 135.534 145.684 139.076 150.053 139.076Z" fill="#A0616A"/>
<path d="M160.295 159.519C159.896 160.255 159.57 161.027 159.319 161.826C159.226 162.109 159.136 162.406 159.052 162.708C158.991 162.918 158.936 163.134 158.881 163.353H138.014C138.043 163.14 138.069 162.924 138.098 162.708C139.164 154.285 140.027 145.736 140.166 144.341C140.179 144.209 140.185 144.141 140.185 144.141C152.69 137.551 161.816 146.171 161.816 146.171C161.816 146.171 161.829 146.232 161.848 146.351C162.048 147.556 163.066 154.591 160.295 159.519Z" fill="#F50057"/>
<path d="M159.319 161.825L157.928 158.843L158.266 147.014L161.848 146.351L161.974 146.328C163.825 147.404 165.258 149.076 166.039 151.07C166.735 152.809 168.058 158.041 169.176 162.708C169.228 162.924 169.279 163.14 169.331 163.352H160.031L159.731 162.708L159.319 161.825Z" fill="#F50057"/>
<path d="M172.046 110.202H126.298C125.317 110.203 124.376 110.594 123.682 111.287C122.988 111.981 122.598 112.922 122.597 113.903V159.651C122.598 160.633 122.988 161.573 123.682 162.267C124.376 162.961 125.317 163.351 126.298 163.352H172.046C173.027 163.352 173.968 162.962 174.662 162.268C175.356 161.574 175.746 160.633 175.747 159.651V113.903C175.746 112.922 175.356 111.981 174.662 111.287C173.968 110.593 173.027 110.203 172.046 110.202ZM175.103 159.651C175.102 160.462 174.78 161.239 174.207 161.812C173.634 162.385 172.856 162.708 172.046 162.708H126.298C125.488 162.707 124.711 162.385 124.138 161.812C123.565 161.238 123.242 160.462 123.241 159.651V113.903C123.242 113.093 123.565 112.316 124.138 111.743C124.711 111.17 125.488 110.848 126.298 110.846H172.046C172.856 110.847 173.634 111.169 174.207 111.743C174.78 112.316 175.102 113.093 175.103 113.903V159.651ZM139.792 162.708L139.724 163.352H158.881C158.935 163.133 158.99 162.918 159.051 162.708H139.792Z" fill="#3F3D56"/>
<path d="M233.446 110.202H187.698C186.717 110.203 185.776 110.594 185.082 111.287C184.389 111.981 183.998 112.922 183.997 113.903V159.651C183.998 160.633 184.389 161.573 185.082 162.267C185.776 162.961 186.717 163.351 187.698 163.352H233.446C234.428 163.352 235.369 162.962 236.063 162.268C236.757 161.574 237.147 160.633 237.147 159.651V113.903C237.147 112.922 236.757 111.981 236.063 111.287C235.369 110.593 234.428 110.203 233.446 110.202ZM236.503 159.651C236.502 160.462 236.18 161.239 235.607 161.812C235.034 162.385 234.257 162.708 233.446 162.708H187.698C186.888 162.707 186.111 162.385 185.538 161.812C184.965 161.238 184.643 160.462 184.641 159.651V113.903C184.643 113.093 184.965 112.316 185.538 111.743C186.111 111.17 186.888 110.848 187.698 110.846H233.446C234.257 110.847 235.034 111.169 235.607 111.743C236.18 112.316 236.502 113.093 236.503 113.903V159.651ZM196.148 162.708C196.186 162.847 196.228 162.985 196.273 163.124L196.193 163.352H212.189C212.205 163.137 212.218 162.921 212.234 162.708H196.148Z" fill="#3F3D56"/>
<path d="M294.849 110.202H249.101C248.12 110.203 247.179 110.593 246.485 111.287C245.791 111.981 245.401 112.922 245.4 113.903V159.651C245.401 160.633 245.791 161.574 246.485 162.268C247.179 162.962 248.12 163.352 249.101 163.352H294.849C295.83 163.351 296.771 162.961 297.465 162.267C298.159 161.573 298.549 160.633 298.55 159.651V113.903C298.549 112.922 298.159 111.981 297.465 111.288C296.771 110.594 295.83 110.203 294.849 110.202ZM297.906 159.651C297.905 160.462 297.582 161.238 297.009 161.812C296.436 162.385 295.659 162.707 294.849 162.708H249.101C248.291 162.708 247.513 162.385 246.94 161.812C246.367 161.239 246.045 160.462 246.044 159.651V113.903C246.045 113.093 246.367 112.316 246.94 111.742C247.513 111.169 248.291 110.847 249.101 110.846H294.849C295.659 110.848 296.436 111.17 297.009 111.743C297.582 112.316 297.905 113.093 297.906 113.903V159.651ZM273.128 162.708C273.112 162.921 273.096 163.137 273.08 163.352H286.96C286.986 163.14 287.015 162.924 287.041 162.708H273.128Z" fill="#3F3D56"/>
<path d="M233.927 96.6735H187.22C186.536 96.6735 185.881 96.402 185.397 95.9187C184.914 95.4354 184.643 94.78 184.643 94.0965C184.643 93.4131 184.914 92.7576 185.397 92.2743C185.881 91.791 186.536 91.5195 187.22 91.5195H233.927C234.611 91.5195 235.266 91.791 235.75 92.2743C236.233 92.7576 236.504 93.4131 236.504 94.0965C236.504 94.78 236.233 95.4354 235.75 95.9187C235.266 96.402 234.611 96.6735 233.927 96.6735Z" fill="#F50057"/>
<path d="M153.838 138.057C154.106 138.322 154.46 138.48 154.836 138.504C155.211 138.528 155.583 138.416 155.882 138.188C157.747 136.806 159.384 135.086 160.352 132.987C161.462 130.582 161.586 127.632 160.248 125.346C159.117 123.414 157.119 122.168 155.128 121.144C154.354 120.707 153.522 120.387 152.656 120.191C151.78 119.998 150.864 120.146 150.094 120.604C149.717 120.841 149.421 121.185 149.242 121.592C149.064 122 149.013 122.452 149.095 122.889C148.139 121.797 146.914 120.975 145.542 120.503C144.678 120.165 143.732 120.096 142.828 120.306C141.564 120.665 140.642 121.787 140.137 123C139.729 123.922 139.588 124.941 139.731 125.939C139.805 126.436 139.984 126.912 140.254 127.335C140.524 127.759 140.881 128.121 141.3 128.399C142.344 129.045 143.677 128.998 144.877 128.734C146.077 128.47 147.238 128.011 148.461 127.895C149.684 127.779 151.046 128.084 151.79 129.061C152.314 129.749 152.449 130.648 152.566 131.506L153.178 135.963C153.228 136.608 153.393 137.239 153.665 137.826C153.712 137.911 153.77 137.988 153.838 138.057Z" fill="#2F2E41"/>
</g>
<path d="M1.39062 17V1H7.70313C8.91146 1 9.94271 1.21615 10.7969 1.64844C11.6563 2.07552 12.3099 2.68229 12.7578 3.46875C13.2109 4.25 13.4375 5.16927 13.4375 6.22656C13.4375 7.28906 13.2083 8.20312 12.75 8.96875C12.2917 9.72917 11.6276 10.3125 10.7578 10.7187C9.89323 11.125 8.84635 11.3281 7.61719 11.3281H3.39063V8.60937H7.07031C7.71615 8.60937 8.2526 8.52083 8.67969 8.34375C9.10677 8.16667 9.42448 7.90104 9.63281 7.54688C9.84635 7.19271 9.95313 6.7526 9.95313 6.22656C9.95313 5.69531 9.84635 5.2474 9.63281 4.88281C9.42448 4.51823 9.10417 4.24219 8.67188 4.05469C8.24479 3.86198 7.70573 3.76562 7.05469 3.76562H4.77344V17H1.39062ZM10.0313 9.71875L14.0078 17H10.2734L6.38281 9.71875H10.0313ZM21.041 17.2344C19.8066 17.2344 18.7441 16.9844 17.8535 16.4844C16.9681 15.9792 16.2858 15.2656 15.8066 14.3437C15.3275 13.4167 15.0879 12.3203 15.0879 11.0547C15.0879 9.82031 15.3275 8.73698 15.8066 7.80469C16.2858 6.8724 16.9603 6.14583 17.8301 5.625C18.7051 5.10417 19.7311 4.84375 20.9082 4.84375C21.6999 4.84375 22.4368 4.97135 23.1191 5.22656C23.8066 5.47656 24.4056 5.85417 24.916 6.35937C25.4316 6.86458 25.8327 7.5 26.1191 8.26562C26.4056 9.02604 26.5488 9.91667 26.5488 10.9375V11.8516H16.416V9.78906H23.416C23.416 9.3099 23.3118 8.88542 23.1035 8.51563C22.8952 8.14583 22.6061 7.85677 22.2363 7.64844C21.8717 7.4349 21.4473 7.32812 20.9629 7.32812C20.4577 7.32812 20.0098 7.44531 19.6191 7.67969C19.2337 7.90885 18.9316 8.21875 18.7129 8.60937C18.4941 8.99479 18.3822 9.42448 18.377 9.89844V11.8594C18.377 12.4531 18.4863 12.9661 18.7051 13.3984C18.929 13.8307 19.2441 14.1641 19.6504 14.3984C20.0566 14.6328 20.5384 14.75 21.0957 14.75C21.4655 14.75 21.804 14.6979 22.1113 14.5938C22.4186 14.4896 22.6816 14.3333 22.9004 14.125C23.1191 13.9167 23.2858 13.6615 23.4004 13.3594L26.4785 13.5625C26.3223 14.3021 26.002 14.9479 25.5176 15.5C25.0384 16.0469 24.4186 16.474 23.6582 16.7813C22.903 17.0833 22.0306 17.2344 21.041 17.2344ZM34.1426 17.2344C32.9134 17.2344 31.8561 16.974 30.9707 16.4531C30.0905 15.9271 29.4134 15.1979 28.9395 14.2656C28.4707 13.3333 28.2363 12.2604 28.2363 11.0469C28.2363 9.81771 28.4733 8.73958 28.9473 7.8125C29.4264 6.88021 30.1061 6.15365 30.9863 5.63281C31.8665 5.10677 32.9134 4.84375 34.127 4.84375C35.1738 4.84375 36.0905 5.03385 36.877 5.41406C37.6634 5.79427 38.2858 6.32812 38.7441 7.01562C39.2025 7.70312 39.4551 8.51042 39.502 9.4375H36.3613C36.2728 8.83854 36.0384 8.35677 35.6582 7.99219C35.2832 7.6224 34.791 7.4375 34.1816 7.4375C33.666 7.4375 33.2155 7.57812 32.8301 7.85937C32.4499 8.13542 32.153 8.53906 31.9395 9.07031C31.7259 9.60156 31.6191 10.2448 31.6191 11C31.6191 11.7656 31.7233 12.4167 31.9316 12.9531C32.1452 13.4896 32.4447 13.8984 32.8301 14.1797C33.2155 14.4609 33.666 14.6016 34.1816 14.6016C34.5618 14.6016 34.903 14.5234 35.2051 14.3672C35.5124 14.2109 35.765 13.9844 35.9629 13.6875C36.166 13.3854 36.2988 13.0234 36.3613 12.6016H39.502C39.4499 13.5182 39.1999 14.3255 38.752 15.0234C38.3092 15.7161 37.6973 16.2578 36.916 16.6484C36.1348 17.0391 35.2103 17.2344 34.1426 17.2344ZM41.6328 17V5H44.8594V7.09375H44.9844C45.2031 6.34896 45.5703 5.78646 46.0859 5.40625C46.6016 5.02083 47.1953 4.82812 47.8672 4.82812C48.0339 4.82812 48.2135 4.83854 48.4063 4.85937C48.599 4.88021 48.7682 4.90885 48.9141 4.94531V7.89844C48.7578 7.85156 48.5417 7.8099 48.2656 7.77344C47.9896 7.73698 47.737 7.71875 47.5078 7.71875C47.0182 7.71875 46.5807 7.82552 46.1953 8.03906C45.8151 8.2474 45.513 8.53906 45.2891 8.91406C45.0703 9.28906 44.9609 9.72135 44.9609 10.2109V17H41.6328ZM58.3301 11.8906V5H61.6582V17H58.4629V14.8203H58.3379C58.0671 15.5234 57.6165 16.0885 56.9863 16.5156C56.3613 16.9427 55.5983 17.1563 54.6973 17.1563C53.8952 17.1563 53.1895 16.974 52.5801 16.6094C51.9707 16.2448 51.4941 15.7266 51.1504 15.0547C50.8118 14.3828 50.64 13.5781 50.6348 12.6406V5H53.9629V12.0469C53.9681 12.7552 54.1582 13.3151 54.5332 13.7266C54.9082 14.138 55.4108 14.3437 56.041 14.3437C56.4421 14.3437 56.8171 14.2526 57.166 14.0703C57.515 13.8828 57.7962 13.6068 58.0098 13.2422C58.2285 12.8776 58.3353 12.4271 58.3301 11.8906ZM64.3203 17V5H67.6484V17H64.3203ZM65.9922 3.45312C65.4974 3.45312 65.0729 3.28906 64.7188 2.96094C64.3698 2.6276 64.1953 2.22917 64.1953 1.76562C64.1953 1.30729 64.3698 0.914062 64.7188 0.585938C65.0729 0.252604 65.4974 0.0859367 65.9922 0.0859367C66.487 0.0859367 66.9089 0.252604 67.2578 0.585938C67.612 0.914062 67.7891 1.30729 67.7891 1.76562C67.7891 2.22917 67.612 2.6276 67.2578 2.96094C66.9089 3.28906 66.487 3.45312 65.9922 3.45312ZM76.6973 5V7.5H69.4707V5H76.6973ZM71.1113 2.125H74.4395V13.3125C74.4395 13.6198 74.4863 13.8594 74.5801 14.0312C74.6738 14.1979 74.804 14.3151 74.9707 14.3828C75.1426 14.4505 75.3405 14.4844 75.5645 14.4844C75.7207 14.4844 75.877 14.4714 76.0332 14.4453C76.1895 14.4141 76.3092 14.3906 76.3926 14.375L76.916 16.8516C76.7493 16.9036 76.515 16.9635 76.2129 17.0313C75.9108 17.1042 75.5436 17.1484 75.1113 17.1641C74.3092 17.1953 73.6061 17.0885 73.002 16.8437C72.403 16.599 71.9368 16.2187 71.6035 15.7031C71.2702 15.1875 71.1061 14.5365 71.1113 13.75V2.125ZM6.79688 44.2344C5.5625 44.2344 4.5 43.9844 3.60938 43.4844C2.72396 42.9792 2.04167 42.2656 1.5625 41.3437C1.08333 40.4167 0.84375 39.3203 0.84375 38.0547C0.84375 36.8203 1.08333 35.737 1.5625 34.8047C2.04167 33.8724 2.71615 33.1458 3.58594 32.625C4.46094 32.1042 5.48698 31.8438 6.66406 31.8438C7.45573 31.8438 8.19271 31.9714 8.875 32.2266C9.5625 32.4766 10.1615 32.8542 10.6719 33.3594C11.1875 33.8646 11.5885 34.5 11.875 35.2656C12.1615 36.026 12.3047 36.9167 12.3047 37.9375V38.8516H2.17188V36.7891H9.17188C9.17188 36.3099 9.06771 35.8854 8.85938 35.5156C8.65104 35.1458 8.36198 34.8568 7.99219 34.6484C7.6276 34.4349 7.20313 34.3281 6.71875 34.3281C6.21354 34.3281 5.76563 34.4453 5.375 34.6797C4.98958 34.9089 4.6875 35.2187 4.46875 35.6094C4.25 35.9948 4.13802 36.4245 4.13281 36.8984V38.8594C4.13281 39.4531 4.24219 39.9661 4.46094 40.3984C4.6849 40.8307 5 41.1641 5.40625 41.3984C5.8125 41.6328 6.29427 41.75 6.85156 41.75C7.22135 41.75 7.5599 41.6979 7.86719 41.5938C8.17448 41.4896 8.4375 41.3333 8.65625 41.125C8.875 40.9167 9.04167 40.6615 9.15625 40.3594L12.2344 40.5625C12.0781 41.3021 11.7578 41.9479 11.2734 42.5C10.7943 43.0469 10.1745 43.474 9.41406 43.7813C8.65885 44.0833 7.78646 44.2344 6.79688 44.2344ZM14.4766 44V32H17.6484V34.1172H17.7891C18.0391 33.4141 18.4557 32.8594 19.0391 32.4531C19.6224 32.0469 20.3203 31.8438 21.1328 31.8438C21.9557 31.8438 22.6563 32.0495 23.2344 32.4609C23.8125 32.8672 24.1979 33.4193 24.3906 34.1172H24.5156C24.7604 33.4297 25.2031 32.8802 25.8438 32.4687C26.4896 32.0521 27.2526 31.8438 28.1328 31.8438C29.2526 31.8438 30.1615 32.2005 30.8594 32.9141C31.5625 33.6224 31.9141 34.6276 31.9141 35.9297V44H28.5938V36.5859C28.5938 35.9193 28.4167 35.4193 28.0625 35.0859C27.7083 34.7526 27.2656 34.5859 26.7344 34.5859C26.1302 34.5859 25.6589 34.7786 25.3203 35.1641C24.9818 35.5443 24.8125 36.0469 24.8125 36.6719V44H21.5859V36.5156C21.5859 35.9271 21.4167 35.4583 21.0781 35.1094C20.7448 34.7604 20.3047 34.5859 19.7578 34.5859C19.388 34.5859 19.0547 34.6797 18.7578 34.8672C18.4661 35.0495 18.2344 35.3073 18.0625 35.6406C17.8906 35.9687 17.8047 36.3542 17.8047 36.7969V44H14.4766ZM34.543 48.5V32H37.8242V34.0156H37.9727C38.1185 33.6927 38.3294 33.3646 38.6055 33.0312C38.8867 32.6927 39.2513 32.4115 39.6992 32.1875C40.1523 31.9583 40.7148 31.8438 41.3867 31.8438C42.2617 31.8438 43.069 32.0729 43.8086 32.5313C44.5482 32.9844 45.1393 33.6693 45.582 34.5859C46.0247 35.4974 46.2461 36.6406 46.2461 38.0156C46.2461 39.3542 46.0299 40.4844 45.5977 41.4062C45.1706 42.3229 44.5872 43.0182 43.8477 43.4922C43.1133 43.9609 42.2904 44.1953 41.3789 44.1953C40.7331 44.1953 40.1836 44.0885 39.7305 43.875C39.2826 43.6615 38.9154 43.3932 38.6289 43.0703C38.3424 42.7422 38.1237 42.4115 37.9727 42.0781H37.8711V48.5H34.543ZM37.8008 38C37.8008 38.7135 37.8997 39.3359 38.0977 39.8672C38.2956 40.3984 38.582 40.8125 38.957 41.1094C39.332 41.401 39.7878 41.5469 40.3242 41.5469C40.8659 41.5469 41.3242 41.3984 41.6992 41.1016C42.0742 40.7995 42.3581 40.3828 42.5508 39.8516C42.7487 39.3151 42.8477 38.6979 42.8477 38C42.8477 37.3073 42.7513 36.6979 42.5586 36.1719C42.3659 35.6458 42.082 35.2344 41.707 34.9375C41.332 34.6406 40.8711 34.4922 40.3242 34.4922C39.7826 34.4922 39.3242 34.6354 38.9492 34.9219C38.5794 35.2083 38.2956 35.6146 38.0977 36.1406C37.8997 36.6667 37.8008 37.2865 37.8008 38ZM51.793 28V44H48.4648V28H51.793ZM59.8809 44.2344C58.6673 44.2344 57.6178 43.9766 56.7324 43.4609C55.8522 42.9401 55.1725 42.2161 54.6934 41.2891C54.2142 40.3568 53.9746 39.276 53.9746 38.0469C53.9746 36.8073 54.2142 35.724 54.6934 34.7969C55.1725 33.8646 55.8522 33.1406 56.7324 32.625C57.6178 32.1042 58.6673 31.8438 59.8809 31.8438C61.0944 31.8438 62.1413 32.1042 63.0215 32.625C63.9069 33.1406 64.5892 33.8646 65.0684 34.7969C65.5475 35.724 65.7871 36.8073 65.7871 38.0469C65.7871 39.276 65.5475 40.3568 65.0684 41.2891C64.5892 42.2161 63.9069 42.9401 63.0215 43.4609C62.1413 43.9766 61.0944 44.2344 59.8809 44.2344ZM59.8965 41.6562C60.4486 41.6562 60.9095 41.5 61.2793 41.1875C61.6491 40.8698 61.9277 40.4375 62.1152 39.8906C62.3079 39.3437 62.4043 38.7214 62.4043 38.0234C62.4043 37.3255 62.3079 36.7031 62.1152 36.1562C61.9277 35.6094 61.6491 35.1771 61.2793 34.8594C60.9095 34.5417 60.4486 34.3828 59.8965 34.3828C59.3392 34.3828 58.8704 34.5417 58.4902 34.8594C58.1152 35.1771 57.8314 35.6094 57.6387 36.1562C57.4512 36.7031 57.3574 37.3255 57.3574 38.0234C57.3574 38.7214 57.4512 39.3437 57.6387 39.8906C57.8314 40.4375 58.1152 40.8698 58.4902 41.1875C58.8704 41.5 59.3392 41.6562 59.8965 41.6562ZM69.6191 48.5C69.1973 48.5 68.8014 48.4661 68.4316 48.3984C68.0671 48.3359 67.765 48.2552 67.5254 48.1562L68.2754 45.6719C68.666 45.7917 69.0176 45.8568 69.3301 45.8672C69.6478 45.8776 69.9212 45.8047 70.1504 45.6484C70.3848 45.4922 70.5749 45.2266 70.7207 44.8516L70.916 44.3438L66.6113 32H70.1113L72.5957 40.8125H72.7207L75.2285 32H78.752L74.0879 45.2969C73.8639 45.9427 73.5592 46.5052 73.1738 46.9844C72.7936 47.4688 72.3118 47.8411 71.7285 48.1016C71.1452 48.3672 70.4421 48.5 69.6191 48.5ZM85.5371 44.2344C84.3027 44.2344 83.2402 43.9844 82.3496 43.4844C81.4642 42.9792 80.7819 42.2656 80.3027 41.3437C79.8236 40.4167 79.584 39.3203 79.584 38.0547C79.584 36.8203 79.8236 35.737 80.3027 34.8047C80.7819 33.8724 81.4564 33.1458 82.3262 32.625C83.2012 32.1042 84.2272 31.8438 85.4043 31.8438C86.196 31.8438 86.9329 31.9714 87.6152 32.2266C88.3027 32.4766 88.9017 32.8542 89.4121 33.3594C89.9277 33.8646 90.3288 34.5 90.6152 35.2656C90.9017 36.026 91.0449 36.9167 91.0449 37.9375V38.8516H80.9121V36.7891H87.9121C87.9121 36.3099 87.8079 35.8854 87.5996 35.5156C87.3913 35.1458 87.1022 34.8568 86.7324 34.6484C86.3678 34.4349 85.9434 34.3281 85.459 34.3281C84.9538 34.3281 84.5059 34.4453 84.1152 34.6797C83.7298 34.9089 83.4277 35.2187 83.209 35.6094C82.9902 35.9948 82.8783 36.4245 82.873 36.8984V38.8594C82.873 39.4531 82.9824 39.9661 83.2012 40.3984C83.4251 40.8307 83.7402 41.1641 84.1465 41.3984C84.5527 41.6328 85.0345 41.75 85.5918 41.75C85.9616 41.75 86.3001 41.6979 86.6074 41.5938C86.9147 41.4896 87.1777 41.3333 87.3965 41.125C87.6152 40.9167 87.7819 40.6615 87.8965 40.3594L90.9746 40.5625C90.8184 41.3021 90.498 41.9479 90.0137 42.5C89.5345 43.0469 88.9147 43.474 88.1543 43.7813C87.3991 44.0833 86.5267 44.2344 85.5371 44.2344ZM98.6855 44.2344C97.4512 44.2344 96.3887 43.9844 95.498 43.4844C94.6126 42.9792 93.9303 42.2656 93.4512 41.3437C92.972 40.4167 92.7324 39.3203 92.7324 38.0547C92.7324 36.8203 92.972 35.737 93.4512 34.8047C93.9303 33.8724 94.6048 33.1458 95.4746 32.625C96.3496 32.1042 97.3757 31.8438 98.5527 31.8438C99.3444 31.8438 100.081 31.9714 100.764 32.2266C101.451 32.4766 102.05 32.8542 102.561 33.3594C103.076 33.8646 103.477 34.5 103.764 35.2656C104.05 36.026 104.193 36.9167 104.193 37.9375V38.8516H94.0605V36.7891H101.061C101.061 36.3099 100.956 35.8854 100.748 35.5156C100.54 35.1458 100.251 34.8568 99.8809 34.6484C99.5163 34.4349 99.0918 34.3281 98.6074 34.3281C98.1022 34.3281 97.6543 34.4453 97.2637 34.6797C96.8783 34.9089 96.5762 35.2187 96.3574 35.6094C96.1387 35.9948 96.0267 36.4245 96.0215 36.8984V38.8594C96.0215 39.4531 96.1309 39.9661 96.3496 40.3984C96.5736 40.8307 96.8887 41.1641 97.2949 41.3984C97.7012 41.6328 98.1829 41.75 98.7402 41.75C99.11 41.75 99.4486 41.6979 99.7559 41.5938C100.063 41.4896 100.326 41.3333 100.545 41.125C100.764 40.9167 100.93 40.6615 101.045 40.3594L104.123 40.5625C103.967 41.3021 103.646 41.9479 103.162 42.5C102.683 43.0469 102.063 43.474 101.303 43.7813C100.548 44.0833 99.6751 44.2344 98.6855 44.2344ZM116.35 35.4219L113.303 35.6094C113.251 35.349 113.139 35.1146 112.967 34.9062C112.795 34.6927 112.568 34.5234 112.287 34.3984C112.011 34.2682 111.68 34.2031 111.295 34.2031C110.779 34.2031 110.344 34.3125 109.99 34.5312C109.636 34.7448 109.459 35.0312 109.459 35.3906C109.459 35.6771 109.574 35.9193 109.803 36.1172C110.032 36.3151 110.425 36.474 110.982 36.5937L113.154 37.0312C114.321 37.2708 115.191 37.6562 115.764 38.1875C116.337 38.7187 116.623 39.4167 116.623 40.2812C116.623 41.0677 116.391 41.7578 115.928 42.3516C115.469 42.9453 114.839 43.4089 114.037 43.7422C113.24 44.0703 112.321 44.2344 111.279 44.2344C109.691 44.2344 108.425 43.9036 107.482 43.2422C106.545 42.5755 105.995 41.6693 105.834 40.5234L109.107 40.3516C109.206 40.8359 109.446 41.2057 109.826 41.4609C110.206 41.7109 110.693 41.8359 111.287 41.8359C111.87 41.8359 112.339 41.724 112.693 41.5C113.053 41.2708 113.235 40.9766 113.24 40.6172C113.235 40.3151 113.107 40.0677 112.857 39.875C112.607 39.6771 112.222 39.526 111.701 39.4219L109.623 39.0078C108.451 38.7734 107.579 38.3672 107.006 37.7891C106.438 37.2109 106.154 36.474 106.154 35.5781C106.154 34.8073 106.363 34.1432 106.779 33.5859C107.201 33.0286 107.792 32.599 108.553 32.2969C109.318 31.9948 110.214 31.8438 111.24 31.8438C112.756 31.8438 113.949 32.1641 114.818 32.8047C115.693 33.4453 116.204 34.3177 116.35 35.4219Z" fill="#2B2024"/>
</svg>
