<svg width="312" height="196" viewBox="0 0 312 196" fill="none" xmlns="http://www.w3.org/2000/svg">
<mask id="mask0_0_1" style="mask-type:alpha" maskUnits="userSpaceOnUse" x="-24" y="-43" width="332" height="231">
<rect x="-24" y="-43" width="332" height="231" rx="31" fill="white"/>
</mask>
<g mask="url(#mask0_0_1)">
<path d="M328.563 96.6838C328.648 95.3938 325.622 94.7641 325.759 93.6352C325.896 92.5104 328.948 92.7442 332.175 90.7125C332.757 90.3461 336.424 88.0373 336.067 86.305C335.389 83.0214 320.848 84.6974 319.433 79.9206C319.122 78.8723 319.411 77.4018 318.555 74.107C318.214 72.7962 317.931 72.116 317.353 71.9013C316.534 71.5967 315.836 72.4955 313.824 73.8235C310.806 75.8151 310.255 75.1923 308.089 76.9471C306.482 78.2498 305.942 79.2773 305.242 79.0702C304.251 78.7771 304.694 76.5305 303.56 75.9822C302.403 75.4227 300.385 77.0092 299.148 78.3849C296.828 80.9667 296.588 83.5542 295.816 85.9199C294.978 88.4908 293.121 92.0018 288.514 95.6173L246.459 126.23C255.312 120.101 280.07 103.636 289.715 97.823C292.5 96.1449 295.424 94.5112 298.617 95.2626C301.691 95.986 304.643 98.8328 309.598 100.721C310.177 100.942 311.796 101.536 312.525 100.844C313.128 100.271 312.573 99.3418 313.128 98.7993C313.871 98.0716 315.473 99.1534 318.098 99.5239C319.949 99.7852 321.368 99.56 322.588 99.3663C322.956 99.3079 328.451 98.401 328.564 96.6838L328.563 96.6838Z" fill="#F2F2F2"/>
<path d="M257.507 79.2956C256.898 78.882 255.716 80.1856 255.201 79.7924C254.689 79.4006 255.684 77.97 255.618 75.8C255.606 75.4087 255.531 72.9427 254.578 72.6183C252.77 72.0036 249.398 79.6238 246.645 78.9401C246.041 78.7901 245.402 78.2242 243.538 77.6939C242.796 77.4829 242.381 77.4255 242.109 77.6471C241.723 77.9615 241.963 78.563 242.034 79.9338C242.141 81.9895 241.676 82.0806 241.912 83.6497C242.088 84.8146 242.436 85.3762 242.133 85.6599C241.703 86.0615 240.728 85.1961 240.132 85.5944C239.523 86.0009 239.72 87.449 240.038 88.4528C240.636 90.3365 241.836 91.2011 242.775 92.2623C243.795 93.4155 244.982 95.34 245.428 98.6443L248.318 128.118C247.865 122.004 246.927 105.103 246.857 98.6911C246.837 96.8402 246.879 94.9335 248.169 93.5834C249.411 92.2835 251.659 91.656 254.016 89.7687C254.292 89.5483 255.05 88.925 254.921 88.3676C254.814 87.9067 254.197 87.9107 254.091 87.482C253.949 86.9069 254.942 86.4329 255.881 85.2514C256.543 84.4182 256.842 83.6568 257.099 83.002C257.177 82.8046 258.317 79.846 257.507 79.2955L257.507 79.2955V79.2956Z" fill="#F2F2F2"/>
<path d="M267.758 90.3123L269.629 86.796L269.966 86.6629C271.523 86.0478 272.683 85.1998 273.415 84.1418C273.531 83.9736 273.639 83.7995 273.749 83.6222C274.184 82.9194 274.724 82.0457 275.842 81.3609C276.466 80.9802 278.035 80.1823 278.972 81.0561C279.226 81.2883 279.351 81.5634 279.409 81.8254C279.458 81.8038 279.509 81.7827 279.563 81.7595C280.229 81.4858 280.632 81.4495 281.021 81.4146C281.32 81.3876 281.628 81.3602 282.201 81.1871C282.452 81.1113 282.659 81.0354 282.833 80.9719C283.362 80.7802 284.023 80.5727 284.641 81.0072C285.284 81.4945 285.256 82.2835 285.237 82.806C285.205 83.7381 285.071 84.3344 284.982 84.7298C284.949 84.8742 284.913 85.037 284.912 85.0942C284.91 85.5565 286.856 86.4556 287.586 86.7981C289.229 87.5625 290.652 88.2239 290.54 89.5144C290.462 90.438 289.579 91.1262 287.844 91.6129C287.304 91.7641 286.803 91.8172 286.378 91.8363C286.515 92.1343 286.578 92.4897 286.433 92.8819C286.089 93.8095 284.866 94.1367 282.795 93.8579C282.279 93.7899 281.587 93.6959 280.781 93.3264C280.401 93.152 280.085 92.9567 279.818 92.7853C279.709 92.9329 279.561 93.0726 279.353 93.1781C278.743 93.4896 278.018 93.3406 277.208 92.7027C276.308 92.0145 275.662 91.3098 275.09 90.6893C274.591 90.1482 274.16 89.6836 273.741 89.4361C272.957 88.9874 271.978 89.1898 270.778 89.5008L267.758 90.3123L267.758 90.3123Z" fill="#F2F2F2"/>
<path d="M282.771 72.0298L278.896 71.112L278.681 70.8201C277.691 69.4695 276.577 68.5626 275.368 68.1233C275.176 68.0534 274.98 67.9934 274.781 67.9322C273.99 67.6896 273.008 67.3884 272.062 66.481C271.536 65.9735 270.366 64.6591 270.974 63.5307C271.134 63.2257 271.368 63.0356 271.607 62.9131C271.573 62.8707 271.54 62.8273 271.504 62.7808C271.071 62.2062 270.933 61.825 270.801 61.4578C270.699 61.1756 270.594 60.8843 270.281 60.3743C270.144 60.1506 270.018 59.9695 269.913 59.8169C269.593 59.3542 269.225 58.7674 269.488 58.06C269.797 57.3136 270.567 57.141 271.077 57.0263C271.987 56.8214 272.598 56.7997 273.003 56.7854C273.151 56.7806 273.317 56.7743 273.373 56.7607C273.821 56.645 274.197 54.5353 274.343 53.7421C274.665 51.9584 274.944 50.4148 276.221 50.1952C277.134 50.0372 278.024 50.7163 278.935 52.271C279.218 52.7553 279.396 53.2262 279.523 53.6329C279.776 53.4243 280.104 53.2738 280.52 53.3142C281.505 53.4112 282.131 54.5118 282.387 56.586C282.452 57.1016 282.537 57.7948 282.384 58.6689C282.311 59.0805 282.203 59.4353 282.105 59.7372C282.275 59.8054 282.448 59.913 282.602 60.0872C283.059 60.5989 283.098 61.3379 282.687 62.2827C282.249 63.3279 281.732 64.1321 281.276 64.842C280.88 65.4622 280.54 65.9972 280.406 66.4651C280.171 67.3371 280.615 68.2333 281.221 69.315L282.771 72.0299L282.771 72.0298V72.0298Z" fill="#F2F2F2"/>
<path d="M287.665 61.2468L289.535 57.7306L289.872 57.5975C291.43 56.9824 292.59 56.1344 293.321 55.0764C293.438 54.9082 293.545 54.7341 293.655 54.5568C294.09 53.854 294.631 52.9802 295.748 52.2955C296.373 51.9147 297.941 51.1169 298.878 51.9906C299.133 52.2228 299.257 52.4979 299.315 52.76C299.365 52.7384 299.415 52.7173 299.469 52.6941C300.135 52.4204 300.538 52.3841 300.927 52.3492C301.226 52.3222 301.534 52.2948 302.107 52.1217C302.358 52.0459 302.565 51.97 302.74 51.9064C303.268 51.7148 303.929 51.5073 304.547 51.9418C305.191 52.4291 305.162 53.2181 305.144 53.7406C305.111 54.6727 304.977 55.269 304.888 55.6644C304.855 55.8087 304.819 55.9715 304.818 56.0288C304.817 56.491 306.762 57.3901 307.492 57.7327C309.136 58.4971 310.558 59.1585 310.447 60.449C310.368 61.3726 309.485 62.0608 307.75 62.5474C307.21 62.6987 306.709 62.7518 306.284 62.7708C306.421 63.0689 306.484 63.4243 306.339 63.8164C305.996 64.7441 304.772 65.0712 302.701 64.7924C302.186 64.7245 301.494 64.6305 300.687 64.261C300.307 64.0866 299.992 63.8912 299.724 63.7198C299.615 63.8674 299.467 64.0071 299.26 64.1127C298.649 64.4242 297.924 64.2751 297.114 63.6373C296.214 62.9491 295.568 62.2444 294.997 61.6239C294.497 61.0827 294.066 60.6182 293.647 60.3707C292.863 59.9219 291.884 60.1244 290.684 60.4354L287.665 61.2469V61.2468H287.665Z" fill="#F2F2F2"/>
<path d="M247.589 126.925L247.198 126.027L247.573 125.124L247.198 126.027L246.337 125.572C246.376 125.489 246.449 125.289 246.566 124.978C247.209 123.273 249.164 118.084 253.048 110.464C255.76 105.144 258.841 99.8762 262.207 94.8031C265.578 89.7221 268.424 86.077 270.712 83.147C272.437 80.9373 274.118 78.859 275.756 76.8353C280.132 71.4276 284.264 66.319 288.041 60.1165C288.885 58.7323 290.64 55.8502 291.042 51.7796C291.274 49.4186 291.02 47.0066 290.283 44.6117L292.156 44.0361C292.967 46.6816 293.247 49.3522 292.989 51.9737C292.543 56.4869 290.631 59.6274 289.712 61.1363C285.869 67.4482 281.696 72.6055 277.278 78.0652C275.646 80.0821 273.972 82.1509 272.254 84.3517C269.988 87.2544 267.167 90.868 263.839 95.8838C260.513 100.896 257.47 106.1 254.791 111.352C250.956 118.876 249.031 123.988 248.398 125.668C248.06 126.564 247.989 126.752 247.589 126.925V126.925V126.925Z" fill="#F2F2F2"/>
<path d="M285.565 45.1499C285.499 45.1045 285.433 45.057 285.368 45.0059C284.044 43.99 283.334 42.2948 283.258 39.9676C283.224 38.874 283.52 37.8562 284.111 35.8263C284.202 35.513 284.68 33.936 285.652 31.9819C286.287 30.7048 286.641 30.2316 287.167 29.9594C287.752 29.6555 288.395 29.6052 289.017 29.6994C289.102 29.5309 289.228 29.3829 289.406 29.2664C290.142 28.7815 290.813 29.371 291.18 29.6846C291.363 29.847 291.59 30.0513 291.87 30.2218C292.308 30.4918 292.622 30.5217 293.097 30.569C293.552 30.6139 294.117 30.6698 294.812 30.9627C296.185 31.5349 296.958 32.5651 297.214 32.9044C298.562 34.6823 298.493 36.6297 298.412 38.8844C298.395 39.3359 298.291 40.9509 297.663 42.833C297.21 44.1908 296.819 44.6641 296.464 44.9725C295.738 45.6075 294.966 45.7277 293.107 45.8863C291.164 46.0544 290.19 46.1376 289.441 46.0811C287.699 45.9469 286.606 45.8627 285.565 45.1498L285.565 45.1499V45.1499Z" fill="#F2F2F2"/>
<path d="M277.848 0H168.133C164.108 0 160.835 3.27273 160.835 7.29747V120.466C160.835 124.491 164.108 127.764 168.133 127.764H277.848C281.873 127.764 285.146 124.491 285.146 120.466V7.29747C285.146 3.27273 281.873 0 277.848 0ZM284.379 120.466C284.379 124.073 281.455 126.996 277.848 126.996H168.133C164.526 126.996 161.603 124.073 161.603 120.466V7.29747C161.603 3.69099 164.526 0.767349 168.133 0.767349H226.249C258.353 0.767349 284.379 26.7929 284.379 58.897V120.466Z" fill="#3F3D56"/>
<path d="M158.512 85.0551C154.667 86.0945 152.086 88.9212 152.748 91.3684C153.41 93.8155 157.063 94.9561 160.91 93.9159C162.452 93.5214 163.878 92.7633 165.067 91.705L181.305 87.0953L178.979 79.5215L163.219 84.87C161.658 84.555 160.044 84.6184 158.512 85.0551Z" fill="#FFB6B6"/>
<path d="M226.56 62.3325C226.56 62.3325 231.145 69.0576 220.813 74.1307C210.481 79.2039 191.382 86.4445 191.382 86.4445L165.012 92.5537L161.03 83.8233L192.32 75.2979L217.818 61.0684L226.56 62.3325H226.56Z" fill="#3F3D56"/>
<path d="M223.491 44.4324C223.374 47.6202 225.669 51.4043 228.095 51.482C231.014 51.5755 244.813 52.5583 245.257 51.4138C248.337 43.4675 233.832 26.9837 230.562 26.5082C228.805 26.2527 226.701 28.7754 225.892 30.858C224.758 33.7765 226.431 35.1528 225.487 39.0845C224.767 42.0827 223.573 42.2038 223.491 44.4324Z" fill="#2F2E41"/>
<path d="M199.472 170.099L189.787 172.318L199.519 201.193L206.081 199.69L199.472 170.099Z" fill="#FFB6B6"/>
<path d="M220.514 183.226L211.865 183.013L213.076 213.419L219.808 213.539L220.514 183.226Z" fill="#FFB6B6"/>
<path d="M238.359 150.015L192.62 146.476L205.492 93.7086L236.287 89.2715L238.359 150.015Z" fill="#2F2E41"/>
<path d="M232.051 53.021L241.689 47.8867L249.471 57.0755L233.832 107.199L205.226 94.5318L226.954 57.3865L232.051 53.021Z" fill="#F50057"/>
<path d="M233.274 98.1481C233.274 98.1481 236.343 113.972 226.84 122.197L223.931 131.445L220.79 148.515L221.074 192.604L209.564 191.453L204.96 149.25L204.905 128.246L187.912 142.798L205.696 177.727L191.205 184.072L173.507 141.98C172.277 139.416 172.605 136.377 174.353 134.134L205.227 94.5312L233.274 98.1481Z" fill="#2F2E41"/>
<path d="M245.203 52.0381L226.307 69.6663C221.836 105.954 224.277 139.275 237.143 168.121L268.895 153.405C242.713 145.464 245.281 101.861 250.361 55.1411L245.203 52.0381Z" fill="#3F3D56"/>
<path d="M228.908 57.4448L231.815 52.9473L215.738 62.399L203.026 97.6285L226.477 68.3632L228.908 57.4448Z" fill="#3F3D56"/>
<path d="M269.123 123.711C270.231 127.537 273.103 130.067 275.538 129.361C277.973 128.656 279.048 124.983 277.939 121.155C277.517 119.62 276.734 118.209 275.654 117.038L270.755 100.886L263.224 103.347L268.853 119.009C268.566 120.575 268.659 122.188 269.123 123.711Z" fill="#FFB6B6"/>
<path d="M244.469 55.5163C244.469 55.5163 251.059 50.7406 256.427 60.9225C261.795 71.1043 269.582 89.987 269.582 89.987L276.446 116.171L267.834 120.402L258.413 89.3693L243.457 64.291L244.469 55.5163Z" fill="#3F3D56"/>
<path d="M236.634 47.4731C242.545 47.4731 247.337 42.6813 247.337 36.7702C247.337 30.8592 242.545 26.0674 236.634 26.0674C230.723 26.0674 225.931 30.8592 225.931 36.7702C225.931 42.6813 230.723 47.4731 236.634 47.4731Z" fill="#FFB6B6"/>
<path d="M236.668 32.5949C236.065 32.5355 235.755 33.1725 233.455 34.0613C232.639 34.3762 232.222 34.5343 231.743 34.5651C230.288 34.6586 229.157 33.8547 228.401 33.3175C227.172 32.4443 226.381 31.8818 226.226 30.9826C226.024 29.8091 227.353 28.4981 230.018 25.9242C231.323 24.6637 232.119 23.9023 233.396 22.9961C235.538 21.4761 236.609 20.7162 238.11 20.567C240.099 20.3695 241.611 21.3185 243.793 22.6878C244.382 23.0577 245.232 23.2356 246.132 23.3034C249.081 23.5254 251.609 25.4909 252.411 28.3374C252.473 28.5548 252.524 28.7517 252.563 28.9202C254.146 35.8317 253.704 43.0202 251.538 49.7716C251.479 49.9533 251.431 50.1225 251.393 50.2767C250.386 54.3883 236.562 55.9911 234.945 52.5152C233.926 50.3264 238.685 48.1364 239.396 41.61C239.89 37.0666 238.17 32.7431 236.668 32.5949V32.5949Z" fill="#2F2E41"/>
<path d="M194.983 35.0117H79.0166V35.6062H194.983V35.0117Z" fill="#E6E6E6"/>
<path d="M178.611 26.3191H95.3881C94.077 26.3191 93.0103 25.2524 93.0103 23.9413C93.0103 22.6302 94.077 21.5635 95.3881 21.5635H178.611C179.922 21.5635 180.989 22.6302 180.989 23.9413C180.989 25.2524 179.922 26.3191 178.611 26.3191Z" fill="#E6E6E6"/>
<path d="M79.2739 39.7412C82.0286 39.7412 84.2617 37.5081 84.2617 34.7534C84.2617 31.9987 82.0286 29.7656 79.2739 29.7656C76.5192 29.7656 74.2861 31.9987 74.2861 34.7534C74.2861 37.5081 76.5192 39.7412 79.2739 39.7412Z" fill="#E6E6E6"/>
<path d="M94.6211 28.999C97.3757 28.999 99.6088 26.7659 99.6088 24.0112C99.6088 21.2565 97.3757 19.0234 94.6211 19.0234C91.8664 19.0234 89.6333 21.2565 89.6333 24.0112C89.6333 26.7659 91.8664 28.999 94.6211 28.999Z" fill="#E6E6E6"/>
<path d="M155.848 90.6445H39.8818V91.239H155.848V90.6445Z" fill="#3F3D56"/>
<path d="M139.477 81.9529H56.2533C54.9422 81.9529 53.8755 80.8862 53.8755 79.5751C53.8755 78.264 54.9422 77.1973 56.2533 77.1973H139.477C140.788 77.1973 141.854 78.264 141.854 79.5751C141.854 80.8862 140.788 81.9529 139.477 81.9529Z" fill="#F50057"/>
<path d="M38.9878 95.3749C41.7424 95.3749 43.9755 93.1418 43.9755 90.3872C43.9755 87.6325 41.7424 85.3994 38.9878 85.3994C36.2331 85.3994 34 87.6325 34 90.3872C34 93.1418 36.2331 95.3749 38.9878 95.3749Z" fill="#F50057"/>
<path d="M54.3349 84.6328C57.0896 84.6328 59.3227 82.3997 59.3227 79.645C59.3227 76.8903 57.0896 74.6572 54.3349 74.6572C51.5803 74.6572 49.3472 76.8903 49.3472 79.645C49.3472 82.3997 51.5803 84.6328 54.3349 84.6328Z" fill="#F50057"/>
<path d="M169.661 152.032H53.6943V152.627H169.661V152.032Z" fill="#E6E6E6"/>
<path d="M153.288 143.343H70.0643C68.7532 143.343 67.6865 142.276 67.6865 140.965C67.6865 139.654 68.7532 138.587 70.0643 138.587H153.288C154.599 138.587 155.665 139.654 155.665 140.965C155.665 142.276 154.599 143.343 153.288 143.343Z" fill="#E6E6E6"/>
<path d="M67.7632 145.638C70.5178 145.638 72.7509 143.405 72.7509 140.65C72.7509 137.895 70.5178 135.662 67.7632 135.662C65.0085 135.662 62.7754 137.895 62.7754 140.65C62.7754 143.405 65.0085 145.638 67.7632 145.638Z" fill="#E6E6E6"/>
<path d="M52.7988 157.147C55.5535 157.147 57.7866 154.914 57.7866 152.16C57.7866 149.405 55.5535 147.172 52.7988 147.172C50.0441 147.172 47.811 149.405 47.811 152.16C47.811 154.914 50.0441 157.147 52.7988 157.147Z" fill="#E6E6E6"/>
</g>
<path d="M10.0703 19.6016C10.0078 18.9714 9.73958 18.4818 9.26563 18.1328C8.79167 17.7839 8.14844 17.6094 7.33594 17.6094C6.78385 17.6094 6.31771 17.6875 5.9375 17.8437C5.55729 17.9948 5.26563 18.2057 5.0625 18.4766C4.86458 18.7474 4.76563 19.0547 4.76563 19.3984C4.75521 19.6849 4.8151 19.9349 4.94531 20.1484C5.08073 20.362 5.26563 20.5469 5.5 20.7031C5.73438 20.8542 6.00521 20.987 6.3125 21.1016C6.61979 21.2109 6.94792 21.3047 7.29688 21.3828L8.73438 21.7266C9.43229 21.8828 10.0729 22.0911 10.6562 22.3516C11.2396 22.612 11.7448 22.9323 12.1719 23.3125C12.599 23.6927 12.9297 24.1406 13.1641 24.6562C13.4036 25.1719 13.526 25.763 13.5312 26.4297C13.526 27.4089 13.276 28.2578 12.7813 28.9766C12.2917 29.6901 11.5833 30.2448 10.6562 30.6406C9.73438 31.0312 8.6224 31.2266 7.32031 31.2266C6.02865 31.2266 4.90365 31.0286 3.94531 30.6328C2.99219 30.237 2.2474 29.651 1.71094 28.875C1.17969 28.0937 0.901042 27.1276 0.875 25.9766H4.14844C4.1849 26.513 4.33854 26.9609 4.60938 27.3203C4.88542 27.6745 5.2526 27.9427 5.71094 28.125C6.17448 28.3021 6.69792 28.3906 7.28125 28.3906C7.85417 28.3906 8.35156 28.3073 8.77344 28.1406C9.20052 27.974 9.53125 27.7422 9.76563 27.4453C10 27.1484 10.1172 26.8073 10.1172 26.4219C10.1172 26.0625 10.0104 25.7604 9.79688 25.5156C9.58854 25.2708 9.28125 25.0625 8.875 24.8906C8.47396 24.7187 7.98177 24.5625 7.39844 24.4219L5.65625 23.9844C4.30729 23.6562 3.24219 23.1432 2.46094 22.4453C1.67969 21.7474 1.29167 20.8073 1.29688 19.625C1.29167 18.6562 1.54948 17.8099 2.07031 17.0859C2.59635 16.362 3.31771 15.7969 4.23438 15.3906C5.15104 14.9844 6.19271 14.7812 7.35938 14.7812C8.54688 14.7812 9.58333 14.9844 10.4688 15.3906C11.3594 15.7969 12.0521 16.362 12.5469 17.0859C13.0417 17.8099 13.2969 18.6484 13.3125 19.6016H10.0703ZM15.7441 35.5V19H19.0254V21.0156H19.1738C19.3197 20.6927 19.5306 20.3646 19.8066 20.0312C20.0879 19.6927 20.4525 19.4115 20.9004 19.1875C21.3535 18.9583 21.916 18.8438 22.5879 18.8438C23.4629 18.8438 24.2702 19.0729 25.0098 19.5313C25.7493 19.9844 26.3405 20.6693 26.7832 21.5859C27.2259 22.4974 27.4473 23.6406 27.4473 25.0156C27.4473 26.3542 27.2311 27.4844 26.7988 28.4062C26.3717 29.3229 25.7884 30.0182 25.0488 30.4922C24.3145 30.9609 23.4915 31.1953 22.5801 31.1953C21.9342 31.1953 21.3848 31.0885 20.9316 30.875C20.4837 30.6615 20.1165 30.3932 19.8301 30.0703C19.5436 29.7422 19.3249 29.4115 19.1738 29.0781H19.0723V35.5H15.7441ZM19.002 25C19.002 25.7135 19.1009 26.3359 19.2988 26.8672C19.4967 27.3984 19.7832 27.8125 20.1582 28.1094C20.5332 28.401 20.9889 28.5469 21.5254 28.5469C22.0671 28.5469 22.5254 28.3984 22.9004 28.1016C23.2754 27.7995 23.5592 27.3828 23.752 26.8516C23.9499 26.3151 24.0488 25.6979 24.0488 25C24.0488 24.3073 23.9525 23.6979 23.7598 23.1719C23.5671 22.6458 23.2832 22.2344 22.9082 21.9375C22.5332 21.6406 22.0723 21.4922 21.5254 21.4922C20.9837 21.4922 20.5254 21.6354 20.1504 21.9219C19.7806 22.2083 19.4967 22.6146 19.2988 23.1406C19.1009 23.6667 19.002 24.2865 19.002 25ZM29.666 31V19H32.8926V21.0937H33.0176C33.2363 20.349 33.6035 19.7865 34.1191 19.4063C34.6348 19.0208 35.2285 18.8281 35.9004 18.8281C36.0671 18.8281 36.2467 18.8385 36.4395 18.8594C36.6322 18.8802 36.8014 18.9089 36.9473 18.9453V21.8984C36.791 21.8516 36.5749 21.8099 36.2988 21.7734C36.0228 21.737 35.7702 21.7188 35.541 21.7188C35.0514 21.7188 34.6139 21.8255 34.2285 22.0391C33.8483 22.2474 33.5462 22.5391 33.3223 22.9141C33.1035 23.2891 32.9941 23.7214 32.9941 24.2109V31H29.666ZM38.668 31V19H41.9961V31H38.668ZM40.3398 17.4531C39.8451 17.4531 39.4206 17.2891 39.0664 16.9609C38.7174 16.6276 38.543 16.2292 38.543 15.7656C38.543 15.3073 38.7174 14.9141 39.0664 14.5859C39.4206 14.2526 39.8451 14.0859 40.3398 14.0859C40.8346 14.0859 41.2565 14.2526 41.6055 14.5859C41.9596 14.9141 42.1367 15.3073 42.1367 15.7656C42.1367 16.2292 41.9596 16.6276 41.6055 16.9609C41.2565 17.2891 40.8346 17.4531 40.3398 17.4531ZM47.9902 24.0625V31H44.6621V19H47.834V21.1172H47.9746C48.2402 20.4193 48.6855 19.8672 49.3105 19.4609C49.9355 19.0495 50.6934 18.8438 51.584 18.8438C52.4173 18.8438 53.1439 19.026 53.7637 19.3906C54.3835 19.7552 54.8652 20.276 55.209 20.9531C55.5527 21.625 55.7246 22.4271 55.7246 23.3594V31H52.3965V23.9531C52.4017 23.2187 52.2142 22.6458 51.834 22.2344C51.4538 21.8177 50.9303 21.6094 50.2637 21.6094C49.8158 21.6094 49.4199 21.7057 49.0762 21.8984C48.7376 22.0911 48.472 22.3724 48.2793 22.7422C48.0918 23.1068 47.9954 23.5469 47.9902 24.0625ZM64.7305 19V21.5H57.5039V19H64.7305ZM59.1445 16.125H62.4727V27.3125C62.4727 27.6198 62.5195 27.8594 62.6133 28.0312C62.707 28.1979 62.8372 28.3151 63.0039 28.3828C63.1758 28.4505 63.3737 28.4844 63.5977 28.4844C63.7539 28.4844 63.9102 28.4714 64.0664 28.4453C64.2227 28.4141 64.3424 28.3906 64.4258 28.375L64.9492 30.8516C64.7826 30.9036 64.5482 30.9635 64.2461 31.0313C63.944 31.1042 63.5768 31.1484 63.1445 31.1641C62.3424 31.1953 61.6393 31.0885 61.0352 30.8437C60.4362 30.599 59.9701 30.2187 59.6367 29.7031C59.3034 29.1875 59.1393 28.5365 59.1445 27.75V16.125ZM1.32813 58V46H4.5V48.1172H4.64062C4.89063 47.4141 5.30729 46.8594 5.89063 46.4531C6.47396 46.0469 7.17188 45.8438 7.98438 45.8438C8.80729 45.8438 9.50781 46.0495 10.0859 46.4609C10.6641 46.8672 11.0495 47.4193 11.2422 48.1172H11.3672C11.612 47.4297 12.0547 46.8802 12.6953 46.4687C13.3411 46.0521 14.1042 45.8438 14.9844 45.8438C16.1042 45.8438 17.013 46.2005 17.7109 46.9141C18.4141 47.6224 18.7656 48.6276 18.7656 49.9297V58H15.4453V50.5859C15.4453 49.9193 15.2682 49.4193 14.9141 49.0859C14.5599 48.7526 14.1172 48.5859 13.5859 48.5859C12.9818 48.5859 12.5104 48.7786 12.1719 49.1641C11.8333 49.5443 11.6641 50.0469 11.6641 50.6719V58H8.4375V50.5156C8.4375 49.9271 8.26823 49.4583 7.92969 49.1094C7.59635 48.7604 7.15625 48.5859 6.60938 48.5859C6.23958 48.5859 5.90625 48.6797 5.60938 48.8672C5.31771 49.0495 5.08594 49.3073 4.91406 49.6406C4.74219 49.9687 4.65625 50.3542 4.65625 50.7969V58H1.32813ZM24.8164 58.2266C24.0508 58.2266 23.3685 58.0938 22.7695 57.8281C22.1706 57.5573 21.6966 57.1589 21.3477 56.6328C21.0039 56.1016 20.832 55.4401 20.832 54.6484C20.832 53.9818 20.9544 53.4219 21.1992 52.9687C21.444 52.5156 21.7773 52.151 22.1992 51.875C22.6211 51.599 23.1003 51.3906 23.6367 51.25C24.1784 51.1094 24.7461 51.0104 25.3398 50.9531C26.0378 50.8802 26.6003 50.8125 27.0273 50.75C27.4544 50.6823 27.7643 50.5833 27.957 50.4531C28.1497 50.3229 28.2461 50.1302 28.2461 49.875V49.8281C28.2461 49.3333 28.0898 48.9505 27.7773 48.6797C27.4701 48.4089 27.0326 48.2734 26.4648 48.2734C25.8659 48.2734 25.3893 48.4062 25.0352 48.6719C24.681 48.9323 24.4466 49.2604 24.332 49.6562L21.2539 49.4062C21.4102 48.6771 21.7174 48.0469 22.1758 47.5156C22.6341 46.9792 23.2253 46.5677 23.9492 46.2812C24.6784 45.9896 25.5221 45.8438 26.4805 45.8438C27.1471 45.8438 27.7852 45.9219 28.3945 46.0781C29.0091 46.2344 29.5534 46.4766 30.0273 46.8047C30.5065 47.1328 30.8841 47.5547 31.1602 48.0703C31.4362 48.5807 31.5742 49.1927 31.5742 49.9062V58H28.418V56.3359H28.3242C28.1315 56.7109 27.8737 57.0417 27.5508 57.3281C27.2279 57.6094 26.8398 57.8307 26.3867 57.9922C25.9336 58.1484 25.4102 58.2266 24.8164 58.2266ZM25.7695 55.9297C26.2591 55.9297 26.6914 55.8333 27.0664 55.6406C27.4414 55.4427 27.7357 55.1771 27.9492 54.8438C28.1628 54.5104 28.2695 54.1328 28.2695 53.7109V52.4375C28.1654 52.5052 28.0221 52.5677 27.8398 52.625C27.6628 52.6771 27.4622 52.7266 27.2383 52.7734C27.0143 52.8151 26.7904 52.8542 26.5664 52.8906C26.3424 52.9219 26.1393 52.9505 25.957 52.9766C25.5664 53.0339 25.2253 53.125 24.9336 53.25C24.6419 53.375 24.4154 53.5443 24.2539 53.7578C24.0924 53.9661 24.0117 54.2266 24.0117 54.5391C24.0117 54.9922 24.1758 55.3385 24.5039 55.5781C24.8372 55.8125 25.2591 55.9297 25.7695 55.9297ZM37.4844 51.0625V58H34.1563V46H37.3281V48.1172H37.4688C37.7344 47.4193 38.1797 46.8672 38.8047 46.4609C39.4297 46.0495 40.1875 45.8438 41.0781 45.8438C41.9115 45.8438 42.638 46.026 43.2578 46.3906C43.8776 46.7552 44.3594 47.276 44.7031 47.9531C45.0469 48.625 45.2188 49.4271 45.2188 50.3594V58H41.8906V50.9531C41.8958 50.2187 41.7083 49.6458 41.3281 49.2344C40.9479 48.8177 40.4245 48.6094 39.7578 48.6094C39.3099 48.6094 38.9141 48.7057 38.5703 48.8984C38.2318 49.0911 37.9661 49.3724 37.7734 49.7422C37.5859 50.1068 37.4896 50.5469 37.4844 51.0625ZM51.2637 58.2266C50.498 58.2266 49.8158 58.0938 49.2168 57.8281C48.6178 57.5573 48.1439 57.1589 47.7949 56.6328C47.4512 56.1016 47.2793 55.4401 47.2793 54.6484C47.2793 53.9818 47.4017 53.4219 47.6465 52.9687C47.8913 52.5156 48.2246 52.151 48.6465 51.875C49.0684 51.599 49.5475 51.3906 50.084 51.25C50.6257 51.1094 51.1934 51.0104 51.7871 50.9531C52.485 50.8802 53.0475 50.8125 53.4746 50.75C53.9017 50.6823 54.2116 50.5833 54.4043 50.4531C54.597 50.3229 54.6934 50.1302 54.6934 49.875V49.8281C54.6934 49.3333 54.5371 48.9505 54.2246 48.6797C53.9173 48.4089 53.4798 48.2734 52.9121 48.2734C52.3132 48.2734 51.8366 48.4062 51.4824 48.6719C51.1283 48.9323 50.8939 49.2604 50.7793 49.6562L47.7012 49.4062C47.8574 48.6771 48.1647 48.0469 48.623 47.5156C49.0814 46.9792 49.6725 46.5677 50.3965 46.2812C51.1257 45.9896 51.9694 45.8438 52.9277 45.8438C53.5944 45.8438 54.2324 45.9219 54.8418 46.0781C55.4564 46.2344 56.0007 46.4766 56.4746 46.8047C56.9538 47.1328 57.3314 47.5547 57.6074 48.0703C57.8835 48.5807 58.0215 49.1927 58.0215 49.9062V58H54.8652V56.3359H54.7715C54.5788 56.7109 54.321 57.0417 53.998 57.3281C53.6751 57.6094 53.2871 57.8307 52.834 57.9922C52.3809 58.1484 51.8574 58.2266 51.2637 58.2266ZM52.2168 55.9297C52.7064 55.9297 53.1387 55.8333 53.5137 55.6406C53.8887 55.4427 54.1829 55.1771 54.3965 54.8438C54.61 54.5104 54.7168 54.1328 54.7168 53.7109V52.4375C54.6126 52.5052 54.4694 52.5677 54.2871 52.625C54.11 52.6771 53.9095 52.7266 53.6855 52.7734C53.4616 52.8151 53.2376 52.8542 53.0137 52.8906C52.7897 52.9219 52.5866 52.9505 52.4043 52.9766C52.0137 53.0339 51.6725 53.125 51.3809 53.25C51.0892 53.375 50.8626 53.5443 50.7012 53.7578C50.5397 53.9661 50.459 54.2266 50.459 54.5391C50.459 54.9922 50.623 55.3385 50.9512 55.5781C51.2845 55.8125 51.7064 55.9297 52.2168 55.9297ZM66.0098 62.75C64.9316 62.75 64.0072 62.6016 63.2363 62.3047C62.4707 62.013 61.8613 61.6146 61.4082 61.1094C60.9551 60.6042 60.6608 60.0365 60.5254 59.4062L63.6035 58.9922C63.6973 59.2318 63.8457 59.4557 64.0488 59.6641C64.252 59.8724 64.5202 60.0391 64.8535 60.1641C65.1921 60.2943 65.6035 60.3594 66.0879 60.3594C66.8118 60.3594 67.4082 60.1823 67.877 59.8281C68.3509 59.4792 68.5879 58.8932 68.5879 58.0703V55.875H68.4473C68.3014 56.2083 68.0827 56.5234 67.791 56.8203C67.4993 57.1172 67.1243 57.3594 66.666 57.5469C66.2077 57.7344 65.6608 57.8281 65.0254 57.8281C64.1243 57.8281 63.304 57.6198 62.5645 57.2031C61.8301 56.7812 61.2441 56.138 60.8066 55.2734C60.3743 54.4036 60.1582 53.3047 60.1582 51.9766C60.1582 50.6172 60.3796 49.4818 60.8223 48.5703C61.265 47.6589 61.8535 46.9766 62.5879 46.5234C63.3275 46.0703 64.1374 45.8438 65.0176 45.8438C65.6895 45.8438 66.252 45.9583 66.7051 46.1875C67.1582 46.4115 67.5228 46.6927 67.7988 47.0312C68.0801 47.3646 68.2962 47.6927 68.4473 48.0156H68.5723V46H71.877V58.1172C71.877 59.138 71.627 59.9922 71.127 60.6797C70.627 61.3672 69.9342 61.8828 69.0488 62.2266C68.1686 62.5755 67.1556 62.75 66.0098 62.75ZM66.0801 55.3281C66.6165 55.3281 67.0697 55.1953 67.4395 54.9297C67.8145 54.6589 68.1009 54.2734 68.2988 53.7734C68.502 53.2682 68.6035 52.6641 68.6035 51.9609C68.6035 51.2578 68.5046 50.6484 68.3066 50.1328C68.1087 49.612 67.8223 49.2083 67.4473 48.9219C67.0723 48.6354 66.6165 48.4922 66.0801 48.4922C65.5332 48.4922 65.0723 48.6406 64.6973 48.9375C64.3223 49.2292 64.0384 49.6354 63.8457 50.1562C63.653 50.6771 63.5566 51.2786 63.5566 51.9609C63.5566 52.6536 63.653 53.2526 63.8457 53.7578C64.0436 54.2578 64.3275 54.6458 64.6973 54.9219C65.0723 55.1927 65.5332 55.3281 66.0801 55.3281ZM79.9941 58.2344C78.7598 58.2344 77.6973 57.9844 76.8066 57.4844C75.9212 56.9792 75.2389 56.2656 74.7598 55.3437C74.2806 54.4167 74.041 53.3203 74.041 52.0547C74.041 50.8203 74.2806 49.737 74.7598 48.8047C75.2389 47.8724 75.9134 47.1458 76.7832 46.625C77.6582 46.1042 78.6842 45.8438 79.8613 45.8438C80.653 45.8438 81.39 45.9714 82.0723 46.2266C82.7598 46.4766 83.3587 46.8542 83.8691 47.3594C84.3848 47.8646 84.7858 48.5 85.0723 49.2656C85.3587 50.026 85.502 50.9167 85.502 51.9375V52.8516H75.3691V50.7891H82.3691C82.3691 50.3099 82.265 49.8854 82.0566 49.5156C81.8483 49.1458 81.5592 48.8568 81.1895 48.6484C80.8249 48.4349 80.4004 48.3281 79.916 48.3281C79.4108 48.3281 78.9629 48.4453 78.5723 48.6797C78.1868 48.9089 77.8848 49.2187 77.666 49.6094C77.4473 49.9948 77.3353 50.4245 77.3301 50.8984V52.8594C77.3301 53.4531 77.4395 53.9661 77.6582 54.3984C77.8822 54.8307 78.1973 55.1641 78.6035 55.3984C79.0098 55.6328 79.4915 55.75 80.0488 55.75C80.4186 55.75 80.7572 55.6979 81.0645 55.5938C81.3717 55.4896 81.6348 55.3333 81.8535 55.125C82.0723 54.9167 82.2389 54.6615 82.3535 54.3594L85.4316 54.5625C85.2754 55.3021 84.9551 55.9479 84.4707 56.5C83.9915 57.0469 83.3717 57.474 82.6113 57.7813C81.8561 58.0833 80.9837 58.2344 79.9941 58.2344ZM87.6738 58V46H90.8457V48.1172H90.9863C91.2363 47.4141 91.653 46.8594 92.2363 46.4531C92.8197 46.0469 93.5176 45.8438 94.3301 45.8438C95.153 45.8438 95.8535 46.0495 96.4316 46.4609C97.0098 46.8672 97.3952 47.4193 97.5879 48.1172H97.7129C97.9577 47.4297 98.4004 46.8802 99.041 46.4687C99.6868 46.0521 100.45 45.8438 101.33 45.8438C102.45 45.8438 103.359 46.2005 104.057 46.9141C104.76 47.6224 105.111 48.6276 105.111 49.9297V58H101.791V50.5859C101.791 49.9193 101.614 49.4193 101.26 49.0859C100.906 48.7526 100.463 48.5859 99.9316 48.5859C99.3275 48.5859 98.8561 48.7786 98.5176 49.1641C98.179 49.5443 98.0098 50.0469 98.0098 50.6719V58H94.7832V50.5156C94.7832 49.9271 94.6139 49.4583 94.2754 49.1094C93.9421 48.7604 93.502 48.5859 92.9551 48.5859C92.5853 48.5859 92.252 48.6797 91.9551 48.8672C91.6634 49.0495 91.4316 49.3073 91.2598 49.6406C91.0879 49.9687 91.002 50.3542 91.002 50.7969V58H87.6738ZM113.209 58.2344C111.975 58.2344 110.912 57.9844 110.021 57.4844C109.136 56.9792 108.454 56.2656 107.975 55.3437C107.495 54.4167 107.256 53.3203 107.256 52.0547C107.256 50.8203 107.495 49.737 107.975 48.8047C108.454 47.8724 109.128 47.1458 109.998 46.625C110.873 46.1042 111.899 45.8438 113.076 45.8438C113.868 45.8438 114.605 45.9714 115.287 46.2266C115.975 46.4766 116.574 46.8542 117.084 47.3594C117.6 47.8646 118.001 48.5 118.287 49.2656C118.574 50.026 118.717 50.9167 118.717 51.9375V52.8516H108.584V50.7891H115.584C115.584 50.3099 115.48 49.8854 115.271 49.5156C115.063 49.1458 114.774 48.8568 114.404 48.6484C114.04 48.4349 113.615 48.3281 113.131 48.3281C112.626 48.3281 112.178 48.4453 111.787 48.6797C111.402 48.9089 111.1 49.2187 110.881 49.6094C110.662 49.9948 110.55 50.4245 110.545 50.8984V52.8594C110.545 53.4531 110.654 53.9661 110.873 54.3984C111.097 54.8307 111.412 55.1641 111.818 55.3984C112.225 55.6328 112.706 55.75 113.264 55.75C113.633 55.75 113.972 55.6979 114.279 55.5938C114.587 55.4896 114.85 55.3333 115.068 55.125C115.287 54.9167 115.454 54.6615 115.568 54.3594L118.646 54.5625C118.49 55.3021 118.17 55.9479 117.686 56.5C117.206 57.0469 116.587 57.474 115.826 57.7813C115.071 58.0833 114.199 58.2344 113.209 58.2344ZM127.271 46V48.5H120.045V46H127.271ZM121.686 43.125H125.014V54.3125C125.014 54.6198 125.061 54.8594 125.154 55.0312C125.248 55.1979 125.378 55.3151 125.545 55.3828C125.717 55.4505 125.915 55.4844 126.139 55.4844C126.295 55.4844 126.451 55.4714 126.607 55.4453C126.764 55.4141 126.883 55.3906 126.967 55.375L127.49 57.8516C127.324 57.9036 127.089 57.9635 126.787 58.0313C126.485 58.1042 126.118 58.1484 125.686 58.1641C124.883 58.1953 124.18 58.0885 123.576 57.8437C122.977 57.599 122.511 57.2187 122.178 56.7031C121.844 56.1875 121.68 55.5365 121.686 54.75V43.125Z" fill="#2B2024"/>
</svg>
