<svg width="310" height="234" viewBox="0 0 310 234" fill="none" xmlns="http://www.w3.org/2000/svg">
<mask id="mask0_0_1" style="mask-type:alpha" maskUnits="userSpaceOnUse" x="-26" y="-5" width="332" height="231">
<rect x="-26" y="-5" width="332" height="231" rx="20" fill="#F2F2F2"/>
</mask>
<g mask="url(#mask0_0_1)">
<path d="M122.97 117.175C134.625 117.175 144.074 107.727 144.074 96.0711C144.074 84.4155 134.625 74.9668 122.97 74.9668C111.314 74.9668 101.865 84.4155 101.865 96.0711C101.865 107.727 111.314 117.175 122.97 117.175Z" fill="#F50057"/>
<path d="M114.633 87.8012C114.341 89.3521 113.861 90.8629 113.205 92.3013C109.448 100.15 120.148 97.5918 123.971 97.5918C128.152 97.5918 132.152 99.7627 131.541 90.1167C131.28 85.9963 128.152 82.6416 123.971 82.6416C120.4 82.6416 115.38 84.209 114.633 87.8012Z" fill="#2F2E41"/>
<path d="M122.97 97.9903C126.148 97.9903 128.725 95.1986 128.725 91.7549C128.725 88.3112 126.148 85.5195 122.97 85.5195C119.791 85.5195 117.214 88.3112 117.214 91.7549C117.214 95.1986 119.791 97.9903 122.97 97.9903Z" fill="#FFB6B6"/>
<path d="M118.742 85.5417C119.843 84.915 121.104 84.576 122.393 84.5602C123.682 84.5443 124.953 84.8521 126.071 85.4515C127.189 86.0509 128.114 86.9198 128.75 87.9674C129.385 89.0149 129.708 90.2027 129.683 91.4064C126.482 92.1569 123.119 92.7313 119.705 91.5859L118.899 89.7434L118.423 91.5873C117.384 91.9841 116.342 92.3199 115.299 91.5835C115.257 90.3831 115.552 89.1934 116.156 88.1331C116.761 87.0729 117.652 86.1793 118.742 85.5417V85.5417Z" fill="#2F2E41"/>
<path d="M139.277 110.334C135.714 114.304 130.698 116.742 125.314 117.123C119.93 117.504 114.608 115.797 110.499 112.37L112.263 107.55C112.662 106.694 113.291 105.961 114.083 105.428C114.875 104.896 115.801 104.584 116.76 104.527L117.882 104.46L120.559 102.2C120.559 102.2 127.77 101.948 127.663 101.827L132.032 104.399L132.028 104.382L133.745 104.485C134.704 104.541 135.63 104.853 136.422 105.385C137.214 105.918 137.844 106.652 138.242 107.508L139.277 110.334Z" fill="#3F3D56"/>
<path d="M91.5985 32.2575C91.5874 38.5567 89.7115 44.7111 86.2081 49.9425C82.7046 55.1739 77.731 59.2474 71.9162 61.6476C66.1014 64.0479 59.7065 64.6673 53.5403 63.4274C47.374 62.1876 41.7133 59.1441 37.274 54.682C32.8347 50.2199 29.8161 44.5395 28.6001 38.3591C27.384 32.1788 28.0251 25.7761 30.4422 19.9606C32.8593 14.1452 36.9439 9.1782 42.1795 5.68783C47.415 2.19746 53.5664 0.340444 59.8557 0.351613C64.0347 0.348171 68.1731 1.17191 72.0333 2.77551C75.8934 4.3791 79.3991 6.73093 82.3488 9.69584C85.2986 12.6607 87.6342 16.1803 89.2216 20.0521C90.809 23.924 91.6168 28.0719 91.5985 32.2575V32.2575Z" fill="#F2F2F2"/>
<path d="M60.0261 210.325C77.5883 210.325 91.8254 196.065 91.8254 178.475C91.8254 160.885 77.5883 146.626 60.0261 146.626C42.4638 146.626 28.2268 160.885 28.2268 178.475C28.2268 196.065 42.4638 210.325 60.0261 210.325Z" fill="#F2F2F2"/>
<path d="M47.0477 166.018C46.6113 168.367 45.8956 170.655 44.916 172.833C39.3066 184.718 55.2812 180.844 60.99 180.844C67.2317 180.844 73.2037 184.131 72.2916 169.525C71.902 163.285 67.2317 158.205 60.99 158.205C55.6585 158.205 48.1626 160.579 47.0477 166.018Z" fill="#CCCCCC"/>
<path d="M60.0549 180.841C65.1271 180.841 69.2388 176.723 69.2388 171.643C69.2388 166.563 65.1271 162.444 60.0549 162.444C54.9828 162.444 50.8711 166.563 50.8711 171.643C50.8711 176.723 54.9828 180.841 60.0549 180.841Z" fill="#CCCCCC"/>
<path d="M53.8174 162.266C55.4267 161.283 57.27 160.751 59.1546 160.727C61.0392 160.702 62.8959 161.184 64.5305 162.124C66.1651 163.064 67.5176 164.426 68.4465 166.069C69.3755 167.711 69.8468 169.574 69.8112 171.461C65.1316 172.638 60.2153 173.538 55.2248 171.743L54.0462 168.854L53.3514 171.745C51.8316 172.367 50.3079 172.893 48.7842 171.739C48.722 169.857 49.1541 167.991 50.0373 166.329C50.9206 164.666 52.224 163.265 53.8174 162.266Z" fill="#CCCCCC"/>
<path d="M84.7502 199.653C79.2411 205.932 71.4879 209.788 63.1642 210.391C54.8406 210.993 46.6142 208.293 40.261 202.874L42.9885 195.251C43.6048 193.897 44.5775 192.737 45.8022 191.894C47.0269 191.052 48.4574 190.56 49.9404 190.47L51.6755 190.363L55.813 186.789C55.813 186.789 66.9613 186.39 66.7959 186.199L73.5487 190.267L73.5431 190.239L76.1977 190.402C77.6808 190.492 79.1115 190.984 80.3362 191.827C81.561 192.669 82.5336 193.829 83.1496 195.184L84.7502 199.653Z" fill="#CCCCCC"/>
<path d="M196.836 181.217C225.27 181.217 248.321 158.13 248.321 129.65C248.321 101.17 225.27 78.083 196.836 78.083C168.401 78.083 145.35 101.17 145.35 129.65C145.35 158.13 168.401 181.217 196.836 181.217Z" fill="#F2F2F2"/>
<path d="M199.234 135.457C208.506 135.457 216.022 127.929 216.022 118.642C216.022 109.356 208.506 101.827 199.234 101.827C189.962 101.827 182.445 109.356 182.445 118.642C182.445 127.929 189.962 135.457 199.234 135.457Z" fill="#CCCCCC"/>
<path d="M213.715 106.987C213.715 106.987 218.086 98.6175 208.469 97.8566C208.469 97.8566 200.271 90.408 191.915 96.4949C191.915 96.4949 187.357 96.4949 184.864 101.661C184.864 101.661 181.28 100.299 180.492 103.944C180.492 103.944 177.869 111.552 180.492 118.4C183.115 125.248 183.986 126.009 183.986 126.009C183.986 126.009 182.146 117.511 192.638 116.75C203.129 115.989 212.755 109.406 213.629 117.776C214.503 126.145 215.465 122.364 215.465 122.364C215.465 122.364 223.769 110.411 213.715 106.987Z" fill="#CCCCCC"/>
<path d="M235.269 163.938C226.349 174.104 213.796 180.348 200.319 181.324C186.843 182.299 173.523 177.928 163.237 169.152L167.653 156.811C168.651 154.619 170.226 152.74 172.209 151.376C174.192 150.013 176.508 149.215 178.909 149.069L181.718 148.897L188.417 143.11C188.417 143.11 206.467 142.464 206.199 142.155L217.133 148.742L217.124 148.697L221.422 148.96C223.823 149.105 226.139 149.903 228.122 151.266C230.105 152.63 231.68 154.509 232.677 156.702L235.269 163.938Z" fill="#CCCCCC"/>
<path d="M179.519 123.623V123.642C179.491 123.572 179.471 123.499 179.463 123.424L179.519 123.623Z" fill="#F2F2F2"/>
<path d="M179.52 123.642C179.567 123.841 179.624 124.039 179.68 124.229C179.603 124.25 179.524 124.266 179.444 124.276L179.52 123.642Z" fill="#F2F2F2"/>
<path d="M248.319 129.543C248.317 142.867 243.166 155.674 233.944 165.278C224.722 174.881 212.146 180.537 198.853 181.058V78.0273C212.147 78.546 224.724 84.2005 233.947 93.8049C243.169 103.409 248.32 116.217 248.319 129.543Z" fill="#F50057"/>
<path d="M179.463 123.424L179.519 123.623V123.642C179.491 123.572 179.471 123.499 179.463 123.424V123.424Z" fill="#FFB6B6"/>
<path d="M211.848 119.474C211.851 120.835 211.683 122.19 211.347 123.509V123.519C210.591 126.493 209.021 129.197 206.813 131.326C204.606 133.455 201.849 134.924 198.853 135.569V103.369C202.531 104.161 205.827 106.191 208.191 109.122C210.556 112.052 211.847 115.706 211.848 119.474Z" fill="#A0616A"/>
<path d="M235.456 164.046C230.861 169.296 225.244 173.553 218.951 176.556C212.658 179.56 205.819 181.247 198.853 181.514V142.797C202.872 142.608 206.514 142.409 206.391 142.267L217.325 148.851L217.315 148.803L221.609 149.068C224.011 149.211 226.328 150.007 228.311 151.371C230.294 152.735 231.869 154.615 232.865 156.808L235.352 163.752L235.456 164.046Z" fill="#3F3D56"/>
<path d="M179.52 123.642C179.567 123.841 179.624 124.039 179.68 124.229C179.603 124.25 179.524 124.266 179.444 124.276L179.52 123.642Z" fill="#2F2E41"/>
<path d="M211.394 124.305C211.375 124.04 211.366 123.784 211.347 123.519V123.509C211.292 121.688 211.026 119.879 210.552 118.119C209.938 116.13 208.784 114.226 207.034 113.165C204.414 111.573 200.735 112.435 198.853 114.822V94.957C200.634 95.4232 202.329 96.1716 203.875 97.1738C208.204 99.9857 211.359 104.284 212.747 109.262C214.113 114.276 213.633 119.616 211.394 124.305Z" fill="#2F2E41"/>
<path d="M262.734 113.556L244.825 109.156L220.946 88.8233L224.923 82.501L246.553 96.3026C246.553 96.3026 260.864 99.9418 265.759 104.138L262.734 113.556Z" fill="#FFB6B6"/>
<path d="M221.778 89.2069C224.187 89.2069 226.141 87.2504 226.141 84.8368C226.141 82.4233 224.187 80.4668 221.778 80.4668C219.368 80.4668 217.415 82.4233 217.415 84.8368C217.415 87.2504 219.368 89.2069 221.778 89.2069Z" fill="#FFB6B6"/>
<path d="M263.574 101.789L246.966 95.0059L238.983 104.5L244.914 109.393L261.08 113.601L261.091 113.644C262.226 117.835 269.527 120.681 275.452 122.33C277.406 122.872 279.493 122.651 281.29 121.711C283.088 120.771 284.462 119.183 285.135 117.267V117.267C285.622 115.851 285.703 114.326 285.37 112.865C285.037 111.405 284.303 110.067 283.251 109.002L277.871 103.599L263.574 101.789Z" fill="#E6E6E6"/>
<path d="M285.988 178.411C285.988 178.411 286.715 187.151 284.897 195.527C283.757 200.777 283.332 212.006 283.173 219.654C283.079 224.207 281.034 224.933 281.034 224.933L282.391 235.404L279.079 273.459L267.081 272.367L263.808 195.527L242.242 212.606L242.841 214.604C243.131 215.575 240.986 215.45 240.127 215.988L238.012 220.905C238.053 221.717 237.845 222.523 237.415 223.214C236.985 223.904 236.355 224.447 235.608 224.767L224.369 258.253L215.606 252.987L218.527 222.562L222.617 208.52L239.084 188.243L239.447 182.416L241.083 182.484L241.917 180.049L243.447 175.861L285.988 178.411Z" fill="#2F2E41"/>
<path d="M286.617 180.246L286.681 180.155C290.142 175.302 284.937 163.64 284.152 161.95C285.084 161.647 285.883 161.029 286.412 160.203C286.941 159.376 287.167 158.392 287.052 157.417L286.714 154.536L286.361 151.709L288.889 149.178L288.896 149.115L290.35 136.369L292.465 127.903C293.261 124.703 293.194 121.348 292.268 118.182C291.342 115.017 289.592 112.155 287.198 109.891L282.31 105.275L276.369 96.4717H266.79L263.505 102.686C260.321 103.423 257.495 105.256 255.521 107.865C253.547 110.474 252.549 113.694 252.702 116.964L253.446 133.261L250.532 153.553L250.53 157.225L249.012 158.915C248.466 159.524 248.068 160.252 247.852 161.041C247.636 161.831 247.607 162.66 247.767 163.463L247.967 164.462C247.195 164.794 246.514 165.305 245.981 165.954C245.448 166.603 245.078 167.371 244.902 168.193L244.369 170.685C243.913 171.288 240.902 175.308 240.902 176.407C240.902 176.572 241.024 176.732 241.285 176.909C243.336 178.3 254.676 181.137 259.695 179.125C265.041 176.984 286.292 180.196 286.506 180.229L286.617 180.246Z" fill="#E6E6E6"/>
<path d="M270.341 93.6298C277.348 93.6298 283.028 87.9407 283.028 80.9228C283.028 73.9049 277.348 68.2158 270.341 68.2158C263.334 68.2158 257.654 73.9049 257.654 80.9228C257.654 87.9407 263.334 93.6298 270.341 93.6298Z" fill="#FFB6B6"/>
<path d="M266.204 136.741L257.391 152.965L231.674 170.908L226.584 165.446L245.422 148.014C245.422 148.014 252.584 135.082 257.882 131.411L266.204 136.741Z" fill="#FFB6B6"/>
<path d="M228.039 173.459C230.449 173.459 232.402 171.502 232.402 169.089C232.402 166.675 230.449 164.719 228.039 164.719C225.629 164.719 223.676 166.675 223.676 169.089C223.676 171.502 225.629 173.459 228.039 173.459Z" fill="#FFB6B6"/>
<path d="M265.411 138.905L270.954 125.582L268.949 118.22C268.55 116.776 267.756 115.473 266.657 114.457C265.557 113.441 264.196 112.754 262.726 112.473V112.473C260.732 112.104 258.673 112.509 256.965 113.603C255.257 114.698 254.028 116.401 253.526 118.368C252.008 124.337 250.842 132.096 253.908 135.167L253.939 135.198L244.816 147.115L258.252 154.721L265.411 138.905Z" fill="#E6E6E6"/>
<path d="M282.876 72.166C281.844 70.7735 280.362 69.7834 279.228 68.4733C278.656 67.7135 278.043 66.9867 277.389 66.2965C276.019 65.1558 274.29 64.5371 272.508 64.55C270.575 64.5002 268.658 64.907 266.911 65.7373C265.164 66.5676 263.637 67.7981 262.453 69.3293C261.531 68.788 260.609 68.2466 259.687 67.7052C259.323 68.6654 258.959 69.6255 258.595 70.5857C258.296 70.3254 257.915 70.1796 257.519 70.1741C257.123 70.1685 256.737 70.3035 256.431 70.5552C256.125 70.807 255.918 71.1591 255.846 71.5492C255.775 71.9393 255.843 72.3423 256.04 72.6866C255.821 72.0076 254.815 71.8635 254.261 72.3121C254.004 72.5609 253.814 72.8701 253.707 73.2115C253.6 73.5529 253.58 73.9156 253.649 74.2667C253.762 75.0433 254.105 75.7682 254.633 76.3482C255.161 76.9281 255.851 77.3366 256.612 77.5212C257.815 77.7896 259.215 77.5076 260.178 78.2782C260.95 78.8961 261.183 80.021 261.971 80.6184C262.942 81.3545 264.314 81.0141 265.521 81.1768C266.573 81.3575 267.519 81.9267 268.172 82.772C268.826 83.6173 269.139 84.6773 269.05 85.7426C269.197 85.0612 269.478 84.4158 269.875 83.8433C270.079 83.5604 270.36 83.3427 270.684 83.2166C271.009 83.0905 271.363 83.0613 271.704 83.1327C272.803 83.4627 272.983 84.9633 272.716 86.0811C272.01 89.0457 269.333 93.8377 269.333 93.8377C272.809 95.2112 276.951 93.9124 279.633 91.3061C282.316 88.6997 283.713 85.0091 284.321 81.3159C284.837 78.1841 284.764 74.7152 282.876 72.166Z" fill="#2F2E41"/>
</g>
<path d="M0.517045 77V59.5455H7.40341C8.72727 59.5455 9.85511 59.7983 10.7869 60.304C11.7188 60.804 12.429 61.5 12.9176 62.392C13.4119 63.2784 13.6591 64.3011 13.6591 65.4602C13.6591 66.6193 13.4091 67.642 12.9091 68.5284C12.4091 69.4148 11.6847 70.1051 10.7358 70.5994C9.79261 71.0937 8.65057 71.3409 7.30966 71.3409H2.92045V68.3835H6.71307C7.4233 68.3835 8.00852 68.2614 8.46875 68.017C8.93466 67.767 9.28125 67.4233 9.50852 66.9858C9.74148 66.5426 9.85795 66.0341 9.85795 65.4602C9.85795 64.8807 9.74148 64.375 9.50852 63.9432C9.28125 63.5057 8.93466 63.1676 8.46875 62.929C8.00284 62.6847 7.41193 62.5625 6.69602 62.5625H4.20739V77H0.517045ZM15.9879 77V63.9091H19.5078V66.1932H19.6442C19.8828 65.3807 20.2834 64.767 20.8459 64.3523C21.4084 63.9318 22.0561 63.7216 22.7891 63.7216C22.9709 63.7216 23.1669 63.733 23.3771 63.7557C23.5874 63.7784 23.772 63.8097 23.9311 63.8494V67.071C23.7607 67.0199 23.5249 66.9744 23.2237 66.9347C22.9226 66.8949 22.647 66.875 22.397 66.875C21.8629 66.875 21.3857 66.9915 20.9652 67.2244C20.5504 67.4517 20.2209 67.7699 19.9766 68.179C19.7379 68.5881 19.6186 69.0597 19.6186 69.5938V77H15.9879ZM31.1136 77.2557C29.7898 77.2557 28.6449 76.9744 27.679 76.4119C26.7188 75.8437 25.9773 75.054 25.4545 74.0426C24.9318 73.0256 24.6705 71.8466 24.6705 70.5057C24.6705 69.1534 24.9318 67.9716 25.4545 66.9602C25.9773 65.9432 26.7188 65.1534 27.679 64.5909C28.6449 64.0227 29.7898 63.7386 31.1136 63.7386C32.4375 63.7386 33.5795 64.0227 34.5398 64.5909C35.5057 65.1534 36.25 65.9432 36.7727 66.9602C37.2955 67.9716 37.5568 69.1534 37.5568 70.5057C37.5568 71.8466 37.2955 73.0256 36.7727 74.0426C36.25 75.054 35.5057 75.8437 34.5398 76.4119C33.5795 76.9744 32.4375 77.2557 31.1136 77.2557ZM31.1307 74.4432C31.733 74.4432 32.2358 74.2727 32.6392 73.9318C33.0426 73.5852 33.3466 73.1136 33.5511 72.517C33.7614 71.9205 33.8665 71.2415 33.8665 70.4801C33.8665 69.7188 33.7614 69.0398 33.5511 68.4432C33.3466 67.8466 33.0426 67.375 32.6392 67.0284C32.2358 66.6818 31.733 66.5085 31.1307 66.5085C30.5227 66.5085 30.0114 66.6818 29.5966 67.0284C29.1875 67.375 28.8778 67.8466 28.6676 68.4432C28.4631 69.0398 28.3608 69.7188 28.3608 70.4801C28.3608 71.2415 28.4631 71.9205 28.6676 72.517C28.8778 73.1136 29.1875 73.5852 29.5966 73.9318C30.0114 74.2727 30.5227 74.4432 31.1307 74.4432ZM46.9574 63.9091V66.6364H38.8778V63.9091H46.9574ZM40.7273 77V62.9631C40.7273 62.0142 40.9119 61.2273 41.2812 60.6023C41.6562 59.9773 42.1676 59.5085 42.8153 59.196C43.4631 58.8835 44.1989 58.7273 45.0227 58.7273C45.5795 58.7273 46.0881 58.7699 46.5483 58.8551C47.0142 58.9403 47.3608 59.017 47.5881 59.0852L46.9403 61.8125C46.7983 61.767 46.6222 61.7244 46.4119 61.6847C46.2074 61.6449 45.9972 61.625 45.7812 61.625C45.2472 61.625 44.875 61.75 44.6648 62C44.4545 62.2443 44.3494 62.5881 44.3494 63.0312V77H40.7273ZM49.1754 77V63.9091H52.8061V77H49.1754ZM50.9993 62.2216C50.4595 62.2216 49.9964 62.0426 49.6101 61.6847C49.2294 61.321 49.0391 60.8864 49.0391 60.3807C49.0391 59.8807 49.2294 59.4517 49.6101 59.0938C49.9964 58.7301 50.4595 58.5483 50.9993 58.5483C51.5391 58.5483 51.9993 58.7301 52.38 59.0938C52.7663 59.4517 52.9595 59.8807 52.9595 60.3807C52.9595 60.8864 52.7663 61.321 52.38 61.6847C51.9993 62.0426 51.5391 62.2216 50.9993 62.2216ZM59.3452 59.5455V77H55.7145V59.5455H59.3452ZM68.2195 77.2557C66.8729 77.2557 65.7138 76.983 64.7422 76.4375C63.7763 75.8864 63.032 75.108 62.5092 74.1023C61.9865 73.0909 61.7251 71.8949 61.7251 70.5142C61.7251 69.1676 61.9865 67.9858 62.5092 66.9688C63.032 65.9517 63.7678 65.1591 64.7166 64.5909C65.6712 64.0227 66.7905 63.7386 68.0746 63.7386C68.9382 63.7386 69.7422 63.8778 70.4865 64.1562C71.2365 64.429 71.8899 64.8409 72.4467 65.392C73.0092 65.9432 73.4467 66.6364 73.7592 67.4716C74.0717 68.3011 74.228 69.2727 74.228 70.3864V71.3835H63.174V69.1335H70.8104C70.8104 68.6108 70.6967 68.1477 70.4695 67.7443C70.2422 67.3409 69.9268 67.0256 69.5234 66.7983C69.1257 66.5653 68.6626 66.4489 68.1342 66.4489C67.5831 66.4489 67.0945 66.5767 66.6683 66.8324C66.2479 67.0824 65.9183 67.4205 65.6797 67.8466C65.4411 68.267 65.3189 68.7358 65.3132 69.2528V71.392C65.3132 72.0398 65.4325 72.5994 65.6712 73.071C65.9155 73.5426 66.2592 73.9062 66.7024 74.1619C67.1456 74.4176 67.6712 74.5455 68.2791 74.5455C68.6825 74.5455 69.0518 74.4886 69.3871 74.375C69.7223 74.2614 70.0092 74.0909 70.2479 73.8636C70.4865 73.6364 70.6683 73.358 70.7933 73.0284L74.1513 73.25C73.9808 74.0568 73.6314 74.7614 73.103 75.3636C72.5803 75.9602 71.9041 76.4261 71.0746 76.7614C70.2507 77.0909 69.299 77.2557 68.2195 77.2557ZM0.517045 106V88.5455H12.2784V91.5881H4.20739V95.7472H11.6733V98.7898H4.20739V102.957H12.3125V106H0.517045ZM19.968 106.213C18.9737 106.213 18.0732 105.957 17.2663 105.446C16.4652 104.929 15.8288 104.17 15.3572 103.17C14.8913 102.165 14.6584 100.932 14.6584 99.4716C14.6584 97.9716 14.8999 96.7244 15.3828 95.7301C15.8658 94.7301 16.5078 93.983 17.3089 93.4886C18.1158 92.9886 18.9993 92.7386 19.9595 92.7386C20.6925 92.7386 21.3033 92.8636 21.7919 93.1136C22.2862 93.358 22.6839 93.6648 22.9851 94.0341C23.2919 94.3977 23.5249 94.7557 23.6839 95.108H23.7947V88.5455H27.4169V106H23.8374V103.903H23.6839C23.5135 104.267 23.272 104.628 22.9595 104.986C22.6527 105.338 22.2521 105.631 21.7578 105.864C21.2692 106.097 20.6726 106.213 19.968 106.213ZM21.1186 103.324C21.7038 103.324 22.1982 103.165 22.6016 102.847C23.0107 102.523 23.3232 102.071 23.5391 101.491C23.7607 100.912 23.8714 100.233 23.8714 99.4545C23.8714 98.6761 23.7635 98 23.5476 97.4261C23.3317 96.8523 23.0192 96.4091 22.6101 96.0966C22.201 95.7841 21.7038 95.6278 21.1186 95.6278C20.522 95.6278 20.0192 95.7898 19.6101 96.1136C19.201 96.4375 18.8913 96.8864 18.6811 97.4602C18.4709 98.0341 18.3658 98.6989 18.3658 99.4545C18.3658 100.216 18.4709 100.889 18.6811 101.474C18.897 102.054 19.2067 102.509 19.6101 102.838C20.0192 103.162 20.522 103.324 21.1186 103.324ZM30.402 106V92.9091H34.0327V106H30.402ZM32.2259 91.2216C31.6861 91.2216 31.223 91.0426 30.8366 90.6847C30.456 90.321 30.2656 89.8864 30.2656 89.3807C30.2656 88.8807 30.456 88.4517 30.8366 88.0938C31.223 87.7301 31.6861 87.5483 32.2259 87.5483C32.7656 87.5483 33.2259 87.7301 33.6065 88.0938C33.9929 88.4517 34.1861 88.8807 34.1861 89.3807C34.1861 89.8864 33.9929 90.321 33.6065 90.6847C33.2259 91.0426 32.7656 91.2216 32.2259 91.2216ZM43.9041 92.9091V95.6364H36.0206V92.9091H43.9041ZM37.8104 89.7727H41.4411V101.977C41.4411 102.312 41.4922 102.574 41.5945 102.761C41.6967 102.943 41.8388 103.071 42.0206 103.145C42.2081 103.219 42.424 103.256 42.6683 103.256C42.8388 103.256 43.0092 103.241 43.1797 103.213C43.3501 103.179 43.4808 103.153 43.5717 103.136L44.1428 105.838C43.9609 105.895 43.7053 105.96 43.3757 106.034C43.0462 106.114 42.6456 106.162 42.174 106.179C41.299 106.213 40.532 106.097 39.8729 105.83C39.2195 105.562 38.7109 105.148 38.3473 104.585C37.9837 104.023 37.8047 103.312 37.8104 102.455V89.7727Z" fill="#2B2024"/>
</svg>
